<?xml version="1.0" encoding="UTF-8"?>
<!DOCTYPE svg PUBLIC "-//W3C//DTD SVG 1.1//EN"
        "http://www.w3.org/Graphics/SVG/1.1/DTD/svg11.dtd">
<svg
  xmlns="http://www.w3.org/2000/svg"
  xmlns:xlink="http://www.w3.org/1999/xlink"
  version="1.1"
  width="720pt"
  height="540pt"
  viewBox="0 0 720 540"
  >
  <rect
    x="0"
    y="0"
    width="720"
    height="540"
    stroke="none"
    fill="#FFFFFF"
    fill-opacity="1.000000"
    />
  <g
    transform="matrix(1 0 0 -1 0 540)"
    >
    <polyline
      stroke-width="1.000000e+00"
      stroke="#0000FF"
      stroke-opacity="1.000000"
      fill="none"
      points="656.98,477.00 651.38,475.55 645.75,473.61 640.13,475.20 634.52,473.00 628.90,470.38 623.27,469.02 617.67,464.93 612.05,463.70 606.42,463.77 
      600.82,462.43 595.19,461.22 589.57,456.36 583.96,455.09 578.34,453.05 572.71,450.30 567.09,449.53 561.48,447.25 555.86,441.86 550.23,441.40 
      544.63,439.62 539.01,436.26 533.38,428.30 527.78,428.83 522.15,424.30 516.53,422.57 510.92,419.05 505.30,412.99 499.67,409.10 494.07,403.78 
      488.45,397.96 482.82,391.15 477.22,388.11 471.59,382.03 465.97,375.94 460.36,367.11 454.74,360.01 449.11,356.89 443.49,343.90 437.88,338.46 
      432.26,323.40 426.63,317.89 421.03,309.45 415.41,297.30 409.78,289.19 404.18,277.13 398.55,263.22 392.93,256.19 387.32,246.17 381.70,231.45 
      376.07,223.18 370.47,210.66 364.85,195.72 359.22,189.04 353.62,178.29 347.99,169.72 342.37,155.51 336.76,146.96 331.14,138.32 325.51,133.82 
      319.89,123.42 314.28,114.92 308.66,111.34 303.03,102.62 297.43,98.57 291.81,94.92 286.18,89.45 280.58,84.82 274.95,82.03 269.33,77.08 
      263.72,76.27 258.10,74.29 252.47,71.61 246.87,69.83 241.25,67.90 235.62,67.48 230.02,66.36 224.39,65.11 218.77,64.56 213.16,64.45 
      207.54,63.74 201.91,63.55 196.29,63.22 190.68,63.11 185.06,63.06 179.43,63.06 173.83,63.02 168.21,63.00 162.58,63.00 156.98,63.04 
      151.35,63.00 145.73,63.00 140.12,63.00 134.50,63.00 128.87,63.00 123.27,63.00 117.65,63.00 112.02,63.00 106.42,63.00 100.79,63.00 
      "/>
    <g
      clip-path="url(#text-clipping0)"
      >
      <text
        dominant-baseline="no-change"
        fill="#000000"
        fill-opacity="1.000000"
        xml:space="preserve"
        font-size="16"
        transform="matrix(1.000000 0.000000 0.000000 -1.000000 378.908048 25.203406)"
        text-anchor="middle"
        x="0.000000"
        y="6.451584"
><tspan font-family="sans-serif" font-style="normal" font-weight="normal">&#x74;&#x65;&#x6d;&#x70;&#x65;&#x72;&#x61;&#x74;&#x75;&#x72;&#x65;</tspan></text>
    </g>
    <g
      clip-path="url(#text-clipping0)"
      >
      <text
        dominant-baseline="no-change"
        fill="#000000"
        fill-opacity="1.000000"
        xml:space="preserve"
        font-size="16"
        transform="matrix(0.000000 1.000000 1.000000 -0.000000 37.794122 270.008240)"
        text-anchor="middle"
        x="0.000000"
        y="6.451584"
><tspan font-family="sans-serif" font-style="normal" font-weight="normal">&#x45;&#x6e;&#x65;&#x72;&#x67;&#x69;&#x65;</tspan></text>
    </g>
    <polyline
      stroke-width="1.000000e+00"
      stroke="#000000"
      stroke-opacity="1.000000"
      fill="none"
      points="100.79,63.00 657.00,63.00"
      />
    <polyline
      stroke-width="1.000000e+00"
      stroke="#000000"
      stroke-opacity="1.000000"
      fill="none"
      points="117.65,58.27 117.65,63.00"
      />
    <polyline
      stroke-width="1.000000e+00"
      stroke="#000000"
      stroke-opacity="1.000000"
      fill="none"
      points="140.12,58.27 140.12,63.00"
      />
    <polyline
      stroke-width="1.000000e+00"
      stroke="#000000"
      stroke-opacity="1.000000"
      fill="none"
      points="162.58,58.27 162.58,63.00"
      />
    <polyline
      stroke-width="1.000000e+00"
      stroke="#000000"
      stroke-opacity="1.000000"
      fill="none"
      points="185.06,58.27 185.06,63.00"
      />
    <polyline
      stroke-width="1.000000e+00"
      stroke="#000000"
      stroke-opacity="1.000000"
      fill="none"
      points="207.54,53.55 207.54,63.00"
      />
    <polyline
      stroke-width="1.000000e+00"
      stroke="#000000"
      stroke-opacity="1.000000"
      fill="none"
      points="230.02,58.27 230.02,63.00"
      />
    <polyline
      stroke-width="1.000000e+00"
      stroke="#000000"
      stroke-opacity="1.000000"
      fill="none"
      points="252.47,58.27 252.47,63.00"
      />
    <polyline
      stroke-width="1.000000e+00"
      stroke="#000000"
      stroke-opacity="1.000000"
      fill="none"
      points="274.95,58.27 274.95,63.00"
      />
    <polyline
      stroke-width="1.000000e+00"
      stroke="#000000"
      stroke-opacity="1.000000"
      fill="none"
      points="297.43,58.27 297.43,63.00"
      />
    <polyline
      stroke-width="1.000000e+00"
      stroke="#000000"
      stroke-opacity="1.000000"
      fill="none"
      points="319.89,53.55 319.89,63.00"
      />
    <polyline
      stroke-width="1.000000e+00"
      stroke="#000000"
      stroke-opacity="1.000000"
      fill="none"
      points="342.37,58.27 342.37,63.00"
      />
    <polyline
      stroke-width="1.000000e+00"
      stroke="#000000"
      stroke-opacity="1.000000"
      fill="none"
      points="364.85,58.27 364.85,63.00"
      />
    <polyline
      stroke-width="1.000000e+00"
      stroke="#000000"
      stroke-opacity="1.000000"
      fill="none"
      points="387.32,58.27 387.32,63.00"
      />
    <polyline
      stroke-width="1.000000e+00"
      stroke="#000000"
      stroke-opacity="1.000000"
      fill="none"
      points="409.78,58.27 409.78,63.00"
      />
    <polyline
      stroke-width="1.000000e+00"
      stroke="#000000"
      stroke-opacity="1.000000"
      fill="none"
      points="432.26,53.55 432.26,63.00"
      />
    <polyline
      stroke-width="1.000000e+00"
      stroke="#000000"
      stroke-opacity="1.000000"
      fill="none"
      points="454.74,58.27 454.74,63.00"
      />
    <polyline
      stroke-width="1.000000e+00"
      stroke="#000000"
      stroke-opacity="1.000000"
      fill="none"
      points="477.22,58.27 477.22,63.00"
      />
    <polyline
      stroke-width="1.000000e+00"
      stroke="#000000"
      stroke-opacity="1.000000"
      fill="none"
      points="499.67,58.27 499.67,63.00"
      />
    <polyline
      stroke-width="1.000000e+00"
      stroke="#000000"
      stroke-opacity="1.000000"
      fill="none"
      points="522.15,58.27 522.15,63.00"
      />
    <polyline
      stroke-width="1.000000e+00"
      stroke="#000000"
      stroke-opacity="1.000000"
      fill="none"
      points="544.63,53.55 544.63,63.00"
      />
    <polyline
      stroke-width="1.000000e+00"
      stroke="#000000"
      stroke-opacity="1.000000"
      fill="none"
      points="567.09,58.27 567.09,63.00"
      />
    <polyline
      stroke-width="1.000000e+00"
      stroke="#000000"
      stroke-opacity="1.000000"
      fill="none"
      points="589.57,58.27 589.57,63.00"
      />
    <polyline
      stroke-width="1.000000e+00"
      stroke="#000000"
      stroke-opacity="1.000000"
      fill="none"
      points="612.05,58.27 612.05,63.00"
      />
    <polyline
      stroke-width="1.000000e+00"
      stroke="#000000"
      stroke-opacity="1.000000"
      fill="none"
      points="634.52,58.27 634.52,63.00"
      />
    <polyline
      stroke-width="1.000000e+00"
      stroke="#000000"
      stroke-opacity="1.000000"
      fill="none"
      points="656.98,53.55 656.98,63.00"
      />
    <polyline
      stroke-width="1.000000e+00"
      stroke="#000000"
      stroke-opacity="1.000000"
      fill="none"
      points="657.00,63.00 657.00,477.00"
      />
    <polyline
      stroke-width="1.000000e+00"
      stroke="#000000"
      stroke-opacity="1.000000"
      fill="none"
      points="657.00,63.00 666.45,63.00"
      />
    <polyline
      stroke-width="1.000000e+00"
      stroke="#000000"
      stroke-opacity="1.000000"
      fill="none"
      points="657.00,77.70 661.73,77.70"
      />
    <polyline
      stroke-width="1.000000e+00"
      stroke="#000000"
      stroke-opacity="1.000000"
      fill="none"
      points="657.00,92.40 661.73,92.40"
      />
    <polyline
      stroke-width="1.000000e+00"
      stroke="#000000"
      stroke-opacity="1.000000"
      fill="none"
      points="657.00,107.10 661.73,107.10"
      />
    <polyline
      stroke-width="1.000000e+00"
      stroke="#000000"
      stroke-opacity="1.000000"
      fill="none"
      points="657.00,121.80 666.45,121.80"
      />
    <polyline
      stroke-width="1.000000e+00"
      stroke="#000000"
      stroke-opacity="1.000000"
      fill="none"
      points="657.00,136.50 661.73,136.50"
      />
    <polyline
      stroke-width="1.000000e+00"
      stroke="#000000"
      stroke-opacity="1.000000"
      fill="none"
      points="657.00,151.20 661.73,151.20"
      />
    <polyline
      stroke-width="1.000000e+00"
      stroke="#000000"
      stroke-opacity="1.000000"
      fill="none"
      points="657.00,165.90 661.73,165.90"
      />
    <polyline
      stroke-width="1.000000e+00"
      stroke="#000000"
      stroke-opacity="1.000000"
      fill="none"
      points="657.00,180.62 666.45,180.62"
      />
    <polyline
      stroke-width="1.000000e+00"
      stroke="#000000"
      stroke-opacity="1.000000"
      fill="none"
      points="657.00,195.32 661.73,195.32"
      />
    <polyline
      stroke-width="1.000000e+00"
      stroke="#000000"
      stroke-opacity="1.000000"
      fill="none"
      points="657.00,210.02 661.73,210.02"
      />
    <polyline
      stroke-width="1.000000e+00"
      stroke="#000000"
      stroke-opacity="1.000000"
      fill="none"
      points="657.00,224.72 661.73,224.72"
      />
    <polyline
      stroke-width="1.000000e+00"
      stroke="#000000"
      stroke-opacity="1.000000"
      fill="none"
      points="657.00,239.42 666.45,239.42"
      />
    <polyline
      stroke-width="1.000000e+00"
      stroke="#000000"
      stroke-opacity="1.000000"
      fill="none"
      points="657.00,254.12 661.73,254.12"
      />
    <polyline
      stroke-width="1.000000e+00"
      stroke="#000000"
      stroke-opacity="1.000000"
      fill="none"
      points="657.00,268.82 661.73,268.82"
      />
    <polyline
      stroke-width="1.000000e+00"
      stroke="#000000"
      stroke-opacity="1.000000"
      fill="none"
      points="657.00,283.52 661.73,283.52"
      />
    <polyline
      stroke-width="1.000000e+00"
      stroke="#000000"
      stroke-opacity="1.000000"
      fill="none"
      points="657.00,298.22 666.45,298.22"
      />
    <polyline
      stroke-width="1.000000e+00"
      stroke="#000000"
      stroke-opacity="1.000000"
      fill="none"
      points="657.00,312.92 661.73,312.92"
      />
    <polyline
      stroke-width="1.000000e+00"
      stroke="#000000"
      stroke-opacity="1.000000"
      fill="none"
      points="657.00,327.62 661.73,327.62"
      />
    <polyline
      stroke-width="1.000000e+00"
      stroke="#000000"
      stroke-opacity="1.000000"
      fill="none"
      points="657.00,342.32 661.73,342.32"
      />
    <polyline
      stroke-width="1.000000e+00"
      stroke="#000000"
      stroke-opacity="1.000000"
      fill="none"
      points="657.00,357.02 666.45,357.02"
      />
    <polyline
      stroke-width="1.000000e+00"
      stroke="#000000"
      stroke-opacity="1.000000"
      fill="none"
      points="657.00,371.74 661.73,371.74"
      />
    <polyline
      stroke-width="1.000000e+00"
      stroke="#000000"
      stroke-opacity="1.000000"
      fill="none"
      points="657.00,386.44 661.73,386.44"
      />
    <polyline
      stroke-width="1.000000e+00"
      stroke="#000000"
      stroke-opacity="1.000000"
      fill="none"
      points="657.00,401.15 661.73,401.15"
      />
    <polyline
      stroke-width="1.000000e+00"
      stroke="#000000"
      stroke-opacity="1.000000"
      fill="none"
      points="657.00,415.85 666.45,415.85"
      />
    <polyline
      stroke-width="1.000000e+00"
      stroke="#000000"
      stroke-opacity="1.000000"
      fill="none"
      points="657.00,430.55 661.73,430.55"
      />
    <polyline
      stroke-width="1.000000e+00"
      stroke="#000000"
      stroke-opacity="1.000000"
      fill="none"
      points="657.00,445.25 661.73,445.25"
      />
    <polyline
      stroke-width="1.000000e+00"
      stroke="#000000"
      stroke-opacity="1.000000"
      fill="none"
      points="657.00,459.95 661.73,459.95"
      />
    <polyline
      stroke-width="1.000000e+00"
      stroke="#000000"
      stroke-opacity="1.000000"
      fill="none"
      points="657.00,474.65 666.45,474.65"
      />
    <polyline
      stroke-width="1.000000e+00"
      stroke="#000000"
      stroke-opacity="1.000000"
      fill="none"
      points="657.00,477.00 100.79,477.00"
      />
    <polyline
      stroke-width="1.000000e+00"
      stroke="#000000"
      stroke-opacity="1.000000"
      fill="none"
      points="656.98,477.00 656.98,486.45"
      />
    <polyline
      stroke-width="1.000000e+00"
      stroke="#000000"
      stroke-opacity="1.000000"
      fill="none"
      points="634.52,477.00 634.52,481.72"
      />
    <polyline
      stroke-width="1.000000e+00"
      stroke="#000000"
      stroke-opacity="1.000000"
      fill="none"
      points="612.05,477.00 612.05,481.72"
      />
    <polyline
      stroke-width="1.000000e+00"
      stroke="#000000"
      stroke-opacity="1.000000"
      fill="none"
      points="589.57,477.00 589.57,481.72"
      />
    <polyline
      stroke-width="1.000000e+00"
      stroke="#000000"
      stroke-opacity="1.000000"
      fill="none"
      points="567.09,477.00 567.09,481.72"
      />
    <polyline
      stroke-width="1.000000e+00"
      stroke="#000000"
      stroke-opacity="1.000000"
      fill="none"
      points="544.63,477.00 544.63,486.45"
      />
    <polyline
      stroke-width="1.000000e+00"
      stroke="#000000"
      stroke-opacity="1.000000"
      fill="none"
      points="522.15,477.00 522.15,481.72"
      />
    <polyline
      stroke-width="1.000000e+00"
      stroke="#000000"
      stroke-opacity="1.000000"
      fill="none"
      points="499.67,477.00 499.67,481.72"
      />
    <polyline
      stroke-width="1.000000e+00"
      stroke="#000000"
      stroke-opacity="1.000000"
      fill="none"
      points="477.22,477.00 477.22,481.72"
      />
    <polyline
      stroke-width="1.000000e+00"
      stroke="#000000"
      stroke-opacity="1.000000"
      fill="none"
      points="454.74,477.00 454.74,481.72"
      />
    <polyline
      stroke-width="1.000000e+00"
      stroke="#000000"
      stroke-opacity="1.000000"
      fill="none"
      points="432.26,477.00 432.26,486.45"
      />
    <polyline
      stroke-width="1.000000e+00"
      stroke="#000000"
      stroke-opacity="1.000000"
      fill="none"
      points="409.78,477.00 409.78,481.72"
      />
    <polyline
      stroke-width="1.000000e+00"
      stroke="#000000"
      stroke-opacity="1.000000"
      fill="none"
      points="387.32,477.00 387.32,481.72"
      />
    <polyline
      stroke-width="1.000000e+00"
      stroke="#000000"
      stroke-opacity="1.000000"
      fill="none"
      points="364.85,477.00 364.85,481.72"
      />
    <polyline
      stroke-width="1.000000e+00"
      stroke="#000000"
      stroke-opacity="1.000000"
      fill="none"
      points="342.37,477.00 342.37,481.72"
      />
    <polyline
      stroke-width="1.000000e+00"
      stroke="#000000"
      stroke-opacity="1.000000"
      fill="none"
      points="319.89,477.00 319.89,486.45"
      />
    <polyline
      stroke-width="1.000000e+00"
      stroke="#000000"
      stroke-opacity="1.000000"
      fill="none"
      points="297.43,477.00 297.43,481.72"
      />
    <polyline
      stroke-width="1.000000e+00"
      stroke="#000000"
      stroke-opacity="1.000000"
      fill="none"
      points="274.95,477.00 274.95,481.72"
      />
    <polyline
      stroke-width="1.000000e+00"
      stroke="#000000"
      stroke-opacity="1.000000"
      fill="none"
      points="252.47,477.00 252.47,481.72"
      />
    <polyline
      stroke-width="1.000000e+00"
      stroke="#000000"
      stroke-opacity="1.000000"
      fill="none"
      points="230.02,477.00 230.02,481.72"
      />
    <polyline
      stroke-width="1.000000e+00"
      stroke="#000000"
      stroke-opacity="1.000000"
      fill="none"
      points="207.54,477.00 207.54,486.45"
      />
    <polyline
      stroke-width="1.000000e+00"
      stroke="#000000"
      stroke-opacity="1.000000"
      fill="none"
      points="185.06,477.00 185.06,481.72"
      />
    <polyline
      stroke-width="1.000000e+00"
      stroke="#000000"
      stroke-opacity="1.000000"
      fill="none"
      points="162.58,477.00 162.58,481.72"
      />
    <polyline
      stroke-width="1.000000e+00"
      stroke="#000000"
      stroke-opacity="1.000000"
      fill="none"
      points="140.12,477.00 140.12,481.72"
      />
    <polyline
      stroke-width="1.000000e+00"
      stroke="#000000"
      stroke-opacity="1.000000"
      fill="none"
      points="117.65,477.00 117.65,481.72"
      />
    <polyline
      stroke-width="1.000000e+00"
      stroke="#000000"
      stroke-opacity="1.000000"
      fill="none"
      points="100.79,477.00 100.79,63.00"
      />
    <polyline
      stroke-width="1.000000e+00"
      stroke="#000000"
      stroke-opacity="1.000000"
      fill="none"
      points="91.34,474.65 100.79,474.65"
      />
    <polyline
      stroke-width="1.000000e+00"
      stroke="#000000"
      stroke-opacity="1.000000"
      fill="none"
      points="96.07,459.95 100.79,459.95"
      />
    <polyline
      stroke-width="1.000000e+00"
      stroke="#000000"
      stroke-opacity="1.000000"
      fill="none"
      points="96.07,445.25 100.79,445.25"
      />
    <polyline
      stroke-width="1.000000e+00"
      stroke="#000000"
      stroke-opacity="1.000000"
      fill="none"
      points="96.07,430.55 100.79,430.55"
      />
    <polyline
      stroke-width="1.000000e+00"
      stroke="#000000"
      stroke-opacity="1.000000"
      fill="none"
      points="91.34,415.85 100.79,415.85"
      />
    <polyline
      stroke-width="1.000000e+00"
      stroke="#000000"
      stroke-opacity="1.000000"
      fill="none"
      points="96.07,401.15 100.79,401.15"
      />
    <polyline
      stroke-width="1.000000e+00"
      stroke="#000000"
      stroke-opacity="1.000000"
      fill="none"
      points="96.07,386.44 100.79,386.44"
      />
    <polyline
      stroke-width="1.000000e+00"
      stroke="#000000"
      stroke-opacity="1.000000"
      fill="none"
      points="96.07,371.74 100.79,371.74"
      />
    <polyline
      stroke-width="1.000000e+00"
      stroke="#000000"
      stroke-opacity="1.000000"
      fill="none"
      points="91.34,357.02 100.79,357.02"
      />
    <polyline
      stroke-width="1.000000e+00"
      stroke="#000000"
      stroke-opacity="1.000000"
      fill="none"
      points="96.07,342.32 100.79,342.32"
      />
    <polyline
      stroke-width="1.000000e+00"
      stroke="#000000"
      stroke-opacity="1.000000"
      fill="none"
      points="96.07,327.62 100.79,327.62"
      />
    <polyline
      stroke-width="1.000000e+00"
      stroke="#000000"
      stroke-opacity="1.000000"
      fill="none"
      points="96.07,312.92 100.79,312.92"
      />
    <polyline
      stroke-width="1.000000e+00"
      stroke="#000000"
      stroke-opacity="1.000000"
      fill="none"
      points="91.34,298.22 100.79,298.22"
      />
    <polyline
      stroke-width="1.000000e+00"
      stroke="#000000"
      stroke-opacity="1.000000"
      fill="none"
      points="96.07,283.52 100.79,283.52"
      />
    <polyline
      stroke-width="1.000000e+00"
      stroke="#000000"
      stroke-opacity="1.000000"
      fill="none"
      points="96.07,268.82 100.79,268.82"
      />
    <polyline
      stroke-width="1.000000e+00"
      stroke="#000000"
      stroke-opacity="1.000000"
      fill="none"
      points="96.07,254.12 100.79,254.12"
      />
    <polyline
      stroke-width="1.000000e+00"
      stroke="#000000"
      stroke-opacity="1.000000"
      fill="none"
      points="91.34,239.42 100.79,239.42"
      />
    <polyline
      stroke-width="1.000000e+00"
      stroke="#000000"
      stroke-opacity="1.000000"
      fill="none"
      points="96.07,224.72 100.79,224.72"
      />
    <polyline
      stroke-width="1.000000e+00"
      stroke="#000000"
      stroke-opacity="1.000000"
      fill="none"
      points="96.07,210.02 100.79,210.02"
      />
    <polyline
      stroke-width="1.000000e+00"
      stroke="#000000"
      stroke-opacity="1.000000"
      fill="none"
      points="96.07,195.32 100.79,195.32"
      />
    <polyline
      stroke-width="1.000000e+00"
      stroke="#000000"
      stroke-opacity="1.000000"
      fill="none"
      points="91.34,180.62 100.79,180.62"
      />
    <polyline
      stroke-width="1.000000e+00"
      stroke="#000000"
      stroke-opacity="1.000000"
      fill="none"
      points="96.07,165.90 100.79,165.90"
      />
    <polyline
      stroke-width="1.000000e+00"
      stroke="#000000"
      stroke-opacity="1.000000"
      fill="none"
      points="96.07,151.20 100.79,151.20"
      />
    <polyline
      stroke-width="1.000000e+00"
      stroke="#000000"
      stroke-opacity="1.000000"
      fill="none"
      points="96.07,136.50 100.79,136.50"
      />
    <polyline
      stroke-width="1.000000e+00"
      stroke="#000000"
      stroke-opacity="1.000000"
      fill="none"
      points="91.34,121.80 100.79,121.80"
      />
    <polyline
      stroke-width="1.000000e+00"
      stroke="#000000"
      stroke-opacity="1.000000"
      fill="none"
      points="96.07,107.10 100.79,107.10"
      />
    <polyline
      stroke-width="1.000000e+00"
      stroke="#000000"
      stroke-opacity="1.000000"
      fill="none"
      points="96.07,92.40 100.79,92.40"
      />
    <polyline
      stroke-width="1.000000e+00"
      stroke="#000000"
      stroke-opacity="1.000000"
      fill="none"
      points="96.07,77.70 100.79,77.70"
      />
    <polyline
      stroke-width="1.000000e+00"
      stroke="#000000"
      stroke-opacity="1.000000"
      fill="none"
      points="91.34,63.00 100.79,63.00"
      />
    <g
      clip-path="url(#text-clipping0)"
      >
      <text
        dominant-baseline="no-change"
        fill="#000000"
        fill-opacity="1.000000"
        xml:space="preserve"
        font-size="16"
        transform="matrix(1.000000 0.000000 0.000000 -1.000000 207.538072 40.958281)"
        text-anchor="middle"
        x="0.000000"
        y="6.451584"
><tspan font-family="sans-serif" font-style="normal" font-weight="normal">&#x31;</tspan></text>
    </g>
    <g
      clip-path="url(#text-clipping0)"
      >
      <text
        dominant-baseline="no-change"
        fill="#000000"
        fill-opacity="1.000000"
        xml:space="preserve"
        font-size="16"
        transform="matrix(1.000000 0.000000 0.000000 -1.000000 319.909665 40.958281)"
        text-anchor="middle"
        x="0.000000"
        y="6.451584"
><tspan font-family="sans-serif" font-style="normal" font-weight="normal">&#x32;</tspan></text>
    </g>
    <g
      clip-path="url(#text-clipping0)"
      >
      <text
        dominant-baseline="no-change"
        fill="#000000"
        fill-opacity="1.000000"
        xml:space="preserve"
        font-size="16"
        transform="matrix(1.000000 0.000000 0.000000 -1.000000 432.281259 40.958281)"
        text-anchor="middle"
        x="0.000000"
        y="6.451584"
><tspan font-family="sans-serif" font-style="normal" font-weight="normal">&#x33;</tspan></text>
    </g>
    <g
      clip-path="url(#text-clipping0)"
      >
      <text
        dominant-baseline="no-change"
        fill="#000000"
        fill-opacity="1.000000"
        xml:space="preserve"
        font-size="16"
        transform="matrix(1.000000 0.000000 0.000000 -1.000000 544.630879 40.958281)"
        text-anchor="middle"
        x="0.000000"
        y="6.451584"
><tspan font-family="sans-serif" font-style="normal" font-weight="normal">&#x34;</tspan></text>
    </g>
    <g
      clip-path="url(#text-clipping0)"
      >
      <text
        dominant-baseline="no-change"
        fill="#000000"
        fill-opacity="1.000000"
        xml:space="preserve"
        font-size="16"
        transform="matrix(1.000000 0.000000 0.000000 -1.000000 657.002472 40.958281)"
        text-anchor="middle"
        x="0.000000"
        y="6.451584"
><tspan font-family="sans-serif" font-style="normal" font-weight="normal">&#x35;</tspan></text>
    </g>
    <g
      clip-path="url(#text-clipping0)"
      >
      <text
        dominant-baseline="no-change"
        fill="#000000"
        fill-opacity="1.000000"
        xml:space="preserve"
        font-size="16"
        transform="matrix(1.000000 0.000000 0.000000 -1.000000 88.200934 62.997528)"
        text-anchor="end"
        x="0.000000"
        y="6.451584"
><tspan font-family="sans-serif" font-style="normal" font-weight="normal">&#x2d;&#x31;&#x2e;&#x38;</tspan></text>
    </g>
    <g
      clip-path="url(#text-clipping0)"
      >
      <text
        dominant-baseline="no-change"
        fill="#000000"
        fill-opacity="1.000000"
        xml:space="preserve"
        font-size="16"
        transform="matrix(1.000000 0.000000 0.000000 -1.000000 88.200934 121.820124)"
        text-anchor="end"
        x="0.000000"
        y="6.451584"
><tspan font-family="sans-serif" font-style="normal" font-weight="normal">&#x2d;&#x31;&#x2e;&#x36;</tspan></text>
    </g>
    <g
      clip-path="url(#text-clipping0)"
      >
      <text
        dominant-baseline="no-change"
        fill="#000000"
        fill-opacity="1.000000"
        xml:space="preserve"
        font-size="16"
        transform="matrix(1.000000 0.000000 0.000000 -1.000000 88.200934 180.620746)"
        text-anchor="end"
        x="0.000000"
        y="6.451584"
><tspan font-family="sans-serif" font-style="normal" font-weight="normal">&#x2d;&#x31;&#x2e;&#x34;</tspan></text>
    </g>
    <g
      clip-path="url(#text-clipping0)"
      >
      <text
        dominant-baseline="no-change"
        fill="#000000"
        fill-opacity="1.000000"
        xml:space="preserve"
        font-size="16"
        transform="matrix(1.000000 0.000000 0.000000 -1.000000 88.200934 239.421369)"
        text-anchor="end"
        x="0.000000"
        y="6.451584"
><tspan font-family="sans-serif" font-style="normal" font-weight="normal">&#x2d;&#x31;&#x2e;&#x32;</tspan></text>
    </g>
    <g
      clip-path="url(#text-clipping0)"
      >
      <text
        dominant-baseline="no-change"
        fill="#000000"
        fill-opacity="1.000000"
        xml:space="preserve"
        font-size="16"
        transform="matrix(1.000000 0.000000 0.000000 -1.000000 88.200934 298.221992)"
        text-anchor="end"
        x="0.000000"
        y="6.451584"
><tspan font-family="sans-serif" font-style="normal" font-weight="normal">&#x2d;&#x31;&#x2e;&#x30;</tspan></text>
    </g>
    <g
      clip-path="url(#text-clipping0)"
      >
      <text
        dominant-baseline="no-change"
        fill="#000000"
        fill-opacity="1.000000"
        xml:space="preserve"
        font-size="16"
        transform="matrix(1.000000 0.000000 0.000000 -1.000000 88.200934 357.044588)"
        text-anchor="end"
        x="0.000000"
        y="6.451584"
><tspan font-family="sans-serif" font-style="normal" font-weight="normal">&#x2d;&#x30;&#x2e;&#x38;</tspan></text>
    </g>
    <g
      clip-path="url(#text-clipping0)"
      >
      <text
        dominant-baseline="no-change"
        fill="#000000"
        fill-opacity="1.000000"
        xml:space="preserve"
        font-size="16"
        transform="matrix(1.000000 0.000000 0.000000 -1.000000 88.200934 415.845210)"
        text-anchor="end"
        x="0.000000"
        y="6.451584"
><tspan font-family="sans-serif" font-style="normal" font-weight="normal">&#x2d;&#x30;&#x2e;&#x36;</tspan></text>
    </g>
    <g
      clip-path="url(#text-clipping0)"
      >
      <text
        dominant-baseline="no-change"
        fill="#000000"
        fill-opacity="1.000000"
        xml:space="preserve"
        font-size="16"
        transform="matrix(1.000000 0.000000 0.000000 -1.000000 88.200934 474.645833)"
        text-anchor="end"
        x="0.000000"
        y="6.451584"
><tspan font-family="sans-serif" font-style="normal" font-weight="normal">&#x2d;&#x30;&#x2e;&#x34;</tspan></text>
    </g>
    <g
      clip-path="url(#text-clipping0)"
      >
      <text
        dominant-baseline="no-change"
        fill="#000000"
        fill-opacity="1.000000"
        xml:space="preserve"
        font-size="16"
        transform="matrix(1.000000 0.000000 0.000000 -1.000000 60.470595 518.394726)"
        text-anchor="middle"
        x="0.000000"
        y="6.451584"
><tspan font-family="sans-serif" font-style="normal" font-weight="normal">&#x28;&#x78;&#x31;&#x30;<tspan dy="-11.010430" font-size="12">&#x35;<tspan dy="11.010430" font-size="16">&#x29;</tspan></tspan></tspan></text>
    </g>
  </g>
</svg>
