<?xml version="1.0" encoding="UTF-8"?>
<!DOCTYPE svg PUBLIC "-//W3C//DTD SVG 1.1//EN"
        "http://www.w3.org/Graphics/SVG/1.1/DTD/svg11.dtd">
<svg
  xmlns="http://www.w3.org/2000/svg"
  xmlns:xlink="http://www.w3.org/1999/xlink"
  version="1.1"
  width="720pt"
  height="540pt"
  viewBox="0 0 720 540"
  >
  <rect
    x="0"
    y="0"
    width="720"
    height="540"
    stroke="none"
    fill="#FFFFFF"
    fill-opacity="1.000000"
    />
  <g
    transform="matrix(1 0 0 -1 0 540)"
    >
    <polyline
      stroke-width="1.000000e+00"
      stroke="#0000FF"
      stroke-opacity="1.000000"
      fill="none"
      points="656.98,63.00 651.38,63.37 645.75,66.86 640.13,67.99 634.52,68.73 628.90,71.76 623.27,78.38 617.67,72.14 612.05,76.99 606.42,79.61 
      600.82,81.26 595.19,87.94 589.57,86.84 583.96,87.63 578.34,89.28 572.71,90.75 567.09,94.02 561.48,101.17 555.86,105.03 550.23,106.53 
      544.63,113.54 539.01,113.87 533.38,127.84 527.78,125.49 522.15,137.53 516.53,136.10 510.92,141.27 505.30,150.43 499.67,155.51 494.07,164.14 
      488.45,168.91 482.82,181.19 477.22,186.69 471.59,197.10 465.97,204.00 460.36,218.77 454.74,224.59 449.11,232.79 443.49,248.58 437.88,254.65 
      432.26,270.10 426.63,278.12 421.03,288.99 415.41,298.11 409.78,306.84 404.18,320.99 398.55,333.29 392.93,341.58 387.32,350.43 381.70,363.61 
      376.07,372.07 370.47,381.85 364.85,392.51 359.22,399.45 353.62,407.63 347.99,413.91 342.37,424.66 336.76,429.95 331.14,435.38 325.51,438.08 
      319.89,444.72 314.28,450.26 308.66,452.36 303.03,457.07 297.43,459.42 291.81,461.57 286.18,464.38 280.58,466.74 274.95,468.08 269.33,470.60 
      263.72,471.11 258.10,471.92 252.47,473.13 246.87,474.05 241.25,474.87 235.62,475.02 230.02,475.55 224.39,476.10 218.77,476.34 213.16,476.36 
      207.54,476.69 201.91,476.76 196.29,476.91 190.68,476.93 185.06,476.95 179.43,476.95 173.83,476.98 168.21,477.00 162.58,477.00 156.98,476.98 
      151.35,477.00 145.73,477.00 140.12,477.00 134.50,477.00 128.87,477.00 123.27,477.00 117.65,477.00 112.02,477.00 106.42,477.00 100.79,477.00 
      "/>
    <g
      clip-path="url(#text-clipping0)"
      >
      <text
        dominant-baseline="no-change"
        fill="#000000"
        fill-opacity="1.000000"
        xml:space="preserve"
        font-size="16"
        transform="matrix(1.000000 0.000000 0.000000 -1.000000 378.908048 25.203406)"
        text-anchor="middle"
        x="0.000000"
        y="6.451584"
><tspan font-family="sans-serif" font-style="normal" font-weight="normal">&#x74;&#x65;&#x6d;&#x70;&#x65;&#x72;&#x61;&#x74;&#x75;&#x72;&#x65;</tspan></text>
    </g>
    <g
      clip-path="url(#text-clipping0)"
      >
      <text
        dominant-baseline="no-change"
        fill="#000000"
        fill-opacity="1.000000"
        xml:space="preserve"
        font-size="16"
        transform="matrix(0.000000 1.000000 1.000000 -0.000000 37.794122 270.008240)"
        text-anchor="middle"
        x="0.000000"
        y="6.451584"
><tspan font-family="sans-serif" font-style="normal" font-weight="normal">&#x41;&#x69;&#x6d;&#x61;&#x6e;&#x74;&#x61;&#x74;&#x69;&#x6f;&#x6e;&#x20;&#x6d;&#x6f;&#x79;&#x65;&#x6e;&#x6e;&#x65;</tspan></text>
    </g>
    <polyline
      stroke-width="1.000000e+00"
      stroke="#000000"
      stroke-opacity="1.000000"
      fill="none"
      points="100.79,63.00 657.00,63.00"
      />
    <polyline
      stroke-width="1.000000e+00"
      stroke="#000000"
      stroke-opacity="1.000000"
      fill="none"
      points="117.65,58.27 117.65,63.00"
      />
    <polyline
      stroke-width="1.000000e+00"
      stroke="#000000"
      stroke-opacity="1.000000"
      fill="none"
      points="140.12,58.27 140.12,63.00"
      />
    <polyline
      stroke-width="1.000000e+00"
      stroke="#000000"
      stroke-opacity="1.000000"
      fill="none"
      points="162.58,58.27 162.58,63.00"
      />
    <polyline
      stroke-width="1.000000e+00"
      stroke="#000000"
      stroke-opacity="1.000000"
      fill="none"
      points="185.06,58.27 185.06,63.00"
      />
    <polyline
      stroke-width="1.000000e+00"
      stroke="#000000"
      stroke-opacity="1.000000"
      fill="none"
      points="207.54,53.55 207.54,63.00"
      />
    <polyline
      stroke-width="1.000000e+00"
      stroke="#000000"
      stroke-opacity="1.000000"
      fill="none"
      points="230.02,58.27 230.02,63.00"
      />
    <polyline
      stroke-width="1.000000e+00"
      stroke="#000000"
      stroke-opacity="1.000000"
      fill="none"
      points="252.47,58.27 252.47,63.00"
      />
    <polyline
      stroke-width="1.000000e+00"
      stroke="#000000"
      stroke-opacity="1.000000"
      fill="none"
      points="274.95,58.27 274.95,63.00"
      />
    <polyline
      stroke-width="1.000000e+00"
      stroke="#000000"
      stroke-opacity="1.000000"
      fill="none"
      points="297.43,58.27 297.43,63.00"
      />
    <polyline
      stroke-width="1.000000e+00"
      stroke="#000000"
      stroke-opacity="1.000000"
      fill="none"
      points="319.89,53.55 319.89,63.00"
      />
    <polyline
      stroke-width="1.000000e+00"
      stroke="#000000"
      stroke-opacity="1.000000"
      fill="none"
      points="342.37,58.27 342.37,63.00"
      />
    <polyline
      stroke-width="1.000000e+00"
      stroke="#000000"
      stroke-opacity="1.000000"
      fill="none"
      points="364.85,58.27 364.85,63.00"
      />
    <polyline
      stroke-width="1.000000e+00"
      stroke="#000000"
      stroke-opacity="1.000000"
      fill="none"
      points="387.32,58.27 387.32,63.00"
      />
    <polyline
      stroke-width="1.000000e+00"
      stroke="#000000"
      stroke-opacity="1.000000"
      fill="none"
      points="409.78,58.27 409.78,63.00"
      />
    <polyline
      stroke-width="1.000000e+00"
      stroke="#000000"
      stroke-opacity="1.000000"
      fill="none"
      points="432.26,53.55 432.26,63.00"
      />
    <polyline
      stroke-width="1.000000e+00"
      stroke="#000000"
      stroke-opacity="1.000000"
      fill="none"
      points="454.74,58.27 454.74,63.00"
      />
    <polyline
      stroke-width="1.000000e+00"
      stroke="#000000"
      stroke-opacity="1.000000"
      fill="none"
      points="477.22,58.27 477.22,63.00"
      />
    <polyline
      stroke-width="1.000000e+00"
      stroke="#000000"
      stroke-opacity="1.000000"
      fill="none"
      points="499.67,58.27 499.67,63.00"
      />
    <polyline
      stroke-width="1.000000e+00"
      stroke="#000000"
      stroke-opacity="1.000000"
      fill="none"
      points="522.15,58.27 522.15,63.00"
      />
    <polyline
      stroke-width="1.000000e+00"
      stroke="#000000"
      stroke-opacity="1.000000"
      fill="none"
      points="544.63,53.55 544.63,63.00"
      />
    <polyline
      stroke-width="1.000000e+00"
      stroke="#000000"
      stroke-opacity="1.000000"
      fill="none"
      points="567.09,58.27 567.09,63.00"
      />
    <polyline
      stroke-width="1.000000e+00"
      stroke="#000000"
      stroke-opacity="1.000000"
      fill="none"
      points="589.57,58.27 589.57,63.00"
      />
    <polyline
      stroke-width="1.000000e+00"
      stroke="#000000"
      stroke-opacity="1.000000"
      fill="none"
      points="612.05,58.27 612.05,63.00"
      />
    <polyline
      stroke-width="1.000000e+00"
      stroke="#000000"
      stroke-opacity="1.000000"
      fill="none"
      points="634.52,58.27 634.52,63.00"
      />
    <polyline
      stroke-width="1.000000e+00"
      stroke="#000000"
      stroke-opacity="1.000000"
      fill="none"
      points="656.98,53.55 656.98,63.00"
      />
    <polyline
      stroke-width="1.000000e+00"
      stroke="#000000"
      stroke-opacity="1.000000"
      fill="none"
      points="657.00,63.00 657.00,477.00"
      />
    <polyline
      stroke-width="1.000000e+00"
      stroke="#000000"
      stroke-opacity="1.000000"
      fill="none"
      points="657.00,66.78 661.73,66.78"
      />
    <polyline
      stroke-width="1.000000e+00"
      stroke="#000000"
      stroke-opacity="1.000000"
      fill="none"
      points="657.00,88.38 661.73,88.38"
      />
    <polyline
      stroke-width="1.000000e+00"
      stroke="#000000"
      stroke-opacity="1.000000"
      fill="none"
      points="657.00,109.95 661.73,109.95"
      />
    <polyline
      stroke-width="1.000000e+00"
      stroke="#000000"
      stroke-opacity="1.000000"
      fill="none"
      points="657.00,131.55 666.45,131.55"
      />
    <polyline
      stroke-width="1.000000e+00"
      stroke="#000000"
      stroke-opacity="1.000000"
      fill="none"
      points="657.00,153.15 661.73,153.15"
      />
    <polyline
      stroke-width="1.000000e+00"
      stroke="#000000"
      stroke-opacity="1.000000"
      fill="none"
      points="657.00,174.73 661.73,174.73"
      />
    <polyline
      stroke-width="1.000000e+00"
      stroke="#000000"
      stroke-opacity="1.000000"
      fill="none"
      points="657.00,196.33 661.73,196.33"
      />
    <polyline
      stroke-width="1.000000e+00"
      stroke="#000000"
      stroke-opacity="1.000000"
      fill="none"
      points="657.00,217.91 666.45,217.91"
      />
    <polyline
      stroke-width="1.000000e+00"
      stroke="#000000"
      stroke-opacity="1.000000"
      fill="none"
      points="657.00,239.51 661.73,239.51"
      />
    <polyline
      stroke-width="1.000000e+00"
      stroke="#000000"
      stroke-opacity="1.000000"
      fill="none"
      points="657.00,261.09 661.73,261.09"
      />
    <polyline
      stroke-width="1.000000e+00"
      stroke="#000000"
      stroke-opacity="1.000000"
      fill="none"
      points="657.00,282.69 661.73,282.69"
      />
    <polyline
      stroke-width="1.000000e+00"
      stroke="#000000"
      stroke-opacity="1.000000"
      fill="none"
      points="657.00,304.26 666.45,304.26"
      />
    <polyline
      stroke-width="1.000000e+00"
      stroke="#000000"
      stroke-opacity="1.000000"
      fill="none"
      points="657.00,325.86 661.73,325.86"
      />
    <polyline
      stroke-width="1.000000e+00"
      stroke="#000000"
      stroke-opacity="1.000000"
      fill="none"
      points="657.00,347.44 661.73,347.44"
      />
    <polyline
      stroke-width="1.000000e+00"
      stroke="#000000"
      stroke-opacity="1.000000"
      fill="none"
      points="657.00,369.04 661.73,369.04"
      />
    <polyline
      stroke-width="1.000000e+00"
      stroke="#000000"
      stroke-opacity="1.000000"
      fill="none"
      points="657.00,390.62 666.45,390.62"
      />
    <polyline
      stroke-width="1.000000e+00"
      stroke="#000000"
      stroke-opacity="1.000000"
      fill="none"
      points="657.00,412.22 661.73,412.22"
      />
    <polyline
      stroke-width="1.000000e+00"
      stroke="#000000"
      stroke-opacity="1.000000"
      fill="none"
      points="657.00,433.80 661.73,433.80"
      />
    <polyline
      stroke-width="1.000000e+00"
      stroke="#000000"
      stroke-opacity="1.000000"
      fill="none"
      points="657.00,455.40 661.73,455.40"
      />
    <polyline
      stroke-width="1.000000e+00"
      stroke="#000000"
      stroke-opacity="1.000000"
      fill="none"
      points="657.00,477.00 666.45,477.00"
      />
    <polyline
      stroke-width="1.000000e+00"
      stroke="#000000"
      stroke-opacity="1.000000"
      fill="none"
      points="657.00,477.00 100.79,477.00"
      />
    <polyline
      stroke-width="1.000000e+00"
      stroke="#000000"
      stroke-opacity="1.000000"
      fill="none"
      points="656.98,477.00 656.98,486.45"
      />
    <polyline
      stroke-width="1.000000e+00"
      stroke="#000000"
      stroke-opacity="1.000000"
      fill="none"
      points="634.52,477.00 634.52,481.72"
      />
    <polyline
      stroke-width="1.000000e+00"
      stroke="#000000"
      stroke-opacity="1.000000"
      fill="none"
      points="612.05,477.00 612.05,481.72"
      />
    <polyline
      stroke-width="1.000000e+00"
      stroke="#000000"
      stroke-opacity="1.000000"
      fill="none"
      points="589.57,477.00 589.57,481.72"
      />
    <polyline
      stroke-width="1.000000e+00"
      stroke="#000000"
      stroke-opacity="1.000000"
      fill="none"
      points="567.09,477.00 567.09,481.72"
      />
    <polyline
      stroke-width="1.000000e+00"
      stroke="#000000"
      stroke-opacity="1.000000"
      fill="none"
      points="544.63,477.00 544.63,486.45"
      />
    <polyline
      stroke-width="1.000000e+00"
      stroke="#000000"
      stroke-opacity="1.000000"
      fill="none"
      points="522.15,477.00 522.15,481.72"
      />
    <polyline
      stroke-width="1.000000e+00"
      stroke="#000000"
      stroke-opacity="1.000000"
      fill="none"
      points="499.67,477.00 499.67,481.72"
      />
    <polyline
      stroke-width="1.000000e+00"
      stroke="#000000"
      stroke-opacity="1.000000"
      fill="none"
      points="477.22,477.00 477.22,481.72"
      />
    <polyline
      stroke-width="1.000000e+00"
      stroke="#000000"
      stroke-opacity="1.000000"
      fill="none"
      points="454.74,477.00 454.74,481.72"
      />
    <polyline
      stroke-width="1.000000e+00"
      stroke="#000000"
      stroke-opacity="1.000000"
      fill="none"
      points="432.26,477.00 432.26,486.45"
      />
    <polyline
      stroke-width="1.000000e+00"
      stroke="#000000"
      stroke-opacity="1.000000"
      fill="none"
      points="409.78,477.00 409.78,481.72"
      />
    <polyline
      stroke-width="1.000000e+00"
      stroke="#000000"
      stroke-opacity="1.000000"
      fill="none"
      points="387.32,477.00 387.32,481.72"
      />
    <polyline
      stroke-width="1.000000e+00"
      stroke="#000000"
      stroke-opacity="1.000000"
      fill="none"
      points="364.85,477.00 364.85,481.72"
      />
    <polyline
      stroke-width="1.000000e+00"
      stroke="#000000"
      stroke-opacity="1.000000"
      fill="none"
      points="342.37,477.00 342.37,481.72"
      />
    <polyline
      stroke-width="1.000000e+00"
      stroke="#000000"
      stroke-opacity="1.000000"
      fill="none"
      points="319.89,477.00 319.89,486.45"
      />
    <polyline
      stroke-width="1.000000e+00"
      stroke="#000000"
      stroke-opacity="1.000000"
      fill="none"
      points="297.43,477.00 297.43,481.72"
      />
    <polyline
      stroke-width="1.000000e+00"
      stroke="#000000"
      stroke-opacity="1.000000"
      fill="none"
      points="274.95,477.00 274.95,481.72"
      />
    <polyline
      stroke-width="1.000000e+00"
      stroke="#000000"
      stroke-opacity="1.000000"
      fill="none"
      points="252.47,477.00 252.47,481.72"
      />
    <polyline
      stroke-width="1.000000e+00"
      stroke="#000000"
      stroke-opacity="1.000000"
      fill="none"
      points="230.02,477.00 230.02,481.72"
      />
    <polyline
      stroke-width="1.000000e+00"
      stroke="#000000"
      stroke-opacity="1.000000"
      fill="none"
      points="207.54,477.00 207.54,486.45"
      />
    <polyline
      stroke-width="1.000000e+00"
      stroke="#000000"
      stroke-opacity="1.000000"
      fill="none"
      points="185.06,477.00 185.06,481.72"
      />
    <polyline
      stroke-width="1.000000e+00"
      stroke="#000000"
      stroke-opacity="1.000000"
      fill="none"
      points="162.58,477.00 162.58,481.72"
      />
    <polyline
      stroke-width="1.000000e+00"
      stroke="#000000"
      stroke-opacity="1.000000"
      fill="none"
      points="140.12,477.00 140.12,481.72"
      />
    <polyline
      stroke-width="1.000000e+00"
      stroke="#000000"
      stroke-opacity="1.000000"
      fill="none"
      points="117.65,477.00 117.65,481.72"
      />
    <polyline
      stroke-width="1.000000e+00"
      stroke="#000000"
      stroke-opacity="1.000000"
      fill="none"
      points="100.79,477.00 100.79,63.00"
      />
    <polyline
      stroke-width="1.000000e+00"
      stroke="#000000"
      stroke-opacity="1.000000"
      fill="none"
      points="91.34,477.00 100.79,477.00"
      />
    <polyline
      stroke-width="1.000000e+00"
      stroke="#000000"
      stroke-opacity="1.000000"
      fill="none"
      points="96.07,455.40 100.79,455.40"
      />
    <polyline
      stroke-width="1.000000e+00"
      stroke="#000000"
      stroke-opacity="1.000000"
      fill="none"
      points="96.07,433.80 100.79,433.80"
      />
    <polyline
      stroke-width="1.000000e+00"
      stroke="#000000"
      stroke-opacity="1.000000"
      fill="none"
      points="96.07,412.22 100.79,412.22"
      />
    <polyline
      stroke-width="1.000000e+00"
      stroke="#000000"
      stroke-opacity="1.000000"
      fill="none"
      points="91.34,390.62 100.79,390.62"
      />
    <polyline
      stroke-width="1.000000e+00"
      stroke="#000000"
      stroke-opacity="1.000000"
      fill="none"
      points="96.07,369.04 100.79,369.04"
      />
    <polyline
      stroke-width="1.000000e+00"
      stroke="#000000"
      stroke-opacity="1.000000"
      fill="none"
      points="96.07,347.44 100.79,347.44"
      />
    <polyline
      stroke-width="1.000000e+00"
      stroke="#000000"
      stroke-opacity="1.000000"
      fill="none"
      points="96.07,325.86 100.79,325.86"
      />
    <polyline
      stroke-width="1.000000e+00"
      stroke="#000000"
      stroke-opacity="1.000000"
      fill="none"
      points="91.34,304.26 100.79,304.26"
      />
    <polyline
      stroke-width="1.000000e+00"
      stroke="#000000"
      stroke-opacity="1.000000"
      fill="none"
      points="96.07,282.69 100.79,282.69"
      />
    <polyline
      stroke-width="1.000000e+00"
      stroke="#000000"
      stroke-opacity="1.000000"
      fill="none"
      points="96.07,261.09 100.79,261.09"
      />
    <polyline
      stroke-width="1.000000e+00"
      stroke="#000000"
      stroke-opacity="1.000000"
      fill="none"
      points="96.07,239.51 100.79,239.51"
      />
    <polyline
      stroke-width="1.000000e+00"
      stroke="#000000"
      stroke-opacity="1.000000"
      fill="none"
      points="91.34,217.91 100.79,217.91"
      />
    <polyline
      stroke-width="1.000000e+00"
      stroke="#000000"
      stroke-opacity="1.000000"
      fill="none"
      points="96.07,196.33 100.79,196.33"
      />
    <polyline
      stroke-width="1.000000e+00"
      stroke="#000000"
      stroke-opacity="1.000000"
      fill="none"
      points="96.07,174.73 100.79,174.73"
      />
    <polyline
      stroke-width="1.000000e+00"
      stroke="#000000"
      stroke-opacity="1.000000"
      fill="none"
      points="96.07,153.15 100.79,153.15"
      />
    <polyline
      stroke-width="1.000000e+00"
      stroke="#000000"
      stroke-opacity="1.000000"
      fill="none"
      points="91.34,131.55 100.79,131.55"
      />
    <polyline
      stroke-width="1.000000e+00"
      stroke="#000000"
      stroke-opacity="1.000000"
      fill="none"
      points="96.07,109.95 100.79,109.95"
      />
    <polyline
      stroke-width="1.000000e+00"
      stroke="#000000"
      stroke-opacity="1.000000"
      fill="none"
      points="96.07,88.38 100.79,88.38"
      />
    <polyline
      stroke-width="1.000000e+00"
      stroke="#000000"
      stroke-opacity="1.000000"
      fill="none"
      points="96.07,66.78 100.79,66.78"
      />
    <g
      clip-path="url(#text-clipping0)"
      >
      <text
        dominant-baseline="no-change"
        fill="#000000"
        fill-opacity="1.000000"
        xml:space="preserve"
        font-size="16"
        transform="matrix(1.000000 0.000000 0.000000 -1.000000 207.538072 40.958281)"
        text-anchor="middle"
        x="0.000000"
        y="6.451584"
><tspan font-family="sans-serif" font-style="normal" font-weight="normal">&#x31;</tspan></text>
    </g>
    <g
      clip-path="url(#text-clipping0)"
      >
      <text
        dominant-baseline="no-change"
        fill="#000000"
        fill-opacity="1.000000"
        xml:space="preserve"
        font-size="16"
        transform="matrix(1.000000 0.000000 0.000000 -1.000000 319.909665 40.958281)"
        text-anchor="middle"
        x="0.000000"
        y="6.451584"
><tspan font-family="sans-serif" font-style="normal" font-weight="normal">&#x32;</tspan></text>
    </g>
    <g
      clip-path="url(#text-clipping0)"
      >
      <text
        dominant-baseline="no-change"
        fill="#000000"
        fill-opacity="1.000000"
        xml:space="preserve"
        font-size="16"
        transform="matrix(1.000000 0.000000 0.000000 -1.000000 432.281259 40.958281)"
        text-anchor="middle"
        x="0.000000"
        y="6.451584"
><tspan font-family="sans-serif" font-style="normal" font-weight="normal">&#x33;</tspan></text>
    </g>
    <g
      clip-path="url(#text-clipping0)"
      >
      <text
        dominant-baseline="no-change"
        fill="#000000"
        fill-opacity="1.000000"
        xml:space="preserve"
        font-size="16"
        transform="matrix(1.000000 0.000000 0.000000 -1.000000 544.630879 40.958281)"
        text-anchor="middle"
        x="0.000000"
        y="6.451584"
><tspan font-family="sans-serif" font-style="normal" font-weight="normal">&#x34;</tspan></text>
    </g>
    <g
      clip-path="url(#text-clipping0)"
      >
      <text
        dominant-baseline="no-change"
        fill="#000000"
        fill-opacity="1.000000"
        xml:space="preserve"
        font-size="16"
        transform="matrix(1.000000 0.000000 0.000000 -1.000000 657.002472 40.958281)"
        text-anchor="middle"
        x="0.000000"
        y="6.451584"
><tspan font-family="sans-serif" font-style="normal" font-weight="normal">&#x35;</tspan></text>
    </g>
    <g
      clip-path="url(#text-clipping0)"
      >
      <text
        dominant-baseline="no-change"
        fill="#000000"
        fill-opacity="1.000000"
        xml:space="preserve"
        font-size="16"
        transform="matrix(1.000000 0.000000 0.000000 -1.000000 88.200934 131.554308)"
        text-anchor="end"
        x="0.000000"
        y="6.451584"
><tspan font-family="sans-serif" font-style="normal" font-weight="normal">&#x30;&#x2e;&#x32;</tspan></text>
    </g>
    <g
      clip-path="url(#text-clipping0)"
      >
      <text
        dominant-baseline="no-change"
        fill="#000000"
        fill-opacity="1.000000"
        xml:space="preserve"
        font-size="16"
        transform="matrix(1.000000 0.000000 0.000000 -1.000000 88.200934 217.909482)"
        text-anchor="end"
        x="0.000000"
        y="6.451584"
><tspan font-family="sans-serif" font-style="normal" font-weight="normal">&#x30;&#x2e;&#x34;</tspan></text>
    </g>
    <g
      clip-path="url(#text-clipping0)"
      >
      <text
        dominant-baseline="no-change"
        fill="#000000"
        fill-opacity="1.000000"
        xml:space="preserve"
        font-size="16"
        transform="matrix(1.000000 0.000000 0.000000 -1.000000 88.200934 304.286630)"
        text-anchor="end"
        x="0.000000"
        y="6.451584"
><tspan font-family="sans-serif" font-style="normal" font-weight="normal">&#x30;&#x2e;&#x36;</tspan></text>
    </g>
    <g
      clip-path="url(#text-clipping0)"
      >
      <text
        dominant-baseline="no-change"
        fill="#000000"
        fill-opacity="1.000000"
        xml:space="preserve"
        font-size="16"
        transform="matrix(1.000000 0.000000 0.000000 -1.000000 88.200934 390.641804)"
        text-anchor="end"
        x="0.000000"
        y="6.451584"
><tspan font-family="sans-serif" font-style="normal" font-weight="normal">&#x30;&#x2e;&#x38;</tspan></text>
    </g>
    <g
      clip-path="url(#text-clipping0)"
      >
      <text
        dominant-baseline="no-change"
        fill="#000000"
        fill-opacity="1.000000"
        xml:space="preserve"
        font-size="16"
        transform="matrix(1.000000 0.000000 0.000000 -1.000000 88.200934 476.996979)"
        text-anchor="end"
        x="0.000000"
        y="6.451584"
><tspan font-family="sans-serif" font-style="normal" font-weight="normal">&#x31;&#x2e;&#x30;</tspan></text>
    </g>
  </g>
</svg>
