<?xml version="1.0" encoding="UTF-8" standalone="no"?>
<!-- Created with Inkscape (http://www.inkscape.org/) -->

<svg
   xmlns:dc="http://purl.org/dc/elements/1.1/"
   xmlns:cc="http://creativecommons.org/ns#"
   xmlns:rdf="http://www.w3.org/1999/02/22-rdf-syntax-ns#"
   xmlns:svg="http://www.w3.org/2000/svg"
   xmlns="http://www.w3.org/2000/svg"
   xmlns:sodipodi="http://sodipodi.sourceforge.net/DTD/sodipodi-0.dtd"
   xmlns:inkscape="http://www.inkscape.org/namespaces/inkscape"
   id="svg2"
   version="1.1"
   inkscape:version="0.91 r13725"
   xml:space="preserve"
   width="110.9475"
   height="124.51375"
   viewBox="0 0 110.9475 124.51375"
   sodipodi:docname="toutes_les_couleurs_fig.svg"><metadata
     id="metadata8"><rdf:RDF><cc:Work
         rdf:about=""><dc:format>image/svg+xml</dc:format><dc:type
           rdf:resource="http://purl.org/dc/dcmitype/StillImage" /><dc:title></dc:title></cc:Work></rdf:RDF></metadata><defs
     id="defs6"><clipPath
       clipPathUnits="userSpaceOnUse"
       id="clipPath26"><path
         d="M 28.3468,0 C 28.3468,15.6557 15.6557,28.3468 0,28.3468 -15.6557,28.3468 -28.3468,15.6557 -28.3468,0 c 0,-15.6557 12.6911,-28.3468 28.3468,-28.3468 15.6557,0 28.3468,12.6911 28.3468,28.3468 z"
         id="path28"
         inkscape:connector-curvature="0" /></clipPath><clipPath
       clipPathUnits="userSpaceOnUse"
       id="clipPath50"><path
         d="m 56.69362,0 c 0,15.6557 -12.6911,28.3468 -28.34682,28.3468 C 12.69109,28.3468 0,15.6557 0,0 c 0,-15.6557 12.69109,-28.3468 28.3468,-28.3468 15.65572,0 28.34682,12.6911 28.34682,28.3468 z"
         id="path52"
         inkscape:connector-curvature="0" /></clipPath><clipPath
       clipPathUnits="userSpaceOnUse"
       id="clipPath74"><path
         d="m 28.3468,-42.5202 c 0,15.65571 -12.6911,28.34681 -28.3468,28.34681 -15.6557,0 -28.3468,-12.6911 -28.3468,-28.34681 0,-15.65572 12.6911,-28.3468 28.3468,-28.3468 15.6557,0 28.3468,12.69108 28.3468,28.3468 z"
         id="path76"
         inkscape:connector-curvature="0" /></clipPath><clipPath
       clipPathUnits="userSpaceOnUse"
       id="clipPath98"><path
         d="m 56.69362,-42.5202 c 0,15.65571 -12.6911,28.34681 -28.34682,28.34681 C 12.69109,-14.17339 0,-26.86449 0,-42.5202 0,-58.17592 12.69109,-70.867 28.3468,-70.867 c 15.65572,0 28.34682,12.69108 28.34682,28.3468 z"
         id="path100"
         inkscape:connector-curvature="0" /></clipPath></defs><sodipodi:namedview
     pagecolor="#ffffff"
     bordercolor="#666666"
     borderopacity="1"
     objecttolerance="10"
     gridtolerance="10"
     guidetolerance="10"
     inkscape:pageopacity="0"
     inkscape:pageshadow="2"
     inkscape:window-width="640"
     inkscape:window-height="480"
     id="namedview4"
     showgrid="false"
     inkscape:zoom="1.895373"
     inkscape:cx="55.473751"
     inkscape:cy="62.256874"
     inkscape:window-x="0"
     inkscape:window-y="0"
     inkscape:window-maximized="0"
     inkscape:current-layer="g10" /><g
     id="g10"
     inkscape:groupmode="layer"
     inkscape:label="toutes_les_couleurs_fig"
     transform="matrix(1.25,0,0,-1.25,0,124.51375)"><g
       id="g12"
       transform="translate(30.732,72.199)"><g
         id="g14"><g
           id="g16"><g
             id="g18"><path
               d="M 28.3468,0 C 28.3468,15.6557 15.6557,28.3468 0,28.3468 -15.6557,28.3468 -28.3468,15.6557 -28.3468,0 c 0,-15.6557 12.6911,-28.3468 28.3468,-28.3468 15.6557,0 28.3468,12.6911 28.3468,28.3468 z"
               style="fill:#f2f2f2;fill-opacity:1;fill-rule:nonzero;stroke:none"
               id="path20"
               inkscape:connector-curvature="0" /></g><g
             id="g22"><g
               id="g24"
               clip-path="url(#clipPath26)"><g
                 id="g30"><path
                   d="m 56.69362,0 c 0,15.6557 -12.6911,28.3468 -28.34682,28.3468 C 12.69109,28.3468 0,15.6557 0,0 c 0,-15.6557 12.69109,-28.3468 28.3468,-28.3468 15.65572,0 28.34682,12.6911 28.34682,28.3468 z"
                   style="fill:#ffffff;fill-opacity:1;fill-rule:nonzero;stroke:none"
                   id="path32"
                   inkscape:connector-curvature="0" /></g><g
                 id="g34"><path
                   d="m 28.3468,-42.5202 c 0,15.65571 -12.6911,28.34681 -28.3468,28.34681 -15.6557,0 -28.3468,-12.6911 -28.3468,-28.34681 0,-15.65572 12.6911,-28.3468 28.3468,-28.3468 15.6557,0 28.3468,12.69108 28.3468,28.3468 z"
                   style="fill:#ffffff;fill-opacity:1;fill-rule:nonzero;stroke:none"
                   id="path36"
                   inkscape:connector-curvature="0" /></g><g
                 id="g38"><path
                   d="m 56.69362,-42.5202 c 0,15.65571 -12.6911,28.34681 -28.34682,28.34681 C 12.69109,-14.17339 0,-26.86449 0,-42.5202 0,-58.17592 12.69109,-70.867 28.3468,-70.867 c 15.65572,0 28.34682,12.69108 28.34682,28.3468 z"
                   style="fill:#ffffff;fill-opacity:1;fill-rule:nonzero;stroke:none"
                   id="path40"
                   inkscape:connector-curvature="0" /></g></g></g><g
             id="g42"><path
               d="m 56.69362,0 c 0,15.6557 -12.6911,28.3468 -28.34682,28.3468 C 12.69109,28.3468 0,15.6557 0,0 c 0,-15.6557 12.69109,-28.3468 28.3468,-28.3468 15.65572,0 28.34682,12.6911 28.34682,28.3468 z"
               style="fill:#ffe6e6;fill-opacity:1;fill-rule:nonzero;stroke:none"
               id="path44"
               inkscape:connector-curvature="0" /></g><g
             id="g46"><g
               id="g48"
               clip-path="url(#clipPath50)"><g
                 id="g54"><path
                   d="M 28.3468,0 C 28.3468,15.6557 15.6557,28.3468 0,28.3468 -15.6557,28.3468 -28.3468,15.6557 -28.3468,0 c 0,-15.6557 12.6911,-28.3468 28.3468,-28.3468 15.6557,0 28.3468,12.6911 28.3468,28.3468 z"
                   style="fill:#ffffff;fill-opacity:1;fill-rule:nonzero;stroke:none"
                   id="path56"
                   inkscape:connector-curvature="0" /></g><g
                 id="g58"><path
                   d="m 28.3468,-42.5202 c 0,15.65571 -12.6911,28.34681 -28.3468,28.34681 -15.6557,0 -28.3468,-12.6911 -28.3468,-28.34681 0,-15.65572 12.6911,-28.3468 28.3468,-28.3468 15.6557,0 28.3468,12.69108 28.3468,28.3468 z"
                   style="fill:#ffffff;fill-opacity:1;fill-rule:nonzero;stroke:none"
                   id="path60"
                   inkscape:connector-curvature="0" /></g><g
                 id="g62"><path
                   d="m 56.69362,-42.5202 c 0,15.65571 -12.6911,28.34681 -28.34682,28.34681 C 12.69109,-14.17339 0,-26.86449 0,-42.5202 0,-58.17592 12.69109,-70.867 28.3468,-70.867 c 15.65572,0 28.34682,12.69108 28.34682,28.3468 z"
                   style="fill:#ffffff;fill-opacity:1;fill-rule:nonzero;stroke:none"
                   id="path64"
                   inkscape:connector-curvature="0" /></g></g></g><g
             id="g66"><path
               d="m 28.3468,-42.5202 c 0,15.65571 -12.6911,28.34681 -28.3468,28.34681 -15.6557,0 -28.3468,-12.6911 -28.3468,-28.34681 0,-15.65572 12.6911,-28.3468 28.3468,-28.3468 15.6557,0 28.3468,12.69108 28.3468,28.3468 z"
               style="fill:#e6ffe6;fill-opacity:1;fill-rule:nonzero;stroke:none"
               id="path68"
               inkscape:connector-curvature="0" /></g><g
             id="g70"><g
               id="g72"
               clip-path="url(#clipPath74)"><g
                 id="g78"><path
                   d="M 28.3468,0 C 28.3468,15.6557 15.6557,28.3468 0,28.3468 -15.6557,28.3468 -28.3468,15.6557 -28.3468,0 c 0,-15.6557 12.6911,-28.3468 28.3468,-28.3468 15.6557,0 28.3468,12.6911 28.3468,28.3468 z"
                   style="fill:#ffffff;fill-opacity:1;fill-rule:nonzero;stroke:none"
                   id="path80"
                   inkscape:connector-curvature="0" /></g><g
                 id="g82"><path
                   d="m 28.3468,28.3468 c 0,15.65572 -12.6911,28.34682 -28.3468,28.34682 -15.6557,0 -28.3468,-12.6911 -28.3468,-28.34682 C -28.3468,12.69109 -15.6557,0 0,0 15.6557,0 28.3468,12.69109 28.3468,28.3468 Z"
                   style="fill:#ffffff;fill-opacity:1;fill-rule:nonzero;stroke:none"
                   id="path84"
                   inkscape:connector-curvature="0" /></g><g
                 id="g86"><path
                   d="m 56.69362,-42.5202 c 0,15.65571 -12.6911,28.34681 -28.34682,28.34681 C 12.69109,-14.17339 0,-26.86449 0,-42.5202 0,-58.17592 12.69109,-70.867 28.3468,-70.867 c 15.65572,0 28.34682,12.69108 28.34682,28.3468 z"
                   style="fill:#ffffff;fill-opacity:1;fill-rule:nonzero;stroke:none"
                   id="path88"
                   inkscape:connector-curvature="0" /></g></g></g><g
             id="g90"><path
               d="m 56.69362,-42.5202 c 0,15.65571 -12.6911,28.34681 -28.34682,28.34681 C 12.69109,-14.17339 0,-26.86449 0,-42.5202 0,-58.17592 12.69109,-70.867 28.3468,-70.867 c 15.65572,0 28.34682,12.69108 28.34682,28.3468 z"
               style="fill:#e6e6ff;fill-opacity:1;fill-rule:nonzero;stroke:none"
               id="path92"
               inkscape:connector-curvature="0" /></g><g
             id="g94"><g
               id="g96"
               clip-path="url(#clipPath98)"><g
                 id="g102"><path
                   d="M 28.3468,0 C 28.3468,15.6557 15.6557,28.3468 0,28.3468 -15.6557,28.3468 -28.3468,15.6557 -28.3468,0 c 0,-15.6557 12.6911,-28.3468 28.3468,-28.3468 15.6557,0 28.3468,12.6911 28.3468,28.3468 z"
                   style="fill:#ffffff;fill-opacity:1;fill-rule:nonzero;stroke:none"
                   id="path104"
                   inkscape:connector-curvature="0" /></g><g
                 id="g106"><path
                   d="m 28.3468,-42.5202 c 0,15.65571 -12.6911,28.34681 -28.3468,28.34681 -15.6557,0 -28.3468,-12.6911 -28.3468,-28.34681 0,-15.65572 12.6911,-28.3468 28.3468,-28.3468 15.6557,0 28.3468,12.69108 28.3468,28.3468 z"
                   style="fill:#ffffff;fill-opacity:1;fill-rule:nonzero;stroke:none"
                   id="path108"
                   inkscape:connector-curvature="0" /></g><g
                 id="g110"><path
                   d="m 56.69362,0 c 0,15.6557 -12.6911,28.3468 -28.34682,28.3468 C 12.69109,28.3468 0,15.6557 0,0 c 0,-15.6557 12.69109,-28.3468 28.3468,-28.3468 15.65572,0 28.34682,12.6911 28.34682,28.3468 z"
                   style="fill:#ffffff;fill-opacity:1;fill-rule:nonzero;stroke:none"
                   id="path112"
                   inkscape:connector-curvature="0" /></g></g></g><path
             d="M 28.3468,0 C 28.3468,15.6557 15.6557,28.3468 0,28.3468 -15.6557,28.3468 -28.3468,15.6557 -28.3468,0 c 0,-15.6557 12.6911,-28.3468 28.3468,-28.3468 15.6557,0 28.3468,12.6911 28.3468,28.3468 z"
             style="fill:none;stroke:#000000;stroke-width:0.3985;stroke-linecap:butt;stroke-linejoin:miter;stroke-miterlimit:10;stroke-dasharray:none;stroke-opacity:1"
             id="path114"
             inkscape:connector-curvature="0" /><path
             d="m 56.69362,0 c 0,15.6557 -12.6911,28.3468 -28.34682,28.3468 C 12.69109,28.3468 0,15.6557 0,0 c 0,-15.6557 12.69109,-28.3468 28.3468,-28.3468 15.65572,0 28.34682,12.6911 28.34682,28.3468 z"
             style="fill:none;stroke:#000000;stroke-width:0.3985;stroke-linecap:butt;stroke-linejoin:miter;stroke-miterlimit:10;stroke-dasharray:none;stroke-opacity:1"
             id="path116"
             inkscape:connector-curvature="0" /><path
             d="m 28.3468,-42.5202 c 0,15.65571 -12.6911,28.34681 -28.3468,28.34681 -15.6557,0 -28.3468,-12.6911 -28.3468,-28.34681 0,-15.65572 12.6911,-28.3468 28.3468,-28.3468 15.6557,0 28.3468,12.69108 28.3468,28.3468 z"
             style="fill:none;stroke:#000000;stroke-width:0.3985;stroke-linecap:butt;stroke-linejoin:miter;stroke-miterlimit:10;stroke-dasharray:none;stroke-opacity:1"
             id="path118"
             inkscape:connector-curvature="0" /><path
             d="m 56.69362,-42.5202 c 0,15.65571 -12.6911,28.34681 -28.34682,28.34681 C 12.69109,-14.17339 0,-26.86449 0,-42.5202 0,-58.17592 12.69109,-70.867 28.3468,-70.867 c 15.65572,0 28.34682,12.69108 28.34682,28.3468 z"
             style="fill:none;stroke:#000000;stroke-width:0.3985;stroke-linecap:butt;stroke-linejoin:miter;stroke-miterlimit:10;stroke-dasharray:none;stroke-opacity:1"
             id="path120"
             inkscape:connector-curvature="0" /><g
             id="g122"><g
               id="g124"
               transform="translate(-15.343,-2.656)"><g
                 id="g126"><g
                   id="g128"
                   transform="translate(-15.389,-69.543)"><text
                     transform="matrix(1,0,0,-1,15.389,69.543)"
                     style="font-variant:normal;font-weight:normal;font-size:9.96259975px;font-family:CMMI10;-inkscape-font-specification:CMMI10;writing-mode:lr-tb;fill:#000000;fill-opacity:1;fill-rule:nonzero;stroke:none"
                     id="text130"><tspan
                       x="0"
                       y="0"
                       id="tspan132">E</tspan></text>
<text
                     transform="matrix(1,0,0,-1,22.744,68.048)"
                     style="font-variant:normal;font-weight:normal;font-size:6.97380018px;font-family:CMR7;-inkscape-font-specification:CMR7;writing-mode:lr-tb;fill:#000000;fill-opacity:1;fill-rule:nonzero;stroke:none"
                     id="text134"><tspan
                       x="0"
                       y="0"
                       id="tspan136">1</tspan></text>
<g
                     id="g138"
                     transform="translate(15.389,69.543)" /></g></g><g
                 id="g140"
                 transform="translate(15.343,2.656)" /></g></g><g
             id="g142"><g
               id="g144"
               transform="translate(31.865,-2.656)"><g
                 id="g146"><g
                   id="g148"
                   transform="translate(-62.597,-69.543)"><text
                     transform="matrix(1,0,0,-1,62.597,69.543)"
                     style="font-variant:normal;font-weight:normal;font-size:9.96259975px;font-family:CMMI10;-inkscape-font-specification:CMMI10;writing-mode:lr-tb;fill:#000000;fill-opacity:1;fill-rule:nonzero;stroke:none"
                     id="text150"><tspan
                       x="0"
                       y="0"
                       id="tspan152">E</tspan></text>
<text
                     transform="matrix(1,0,0,-1,69.952,68.048)"
                     style="font-variant:normal;font-weight:normal;font-size:6.97380018px;font-family:CMR7;-inkscape-font-specification:CMR7;writing-mode:lr-tb;fill:#000000;fill-opacity:1;fill-rule:nonzero;stroke:none"
                     id="text154"><tspan
                       x="0"
                       y="0"
                       id="tspan156">2</tspan></text>
<g
                     id="g158"
                     transform="translate(62.597,69.543)" /></g></g><g
                 id="g160"
                 transform="translate(-31.865,2.656)" /></g></g><g
             id="g162"><g
               id="g164"
               transform="translate(-15.343,-45.176)"><g
                 id="g166"><g
                   id="g168"
                   transform="translate(-15.389,-27.023)"><text
                     transform="matrix(1,0,0,-1,15.389,27.023)"
                     style="font-variant:normal;font-weight:normal;font-size:9.96259975px;font-family:CMMI10;-inkscape-font-specification:CMMI10;writing-mode:lr-tb;fill:#000000;fill-opacity:1;fill-rule:nonzero;stroke:none"
                     id="text170"><tspan
                       x="0"
                       y="0"
                       id="tspan172">E</tspan></text>
<text
                     transform="matrix(1,0,0,-1,22.744,25.528)"
                     style="font-variant:normal;font-weight:normal;font-size:6.97380018px;font-family:CMR7;-inkscape-font-specification:CMR7;writing-mode:lr-tb;fill:#000000;fill-opacity:1;fill-rule:nonzero;stroke:none"
                     id="text174"><tspan
                       x="0"
                       y="0"
                       id="tspan176">3</tspan></text>
<g
                     id="g178"
                     transform="translate(15.389,27.023)" /></g></g><g
                 id="g180"
                 transform="translate(15.343,45.176)" /></g></g><g
             id="g182"><g
               id="g184"
               transform="translate(31.865,-45.176)"><g
                 id="g186"><g
                   id="g188"
                   transform="translate(-62.597,-27.023)"><text
                     transform="matrix(1,0,0,-1,62.597,27.023)"
                     style="font-variant:normal;font-weight:normal;font-size:9.96259975px;font-family:CMMI10;-inkscape-font-specification:CMMI10;writing-mode:lr-tb;fill:#000000;fill-opacity:1;fill-rule:nonzero;stroke:none"
                     id="text190"><tspan
                       x="0"
                       y="0"
                       id="tspan192">E</tspan></text>
<text
                     transform="matrix(1,0,0,-1,69.952,25.528)"
                     style="font-variant:normal;font-weight:normal;font-size:6.97380018px;font-family:CMR7;-inkscape-font-specification:CMR7;writing-mode:lr-tb;fill:#000000;fill-opacity:1;fill-rule:nonzero;stroke:none"
                     id="text194"><tspan
                       x="0"
                       y="0"
                       id="tspan196">4</tspan></text>
<g
                     id="g198"
                     transform="translate(62.597,27.023)" /></g></g><g
                 id="g200"
                 transform="translate(-31.865,45.176)" /></g></g></g></g></g></g></svg>