<?xml version="1.0" encoding="UTF-8" standalone="no"?>
<!-- Created with Inkscape (http://www.inkscape.org/) -->

<svg
   xmlns:dc="http://purl.org/dc/elements/1.1/"
   xmlns:cc="http://creativecommons.org/ns#"
   xmlns:rdf="http://www.w3.org/1999/02/22-rdf-syntax-ns#"
   xmlns:svg="http://www.w3.org/2000/svg"
   xmlns="http://www.w3.org/2000/svg"
   xmlns:sodipodi="http://sodipodi.sourceforge.net/DTD/sodipodi-0.dtd"
   xmlns:inkscape="http://www.inkscape.org/namespaces/inkscape"
   id="svg2"
   version="1.1"
   inkscape:version="0.91 r13725"
   xml:space="preserve"
   width="195.38072"
   height="198.66286"
   viewBox="0 0 195.38072 198.66286"
   sodipodi:docname="Franc_Carreau_fig.01.svg"><metadata
     id="metadata8"><rdf:RDF><cc:Work
         rdf:about=""><dc:format>image/svg+xml</dc:format><dc:type
           rdf:resource="http://purl.org/dc/dcmitype/StillImage" /><dc:title></dc:title></cc:Work></rdf:RDF></metadata><defs
     id="defs6" /><sodipodi:namedview
     pagecolor="#ffffff"
     bordercolor="#666666"
     borderopacity="1"
     objecttolerance="10"
     gridtolerance="10"
     guidetolerance="10"
     inkscape:pageopacity="0"
     inkscape:pageshadow="2"
     inkscape:window-width="640"
     inkscape:window-height="480"
     id="namedview4"
     showgrid="false"
     fit-margin-top="0"
     fit-margin-left="0"
     fit-margin-right="0"
     fit-margin-bottom="0"
     inkscape:zoom="1.1636507"
     inkscape:cx="99.107189"
     inkscape:cy="95.837501"
     inkscape:window-x="0"
     inkscape:window-y="0"
     inkscape:window-maximized="0"
     inkscape:current-layer="g10" /><g
     id="g10"
     inkscape:groupmode="layer"
     inkscape:label="Franc_Carreau_fig.01"
     transform="matrix(1.25,0,0,-1.25,1.4178125,204.23036)"><g
       id="g12"
       transform="translate(-0.935,21.451)"><g
         id="g14"><g
           id="g16"><path
             d="m 0.45827,-7.08708 140.81749,0"
             style="fill:none;stroke:#000000;stroke-width:0.3985;stroke-linecap:butt;stroke-linejoin:miter;stroke-miterlimit:10;stroke-dasharray:none;stroke-opacity:1"
             id="path18"
             inkscape:connector-curvature="0" /><g
             id="g20"
             transform="matrix(-1,0,0,-1,0.45827,-7.08708)"><g
               id="g22"><path
                 d="M -1.19551,1.59401 C -1.09587,0.99626 0,0.09961 0.29886,0 0,-0.09961 -1.09587,-0.99626 -1.19551,-1.59401"
                 style="fill:none;stroke:#000000;stroke-width:0.31878999;stroke-linecap:round;stroke-linejoin:round;stroke-miterlimit:10;stroke-dasharray:none;stroke-opacity:1"
                 id="path24"
                 inkscape:connector-curvature="0" /></g></g><g
             id="g26"
             transform="translate(141.27576,-7.08708)"><g
               id="g28"><path
                 d="M -1.19551,1.59401 C -1.09587,0.99626 0,0.09961 0.29886,0 0,-0.09961 -1.09587,-0.99626 -1.19551,-1.59401"
                 style="fill:none;stroke:#000000;stroke-width:0.31878999;stroke-linecap:round;stroke-linejoin:round;stroke-miterlimit:10;stroke-dasharray:none;stroke-opacity:1"
                 id="path30"
                 inkscape:connector-curvature="0" /></g></g><g
             id="g32"><g
               id="g34"
               transform="translate(68.376,-16.997)"><g
                 id="g36"><g
                   id="g38"
                   transform="translate(-67.441,-4.454)"><text
                     transform="matrix(1,0,0,-1,67.441,4.454)"
                     style="font-variant:normal;font-weight:normal;font-size:9.96259975px;font-family:SFRM1000;-inkscape-font-specification:SFRM1000;writing-mode:lr-tb;fill:#000000;fill-opacity:1;fill-rule:nonzero;stroke:none"
                     id="text40"><tspan
                       x="0"
                       y="0"
                       id="tspan42">1</tspan></text>
<g
                     id="g44"
                     transform="translate(67.441,4.454)" /></g></g><g
                 id="g46"
                 transform="translate(-68.376,16.997)" /></g></g><g
             id="g48"><path
               d="m 28.34636,28.34636 85.04124,0 0,85.04124 -85.04124,0 0,-85.04124"
               style="fill:#e6e6e6;fill-opacity:1;fill-rule:nonzero;stroke:none"
               id="path50"
               inkscape:connector-curvature="0" /></g><path
             d="m 28.80464,21.2592 84.12468,0"
             style="fill:none;stroke:#000000;stroke-width:0.3985;stroke-linecap:butt;stroke-linejoin:miter;stroke-miterlimit:10;stroke-dasharray:none;stroke-opacity:1"
             id="path52"
             inkscape:connector-curvature="0" /><g
             id="g54"
             transform="matrix(-1,0,0,-1,28.80464,21.2592)"><g
               id="g56"><path
                 d="M -1.19551,1.59401 C -1.09587,0.99626 0,0.09961 0.29886,0 0,-0.09961 -1.09587,-0.99626 -1.19551,-1.59401"
                 style="fill:none;stroke:#000000;stroke-width:0.31878999;stroke-linecap:round;stroke-linejoin:round;stroke-miterlimit:10;stroke-dasharray:none;stroke-opacity:1"
                 id="path58"
                 inkscape:connector-curvature="0" /></g></g><g
             id="g60"
             transform="translate(112.92932,21.2592)"><g
               id="g62"><path
                 d="M -1.19551,1.59401 C -1.09587,0.99626 0,0.09961 0.29886,0 0,-0.09961 -1.09587,-0.99626 -1.19551,-1.59401"
                 style="fill:none;stroke:#000000;stroke-width:0.31878999;stroke-linecap:round;stroke-linejoin:round;stroke-miterlimit:10;stroke-dasharray:none;stroke-opacity:1"
                 id="path64"
                 inkscape:connector-curvature="0" /></g></g><g
             id="g66"><g
               id="g68"
               transform="translate(56.027,11.319)"><g
                 id="g70"><g
                   id="g72"
                   transform="translate(-55.092,-32.77)"><text
                     transform="matrix(1,0,0,-1,55.092,32.77)"
                     style="font-variant:normal;font-weight:normal;font-size:9.96259975px;font-family:CMR10;-inkscape-font-specification:CMR10;writing-mode:lr-tb;fill:#000000;fill-opacity:1;fill-rule:nonzero;stroke:none"
                     id="text74"><tspan
                       x="0"
                       y="0"
                       id="tspan76">1</tspan></text>
<text
                     transform="matrix(1,0,0,-1,62.288,32.77)"
                     style="font-variant:normal;font-weight:normal;font-size:9.96259975px;font-family:CMSY10;-inkscape-font-specification:CMSY10;writing-mode:lr-tb;fill:#000000;fill-opacity:1;fill-rule:nonzero;stroke:none"
                     id="text78"><tspan
                       x="0"
                       y="0"
                       id="tspan80">−</tspan></text>
<text
                     transform="matrix(1,0,0,-1,72.25,32.77)"
                     style="font-variant:normal;font-weight:normal;font-size:9.96259975px;font-family:CMR10;-inkscape-font-specification:CMR10;writing-mode:lr-tb;fill:#000000;fill-opacity:1;fill-rule:nonzero;stroke:none"
                     id="text82"><tspan
                       x="0"
                       y="0"
                       id="tspan84">2</tspan></text>
<text
                     transform="matrix(1,0,0,-1,77.232,32.77)"
                     style="font-variant:normal;font-weight:normal;font-size:9.96259975px;font-family:CMMI10;-inkscape-font-specification:CMMI10;writing-mode:lr-tb;fill:#000000;fill-opacity:1;fill-rule:nonzero;stroke:none"
                     id="text86"><tspan
                       x="0 2.7676103"
                       y="0"
                       sodipodi:role="line"
                       id="tspan88">.r</tspan></text>
<g
                     id="g90"
                     transform="translate(55.092,32.77)" /></g></g><g
                 id="g92"
                 transform="translate(-56.027,-11.319)" /></g></g><g
             id="g94"><path
               d="m 56.69273,63.77982 c 0,15.65547 -12.6909,28.34637 -28.34637,28.34637 C 12.69089,92.12619 0,79.43529 0,63.77982 0,48.12434 12.69089,35.43344 28.34636,35.43344 c 15.65547,0 28.34637,12.6909 28.34637,28.34638 z"
               style="fill:#bfbfbf;fill-opacity:1;fill-rule:nonzero;stroke:none"
               id="path96"
               inkscape:connector-curvature="0" /></g><g
             id="g98"><path
               d="m 31.18161,63.77982 c 0,1.56588 -1.26936,2.83525 -2.83525,2.83525 -1.56587,0 -2.83524,-1.26937 -2.83524,-2.83525 0,-1.56588 1.26937,-2.83526 2.83524,-2.83526 1.56589,0 2.83525,1.26938 2.83525,2.83526 z"
               style="fill:#000000;fill-opacity:1;fill-rule:nonzero;stroke:none"
               id="path100"
               inkscape:connector-curvature="0" /></g><path
             d="m 56.69273,63.77982 c 0,15.65547 -12.6909,28.34637 -28.34637,28.34637 C 12.69089,92.12619 0,79.43529 0,63.77982 0,48.12434 12.69089,35.43344 28.34636,35.43344 c 15.65547,0 28.34637,12.6909 28.34637,28.34638 z"
             style="fill:none;stroke:#000000;stroke-width:0.3985;stroke-linecap:butt;stroke-linejoin:miter;stroke-miterlimit:10;stroke-dasharray:none;stroke-opacity:1"
             id="path102"
             inkscape:connector-curvature="0" /><g
             id="g104"><g
               id="g106"
               transform="translate(16.994,46.365)"><g
                 id="g108"><g
                   id="g110"
                   transform="translate(-16.059,-67.816)"><text
                     transform="matrix(1,0,0,-1,16.059,67.816)"
                     style="font-variant:normal;font-weight:normal;font-size:9.96259975px;font-family:CMMI10;-inkscape-font-specification:CMMI10;writing-mode:lr-tb;fill:#000000;fill-opacity:1;fill-rule:nonzero;stroke:none"
                     id="text112"><tspan
                       x="0"
                       y="0"
                       id="tspan114">C</tspan></text>
<g
                     id="g116"
                     transform="translate(16.059,67.816)" /></g></g><g
                 id="g118"
                 transform="translate(-16.994,-46.365)" /></g></g><g
             id="g120"><path
               d="M 28.34636,63.77982 8.80275,83.32346"
               style="fill:none;stroke:#000000;stroke-width:0.79701;stroke-linecap:butt;stroke-linejoin:miter;stroke-miterlimit:10;stroke-dasharray:none;stroke-opacity:1"
               id="path122"
               inkscape:connector-curvature="0" /><g
               id="g124"
               transform="matrix(-0.70714,0.7071,-0.7071,-0.70714,8.80276,83.32344)"><g
                 id="g126"><path
                   d="M -1.55415,2.0722 C -1.42464,1.29512 0,0.1295 0.38852,0 0,-0.1295 -1.42464,-1.29512 -1.55415,-2.0722"
                   style="fill:none;stroke:#000000;stroke-width:0.6376;stroke-linecap:round;stroke-linejoin:round;stroke-miterlimit:10;stroke-dasharray:none;stroke-opacity:1"
                   id="path128"
                   inkscape:connector-curvature="0" /></g></g></g><g
             id="g130"><g
               id="g132"
               transform="translate(11.789,63.057)"><g
                 id="g134"><g
                   id="g136"
                   transform="translate(-10.854,-84.508)"><text
                     transform="matrix(1,0,0,-1,10.854,84.508)"
                     style="font-variant:normal;font-weight:normal;font-size:9.96259975px;font-family:CMMI10;-inkscape-font-specification:CMMI10;writing-mode:lr-tb;fill:#000000;fill-opacity:1;fill-rule:nonzero;stroke:none"
                     id="text138"><tspan
                       x="0"
                       y="0"
                       id="tspan140">r</tspan></text>
<g
                     id="g142"
                     transform="translate(10.854,84.508)" /></g></g><g
                 id="g144"
                 transform="translate(-11.789,-63.057)" /></g></g><g
             id="g146"><path
               d="m 155.90608,56.69273 c 0,15.65547 -12.6909,28.34637 -28.34636,28.34637 -15.65547,0 -28.34637,-12.6909 -28.34637,-28.34637 0,-15.65547 12.6909,-28.34637 28.34637,-28.34637 15.65546,0 28.34636,12.6909 28.34636,28.34637 z"
               style="fill:#bfbfbf;fill-opacity:1;fill-rule:nonzero;stroke:none"
               id="path148"
               inkscape:connector-curvature="0" /></g><g
             id="g150"><path
               d="m 130.39496,56.69273 c 0,1.56587 -1.26936,2.83524 -2.83524,2.83524 -1.56588,0 -2.83525,-1.26937 -2.83525,-2.83524 0,-1.56588 1.26937,-2.83525 2.83525,-2.83525 1.56588,0 2.83524,1.26937 2.83524,2.83525 z"
               style="fill:#000000;fill-opacity:1;fill-rule:nonzero;stroke:none"
               id="path152"
               inkscape:connector-curvature="0" /></g><path
             d="m 155.90608,56.69273 c 0,15.65547 -12.6909,28.34637 -28.34636,28.34637 -15.65547,0 -28.34637,-12.6909 -28.34637,-28.34637 0,-15.65547 12.6909,-28.34637 28.34637,-28.34637 15.65546,0 28.34636,12.6909 28.34636,28.34637 z"
             style="fill:none;stroke:#000000;stroke-width:0.3985;stroke-linecap:butt;stroke-linejoin:miter;stroke-miterlimit:10;stroke-dasharray:none;stroke-opacity:1"
             id="path154"
             inkscape:connector-curvature="0" /><g
             id="g156"><g
               id="g158"
               transform="translate(123.53,39.28)"><g
                 id="g160"><g
                   id="g162"
                   transform="translate(-122.595,-60.731)"><text
                     transform="matrix(1,0,0,-1,122.595,60.731)"
                     style="font-variant:normal;font-weight:normal;font-size:9.96259975px;font-family:CMMI10;-inkscape-font-specification:CMMI10;writing-mode:lr-tb;fill:#000000;fill-opacity:1;fill-rule:nonzero;stroke:none"
                     id="text164"><tspan
                       x="0"
                       y="0"
                       id="tspan166">B</tspan></text>
<g
                     id="g168"
                     transform="translate(122.595,60.731)" /></g></g><g
                 id="g170"
                 transform="translate(-123.53,-39.28)" /></g></g><g
             id="g172"><path
               d="m 106.3005,99.21335 c 0,15.65547 -12.6909,28.34637 -28.34635,28.34637 -15.65547,0 -28.34638,-12.6909 -28.34638,-28.34637 0,-15.65547 12.69091,-28.34638 28.34638,-28.34638 15.65545,0 28.34635,12.69091 28.34635,28.34638 z"
               style="fill:#bfbfbf;fill-opacity:1;fill-rule:nonzero;stroke:none"
               id="path174"
               inkscape:connector-curvature="0" /></g><g
             id="g176"><path
               d="m 80.78938,99.21335 c 0,1.56587 -1.26936,2.83525 -2.83523,2.83525 -1.56589,0 -2.83525,-1.26938 -2.83525,-2.83525 0,-1.56589 1.26936,-2.83525 2.83525,-2.83525 1.56587,0 2.83523,1.26936 2.83523,2.83525 z"
               style="fill:#000000;fill-opacity:1;fill-rule:nonzero;stroke:none"
               id="path178"
               inkscape:connector-curvature="0" /></g><path
             d="m 106.3005,99.21335 c 0,15.65547 -12.6909,28.34637 -28.34635,28.34637 -15.65547,0 -28.34638,-12.6909 -28.34638,-28.34637 0,-15.65547 12.69091,-28.34638 28.34638,-28.34638 15.65545,0 28.34635,12.69091 28.34635,28.34638 z"
             style="fill:none;stroke:#000000;stroke-width:0.3985;stroke-linecap:butt;stroke-linejoin:miter;stroke-miterlimit:10;stroke-dasharray:none;stroke-opacity:1"
             id="path180"
             inkscape:connector-curvature="0" /><g
             id="g182"><g
               id="g184"
               transform="translate(74.217,81.798)"><g
                 id="g186"><g
                   id="g188"
                   transform="translate(-73.282,-103.249)"><text
                     transform="matrix(1,0,0,-1,73.282,103.249)"
                     style="font-variant:normal;font-weight:normal;font-size:9.96259975px;font-family:CMMI10;-inkscape-font-specification:CMMI10;writing-mode:lr-tb;fill:#000000;fill-opacity:1;fill-rule:nonzero;stroke:none"
                     id="text190"><tspan
                       x="0"
                       y="0"
                       id="tspan192">A</tspan></text>
<g
                     id="g194"
                     transform="translate(73.282,103.249)" /></g></g><g
                 id="g196"
                 transform="translate(-74.217,-81.798)" /></g></g><path
             d="m 28.34636,28.34636 85.04124,0 0,85.04124 -85.04124,0 0,-85.04124"
             style="fill:none;stroke:#000000;stroke-width:0.3985;stroke-linecap:butt;stroke-linejoin:miter;stroke-miterlimit:10;stroke-dasharray:none;stroke-opacity:1"
             id="path198"
             inkscape:connector-curvature="0" /><path
             d="m 0,0 141.73404,0 0,141.73404 L 0,141.73404 0,0"
             style="fill:none;stroke:#000000;stroke-width:0.3985;stroke-linecap:butt;stroke-linejoin:miter;stroke-miterlimit:10;stroke-dasharray:none;stroke-opacity:1"
             id="path200"
             inkscape:connector-curvature="0" /></g></g></g></g></svg>