<?xml version="1.0" encoding="UTF-8" standalone="no"?>
<!-- Created with Inkscape (http://www.inkscape.org/) -->

<svg
   xmlns:dc="http://purl.org/dc/elements/1.1/"
   xmlns:cc="http://creativecommons.org/ns#"
   xmlns:rdf="http://www.w3.org/1999/02/22-rdf-syntax-ns#"
   xmlns:svg="http://www.w3.org/2000/svg"
   xmlns="http://www.w3.org/2000/svg"
   xmlns:sodipodi="http://sodipodi.sourceforge.net/DTD/sodipodi-0.dtd"
   xmlns:inkscape="http://www.inkscape.org/namespaces/inkscape"
   id="svg2"
   version="1.1"
   inkscape:version="0.91 r13725"
   xml:space="preserve"
   width="720"
   height="537.75"
   viewBox="0 0 720 537.75"
   sodipodi:docname="jeuAB_gagnant_fig.svg"><metadata
     id="metadata8"><rdf:RDF><cc:Work
         rdf:about=""><dc:format>image/svg+xml</dc:format><dc:type
           rdf:resource="http://purl.org/dc/dcmitype/StillImage" /><dc:title></dc:title></cc:Work></rdf:RDF></metadata><defs
     id="defs6"><clipPath
       clipPathUnits="userSpaceOnUse"
       id="clipPath20"><path
         d="m 72,43.02 357.12,0 0,344.16 -357.12,0 0,-344.16 z"
         id="path22"
         inkscape:connector-curvature="0" /></clipPath><clipPath
       clipPathUnits="userSpaceOnUse"
       id="clipPath30"><path
         d="m 72,43.02 357.12,0 0,344.16 -357.12,0 0,-344.16 z"
         id="path32"
         inkscape:connector-curvature="0" /></clipPath><clipPath
       clipPathUnits="userSpaceOnUse"
       id="clipPath40"><path
         d="m 72,43.02 357.12,0 0,344.16 -357.12,0 0,-344.16 z"
         id="path42"
         inkscape:connector-curvature="0" /></clipPath><clipPath
       clipPathUnits="userSpaceOnUse"
       id="clipPath50"><path
         d="m 72,43.02 357.12,0 0,344.16 -357.12,0 0,-344.16 z"
         id="path52"
         inkscape:connector-curvature="0" /></clipPath><clipPath
       clipPathUnits="userSpaceOnUse"
       id="clipPath60"><path
         d="m 72,43.02 357.12,0 0,344.16 -357.12,0 0,-344.16 z"
         id="path62"
         inkscape:connector-curvature="0" /></clipPath><clipPath
       clipPathUnits="userSpaceOnUse"
       id="clipPath70"><path
         d="m 72,43.02 357.12,0 0,344.16 -357.12,0 0,-344.16 z"
         id="path72"
         inkscape:connector-curvature="0" /></clipPath><clipPath
       clipPathUnits="userSpaceOnUse"
       id="clipPath80"><path
         d="m 72,43.02 357.12,0 0,344.16 -357.12,0 0,-344.16 z"
         id="path82"
         inkscape:connector-curvature="0" /></clipPath><clipPath
       clipPathUnits="userSpaceOnUse"
       id="clipPath90"><path
         d="m 72,43.02 357.12,0 0,344.16 -357.12,0 0,-344.16 z"
         id="path92"
         inkscape:connector-curvature="0" /></clipPath><clipPath
       clipPathUnits="userSpaceOnUse"
       id="clipPath100"><path
         d="m 72,43.02 357.12,0 0,344.16 -357.12,0 0,-344.16 z"
         id="path102"
         inkscape:connector-curvature="0" /></clipPath><clipPath
       clipPathUnits="userSpaceOnUse"
       id="clipPath110"><path
         d="m 72,43.02 357.12,0 0,344.16 -357.12,0 0,-344.16 z"
         id="path112"
         inkscape:connector-curvature="0" /></clipPath><clipPath
       clipPathUnits="userSpaceOnUse"
       id="clipPath120"><path
         d="m 72,43.02 357.12,0 0,344.16 -357.12,0 0,-344.16 z"
         id="path122"
         inkscape:connector-curvature="0" /></clipPath><clipPath
       clipPathUnits="userSpaceOnUse"
       id="clipPath130"><path
         d="m 72,43.02 357.12,0 0,344.16 -357.12,0 0,-344.16 z"
         id="path132"
         inkscape:connector-curvature="0" /></clipPath><clipPath
       clipPathUnits="userSpaceOnUse"
       id="clipPath320"><path
         d="m 451.44,43.02 17.208,0 0,344.16 -17.208,0 0,-344.16 z"
         id="path322"
         inkscape:connector-curvature="0" /></clipPath><clipPath
       clipPathUnits="userSpaceOnUse"
       id="clipPath330"><path
         d="m 451.44,43.02 17.208,0 0,344.16 -17.208,0 0,-344.16 z"
         id="path332"
         inkscape:connector-curvature="0" /></clipPath></defs><sodipodi:namedview
     pagecolor="#ffffff"
     bordercolor="#666666"
     borderopacity="1"
     objecttolerance="10"
     gridtolerance="10"
     guidetolerance="10"
     inkscape:pageopacity="0"
     inkscape:pageshadow="2"
     inkscape:window-width="756"
     inkscape:window-height="480"
     id="namedview4"
     showgrid="false"
     inkscape:zoom="0.43886564"
     inkscape:cx="360"
     inkscape:cy="268.875"
     inkscape:window-x="0"
     inkscape:window-y="0"
     inkscape:window-maximized="0"
     inkscape:current-layer="g10" /><g
     id="g10"
     inkscape:groupmode="layer"
     inkscape:label="jeuAB_gagnant_fig"
     transform="matrix(1.25,0,0,-1.25,0,537.75)"><path
       d="m 0,0 576,0 0,430.2 -576,0 L 0,0 Z"
       style="fill:#ffffff;fill-opacity:1;fill-rule:nonzero;stroke:none"
       id="path12"
       inkscape:connector-curvature="0" /><path
       d="m 72,43.02 357.12,0 0,344.16 -357.12,0 0,-344.16 z"
       style="fill:#ffffff;fill-opacity:1;fill-rule:nonzero;stroke:none"
       id="path14"
       inkscape:connector-curvature="0" /><g
       id="g16"><g
         id="g18"
         clip-path="url(#clipPath20)"><path
           d="m 72,310.10683 14.429091,-8.48265 14.634649,-8.306 14.22353,-7.82468 18.03637,-9.63356 19.9649,-10.35267 20.63027,-10.42909 24.33573,-12.0416 32.46546,-15.78581 79.36,-38.43389 25.25091,-12.53857 18.03636,-9.15098 18.07966,-9.38733 17.99307,-9.61143 14.42909,-7.94032 14.42909,-8.19167 10.82182,-6.33236 0,0"
           style="fill:none;stroke:#000080;stroke-width:1;stroke-linecap:butt;stroke-linejoin:round;stroke-miterlimit:10;stroke-dasharray:none;stroke-opacity:1"
           id="path24"
           inkscape:connector-curvature="0" /></g></g><g
       id="g26"><g
         id="g28"
         clip-path="url(#clipPath30)"><path
           d="m 72,321.90168 10.821818,-6.59753 10.821818,-6.40205 14.429094,-8.27256 13.15153,-7.31136 15.70665,-8.48833 18.03636,-9.4775 19.23024,-9.84508 20.83202,-10.42909 28.47592,-13.97397 43.28728,-20.91969 46.89454,-22.70911 25.25091,-12.45306 21.64364,-10.9032 18.2699,-9.42642 17.80283,-9.43858 14.5617,-7.94324 14.29648,-8.0369 3.60727,-2.06823 0,0"
           style="fill:none;stroke:#0000f1;stroke-width:1;stroke-linecap:butt;stroke-linejoin:round;stroke-miterlimit:10;stroke-dasharray:none;stroke-opacity:1"
           id="path34"
           inkscape:connector-curvature="0" /></g></g><g
       id="g36"><g
         id="g38"
         clip-path="url(#clipPath40)"><path
           d="m 72,333.9079 10.821818,-6.82847 10.821818,-6.60626 14.429094,-8.50661 14.43951,-8.21929 14.41867,-7.95391 18.03636,-9.656 19.62805,-10.201 20.5887,-10.42909 24.71416,-12.24456 31.99698,-15.56635 87.04302,-42.17114 25.25091,-12.5895 18.03636,-9.20357 18.03637,-9.43295 18.03636,-9.72039 10.82182,-5.99854 0,0"
           style="fill:none;stroke:#004cff;stroke-width:1;stroke-linecap:butt;stroke-linejoin:round;stroke-miterlimit:10;stroke-dasharray:none;stroke-opacity:1"
           id="path44"
           inkscape:connector-curvature="0" /></g></g><g
       id="g46"><g
         id="g48"
         clip-path="url(#clipPath50)"><path
           d="m 72,346.14766 7.214545,-4.75437 10.821819,-6.91403 10.821816,-6.68244 14.42909,-8.59465 14.42909,-8.28943 12.86093,-7.16547 15.99725,-8.66332 18.03637,-9.49206 18.83183,-9.65553 20.84817,-10.45009 28.27582,-13.88445 36.65509,-17.71892 57.71636,-27.90357 27.2998,-13.47569 20.65643,-10.4291 20.58195,-10.66629 18.03637,-9.63582 3.60727,-1.96593 0,0"
           style="fill:none;stroke:#00b1ff;stroke-width:1;stroke-linecap:butt;stroke-linejoin:round;stroke-miterlimit:10;stroke-dasharray:none;stroke-opacity:1"
           id="path54"
           inkscape:connector-curvature="0" /></g></g><g
       id="g56"><g
         id="g58"
         clip-path="url(#clipPath60)"><path
           d="m 72,358.64917 10.821818,-7.37611 10.821818,-7.08774 10.821824,-6.83552 10.82181,-6.61406 14.42909,-8.51791 14.42909,-8.22367 14.42909,-7.96982 17.20912,-9.2298 15.25634,-7.96907 18.43384,-9.41274 21.24616,-10.6138 28.85818,-14.13008 43.28727,-20.87616 46.89455,-22.66584 25.25091,-12.43154 21.64364,-10.88638 18.03636,-9.29244 14.42909,-7.61808 0,0"
           style="fill:none;stroke:#29ffce;stroke-width:1;stroke-linecap:butt;stroke-linejoin:round;stroke-miterlimit:10;stroke-dasharray:none;stroke-opacity:1"
           id="path64"
           inkscape:connector-curvature="0" /></g></g><g
       id="g66"><g
         id="g68"
         clip-path="url(#clipPath70)"><path
           d="m 72,371.44309 7.214545,-5.17745 10.821819,-7.47672 10.821816,-7.17703 10.82182,-6.91495 10.82182,-6.68478 14.42909,-8.59967 14.42909,-8.29471 14.42909,-8.02992 17.30437,-9.34059 15.16108,-7.96228 18.36383,-9.41954 21.31617,-10.68475 27.81363,-13.64979 36.00227,-17.38182 62.43865,-30.12328 25.25091,-12.44041 21.64364,-10.90285 18.03636,-9.31372 0,0"
           style="fill:none;stroke:#7dff7a;stroke-width:1;stroke-linecap:butt;stroke-linejoin:round;stroke-miterlimit:10;stroke-dasharray:none;stroke-opacity:1"
           id="path74"
           inkscape:connector-curvature="0" /></g></g><g
       id="g76"><g
         id="g78"
         clip-path="url(#clipPath80)"><path
           d="m 72,384.56183 7.214545,-5.42682 8.065478,-5.86047 9.970886,-6.97157 10.821821,-7.2662 10.82182,-6.99424 10.82181,-6.75538 14.42909,-8.68128 14.42909,-8.36502 12.65878,-7.11176 16.19941,-8.83727 18.03636,-9.54796 18.2934,-9.42568 21.3866,-10.75601 25.25091,-12.42763 32.46545,-15.70385 79.36,-38.25435 25.25091,-12.48482 18.03637,-9.11577 3.60727,-1.84673 0,0"
           style="fill:none;stroke:#ceff29;stroke-width:1;stroke-linecap:butt;stroke-linejoin:round;stroke-miterlimit:10;stroke-dasharray:none;stroke-opacity:1"
           id="path84"
           inkscape:connector-curvature="0" /></g></g><g
       id="g86"><g
         id="g88"
         clip-path="url(#clipPath90)"><path
           d="m 85.954052,387.18 9.446119,-6.95273 9.847669,-6.95273 10.24674,-6.95272 10.64101,-6.95273 11.02819,-6.95273 14.19622,-8.61873 14.42909,-8.43506 12.86589,-7.28075 15.99229,-8.77949 16.13502,-8.60233 16.33044,-8.48481 18.03636,-9.16046 21.64364,-10.75919 28.85818,-14.06339 43.28727,-20.78323 46.89455,-22.56678 25.25091,-12.37742 18.03636,-9.01419 0,0"
           style="fill:none;stroke:#ffc400;stroke-width:1;stroke-linecap:butt;stroke-linejoin:round;stroke-miterlimit:10;stroke-dasharray:none;stroke-opacity:1"
           id="path94"
           inkscape:connector-curvature="0" /></g></g><g
       id="g96"><g
         id="g98"
         clip-path="url(#clipPath100)"><path
           d="m 103.49501,387.18 9.75546,-6.95273 10.15337,-6.95273 10.54738,-6.95272 10.93522,-6.95273 13.6881,-8.38163 14.4291,-8.5048 13.06775,-7.44812 15.79043,-8.72282 16.15298,-8.65899 16.31247,-8.51379 18.03637,-9.19309 21.64363,-10.78578 27.08973,-13.22371 36.18556,-17.38181 62.97926,-30.22532 25.25091,-12.37508 3.60727,-1.78993 0,0"
           style="fill:none;stroke:#ff6800;stroke-width:1;stroke-linecap:butt;stroke-linejoin:round;stroke-miterlimit:10;stroke-dasharray:none;stroke-opacity:1"
           id="path104"
           inkscape:connector-curvature="0" /></g></g><g
       id="g106"><g
         id="g108"
         clip-path="url(#clipPath110)"><path
           d="m 121.23104,387.18 10.06317,-6.95273 10.45673,-6.95273 10.845,-6.95272 13.19315,-8.14681 14.42909,-8.57414 13.26415,-7.6136 12.46734,-6.95273 17.55578,-9.50298 14.96958,-7.87883 20.33757,-10.42909 20.85131,-10.4291 23.20154,-11.36828 32.46546,-15.63328 86.57454,-41.50549 7.21455,-3.52787 0,0"
           style="fill:none;stroke:#f10800;stroke-width:1;stroke-linecap:butt;stroke-linejoin:round;stroke-miterlimit:10;stroke-dasharray:none;stroke-opacity:1"
           id="path114"
           inkscape:connector-curvature="0" /></g></g><g
       id="g116"><g
         id="g118"
         clip-path="url(#clipPath120)"><path
           d="m 139.16554,387.18 1.37264,-0.9345 3.60727,-2.43783 0.15488,-0.10403 3.4524,-2.29866 1.78181,-1.17771 1.82546,-1.19629 3.50427,-2.28007 0.103,-0.0665 3.60727,-2.31514 1.71753,-1.09476 1.88975,-1.19512 3.60727,-2.26589 0.0246,-0.0154 3.58271,-2.22233 2.03508,-1.25403 1.5722,-0.96186 3.60727,-2.19365 0.53035,-0.32085 3.07692,-1.84885 2.72553,-1.62752 0.88174,-0.52307 3.60728,-2.12909 1.40398,-0.8242 2.20329,-1.2854 3.60727,-2.0924 0.17067,-0.0986 3.4366,-1.97313 2.63304,-1.50323 0.97424,-0.55306 3.60727,-2.03853 1.57326,-0.88477 2.03401,-1.13779 3.60728,-2.0079 0.5965,-0.33068 3.01077,-1.66069 3.30852,-1.81567 0.29875,-0.16316 3.60727,-1.963 2.49292,-1.35021 1.11436,-0.60083 3.60727,-1.93747 1.7537,-0.93806 1.85357,-0.98728 3.60727,-1.91372 1.08844,-0.57536 2.51884,-1.32625 3.60727,-1.89162 0.49449,-0.2585 3.11278,-1.62122 3.57644,-1.85514 0.0308,-0.0159 3.60727,-1.85958 3.11732,-1.60084 0.48995,-0.2508 3.60727,-1.84148 2.72071,-1.38409 0.88657,-0.44969 3.60727,-1.82478 2.38341,-1.20189 1.22386,-0.61551 3.60728,-1.80942 2.10211,-1.05143 1.50516,-0.75103 3.60727,-1.79535 1.87339,-0.92999 1.73388,-0.85887 3.60728,-1.78253 1.69367,-0.83496 1.9136,-0.94158 3.60727,-1.77092 1.55929,-0.76387 2.04798,-1.00159 3.60728,-1.76048 1.46645,-0.71429 2.14082,-1.04128 3.60727,-1.75117 1.41129,-0.68391 2.19598,-1.06293 3.60728,-1.74298 1.38979,-0.67046 2.21748,-1.06875 3.60727,-1.73587 1.39791,-0.67174 2.20937,-1.06094 3.60727,-1.72984 1.43148,-0.68558 2.17579,-1.04161 3.60727,-1.72486 1.48628,-0.7099 2.121,-1.01286 3.60727,-1.72091 1.55802,-0.74259 2.04925,-0.97677 3.60727,-1.718 1.64236,-0.78159 1.96492,-0.93538 3.60727,-1.71612 1.73489,-0.82487 1.87238,-0.89072 3.60728,-1.71527 1.83118,-0.87037 1.77609,-0.84485 3.60727,-1.71544 1.92678,-0.91607 1.68049,-0.79981 3.60728,-1.71665 2.01718,-0.95991 1.59009,-0.75765 3.60727,-1.71889 2.0979,-0.99982 1.50938,-0.72046 3.60727,-1.7222 2.16441,-1.03371 1.44286,-0.69034 3.60727,-1.72658 2.21223,-1.05944 1.39505,-0.66947 3.60727,-1.73205 2.23685,-1.07484 1.37042,-0.66004 3.60727,-1.73864 2.23384,-1.07769 1.37344,-0.66432 3.60727,-1.74637"
           style="fill:none;stroke:#800000;stroke-width:1;stroke-linecap:butt;stroke-linejoin:round;stroke-miterlimit:10;stroke-dasharray:none;stroke-opacity:1"
           id="path124"
           inkscape:connector-curvature="0" /></g></g><g
       id="g126"><g
         id="g128"
         clip-path="url(#clipPath130)"><path
           d="m 105.9264,296.4192 c 0.79561,0 1.55874,0.3161 2.12132,0.87868 0.56258,0.56258 0.87868,1.32571 0.87868,2.12132 0,0.79561 -0.3161,1.55874 -0.87868,2.12132 -0.56258,0.56258 -1.32571,0.87868 -2.12132,0.87868 -0.79561,0 -1.55874,-0.3161 -2.12132,-0.87868 -0.56258,-0.56258 -0.87868,-1.32571 -0.87868,-2.12132 0,-0.79561 0.3161,-1.55874 0.87868,-2.12132 0.56258,-0.56258 1.32571,-0.87868 2.12132,-0.87868 z"
           style="fill:#0000ff;fill-opacity:1;fill-rule:nonzero;stroke:#000000;stroke-width:0.5;stroke-linecap:butt;stroke-linejoin:round;stroke-miterlimit:10;stroke-dasharray:none;stroke-opacity:1"
           id="path134"
           inkscape:connector-curvature="0" /></g></g><g
       id="g136"><path
         d="m 72,43.02 0,344.16"
         style="fill:none;stroke:#000000;stroke-width:1;stroke-linecap:square;stroke-linejoin:miter;stroke-miterlimit:10;stroke-dasharray:none;stroke-opacity:1"
         id="path138"
         inkscape:connector-curvature="0" /><path
         d="m 72,387.18 357.12,0"
         style="fill:none;stroke:#000000;stroke-width:1;stroke-linecap:square;stroke-linejoin:miter;stroke-miterlimit:10;stroke-dasharray:none;stroke-opacity:1"
         id="path140"
         inkscape:connector-curvature="0" /><path
         d="m 429.12,43.02 0,344.16"
         style="fill:none;stroke:#000000;stroke-width:1;stroke-linecap:square;stroke-linejoin:miter;stroke-miterlimit:10;stroke-dasharray:none;stroke-opacity:1"
         id="path142"
         inkscape:connector-curvature="0" /><path
         d="m 72,43.02 357.12,0"
         style="fill:none;stroke:#000000;stroke-width:1;stroke-linecap:square;stroke-linejoin:miter;stroke-miterlimit:10;stroke-dasharray:none;stroke-opacity:1"
         id="path144"
         inkscape:connector-curvature="0" /><path
         d="m 72,43.02 0,4"
         style="fill:#000000;fill-opacity:1;fill-rule:nonzero;stroke:#000000;stroke-width:0.5;stroke-linecap:butt;stroke-linejoin:round;stroke-miterlimit:10;stroke-dasharray:none;stroke-opacity:1"
         id="path146"
         inkscape:connector-curvature="0" /><path
         d="m 72,387.18 0,-4"
         style="fill:#000000;fill-opacity:1;fill-rule:nonzero;stroke:#000000;stroke-width:0.5;stroke-linecap:butt;stroke-linejoin:round;stroke-miterlimit:10;stroke-dasharray:none;stroke-opacity:1"
         id="path148"
         inkscape:connector-curvature="0" /><text
         transform="matrix(1,0,0,-1,62.453125,29.895)"
         style="font-variant:normal;font-weight:normal;font-size:12px;font-family:BitstreamVeraSans;-inkscape-font-specification:BitstreamVeraSans-Roman;writing-mode:lr-tb;fill:#000000;fill-opacity:1;fill-rule:nonzero;stroke:none"
         id="text150"><tspan
           x="0 7.632 11.448"
           y="0"
           sodipodi:role="line"
           id="tspan152">0.0</tspan></text>
<path
         d="m 143.424,43.02 0,4"
         style="fill:#000000;fill-opacity:1;fill-rule:nonzero;stroke:#000000;stroke-width:0.5;stroke-linecap:butt;stroke-linejoin:round;stroke-miterlimit:10;stroke-dasharray:none;stroke-opacity:1"
         id="path154"
         inkscape:connector-curvature="0" /><path
         d="m 143.424,387.18 0,-4"
         style="fill:#000000;fill-opacity:1;fill-rule:nonzero;stroke:#000000;stroke-width:0.5;stroke-linecap:butt;stroke-linejoin:round;stroke-miterlimit:10;stroke-dasharray:none;stroke-opacity:1"
         id="path156"
         inkscape:connector-curvature="0" /><text
         transform="matrix(1,0,0,-1,133.87712,29.895)"
         style="font-variant:normal;font-weight:normal;font-size:12px;font-family:BitstreamVeraSans;-inkscape-font-specification:BitstreamVeraSans-Roman;writing-mode:lr-tb;fill:#000000;fill-opacity:1;fill-rule:nonzero;stroke:none"
         id="text158"><tspan
           x="0 7.632 11.448"
           y="0"
           sodipodi:role="line"
           id="tspan160">0.2</tspan></text>
<path
         d="m 214.848,43.02 0,4"
         style="fill:#000000;fill-opacity:1;fill-rule:nonzero;stroke:#000000;stroke-width:0.5;stroke-linecap:butt;stroke-linejoin:round;stroke-miterlimit:10;stroke-dasharray:none;stroke-opacity:1"
         id="path162"
         inkscape:connector-curvature="0" /><path
         d="m 214.848,387.18 0,-4"
         style="fill:#000000;fill-opacity:1;fill-rule:nonzero;stroke:#000000;stroke-width:0.5;stroke-linecap:butt;stroke-linejoin:round;stroke-miterlimit:10;stroke-dasharray:none;stroke-opacity:1"
         id="path164"
         inkscape:connector-curvature="0" /><text
         transform="matrix(1,0,0,-1,205.30113,29.895)"
         style="font-variant:normal;font-weight:normal;font-size:12px;font-family:BitstreamVeraSans;-inkscape-font-specification:BitstreamVeraSans-Roman;writing-mode:lr-tb;fill:#000000;fill-opacity:1;fill-rule:nonzero;stroke:none"
         id="text166"><tspan
           x="0 7.632 11.448"
           y="0"
           sodipodi:role="line"
           id="tspan168">0.4</tspan></text>
<path
         d="m 286.272,43.02 0,4"
         style="fill:#000000;fill-opacity:1;fill-rule:nonzero;stroke:#000000;stroke-width:0.5;stroke-linecap:butt;stroke-linejoin:round;stroke-miterlimit:10;stroke-dasharray:none;stroke-opacity:1"
         id="path170"
         inkscape:connector-curvature="0" /><path
         d="m 286.272,387.18 0,-4"
         style="fill:#000000;fill-opacity:1;fill-rule:nonzero;stroke:#000000;stroke-width:0.5;stroke-linecap:butt;stroke-linejoin:round;stroke-miterlimit:10;stroke-dasharray:none;stroke-opacity:1"
         id="path172"
         inkscape:connector-curvature="0" /><text
         transform="matrix(1,0,0,-1,276.72512,29.895)"
         style="font-variant:normal;font-weight:normal;font-size:12px;font-family:BitstreamVeraSans;-inkscape-font-specification:BitstreamVeraSans-Roman;writing-mode:lr-tb;fill:#000000;fill-opacity:1;fill-rule:nonzero;stroke:none"
         id="text174"><tspan
           x="0 7.632 11.448"
           y="0"
           sodipodi:role="line"
           id="tspan176">0.6</tspan></text>
<path
         d="m 357.696,43.02 0,4"
         style="fill:#000000;fill-opacity:1;fill-rule:nonzero;stroke:#000000;stroke-width:0.5;stroke-linecap:butt;stroke-linejoin:round;stroke-miterlimit:10;stroke-dasharray:none;stroke-opacity:1"
         id="path178"
         inkscape:connector-curvature="0" /><path
         d="m 357.696,387.18 0,-4"
         style="fill:#000000;fill-opacity:1;fill-rule:nonzero;stroke:#000000;stroke-width:0.5;stroke-linecap:butt;stroke-linejoin:round;stroke-miterlimit:10;stroke-dasharray:none;stroke-opacity:1"
         id="path180"
         inkscape:connector-curvature="0" /><text
         transform="matrix(1,0,0,-1,348.14913,29.895)"
         style="font-variant:normal;font-weight:normal;font-size:12px;font-family:BitstreamVeraSans;-inkscape-font-specification:BitstreamVeraSans-Roman;writing-mode:lr-tb;fill:#000000;fill-opacity:1;fill-rule:nonzero;stroke:none"
         id="text182"><tspan
           x="0 7.632 11.448"
           y="0"
           sodipodi:role="line"
           id="tspan184">0.8</tspan></text>
<path
         d="m 429.12,43.02 0,4"
         style="fill:#000000;fill-opacity:1;fill-rule:nonzero;stroke:#000000;stroke-width:0.5;stroke-linecap:butt;stroke-linejoin:round;stroke-miterlimit:10;stroke-dasharray:none;stroke-opacity:1"
         id="path186"
         inkscape:connector-curvature="0" /><path
         d="m 429.12,387.18 0,-4"
         style="fill:#000000;fill-opacity:1;fill-rule:nonzero;stroke:#000000;stroke-width:0.5;stroke-linecap:butt;stroke-linejoin:round;stroke-miterlimit:10;stroke-dasharray:none;stroke-opacity:1"
         id="path188"
         inkscape:connector-curvature="0" /><text
         transform="matrix(1,0,0,-1,419.57312,29.895)"
         style="font-variant:normal;font-weight:normal;font-size:12px;font-family:BitstreamVeraSans;-inkscape-font-specification:BitstreamVeraSans-Roman;writing-mode:lr-tb;fill:#000000;fill-opacity:1;fill-rule:nonzero;stroke:none"
         id="text190"><tspan
           x="0 7.632 11.448"
           y="0"
           sodipodi:role="line"
           id="tspan192">1.0</tspan></text>
<g
         id="g194"
         transform="translate(244.56,13.77)"><text
           transform="matrix(1,0,0,-1,0,0.703125)"
           style="font-variant:normal;font-weight:normal;font-size:12px;font-family:Cmmi10;-inkscape-font-specification:Cmmi10;writing-mode:lr-tb;fill:#000000;fill-opacity:1;fill-rule:nonzero;stroke:none"
           id="text196"><tspan
             x="0"
             y="0"
             id="tspan198">p</tspan></text>
<text
           transform="matrix(1,0,0,-1,6.0351562,-1.337625)"
           style="font-variant:normal;font-weight:normal;font-size:8.39999962px;font-family:Cmr10;-inkscape-font-specification:Cmr10;writing-mode:lr-tb;fill:#000000;fill-opacity:1;fill-rule:nonzero;stroke:none"
           id="text200"><tspan
             x="0"
             y="0"
             id="tspan202">1</tspan></text>
</g><path
         d="m 72,43.02 4,0"
         style="fill:#000000;fill-opacity:1;fill-rule:nonzero;stroke:#000000;stroke-width:0.5;stroke-linecap:butt;stroke-linejoin:round;stroke-miterlimit:10;stroke-dasharray:none;stroke-opacity:1"
         id="path204"
         inkscape:connector-curvature="0" /><path
         d="m 429.12,43.02 -4,0"
         style="fill:#000000;fill-opacity:1;fill-rule:nonzero;stroke:#000000;stroke-width:0.5;stroke-linecap:butt;stroke-linejoin:round;stroke-miterlimit:10;stroke-dasharray:none;stroke-opacity:1"
         id="path206"
         inkscape:connector-curvature="0" /><text
         transform="matrix(1,0,0,-1,48.90625,39.7075)"
         style="font-variant:normal;font-weight:normal;font-size:12px;font-family:BitstreamVeraSans;-inkscape-font-specification:BitstreamVeraSans-Roman;writing-mode:lr-tb;fill:#000000;fill-opacity:1;fill-rule:nonzero;stroke:none"
         id="text208"><tspan
           x="0 7.632 11.448"
           y="0"
           sodipodi:role="line"
           id="tspan210">0.0</tspan></text>
<path
         d="m 72,111.852 4,0"
         style="fill:#000000;fill-opacity:1;fill-rule:nonzero;stroke:#000000;stroke-width:0.5;stroke-linecap:butt;stroke-linejoin:round;stroke-miterlimit:10;stroke-dasharray:none;stroke-opacity:1"
         id="path212"
         inkscape:connector-curvature="0" /><path
         d="m 429.12,111.852 -4,0"
         style="fill:#000000;fill-opacity:1;fill-rule:nonzero;stroke:#000000;stroke-width:0.5;stroke-linecap:butt;stroke-linejoin:round;stroke-miterlimit:10;stroke-dasharray:none;stroke-opacity:1"
         id="path214"
         inkscape:connector-curvature="0" /><text
         transform="matrix(1,0,0,-1,48.90625,108.5395)"
         style="font-variant:normal;font-weight:normal;font-size:12px;font-family:BitstreamVeraSans;-inkscape-font-specification:BitstreamVeraSans-Roman;writing-mode:lr-tb;fill:#000000;fill-opacity:1;fill-rule:nonzero;stroke:none"
         id="text216"><tspan
           x="0 7.632 11.448"
           y="0"
           sodipodi:role="line"
           id="tspan218">0.2</tspan></text>
<path
         d="m 72,180.684 4,0"
         style="fill:#000000;fill-opacity:1;fill-rule:nonzero;stroke:#000000;stroke-width:0.5;stroke-linecap:butt;stroke-linejoin:round;stroke-miterlimit:10;stroke-dasharray:none;stroke-opacity:1"
         id="path220"
         inkscape:connector-curvature="0" /><path
         d="m 429.12,180.684 -4,0"
         style="fill:#000000;fill-opacity:1;fill-rule:nonzero;stroke:#000000;stroke-width:0.5;stroke-linecap:butt;stroke-linejoin:round;stroke-miterlimit:10;stroke-dasharray:none;stroke-opacity:1"
         id="path222"
         inkscape:connector-curvature="0" /><text
         transform="matrix(1,0,0,-1,48.90625,177.3715)"
         style="font-variant:normal;font-weight:normal;font-size:12px;font-family:BitstreamVeraSans;-inkscape-font-specification:BitstreamVeraSans-Roman;writing-mode:lr-tb;fill:#000000;fill-opacity:1;fill-rule:nonzero;stroke:none"
         id="text224"><tspan
           x="0 7.632 11.448"
           y="0"
           sodipodi:role="line"
           id="tspan226">0.4</tspan></text>
<path
         d="m 72,249.516 4,0"
         style="fill:#000000;fill-opacity:1;fill-rule:nonzero;stroke:#000000;stroke-width:0.5;stroke-linecap:butt;stroke-linejoin:round;stroke-miterlimit:10;stroke-dasharray:none;stroke-opacity:1"
         id="path228"
         inkscape:connector-curvature="0" /><path
         d="m 429.12,249.516 -4,0"
         style="fill:#000000;fill-opacity:1;fill-rule:nonzero;stroke:#000000;stroke-width:0.5;stroke-linecap:butt;stroke-linejoin:round;stroke-miterlimit:10;stroke-dasharray:none;stroke-opacity:1"
         id="path230"
         inkscape:connector-curvature="0" /><text
         transform="matrix(1,0,0,-1,48.90625,246.2035)"
         style="font-variant:normal;font-weight:normal;font-size:12px;font-family:BitstreamVeraSans;-inkscape-font-specification:BitstreamVeraSans-Roman;writing-mode:lr-tb;fill:#000000;fill-opacity:1;fill-rule:nonzero;stroke:none"
         id="text232"><tspan
           x="0 7.632 11.448"
           y="0"
           sodipodi:role="line"
           id="tspan234">0.6</tspan></text>
<path
         d="m 72,318.348 4,0"
         style="fill:#000000;fill-opacity:1;fill-rule:nonzero;stroke:#000000;stroke-width:0.5;stroke-linecap:butt;stroke-linejoin:round;stroke-miterlimit:10;stroke-dasharray:none;stroke-opacity:1"
         id="path236"
         inkscape:connector-curvature="0" /><path
         d="m 429.12,318.348 -4,0"
         style="fill:#000000;fill-opacity:1;fill-rule:nonzero;stroke:#000000;stroke-width:0.5;stroke-linecap:butt;stroke-linejoin:round;stroke-miterlimit:10;stroke-dasharray:none;stroke-opacity:1"
         id="path238"
         inkscape:connector-curvature="0" /><text
         transform="matrix(1,0,0,-1,48.90625,315.0355)"
         style="font-variant:normal;font-weight:normal;font-size:12px;font-family:BitstreamVeraSans;-inkscape-font-specification:BitstreamVeraSans-Roman;writing-mode:lr-tb;fill:#000000;fill-opacity:1;fill-rule:nonzero;stroke:none"
         id="text240"><tspan
           x="0 7.632 11.448"
           y="0"
           sodipodi:role="line"
           id="tspan242">0.8</tspan></text>
<path
         d="m 72,387.18 4,0"
         style="fill:#000000;fill-opacity:1;fill-rule:nonzero;stroke:#000000;stroke-width:0.5;stroke-linecap:butt;stroke-linejoin:round;stroke-miterlimit:10;stroke-dasharray:none;stroke-opacity:1"
         id="path244"
         inkscape:connector-curvature="0" /><path
         d="m 429.12,387.18 -4,0"
         style="fill:#000000;fill-opacity:1;fill-rule:nonzero;stroke:#000000;stroke-width:0.5;stroke-linecap:butt;stroke-linejoin:round;stroke-miterlimit:10;stroke-dasharray:none;stroke-opacity:1"
         id="path246"
         inkscape:connector-curvature="0" /><text
         transform="matrix(1,0,0,-1,48.90625,383.8675)"
         style="font-variant:normal;font-weight:normal;font-size:12px;font-family:BitstreamVeraSans;-inkscape-font-specification:BitstreamVeraSans-Roman;writing-mode:lr-tb;fill:#000000;fill-opacity:1;fill-rule:nonzero;stroke:none"
         id="text248"><tspan
           x="0 7.632 11.448"
           y="0"
           sodipodi:role="line"
           id="tspan250">1.0</tspan></text>
<g
         id="g252"
         transform="matrix(0,1,-1,0,40.90625,209.1)"><text
           transform="matrix(1,0,0,-1,0,0.703125)"
           style="font-variant:normal;font-weight:normal;font-size:12px;font-family:Cmmi10;-inkscape-font-specification:Cmmi10;writing-mode:lr-tb;fill:#000000;fill-opacity:1;fill-rule:nonzero;stroke:none"
           id="text254"><tspan
             x="0"
             y="0"
             id="tspan256">p</tspan></text>
<text
           transform="matrix(1,0,0,-1,6.0351562,-1.337625)"
           style="font-variant:normal;font-weight:normal;font-size:8.39999962px;font-family:Cmr10;-inkscape-font-specification:Cmr10;writing-mode:lr-tb;fill:#000000;fill-opacity:1;fill-rule:nonzero;stroke:none"
           id="text258"><tspan
             x="0"
             y="0"
             id="tspan260">2</tspan></text>
</g><g
         id="g262"
         transform="translate(63.56,392.18)"><text
           transform="matrix(1,0,0,-1,0,0.203125)"
           style="font-variant:normal;font-weight:normal;font-size:14.39999962px;font-family:BitstreamVeraSans;-inkscape-font-specification:BitstreamVeraSans-Roman;writing-mode:lr-tb;fill:#000000;fill-opacity:1;fill-rule:nonzero;stroke:none"
           id="text264"><tspan
             x="0 10.037231 18.832092 27.94281 37.067566 41.061401 49.905396 57.394714"
             y="0"
             sodipodi:role="line"
             id="tspan266">Couples </tspan></text>
<text
           transform="matrix(1,0,0,-1,61.964111,0.203125)"
           style="font-variant:normal;font-weight:normal;font-size:14.39999962px;font-family:Cmr10;-inkscape-font-specification:Cmr10;writing-mode:lr-tb;fill:#000000;fill-opacity:1;fill-rule:nonzero;stroke:none"
           id="text268"><tspan
             x="0"
             y="0"
             id="tspan270">(</tspan></text>
<text
           transform="matrix(1,0,0,-1,67.550308,0.203125)"
           style="font-variant:normal;font-weight:normal;font-size:14.39999962px;font-family:Cmmi10;-inkscape-font-specification:Cmmi10;writing-mode:lr-tb;fill:#000000;fill-opacity:1;fill-rule:nonzero;stroke:none"
           id="text272"><tspan
             x="0"
             y="0"
             id="tspan274">p</tspan></text>
<text
           transform="matrix(1,0,0,-1,74.787781,-2.245775)"
           style="font-variant:normal;font-weight:normal;font-size:10.07999992px;font-family:Cmr10;-inkscape-font-specification:Cmr10;writing-mode:lr-tb;fill:#000000;fill-opacity:1;fill-rule:nonzero;stroke:none"
           id="text276"><tspan
             x="0"
             y="0"
             id="tspan278">1</tspan></text>
<text
           transform="matrix(1,0,0,-1,80.742837,0.203125)"
           style="font-variant:normal;font-weight:normal;font-size:14.39999962px;font-family:Cmmi10;-inkscape-font-specification:Cmmi10;writing-mode:lr-tb;fill:#000000;fill-opacity:1;fill-rule:nonzero;stroke:none"
           id="text280"><tspan
             x="0 6.5109072"
             y="0"
             sodipodi:role="line"
             id="tspan282">,p</tspan></text>
<text
           transform="matrix(1,0,0,-1,94.491217,-2.245775)"
           style="font-variant:normal;font-weight:normal;font-size:10.07999992px;font-family:Cmr10;-inkscape-font-specification:Cmr10;writing-mode:lr-tb;fill:#000000;fill-opacity:1;fill-rule:nonzero;stroke:none"
           id="text284"><tspan
             x="0"
             y="0"
             id="tspan286">2</tspan></text>
<text
           transform="matrix(1,0,0,-1,100.44627,0.203125)"
           style="font-variant:normal;font-weight:normal;font-size:14.39999962px;font-family:Cmr10;-inkscape-font-specification:Cmr10;writing-mode:lr-tb;fill:#000000;fill-opacity:1;fill-rule:nonzero;stroke:none"
           id="text288"><tspan
             x="0"
             y="0"
             id="tspan290">)</tspan></text>
<text
           transform="matrix(1,0,0,-1,110.60187,0.203125)"
           style="font-variant:normal;font-weight:normal;font-size:14.39999962px;font-family:BitstreamVeraSans;-inkscape-font-specification:BitstreamVeraSans-Roman;writing-mode:lr-tb;fill:#000000;fill-opacity:1;fill-rule:nonzero;stroke:none"
           id="text292"><tspan
             x="0 9.1247559 17.919617 27.030334 36.141052 44.949951 54.060669 59.69696 64.266357 68.260193 77.104187 81.673584 85.667419 94.511414 103.62213 108.19153 118.02521 127.88696 132.45636 141.58112 150.39001 159.51477 168.62549 177.43439 186.5451 192.1814 196.75079"
             y="0"
             sodipodi:role="line"
             id="tspan294">donnant le jeu AB gagnant (</tspan></text>
<text
           transform="matrix(1,0,0,-1,312.96088,0.203125)"
           style="font-variant:normal;font-weight:normal;font-size:14.39999962px;font-family:Cmmi10;-inkscape-font-specification:Cmmi10;writing-mode:lr-tb;fill:#000000;fill-opacity:1;fill-rule:nonzero;stroke:none"
           id="text296"><tspan
             x="0"
             y="0"
             id="tspan298">P</tspan></text>
<text
           transform="matrix(1,0,0,-1,322.20094,-2.245775)"
           style="font-variant:normal;font-weight:normal;font-size:10.07999992px;font-family:Cmmi10;-inkscape-font-specification:Cmmi10;writing-mode:lr-tb;fill:#000000;fill-opacity:1;fill-rule:nonzero;stroke:none"
           id="text300"><tspan
             x="0 7.555078"
             y="0"
             sodipodi:role="line"
             id="tspan302">AB</tspan></text>
<text
           transform="matrix(1,0,0,-1,340.83493,0.203125)"
           style="font-variant:normal;font-weight:normal;font-size:14.39999962px;font-family:Cmmi10;-inkscape-font-specification:Cmmi10;writing-mode:lr-tb;fill:#000000;fill-opacity:1;fill-rule:nonzero;stroke:none"
           id="text304"><tspan
             x="0 13.70622"
             y="0"
             sodipodi:role="line"
             id="tspan306">&gt;.</tspan></text>
<text
           transform="matrix(1,0,0,-1,361.05205,0.203125)"
           style="font-variant:normal;font-weight:normal;font-size:14.39999962px;font-family:Cmr10;-inkscape-font-specification:Cmr10;writing-mode:lr-tb;fill:#000000;fill-opacity:1;fill-rule:nonzero;stroke:none"
           id="text308"><tspan
             x="0"
             y="0"
             id="tspan310">5</tspan></text>
<text
           transform="matrix(1,0,0,-1,368.24736,0.203125)"
           style="font-variant:normal;font-weight:normal;font-size:14.39999962px;font-family:BitstreamVeraSans;-inkscape-font-specification:BitstreamVeraSans-Roman;writing-mode:lr-tb;fill:#000000;fill-opacity:1;fill-rule:nonzero;stroke:none"
           id="text312"><tspan
             x="0"
             y="0"
             id="tspan314">)</tspan></text>
</g></g><g
       id="g316"><g
         id="g318"
         clip-path="url(#clipPath320)"><path
           d="m 451.44,43.02 0,34.416 0,275.328 0,34.416 17.208,0 0,-34.416 0,-275.328 0,-34.416 -17.208,0 z"
           style="fill:#ffffff;fill-opacity:1;fill-rule:nonzero;stroke:#ffffff;stroke-width:0.01;stroke-linecap:butt;stroke-linejoin:miter;stroke-miterlimit:10;stroke-dasharray:none;stroke-opacity:1"
           id="path324"
           inkscape:connector-curvature="0" /></g></g><g
       id="g326"><g
         id="g328"
         clip-path="url(#clipPath330)"><path
           d="m 451.44,43.02 17.208,0"
           style="fill:none;stroke:#000080;stroke-width:1;stroke-linecap:butt;stroke-linejoin:round;stroke-miterlimit:10;stroke-dasharray:none;stroke-opacity:1"
           id="path334"
           inkscape:connector-curvature="0" /><path
           d="m 451.44,77.436 17.208,0"
           style="fill:none;stroke:#0000f1;stroke-width:1;stroke-linecap:butt;stroke-linejoin:round;stroke-miterlimit:10;stroke-dasharray:none;stroke-opacity:1"
           id="path336"
           inkscape:connector-curvature="0" /><path
           d="m 451.44,111.852 17.208,0"
           style="fill:none;stroke:#004cff;stroke-width:1;stroke-linecap:butt;stroke-linejoin:round;stroke-miterlimit:10;stroke-dasharray:none;stroke-opacity:1"
           id="path338"
           inkscape:connector-curvature="0" /><path
           d="m 451.44,146.268 17.208,0"
           style="fill:none;stroke:#00b1ff;stroke-width:1;stroke-linecap:butt;stroke-linejoin:round;stroke-miterlimit:10;stroke-dasharray:none;stroke-opacity:1"
           id="path340"
           inkscape:connector-curvature="0" /><path
           d="m 451.44,180.684 17.208,0"
           style="fill:none;stroke:#29ffce;stroke-width:1;stroke-linecap:butt;stroke-linejoin:round;stroke-miterlimit:10;stroke-dasharray:none;stroke-opacity:1"
           id="path342"
           inkscape:connector-curvature="0" /><path
           d="m 451.44,215.1 17.208,0"
           style="fill:none;stroke:#7dff7a;stroke-width:1;stroke-linecap:butt;stroke-linejoin:round;stroke-miterlimit:10;stroke-dasharray:none;stroke-opacity:1"
           id="path344"
           inkscape:connector-curvature="0" /><path
           d="m 451.44,249.516 17.208,0"
           style="fill:none;stroke:#ceff29;stroke-width:1;stroke-linecap:butt;stroke-linejoin:round;stroke-miterlimit:10;stroke-dasharray:none;stroke-opacity:1"
           id="path346"
           inkscape:connector-curvature="0" /><path
           d="m 451.44,283.932 17.208,0"
           style="fill:none;stroke:#ffc400;stroke-width:1;stroke-linecap:butt;stroke-linejoin:round;stroke-miterlimit:10;stroke-dasharray:none;stroke-opacity:1"
           id="path348"
           inkscape:connector-curvature="0" /><path
           d="m 451.44,318.348 17.208,0"
           style="fill:none;stroke:#ff6800;stroke-width:1;stroke-linecap:butt;stroke-linejoin:round;stroke-miterlimit:10;stroke-dasharray:none;stroke-opacity:1"
           id="path350"
           inkscape:connector-curvature="0" /><path
           d="m 451.44,352.764 17.208,0"
           style="fill:none;stroke:#f10800;stroke-width:1;stroke-linecap:butt;stroke-linejoin:round;stroke-miterlimit:10;stroke-dasharray:none;stroke-opacity:1"
           id="path352"
           inkscape:connector-curvature="0" /><path
           d="m 451.44,387.18 17.208,0"
           style="fill:none;stroke:#800000;stroke-width:1;stroke-linecap:butt;stroke-linejoin:round;stroke-miterlimit:10;stroke-dasharray:none;stroke-opacity:1"
           id="path354"
           inkscape:connector-curvature="0" /></g></g><g
       id="g356"><path
         d="m 451.44,43.02 0,34.416 0,275.328 0,34.416 17.208,0 0,-34.416 0,-275.328 0,-34.416 -17.208,0 z"
         style="fill:none;stroke:#000000;stroke-width:1;stroke-linecap:butt;stroke-linejoin:miter;stroke-miterlimit:10;stroke-dasharray:none;stroke-opacity:1"
         id="path358"
         inkscape:connector-curvature="0" /><path
         d="m 468.648,43.02 -4,0"
         style="fill:#000000;fill-opacity:1;fill-rule:nonzero;stroke:#000000;stroke-width:0.5;stroke-linecap:butt;stroke-linejoin:round;stroke-miterlimit:10;stroke-dasharray:none;stroke-opacity:1"
         id="path360"
         inkscape:connector-curvature="0" /><text
         transform="matrix(1,0,0,-1,472.648,39.7075)"
         style="font-variant:normal;font-weight:normal;font-size:12px;font-family:BitstreamVeraSans;-inkscape-font-specification:BitstreamVeraSans-Roman;writing-mode:lr-tb;fill:#000000;fill-opacity:1;fill-rule:nonzero;stroke:none"
         id="text362"><tspan
           x="0 7.632 11.448 19.08"
           y="0"
           sodipodi:role="line"
           id="tspan364">0.50</tspan></text>
<path
         d="m 468.648,111.852 -4,0"
         style="fill:#000000;fill-opacity:1;fill-rule:nonzero;stroke:#000000;stroke-width:0.5;stroke-linecap:butt;stroke-linejoin:round;stroke-miterlimit:10;stroke-dasharray:none;stroke-opacity:1"
         id="path366"
         inkscape:connector-curvature="0" /><text
         transform="matrix(1,0,0,-1,472.648,108.5395)"
         style="font-variant:normal;font-weight:normal;font-size:12px;font-family:BitstreamVeraSans;-inkscape-font-specification:BitstreamVeraSans-Roman;writing-mode:lr-tb;fill:#000000;fill-opacity:1;fill-rule:nonzero;stroke:none"
         id="text368"><tspan
           x="0 7.632 11.448 19.08"
           y="0"
           sodipodi:role="line"
           id="tspan370">0.52</tspan></text>
<path
         d="m 468.648,180.684 -4,0"
         style="fill:#000000;fill-opacity:1;fill-rule:nonzero;stroke:#000000;stroke-width:0.5;stroke-linecap:butt;stroke-linejoin:round;stroke-miterlimit:10;stroke-dasharray:none;stroke-opacity:1"
         id="path372"
         inkscape:connector-curvature="0" /><text
         transform="matrix(1,0,0,-1,472.648,177.3715)"
         style="font-variant:normal;font-weight:normal;font-size:12px;font-family:BitstreamVeraSans;-inkscape-font-specification:BitstreamVeraSans-Roman;writing-mode:lr-tb;fill:#000000;fill-opacity:1;fill-rule:nonzero;stroke:none"
         id="text374"><tspan
           x="0 7.632 11.448 19.08"
           y="0"
           sodipodi:role="line"
           id="tspan376">0.54</tspan></text>
<path
         d="m 468.648,249.516 -4,0"
         style="fill:#000000;fill-opacity:1;fill-rule:nonzero;stroke:#000000;stroke-width:0.5;stroke-linecap:butt;stroke-linejoin:round;stroke-miterlimit:10;stroke-dasharray:none;stroke-opacity:1"
         id="path378"
         inkscape:connector-curvature="0" /><text
         transform="matrix(1,0,0,-1,472.648,246.2035)"
         style="font-variant:normal;font-weight:normal;font-size:12px;font-family:BitstreamVeraSans;-inkscape-font-specification:BitstreamVeraSans-Roman;writing-mode:lr-tb;fill:#000000;fill-opacity:1;fill-rule:nonzero;stroke:none"
         id="text380"><tspan
           x="0 7.632 11.448 19.08"
           y="0"
           sodipodi:role="line"
           id="tspan382">0.56</tspan></text>
<path
         d="m 468.648,318.348 -4,0"
         style="fill:#000000;fill-opacity:1;fill-rule:nonzero;stroke:#000000;stroke-width:0.5;stroke-linecap:butt;stroke-linejoin:round;stroke-miterlimit:10;stroke-dasharray:none;stroke-opacity:1"
         id="path384"
         inkscape:connector-curvature="0" /><text
         transform="matrix(1,0,0,-1,472.648,315.0355)"
         style="font-variant:normal;font-weight:normal;font-size:12px;font-family:BitstreamVeraSans;-inkscape-font-specification:BitstreamVeraSans-Roman;writing-mode:lr-tb;fill:#000000;fill-opacity:1;fill-rule:nonzero;stroke:none"
         id="text386"><tspan
           x="0 7.632 11.448 19.08"
           y="0"
           sodipodi:role="line"
           id="tspan388">0.58</tspan></text>
<path
         d="m 468.648,387.18 -4,0"
         style="fill:#000000;fill-opacity:1;fill-rule:nonzero;stroke:#000000;stroke-width:0.5;stroke-linecap:butt;stroke-linejoin:round;stroke-miterlimit:10;stroke-dasharray:none;stroke-opacity:1"
         id="path390"
         inkscape:connector-curvature="0" /><text
         transform="matrix(1,0,0,-1,472.648,383.8675)"
         style="font-variant:normal;font-weight:normal;font-size:12px;font-family:BitstreamVeraSans;-inkscape-font-specification:BitstreamVeraSans-Roman;writing-mode:lr-tb;fill:#000000;fill-opacity:1;fill-rule:nonzero;stroke:none"
         id="text392"><tspan
           x="0 7.632 11.448 19.08"
           y="0"
           sodipodi:role="line"
           id="tspan394">0.60</tspan></text>
</g></g></svg>