<?xml version="1.0" encoding="UTF-8" standalone="no"?>
<!-- Created with Inkscape (http://www.inkscape.org/) -->

<svg
   xmlns:dc="http://purl.org/dc/elements/1.1/"
   xmlns:cc="http://creativecommons.org/ns#"
   xmlns:rdf="http://www.w3.org/1999/02/22-rdf-syntax-ns#"
   xmlns:svg="http://www.w3.org/2000/svg"
   xmlns="http://www.w3.org/2000/svg"
   xmlns:sodipodi="http://sodipodi.sourceforge.net/DTD/sodipodi-0.dtd"
   xmlns:inkscape="http://www.inkscape.org/namespaces/inkscape"
   id="svg2"
   version="1.1"
   inkscape:version="0.91 r13725"
   xml:space="preserve"
   width="720"
   height="537.75"
   viewBox="0 0 720 537.75"
   sodipodi:docname="jeuB_perdant_m4_fig.svg"><metadata
     id="metadata8"><rdf:RDF><cc:Work
         rdf:about=""><dc:format>image/svg+xml</dc:format><dc:type
           rdf:resource="http://purl.org/dc/dcmitype/StillImage" /><dc:title></dc:title></cc:Work></rdf:RDF></metadata><defs
     id="defs6"><clipPath
       clipPathUnits="userSpaceOnUse"
       id="clipPath20"><path
         d="m 72,43.02 357.12,0 0,344.16 -357.12,0 0,-344.16 z"
         id="path22"
         inkscape:connector-curvature="0" /></clipPath><clipPath
       clipPathUnits="userSpaceOnUse"
       id="clipPath28"><path
         d="m 72,43.02 357.12,0 0,344.16 -357.12,0 0,-344.16 z"
         id="path30"
         inkscape:connector-curvature="0" /></clipPath><clipPath
       clipPathUnits="userSpaceOnUse"
       id="clipPath38"><path
         d="m 72,43.02 357.12,0 0,344.16 -357.12,0 0,-344.16 z"
         id="path40"
         inkscape:connector-curvature="0" /></clipPath><clipPath
       clipPathUnits="userSpaceOnUse"
       id="clipPath48"><path
         d="m 72,43.02 357.12,0 0,344.16 -357.12,0 0,-344.16 z"
         id="path50"
         inkscape:connector-curvature="0" /></clipPath><clipPath
       clipPathUnits="userSpaceOnUse"
       id="clipPath58"><path
         d="m 72,43.02 357.12,0 0,344.16 -357.12,0 0,-344.16 z"
         id="path60"
         inkscape:connector-curvature="0" /></clipPath><clipPath
       clipPathUnits="userSpaceOnUse"
       id="clipPath68"><path
         d="m 72,43.02 357.12,0 0,344.16 -357.12,0 0,-344.16 z"
         id="path70"
         inkscape:connector-curvature="0" /></clipPath><clipPath
       clipPathUnits="userSpaceOnUse"
       id="clipPath78"><path
         d="m 72,43.02 357.12,0 0,344.16 -357.12,0 0,-344.16 z"
         id="path80"
         inkscape:connector-curvature="0" /></clipPath><clipPath
       clipPathUnits="userSpaceOnUse"
       id="clipPath88"><path
         d="m 72,43.02 357.12,0 0,344.16 -357.12,0 0,-344.16 z"
         id="path90"
         inkscape:connector-curvature="0" /></clipPath><clipPath
       clipPathUnits="userSpaceOnUse"
       id="clipPath98"><path
         d="m 72,43.02 357.12,0 0,344.16 -357.12,0 0,-344.16 z"
         id="path100"
         inkscape:connector-curvature="0" /></clipPath><clipPath
       clipPathUnits="userSpaceOnUse"
       id="clipPath108"><path
         d="m 72,43.02 357.12,0 0,344.16 -357.12,0 0,-344.16 z"
         id="path110"
         inkscape:connector-curvature="0" /></clipPath><clipPath
       clipPathUnits="userSpaceOnUse"
       id="clipPath118"><path
         d="m 72,43.02 357.12,0 0,344.16 -357.12,0 0,-344.16 z"
         id="path120"
         inkscape:connector-curvature="0" /></clipPath><clipPath
       clipPathUnits="userSpaceOnUse"
       id="clipPath308"><path
         d="m 451.44,43.02 17.208,0 0,344.16 -17.208,0 0,-344.16 z"
         id="path310"
         inkscape:connector-curvature="0" /></clipPath><clipPath
       clipPathUnits="userSpaceOnUse"
       id="clipPath318"><path
         d="m 451.44,43.02 17.208,0 0,344.16 -17.208,0 0,-344.16 z"
         id="path320"
         inkscape:connector-curvature="0" /></clipPath></defs><sodipodi:namedview
     pagecolor="#ffffff"
     bordercolor="#666666"
     borderopacity="1"
     objecttolerance="10"
     gridtolerance="10"
     guidetolerance="10"
     inkscape:pageopacity="0"
     inkscape:pageshadow="2"
     inkscape:window-width="756"
     inkscape:window-height="480"
     id="namedview4"
     showgrid="false"
     inkscape:zoom="0.43886564"
     inkscape:cx="360"
     inkscape:cy="268.875"
     inkscape:window-x="0"
     inkscape:window-y="0"
     inkscape:window-maximized="0"
     inkscape:current-layer="g10" /><g
     id="g10"
     inkscape:groupmode="layer"
     inkscape:label="jeuB_perdant_m4_fig"
     transform="matrix(1.25,0,0,-1.25,0,537.75)"><path
       d="m 0,0 576,0 0,430.2 -576,0 L 0,0 Z"
       style="fill:#ffffff;fill-opacity:1;fill-rule:nonzero;stroke:none"
       id="path12"
       inkscape:connector-curvature="0" /><path
       d="m 72,43.02 357.12,0 0,344.16 -357.12,0 0,-344.16 z"
       style="fill:#ffffff;fill-opacity:1;fill-rule:nonzero;stroke:none"
       id="path14"
       inkscape:connector-curvature="0" /><g
       id="g16"><g
         id="g18"
         clip-path="url(#clipPath20)" /></g><g
       id="g24"><g
         id="g26"
         clip-path="url(#clipPath28)"><path
           d="m 72,65.72344 3.607273,-1.073251 2.556615,-0.772007 1.050657,-0.319176 3.607273,-1.11114 3.607273,-1.129342 2.882195,-0.916706 0.725078,-0.232149 3.607272,-1.171397 3.607273,-1.191529 2.624935,-0.881288 0.982336,-0.332198 3.60728,-1.238299 3.60727,-1.260631 1.81669,-0.645236 1.79058,-0.640956 3.60727,-1.31276 3.60728,-1.337613 0.49138,-0.185035 3.11589,-1.183216 3.60727,-1.395863 2.27736,-0.897284 1.32991,-0.528642 3.60728,-1.458835 3.60727,-1.488887"
           style="fill:none;stroke:#0000f1;stroke-width:1;stroke-linecap:butt;stroke-linejoin:round;stroke-miterlimit:10;stroke-dasharray:none;stroke-opacity:1"
           id="path32"
           inkscape:connector-curvature="0" /></g></g><g
       id="g34"><g
         id="g36"
         clip-path="url(#clipPath38)"><path
           d="m 72,88.025492 3.607273,-0.998456 3.607272,-1.01254 3.607273,-1.027022 0.871083,-0.25111 2.73619,-0.792725 3.607273,-1.059996 3.607272,-1.076031 1.810661,-0.547612 1.796612,-0.546493 3.607271,-1.112896 3.60728,-1.130695 2.15725,-0.68628 1.45002,-0.464285 3.60727,-1.171962 3.60727,-1.191776 1.93246,-0.64834 1.67482,-0.565963 3.60727,-1.238051 3.60727,-1.260182 1.16187,-0.412168 2.4454,-0.874407 3.60728,-1.312187 3.48037,-1.28977 0.1269,-0.04742 3.60727,-1.368645 3.60727,-1.39559 1.68853,-0.664704 1.91875,-0.762301 3.60727,-1.459332 3.04057,-1.254731 0.5667,-0.236137 3.60727,-1.52877 3.60728,-1.561943 0.33948,-0.149513 3.26779,-1.454264 3.60727,-1.640792 0.82309,-0.381308 2.78419,-1.304029 3.60727,-1.727042 0.91246,-0.445293 2.69481,-1.330275 3.60727,-1.821556 0.63038,-0.324532 2.9769,-1.551037 L 191.04,43.02"
           style="fill:none;stroke:#004cff;stroke-width:1;stroke-linecap:butt;stroke-linejoin:round;stroke-miterlimit:10;stroke-dasharray:none;stroke-opacity:1"
           id="path42"
           inkscape:connector-curvature="0" /></g></g><g
       id="g44"><g
         id="g46"
         clip-path="url(#clipPath48)"><path
           d="m 72,110.06994 3.607273,-0.9455 0.202209,-0.0535 3.405063,-0.90362 3.607273,-0.96877 3.607273,-0.98067 2.266116,-0.6233 1.341157,-0.37012 3.607272,-1.00709 3.607273,-1.02035 3.607271,-1.03401 0.15454,-0.0448 3.45274,-1.00538 3.60727,-1.06505 3.60727,-1.08032 1.07368,-0.325612 2.53359,-0.772468 3.60728,-1.115441 3.60727,-1.132511 1.43265,-0.455943 2.17462,-0.696389 3.60727,-1.172257 3.60728,-1.191413 1.24265,-0.416305 2.36462,-0.797815 3.60727,-1.236434 3.60727,-1.257998 0.52046,-0.184117 3.08682,-1.100721 3.60727,-1.309089 2.88766,-1.066553 0.71961,-0.268091 3.60727,-1.364943 3.60728,-1.391585 1.15184,-0.451745 2.45543,-0.972192 3.60727,-1.455261 2.55071,-1.048911 1.05657,-0.438916 3.60727,-1.525123 3.50108,-1.512324 0.10619,-0.04637 3.60727,-1.601907 3.60728,-1.638602 0.40979,-0.189487 3.19748,-1.495905 3.60727,-1.72697 0.51968,-0.253489 3.08759,-1.524795 3.60728,-1.824602 0.2463,-0.126966 3.36097,-1.755233 3.21486,-1.721131 0.39241,-0.212911 3.60728,-1.997389 2.23135,-1.266063 1.37592,-0.791718 3.60727,-2.124593 0.92967,-0.560053 2.6776,-1.636917 2.93244,-1.839447 0.67484,-0.429717 3.60727,-2.351061 1.0415,-0.695585 2.56577,-1.740684 2.4923,-1.73568"
           style="fill:none;stroke:#00b1ff;stroke-width:1;stroke-linecap:butt;stroke-linejoin:round;stroke-miterlimit:10;stroke-dasharray:none;stroke-opacity:1"
           id="path52"
           inkscape:connector-curvature="0" /></g></g><g
       id="g54"><g
         id="g56"
         clip-path="url(#clipPath58)"><path
           d="m 72,132.06724 3.607273,-0.92264 3.607272,-0.93068 1.094842,-0.28483 2.512431,-0.65349 3.607273,-0.94685 3.607273,-0.95598 3.437935,-0.92004 0.169337,-0.0454 3.607273,-0.97514 3.607271,-0.98549 3.60728,-0.99616 1.69986,-0.47422 1.90741,-0.53336 3.60727,-1.01957 3.60727,-1.03163 3.08202,-0.8918 0.52526,-0.15251 3.60727,-1.05871 3.60727,-1.07234 3.60727,-1.08642 0.34931,-0.10638 3.25797,-0.99691 3.60727,-1.11893 3.60727,-1.13487 0.70864,-0.22566 2.89863,-0.92843 3.60728,-1.17218 3.60727,-1.19025 0.55503,-0.1855 3.05224,-1.02712 3.60727,-1.23306 3.49997,-1.21618 0.10731,-0.0376 3.60727,-1.28021 3.60727,-1.30277 2.33121,-0.85581 1.27607,-0.47254 3.60727,-1.35698 3.60727,-1.382777 0.67832,-0.264065 2.92895,-1.151399 3.60728,-1.445257 2.15596,-0.879707 1.45131,-0.598466 3.60727,-1.514358 3.18114,-1.36354 0.42613,-0.184738 3.60728,-1.59093 3.60727,-1.627407 0.15968,-0.07329 3.44759,-1.602229 3.60728,-1.71658 0.32507,-0.157554 3.2822,-1.612073 3.60727,-1.815996 0.0942,-0.04829 3.51312,-1.827712 3.08938,-1.648652 0.5179,-0.280444 3.60727,-1.994683 2.1191,-1.201236 1.48817,-0.856731 3.60727,-2.127656 0.81519,-0.491977 2.79209,-1.71281 2.79901,-1.763554 0.80826,-0.517879 3.60727,-2.368679 0.87604,-0.589805 2.73124,-1.871672 2.27845,-1.604692 1.32882,-0.953023 3.4228,-2.52334 0.18447,-0.138552 3.60727,-2.778922 0.70594,-0.55889 2.90134,-2.342293 1.36592,-1.134071 2.24135,-1.898435 1.81126,-1.577928 1.79601,-1.596865 2.05505,-1.879499"
           style="fill:none;stroke:#29ffce;stroke-width:1;stroke-linecap:butt;stroke-linejoin:round;stroke-miterlimit:10;stroke-dasharray:none;stroke-opacity:1"
           id="path62"
           inkscape:connector-curvature="0" /></g></g><g
       id="g64"><g
         id="g66"
         clip-path="url(#clipPath68)"><path
           d="m 72,154.31977 0.214894,-0.0561 3.392379,-0.8814 3.607272,-0.94185 3.607273,-0.94667 2.677394,-0.70645 0.929879,-0.24445 3.607273,-0.95404 3.607272,-0.95996 3.607273,-0.96614 1.304857,-0.35177 2.302414,-0.61952 3.60728,-0.97758 3.60727,-0.98494 3.25032,-0.89433 0.35695,-0.0982 3.60727,-0.99969 3.60728,-1.00833 3.60727,-1.01729 1.24087,-0.35289 2.3664,-0.67374 3.60727,-1.03661 3.60728,-1.04701 2.45313,-0.719 1.15414,-0.3391 3.60727,-1.07021 3.60727,-1.08221 3.24607,-0.98485 0.36121,-0.10999 3.60727,-1.10969 3.60727,-1.12349 3.59267,-1.13319 0.0146,-0.005 3.60728,-1.15575 3.60727,-1.17162 3.47487,-1.14436 0.1324,-0.0439 3.60728,-1.20932 3.60727,-1.22757 2.8831,-0.9956 0.72417,-0.25193 3.60727,-1.27152 3.60728,-1.29256 1.81583,-0.66035 1.79144,-0.65713 3.60727,-1.3438 3.60727,-1.36812 0.27898,-0.10731 3.3283,-1.29301 3.60727,-1.42796 1.87581,-0.7554 1.73146,-0.70488 3.60728,-1.49474 3.02017,-1.27674 0.5871,-0.25114 3.60727,-1.56942 3.60727,-1.6048 0.11276,-0.051 3.49452,-1.60178 3.60727,-1.69288 0.38026,-0.18171 3.22701,-1.5642 3.60727,-1.792027 0.23732,-0.120135 3.36996,-1.732248 3.30654,-1.744115 0.30073,-0.161179 3.60727,-1.973346 2.39033,-1.341839 1.21695,-0.694884 3.60727,-2.109795 1.12107,-0.671685 2.4862,-1.516923 3.12411,-1.95944 0.48316,-0.308798 3.60728,-2.362167 1.19744,-0.805399 2.40983,-1.653658 2.58158,-1.822706 1.02569,-0.73933 3.60728,-2.675285 0.0811,-0.06175 3.52612,-2.742535 0.91628,-0.733829 2.69099,-2.204568 1.5073,-1.271796 2.09997,-1.813713 1.86877,-1.66265 1.73851,-1.584345 2.01505,-1.892019 1.59222,-1.532343 1.96027,-1.94402 1.647,-1.675234 1.71821,-1.80113 1.88906,-2.032333 1.30226,-1.444031 2.30502,-2.624912 0.72535,-0.851451 L 310.08,43.02"
           style="fill:none;stroke:#7dff7a;stroke-width:1;stroke-linecap:butt;stroke-linejoin:round;stroke-miterlimit:10;stroke-dasharray:none;stroke-opacity:1"
           id="path72"
           inkscape:connector-curvature="0" /></g></g><g
       id="g74"><g
         id="g76"
         clip-path="url(#clipPath78)"><path
           d="m 72,177.30473 3.607273,-1.01581 3.607272,-1.01497 0.539932,-0.15213 3.067341,-0.85559 3.607273,-1.00684 3.607273,-1.00747 2.16809,-0.60647 1.439182,-0.39939 3.607273,-1.00365 3.607271,-1.00565 3.60728,-1.00791 0.2131,-0.0598 3.39417,-0.94639 3.60727,-1.00918 3.60727,-1.01279 1.8019,-0.508 1.80538,-0.50703 3.60727,-1.0179 3.60727,-1.02286 3.25798,-0.92858 0.34929,-0.0993 3.60728,-1.03179 3.60727,-1.03814 3.60727,-1.04481 0.89985,-0.26229 2.70742,-0.78893 3.60728,-1.05878 3.60727,-1.06697 1.88471,-0.56168 1.72256,-0.51399 3.60727,-1.08509 3.60728,-1.09494 2.55463,-0.78235 1.05264,-0.32323 3.60727,-1.11754 3.60728,-1.1292 2.86583,-0.90639 0.74144,-0.23547 3.60727,-1.15674 3.60727,-1.17047 2.78355,-0.91369 0.82373,-0.27188 3.60727,-1.20355 3.60727,-1.21964 2.28207,-0.78129 1.3252,-0.45687 3.60728,-1.25906 3.60727,-1.2779 1.34464,-0.48253 2.26263,-0.81883 3.60728,-1.32469 3.57009,-1.33285 0.0372,-0.014 3.60727,-1.37739 3.60727,-1.40226 1.72872,-0.6827 1.87856,-0.75011 3.60727,-1.46483 3.04798,-1.26142 0.55929,-0.23431 3.60727,-1.53551 3.60728,-1.5687 0.31192,-0.13785 3.29535,-1.47665 3.60727,-1.65318 0.74264,-0.34653 2.86464,-1.35709 3.60727,-1.74924 0.74852,-0.37003 2.85875,-1.43668 3.60727,-1.85889 0.34402,-0.1808 3.26326,-1.7458 3.14916,-1.73056 0.45811,-0.25649 3.60727,-2.06435 1.96645,-1.15552 1.64083,-0.9838 3.60727,-2.2218 0.42933,-0.27077 3.17794,-2.04822 2.15247,-1.428142 1.4548,-0.987342 3.56097,-2.489021 0.0463,-0.03314 3.60727,-2.649143 1.04931,-0.79408 2.55796,-1.985483 1.86295,-1.490881 1.74432,-1.433246 2.41091,-2.043117 1.19637,-1.042007 2.70908,-2.434357 0.89819,-0.830377 2.77334,-2.645987 0.83393,-0.819446 2.6194,-2.656917 0.98787,-1.033116 2.26275,-2.443248 1.34453,-1.498483 1.7185,-1.977881 1.88877,-2.246285 1.00139,-1.230078 2.60588,-3.311411 0.12566,-0.164953 2.57284,-3.476363 0.90878,-1.270348 1.52776,-2.206016 2.07951,-3.112531 0.2353,-0.363833 2.18632,-3.476363 1.18565,-1.952054 0.89635,-1.52431"
           style="fill:none;stroke:#ceff29;stroke-width:1;stroke-linecap:butt;stroke-linejoin:round;stroke-miterlimit:10;stroke-dasharray:none;stroke-opacity:1"
           id="path82"
           inkscape:connector-curvature="0" /></g></g><g
       id="g84"><g
         id="g86"
         clip-path="url(#clipPath88)"><path
           d="m 72,201.82403 14.429091,-4.71565 14.714369,-4.60474 24.96563,-7.5267 50.50182,-15.11216 18.03636,-5.6383 14.42909,-4.70355 15.3465,-5.25929 13.51168,-4.9204 10.82182,-4.18679 10.82182,-4.45723 8.68474,-3.8174 9.35163,-4.39923 7.21454,-3.63644 7.21455,-3.88903 7.21454,-4.18734 3.60727,-2.22322 7.21455,-4.7536 3.60727,-2.55102 3.60727,-2.68209 3.77222,-2.9653 4.14433,-3.47637 3.87011,-3.476362 3.61346,-3.476363 3.37441,-3.476364 3.15288,-3.476364 3.3235,-3.943102 3.60728,-4.651819 3.75307,-5.310533 3.46147,-5.420812 2.91248,-5.008279 1.875,-3.476364 3.43999,-6.952727 3.07932,-6.952727 1.41705,-3.476364 0,0"
           style="fill:none;stroke:#ffc400;stroke-width:1;stroke-linecap:butt;stroke-linejoin:round;stroke-miterlimit:10;stroke-dasharray:none;stroke-opacity:1"
           id="path92"
           inkscape:connector-curvature="0" /></g></g><g
       id="g94"><g
         id="g96"
         clip-path="url(#clipPath98)"><path
           d="m 72,229.51403 3.607273,-1.65108 3.607272,-1.58884 7.214546,-3.04063 10.821818,-4.26133 10.821821,-3.99573 10.82182,-3.79496 14.42909,-4.83434 21.64363,-6.92858 68.53818,-21.54132 14.42909,-4.81425 14.4291,-5.04017 10.82181,-3.9796 10.82182,-4.19519 10.82182,-4.46246 7.21455,-3.15776 7.21454,-3.33231 7.21455,-3.53833 7.21454,-3.78327 7.21455,-4.07687 3.60727,-2.17222 3.60727,-2.26524 7.21455,-4.89067 3.60727,-2.64498 3.60727,-2.80273 3.87773,-3.22117 3.88389,-3.47636 3.5949,-3.47637 3.32565,-3.47636 3.3542,-3.81021 3.60727,-4.50616 3.60727,-5.008298 2.63406,-4.057151 2.07482,-3.476364 2.50567,-4.585621 2.8502,-5.84347 1.53503,-3.476363 2.82931,-7.127927 2.33672,-6.777528 2.12019,-6.952727 1.88357,-6.952727 L 389.44,43.02 l 0,0"
           style="fill:none;stroke:#ff6800;stroke-width:1;stroke-linecap:butt;stroke-linejoin:round;stroke-miterlimit:10;stroke-dasharray:none;stroke-opacity:1"
           id="path102"
           inkscape:connector-curvature="0" /></g></g><g
       id="g104"><g
         id="g106"
         clip-path="url(#clipPath108)"><path
           d="m 72,264.90498 3.402533,-2.87407 0.20474,-0.16159 4.357358,-3.31477 6.46446,-4.38034 4.150187,-2.57239 6.671631,-3.79298 7.214551,-3.74913 7.21454,-3.46548 7.21455,-3.24016 10.82181,-4.52143 10.82182,-4.21867 10.82182,-3.98741 12.27209,-4.31202 16.58609,-5.56896 21.64364,-7.00922 50.50182,-16.24542 18.03636,-6.1054 14.42909,-5.14392 10.82182,-4.0643 11.40039,-4.53187 10.24324,-4.35943 7.21455,-3.26808 7.21455,-3.47113 7.21454,-3.71674 7.21455,-4.01692 7.21454,-4.38833 3.60727,-2.36571 3.60728,-2.4945 4.32877,-3.20643 4.3284,-3.47636 3.97339,-3.47637 3.6391,-3.47636 3.32658,-3.47636 3.03655,-3.47637 2.76939,-3.47636 3.456,-4.87588 1.34442,-2.07685 2.26285,-3.79929 1.69899,-3.15343 1.90829,-3.89758 1.35096,-3.055152 2.25631,-5.761936 1.57622,-4.667155 2.03105,-7.044406 1.62527,-6.861048 1.38527,-6.952728 1.16656,-6.952727 1.44635,-10.429091 0.82592,-6.952727 0,0"
           style="fill:none;stroke:#f10800;stroke-width:1;stroke-linecap:butt;stroke-linejoin:round;stroke-miterlimit:10;stroke-dasharray:none;stroke-opacity:1"
           id="path112"
           inkscape:connector-curvature="0" /></g></g><g
       id="g114"><g
         id="g116"
         clip-path="url(#clipPath118)"><path
           d="m 72,387.18 0.09675,-20.85818 0.262882,-10.42909 0.341333,-6.95273 0.534982,-6.95273 0.793032,-6.95273 1.128001,-6.95272 0.72129,-3.47637 0.848024,-3.47636 0.981725,-3.47636 1.506527,-4.50999 0.929283,-2.44274 1.492286,-3.47636 1.697258,-3.47637 3.095719,-5.37294 1.012204,-1.57979 2.595069,-3.66865 3.607272,-4.44929 3.607273,-3.9113 3.60727,-3.49913 3.60728,-3.1765 3.60727,-2.91918 3.60727,-2.71049 5.03445,-3.47636 5.78737,-3.65829 7.21454,-4.15447 7.21455,-3.80832 7.21454,-3.53225 7.21455,-3.3089 7.21454,-3.12602 10.82182,-4.40847 10.82182,-4.14791 12.71237,-4.61901 16.14581,-5.57215 18.03637,-5.97587 36.07272,-11.6343 25.25091,-8.27171 18.03637,-6.18112 11.35313,-4.08121 10.2905,-3.8796 10.82182,-4.31712 7.21455,-3.04426 7.21454,-3.21095 7.21455,-3.41403 7.21454,-3.66414 7.21455,-3.97639 7.21454,-4.37248 3.60728,-2.3706 3.60727,-2.51407 4.5917,-3.47636 4.17747,-3.47637 3.78454,-3.47636 3.41492,-3.47637 3.07014,-3.47636 2.75138,-3.47636 3.46076,-5.05615 1.16575,-1.89658 2.44152,-4.49318 1.18571,-2.45955 2.42156,-5.9191 0.37645,-1.03362 1.13008,-3.47637 0.98173,-3.47636 1.11902,-4.74648 1.0615,-5.682612 0.95006,-6.952727 0.65521,-6.952727 0.43083,-6.952728 0.35104,-10.429091 L 429.109,53.449091 429.12,43.02 l 0,0"
           style="fill:none;stroke:#800000;stroke-width:1;stroke-linecap:butt;stroke-linejoin:round;stroke-miterlimit:10;stroke-dasharray:none;stroke-opacity:1"
           id="path122"
           inkscape:connector-curvature="0" /></g></g><g
       id="g124"><path
         d="m 72,43.02 0,344.16"
         style="fill:none;stroke:#000000;stroke-width:1;stroke-linecap:square;stroke-linejoin:miter;stroke-miterlimit:10;stroke-dasharray:none;stroke-opacity:1"
         id="path126"
         inkscape:connector-curvature="0" /><path
         d="m 429.12,43.02 0,344.16"
         style="fill:none;stroke:#000000;stroke-width:1;stroke-linecap:square;stroke-linejoin:miter;stroke-miterlimit:10;stroke-dasharray:none;stroke-opacity:1"
         id="path128"
         inkscape:connector-curvature="0" /><path
         d="m 72,387.18 357.12,0"
         style="fill:none;stroke:#000000;stroke-width:1;stroke-linecap:square;stroke-linejoin:miter;stroke-miterlimit:10;stroke-dasharray:none;stroke-opacity:1"
         id="path130"
         inkscape:connector-curvature="0" /><path
         d="m 72,43.02 357.12,0"
         style="fill:none;stroke:#000000;stroke-width:1;stroke-linecap:square;stroke-linejoin:miter;stroke-miterlimit:10;stroke-dasharray:none;stroke-opacity:1"
         id="path132"
         inkscape:connector-curvature="0" /><path
         d="m 72,43.02 0,4"
         style="fill:#000000;fill-opacity:1;fill-rule:nonzero;stroke:#000000;stroke-width:0.5;stroke-linecap:butt;stroke-linejoin:round;stroke-miterlimit:10;stroke-dasharray:none;stroke-opacity:1"
         id="path134"
         inkscape:connector-curvature="0" /><path
         d="m 72,387.18 0,-4"
         style="fill:#000000;fill-opacity:1;fill-rule:nonzero;stroke:#000000;stroke-width:0.5;stroke-linecap:butt;stroke-linejoin:round;stroke-miterlimit:10;stroke-dasharray:none;stroke-opacity:1"
         id="path136"
         inkscape:connector-curvature="0" /><text
         transform="matrix(1,0,0,-1,62.453125,29.895)"
         style="font-variant:normal;font-weight:normal;font-size:12px;font-family:BitstreamVeraSans;-inkscape-font-specification:BitstreamVeraSans-Roman;writing-mode:lr-tb;fill:#000000;fill-opacity:1;fill-rule:nonzero;stroke:none"
         id="text138"><tspan
           x="0 7.632 11.448"
           y="0"
           sodipodi:role="line"
           id="tspan140">0.0</tspan></text>
<path
         d="m 143.424,43.02 0,4"
         style="fill:#000000;fill-opacity:1;fill-rule:nonzero;stroke:#000000;stroke-width:0.5;stroke-linecap:butt;stroke-linejoin:round;stroke-miterlimit:10;stroke-dasharray:none;stroke-opacity:1"
         id="path142"
         inkscape:connector-curvature="0" /><path
         d="m 143.424,387.18 0,-4"
         style="fill:#000000;fill-opacity:1;fill-rule:nonzero;stroke:#000000;stroke-width:0.5;stroke-linecap:butt;stroke-linejoin:round;stroke-miterlimit:10;stroke-dasharray:none;stroke-opacity:1"
         id="path144"
         inkscape:connector-curvature="0" /><text
         transform="matrix(1,0,0,-1,133.87712,29.895)"
         style="font-variant:normal;font-weight:normal;font-size:12px;font-family:BitstreamVeraSans;-inkscape-font-specification:BitstreamVeraSans-Roman;writing-mode:lr-tb;fill:#000000;fill-opacity:1;fill-rule:nonzero;stroke:none"
         id="text146"><tspan
           x="0 7.632 11.448"
           y="0"
           sodipodi:role="line"
           id="tspan148">0.2</tspan></text>
<path
         d="m 214.848,43.02 0,4"
         style="fill:#000000;fill-opacity:1;fill-rule:nonzero;stroke:#000000;stroke-width:0.5;stroke-linecap:butt;stroke-linejoin:round;stroke-miterlimit:10;stroke-dasharray:none;stroke-opacity:1"
         id="path150"
         inkscape:connector-curvature="0" /><path
         d="m 214.848,387.18 0,-4"
         style="fill:#000000;fill-opacity:1;fill-rule:nonzero;stroke:#000000;stroke-width:0.5;stroke-linecap:butt;stroke-linejoin:round;stroke-miterlimit:10;stroke-dasharray:none;stroke-opacity:1"
         id="path152"
         inkscape:connector-curvature="0" /><text
         transform="matrix(1,0,0,-1,205.30113,29.895)"
         style="font-variant:normal;font-weight:normal;font-size:12px;font-family:BitstreamVeraSans;-inkscape-font-specification:BitstreamVeraSans-Roman;writing-mode:lr-tb;fill:#000000;fill-opacity:1;fill-rule:nonzero;stroke:none"
         id="text154"><tspan
           x="0 7.632 11.448"
           y="0"
           sodipodi:role="line"
           id="tspan156">0.4</tspan></text>
<path
         d="m 286.272,43.02 0,4"
         style="fill:#000000;fill-opacity:1;fill-rule:nonzero;stroke:#000000;stroke-width:0.5;stroke-linecap:butt;stroke-linejoin:round;stroke-miterlimit:10;stroke-dasharray:none;stroke-opacity:1"
         id="path158"
         inkscape:connector-curvature="0" /><path
         d="m 286.272,387.18 0,-4"
         style="fill:#000000;fill-opacity:1;fill-rule:nonzero;stroke:#000000;stroke-width:0.5;stroke-linecap:butt;stroke-linejoin:round;stroke-miterlimit:10;stroke-dasharray:none;stroke-opacity:1"
         id="path160"
         inkscape:connector-curvature="0" /><text
         transform="matrix(1,0,0,-1,276.72512,29.895)"
         style="font-variant:normal;font-weight:normal;font-size:12px;font-family:BitstreamVeraSans;-inkscape-font-specification:BitstreamVeraSans-Roman;writing-mode:lr-tb;fill:#000000;fill-opacity:1;fill-rule:nonzero;stroke:none"
         id="text162"><tspan
           x="0 7.632 11.448"
           y="0"
           sodipodi:role="line"
           id="tspan164">0.6</tspan></text>
<path
         d="m 357.696,43.02 0,4"
         style="fill:#000000;fill-opacity:1;fill-rule:nonzero;stroke:#000000;stroke-width:0.5;stroke-linecap:butt;stroke-linejoin:round;stroke-miterlimit:10;stroke-dasharray:none;stroke-opacity:1"
         id="path166"
         inkscape:connector-curvature="0" /><path
         d="m 357.696,387.18 0,-4"
         style="fill:#000000;fill-opacity:1;fill-rule:nonzero;stroke:#000000;stroke-width:0.5;stroke-linecap:butt;stroke-linejoin:round;stroke-miterlimit:10;stroke-dasharray:none;stroke-opacity:1"
         id="path168"
         inkscape:connector-curvature="0" /><text
         transform="matrix(1,0,0,-1,348.14913,29.895)"
         style="font-variant:normal;font-weight:normal;font-size:12px;font-family:BitstreamVeraSans;-inkscape-font-specification:BitstreamVeraSans-Roman;writing-mode:lr-tb;fill:#000000;fill-opacity:1;fill-rule:nonzero;stroke:none"
         id="text170"><tspan
           x="0 7.632 11.448"
           y="0"
           sodipodi:role="line"
           id="tspan172">0.8</tspan></text>
<path
         d="m 429.12,43.02 0,4"
         style="fill:#000000;fill-opacity:1;fill-rule:nonzero;stroke:#000000;stroke-width:0.5;stroke-linecap:butt;stroke-linejoin:round;stroke-miterlimit:10;stroke-dasharray:none;stroke-opacity:1"
         id="path174"
         inkscape:connector-curvature="0" /><path
         d="m 429.12,387.18 0,-4"
         style="fill:#000000;fill-opacity:1;fill-rule:nonzero;stroke:#000000;stroke-width:0.5;stroke-linecap:butt;stroke-linejoin:round;stroke-miterlimit:10;stroke-dasharray:none;stroke-opacity:1"
         id="path176"
         inkscape:connector-curvature="0" /><text
         transform="matrix(1,0,0,-1,419.57312,29.895)"
         style="font-variant:normal;font-weight:normal;font-size:12px;font-family:BitstreamVeraSans;-inkscape-font-specification:BitstreamVeraSans-Roman;writing-mode:lr-tb;fill:#000000;fill-opacity:1;fill-rule:nonzero;stroke:none"
         id="text178"><tspan
           x="0 7.632 11.448"
           y="0"
           sodipodi:role="line"
           id="tspan180">1.0</tspan></text>
<g
         id="g182"
         transform="translate(244.56,13.77)"><text
           transform="matrix(1,0,0,-1,0,0.703125)"
           style="font-variant:normal;font-weight:normal;font-size:12px;font-family:Cmmi10;-inkscape-font-specification:Cmmi10;writing-mode:lr-tb;fill:#000000;fill-opacity:1;fill-rule:nonzero;stroke:none"
           id="text184"><tspan
             x="0"
             y="0"
             id="tspan186">p</tspan></text>
<text
           transform="matrix(1,0,0,-1,6.0351562,-1.337625)"
           style="font-variant:normal;font-weight:normal;font-size:8.39999962px;font-family:Cmr10;-inkscape-font-specification:Cmr10;writing-mode:lr-tb;fill:#000000;fill-opacity:1;fill-rule:nonzero;stroke:none"
           id="text188"><tspan
             x="0"
             y="0"
             id="tspan190">1</tspan></text>
</g><path
         d="m 72,43.02 4,0"
         style="fill:#000000;fill-opacity:1;fill-rule:nonzero;stroke:#000000;stroke-width:0.5;stroke-linecap:butt;stroke-linejoin:round;stroke-miterlimit:10;stroke-dasharray:none;stroke-opacity:1"
         id="path192"
         inkscape:connector-curvature="0" /><path
         d="m 429.12,43.02 -4,0"
         style="fill:#000000;fill-opacity:1;fill-rule:nonzero;stroke:#000000;stroke-width:0.5;stroke-linecap:butt;stroke-linejoin:round;stroke-miterlimit:10;stroke-dasharray:none;stroke-opacity:1"
         id="path194"
         inkscape:connector-curvature="0" /><text
         transform="matrix(1,0,0,-1,48.90625,39.7075)"
         style="font-variant:normal;font-weight:normal;font-size:12px;font-family:BitstreamVeraSans;-inkscape-font-specification:BitstreamVeraSans-Roman;writing-mode:lr-tb;fill:#000000;fill-opacity:1;fill-rule:nonzero;stroke:none"
         id="text196"><tspan
           x="0 7.632 11.448"
           y="0"
           sodipodi:role="line"
           id="tspan198">0.0</tspan></text>
<path
         d="m 72,111.852 4,0"
         style="fill:#000000;fill-opacity:1;fill-rule:nonzero;stroke:#000000;stroke-width:0.5;stroke-linecap:butt;stroke-linejoin:round;stroke-miterlimit:10;stroke-dasharray:none;stroke-opacity:1"
         id="path200"
         inkscape:connector-curvature="0" /><path
         d="m 429.12,111.852 -4,0"
         style="fill:#000000;fill-opacity:1;fill-rule:nonzero;stroke:#000000;stroke-width:0.5;stroke-linecap:butt;stroke-linejoin:round;stroke-miterlimit:10;stroke-dasharray:none;stroke-opacity:1"
         id="path202"
         inkscape:connector-curvature="0" /><text
         transform="matrix(1,0,0,-1,48.90625,108.5395)"
         style="font-variant:normal;font-weight:normal;font-size:12px;font-family:BitstreamVeraSans;-inkscape-font-specification:BitstreamVeraSans-Roman;writing-mode:lr-tb;fill:#000000;fill-opacity:1;fill-rule:nonzero;stroke:none"
         id="text204"><tspan
           x="0 7.632 11.448"
           y="0"
           sodipodi:role="line"
           id="tspan206">0.2</tspan></text>
<path
         d="m 72,180.684 4,0"
         style="fill:#000000;fill-opacity:1;fill-rule:nonzero;stroke:#000000;stroke-width:0.5;stroke-linecap:butt;stroke-linejoin:round;stroke-miterlimit:10;stroke-dasharray:none;stroke-opacity:1"
         id="path208"
         inkscape:connector-curvature="0" /><path
         d="m 429.12,180.684 -4,0"
         style="fill:#000000;fill-opacity:1;fill-rule:nonzero;stroke:#000000;stroke-width:0.5;stroke-linecap:butt;stroke-linejoin:round;stroke-miterlimit:10;stroke-dasharray:none;stroke-opacity:1"
         id="path210"
         inkscape:connector-curvature="0" /><text
         transform="matrix(1,0,0,-1,48.90625,177.3715)"
         style="font-variant:normal;font-weight:normal;font-size:12px;font-family:BitstreamVeraSans;-inkscape-font-specification:BitstreamVeraSans-Roman;writing-mode:lr-tb;fill:#000000;fill-opacity:1;fill-rule:nonzero;stroke:none"
         id="text212"><tspan
           x="0 7.632 11.448"
           y="0"
           sodipodi:role="line"
           id="tspan214">0.4</tspan></text>
<path
         d="m 72,249.516 4,0"
         style="fill:#000000;fill-opacity:1;fill-rule:nonzero;stroke:#000000;stroke-width:0.5;stroke-linecap:butt;stroke-linejoin:round;stroke-miterlimit:10;stroke-dasharray:none;stroke-opacity:1"
         id="path216"
         inkscape:connector-curvature="0" /><path
         d="m 429.12,249.516 -4,0"
         style="fill:#000000;fill-opacity:1;fill-rule:nonzero;stroke:#000000;stroke-width:0.5;stroke-linecap:butt;stroke-linejoin:round;stroke-miterlimit:10;stroke-dasharray:none;stroke-opacity:1"
         id="path218"
         inkscape:connector-curvature="0" /><text
         transform="matrix(1,0,0,-1,48.90625,246.2035)"
         style="font-variant:normal;font-weight:normal;font-size:12px;font-family:BitstreamVeraSans;-inkscape-font-specification:BitstreamVeraSans-Roman;writing-mode:lr-tb;fill:#000000;fill-opacity:1;fill-rule:nonzero;stroke:none"
         id="text220"><tspan
           x="0 7.632 11.448"
           y="0"
           sodipodi:role="line"
           id="tspan222">0.6</tspan></text>
<path
         d="m 72,318.348 4,0"
         style="fill:#000000;fill-opacity:1;fill-rule:nonzero;stroke:#000000;stroke-width:0.5;stroke-linecap:butt;stroke-linejoin:round;stroke-miterlimit:10;stroke-dasharray:none;stroke-opacity:1"
         id="path224"
         inkscape:connector-curvature="0" /><path
         d="m 429.12,318.348 -4,0"
         style="fill:#000000;fill-opacity:1;fill-rule:nonzero;stroke:#000000;stroke-width:0.5;stroke-linecap:butt;stroke-linejoin:round;stroke-miterlimit:10;stroke-dasharray:none;stroke-opacity:1"
         id="path226"
         inkscape:connector-curvature="0" /><text
         transform="matrix(1,0,0,-1,48.90625,315.0355)"
         style="font-variant:normal;font-weight:normal;font-size:12px;font-family:BitstreamVeraSans;-inkscape-font-specification:BitstreamVeraSans-Roman;writing-mode:lr-tb;fill:#000000;fill-opacity:1;fill-rule:nonzero;stroke:none"
         id="text228"><tspan
           x="0 7.632 11.448"
           y="0"
           sodipodi:role="line"
           id="tspan230">0.8</tspan></text>
<path
         d="m 72,387.18 4,0"
         style="fill:#000000;fill-opacity:1;fill-rule:nonzero;stroke:#000000;stroke-width:0.5;stroke-linecap:butt;stroke-linejoin:round;stroke-miterlimit:10;stroke-dasharray:none;stroke-opacity:1"
         id="path232"
         inkscape:connector-curvature="0" /><path
         d="m 429.12,387.18 -4,0"
         style="fill:#000000;fill-opacity:1;fill-rule:nonzero;stroke:#000000;stroke-width:0.5;stroke-linecap:butt;stroke-linejoin:round;stroke-miterlimit:10;stroke-dasharray:none;stroke-opacity:1"
         id="path234"
         inkscape:connector-curvature="0" /><text
         transform="matrix(1,0,0,-1,48.90625,383.8675)"
         style="font-variant:normal;font-weight:normal;font-size:12px;font-family:BitstreamVeraSans;-inkscape-font-specification:BitstreamVeraSans-Roman;writing-mode:lr-tb;fill:#000000;fill-opacity:1;fill-rule:nonzero;stroke:none"
         id="text236"><tspan
           x="0 7.632 11.448"
           y="0"
           sodipodi:role="line"
           id="tspan238">1.0</tspan></text>
<g
         id="g240"
         transform="matrix(0,1,-1,0,40.90625,209.1)"><text
           transform="matrix(1,0,0,-1,0,0.703125)"
           style="font-variant:normal;font-weight:normal;font-size:12px;font-family:Cmmi10;-inkscape-font-specification:Cmmi10;writing-mode:lr-tb;fill:#000000;fill-opacity:1;fill-rule:nonzero;stroke:none"
           id="text242"><tspan
             x="0"
             y="0"
             id="tspan244">p</tspan></text>
<text
           transform="matrix(1,0,0,-1,6.0351562,-1.337625)"
           style="font-variant:normal;font-weight:normal;font-size:8.39999962px;font-family:Cmr10;-inkscape-font-specification:Cmr10;writing-mode:lr-tb;fill:#000000;fill-opacity:1;fill-rule:nonzero;stroke:none"
           id="text246"><tspan
             x="0"
             y="0"
             id="tspan248">2</tspan></text>
</g><g
         id="g250"
         transform="translate(73.56,392.18)"><text
           transform="matrix(1,0,0,-1,0,0.203125)"
           style="font-variant:normal;font-weight:normal;font-size:14.39999962px;font-family:BitstreamVeraSans;-inkscape-font-specification:BitstreamVeraSans-Roman;writing-mode:lr-tb;fill:#000000;fill-opacity:1;fill-rule:nonzero;stroke:none"
           id="text252"><tspan
             x="0 10.037231 18.832092 27.94281 37.067566 41.061401 49.905396 57.394714"
             y="0"
             sodipodi:role="line"
             id="tspan254">Couples </tspan></text>
<text
           transform="matrix(1,0,0,-1,61.964111,0.203125)"
           style="font-variant:normal;font-weight:normal;font-size:14.39999962px;font-family:Cmr10;-inkscape-font-specification:Cmr10;writing-mode:lr-tb;fill:#000000;fill-opacity:1;fill-rule:nonzero;stroke:none"
           id="text256"><tspan
             x="0"
             y="0"
             id="tspan258">(</tspan></text>
<text
           transform="matrix(1,0,0,-1,67.550308,0.203125)"
           style="font-variant:normal;font-weight:normal;font-size:14.39999962px;font-family:Cmmi10;-inkscape-font-specification:Cmmi10;writing-mode:lr-tb;fill:#000000;fill-opacity:1;fill-rule:nonzero;stroke:none"
           id="text260"><tspan
             x="0"
             y="0"
             id="tspan262">p</tspan></text>
<text
           transform="matrix(1,0,0,-1,74.787781,-2.245775)"
           style="font-variant:normal;font-weight:normal;font-size:10.07999992px;font-family:Cmr10;-inkscape-font-specification:Cmr10;writing-mode:lr-tb;fill:#000000;fill-opacity:1;fill-rule:nonzero;stroke:none"
           id="text264"><tspan
             x="0"
             y="0"
             id="tspan266">1</tspan></text>
<text
           transform="matrix(1,0,0,-1,80.742837,0.203125)"
           style="font-variant:normal;font-weight:normal;font-size:14.39999962px;font-family:Cmmi10;-inkscape-font-specification:Cmmi10;writing-mode:lr-tb;fill:#000000;fill-opacity:1;fill-rule:nonzero;stroke:none"
           id="text268"><tspan
             x="0 6.5109072"
             y="0"
             sodipodi:role="line"
             id="tspan270">,p</tspan></text>
<text
           transform="matrix(1,0,0,-1,94.491217,-2.245775)"
           style="font-variant:normal;font-weight:normal;font-size:10.07999992px;font-family:Cmr10;-inkscape-font-specification:Cmr10;writing-mode:lr-tb;fill:#000000;fill-opacity:1;fill-rule:nonzero;stroke:none"
           id="text272"><tspan
             x="0"
             y="0"
             id="tspan274">2</tspan></text>
<text
           transform="matrix(1,0,0,-1,100.44627,0.203125)"
           style="font-variant:normal;font-weight:normal;font-size:14.39999962px;font-family:Cmr10;-inkscape-font-specification:Cmr10;writing-mode:lr-tb;fill:#000000;fill-opacity:1;fill-rule:nonzero;stroke:none"
           id="text276"><tspan
             x="0"
             y="0"
             id="tspan278">)</tspan></text>
<text
           transform="matrix(1,0,0,-1,110.60187,0.203125)"
           style="font-variant:normal;font-weight:normal;font-size:14.39999962px;font-family:BitstreamVeraSans;-inkscape-font-specification:BitstreamVeraSans-Roman;writing-mode:lr-tb;fill:#000000;fill-opacity:1;fill-rule:nonzero;stroke:none"
           id="text280"><tspan
             x="0 9.1247559 17.919617 27.030334 36.141052 44.949951 54.060669 59.69696 64.266357 68.260193 77.104187 81.673584 85.667419 94.511414 103.62213 108.19153 118.05328 122.62268 131.74744 140.59143 146.50146 155.62622 164.43512 173.54584 179.18213 183.75153"
             y="0"
             sodipodi:role="line"
             id="tspan282">donnant le jeu B perdant (</tspan></text>
<text
           transform="matrix(1,0,0,-1,299.96161,0.203125)"
           style="font-variant:normal;font-weight:normal;font-size:14.39999962px;font-family:Cmmi10;-inkscape-font-specification:Cmmi10;writing-mode:lr-tb;fill:#000000;fill-opacity:1;fill-rule:nonzero;stroke:none"
           id="text284"><tspan
             x="0"
             y="0"
             id="tspan286">P</tspan></text>
<text
           transform="matrix(1,0,0,-1,309.20167,-2.245775)"
           style="font-variant:normal;font-weight:normal;font-size:10.07999992px;font-family:Cmmi10;-inkscape-font-specification:Cmmi10;writing-mode:lr-tb;fill:#000000;fill-opacity:1;fill-rule:nonzero;stroke:none"
           id="text288"><tspan
             x="0"
             y="0"
             id="tspan290">B</tspan></text>
<text
           transform="matrix(1,0,0,-1,320.28058,0.203125)"
           style="font-variant:normal;font-weight:normal;font-size:14.39999962px;font-family:Cmmi10;-inkscape-font-specification:Cmmi10;writing-mode:lr-tb;fill:#000000;fill-opacity:1;fill-rule:nonzero;stroke:none"
           id="text292"><tspan
             x="0 13.70622"
             y="0"
             sodipodi:role="line"
             id="tspan294">&lt;.</tspan></text>
<text
           transform="matrix(1,0,0,-1,340.49771,0.203125)"
           style="font-variant:normal;font-weight:normal;font-size:14.39999962px;font-family:Cmr10;-inkscape-font-specification:Cmr10;writing-mode:lr-tb;fill:#000000;fill-opacity:1;fill-rule:nonzero;stroke:none"
           id="text296"><tspan
             x="0"
             y="0"
             id="tspan298">5</tspan></text>
<text
           transform="matrix(1,0,0,-1,347.69302,0.203125)"
           style="font-variant:normal;font-weight:normal;font-size:14.39999962px;font-family:BitstreamVeraSans;-inkscape-font-specification:BitstreamVeraSans-Roman;writing-mode:lr-tb;fill:#000000;fill-opacity:1;fill-rule:nonzero;stroke:none"
           id="text300"><tspan
             x="0"
             y="0"
             id="tspan302">)</tspan></text>
</g></g><g
       id="g304"><g
         id="g306"
         clip-path="url(#clipPath308)"><path
           d="m 451.44,43.02 0,34.416 0,275.328 0,34.416 17.208,0 0,-34.416 0,-275.328 0,-34.416 -17.208,0 z"
           style="fill:#ffffff;fill-opacity:1;fill-rule:nonzero;stroke:#ffffff;stroke-width:0.01;stroke-linecap:butt;stroke-linejoin:miter;stroke-miterlimit:10;stroke-dasharray:none;stroke-opacity:1"
           id="path312"
           inkscape:connector-curvature="0" /></g></g><g
       id="g314"><g
         id="g316"
         clip-path="url(#clipPath318)"><path
           d="m 451.44,43.02 17.208,0"
           style="fill:none;stroke:#000080;stroke-width:1;stroke-linecap:butt;stroke-linejoin:round;stroke-miterlimit:10;stroke-dasharray:none;stroke-opacity:1"
           id="path322"
           inkscape:connector-curvature="0" /><path
           d="m 451.44,77.436 17.208,0"
           style="fill:none;stroke:#0000f1;stroke-width:1;stroke-linecap:butt;stroke-linejoin:round;stroke-miterlimit:10;stroke-dasharray:none;stroke-opacity:1"
           id="path324"
           inkscape:connector-curvature="0" /><path
           d="m 451.44,111.852 17.208,0"
           style="fill:none;stroke:#004cff;stroke-width:1;stroke-linecap:butt;stroke-linejoin:round;stroke-miterlimit:10;stroke-dasharray:none;stroke-opacity:1"
           id="path326"
           inkscape:connector-curvature="0" /><path
           d="m 451.44,146.268 17.208,0"
           style="fill:none;stroke:#00b1ff;stroke-width:1;stroke-linecap:butt;stroke-linejoin:round;stroke-miterlimit:10;stroke-dasharray:none;stroke-opacity:1"
           id="path328"
           inkscape:connector-curvature="0" /><path
           d="m 451.44,180.684 17.208,0"
           style="fill:none;stroke:#29ffce;stroke-width:1;stroke-linecap:butt;stroke-linejoin:round;stroke-miterlimit:10;stroke-dasharray:none;stroke-opacity:1"
           id="path330"
           inkscape:connector-curvature="0" /><path
           d="m 451.44,215.1 17.208,0"
           style="fill:none;stroke:#7dff7a;stroke-width:1;stroke-linecap:butt;stroke-linejoin:round;stroke-miterlimit:10;stroke-dasharray:none;stroke-opacity:1"
           id="path332"
           inkscape:connector-curvature="0" /><path
           d="m 451.44,249.516 17.208,0"
           style="fill:none;stroke:#ceff29;stroke-width:1;stroke-linecap:butt;stroke-linejoin:round;stroke-miterlimit:10;stroke-dasharray:none;stroke-opacity:1"
           id="path334"
           inkscape:connector-curvature="0" /><path
           d="m 451.44,283.932 17.208,0"
           style="fill:none;stroke:#ffc400;stroke-width:1;stroke-linecap:butt;stroke-linejoin:round;stroke-miterlimit:10;stroke-dasharray:none;stroke-opacity:1"
           id="path336"
           inkscape:connector-curvature="0" /><path
           d="m 451.44,318.348 17.208,0"
           style="fill:none;stroke:#ff6800;stroke-width:1;stroke-linecap:butt;stroke-linejoin:round;stroke-miterlimit:10;stroke-dasharray:none;stroke-opacity:1"
           id="path338"
           inkscape:connector-curvature="0" /><path
           d="m 451.44,352.764 17.208,0"
           style="fill:none;stroke:#f10800;stroke-width:1;stroke-linecap:butt;stroke-linejoin:round;stroke-miterlimit:10;stroke-dasharray:none;stroke-opacity:1"
           id="path340"
           inkscape:connector-curvature="0" /><path
           d="m 451.44,387.18 17.208,0"
           style="fill:none;stroke:#800000;stroke-width:1;stroke-linecap:butt;stroke-linejoin:round;stroke-miterlimit:10;stroke-dasharray:none;stroke-opacity:1"
           id="path342"
           inkscape:connector-curvature="0" /></g></g><g
       id="g344"><path
         d="m 451.44,43.02 0,34.416 0,275.328 0,34.416 17.208,0 0,-34.416 0,-275.328 0,-34.416 -17.208,0 z"
         style="fill:none;stroke:#000000;stroke-width:1;stroke-linecap:butt;stroke-linejoin:miter;stroke-miterlimit:10;stroke-dasharray:none;stroke-opacity:1"
         id="path346"
         inkscape:connector-curvature="0" /><path
         d="m 468.648,43.02 -4,0"
         style="fill:#000000;fill-opacity:1;fill-rule:nonzero;stroke:#000000;stroke-width:0.5;stroke-linecap:butt;stroke-linejoin:round;stroke-miterlimit:10;stroke-dasharray:none;stroke-opacity:1"
         id="path348"
         inkscape:connector-curvature="0" /><text
         transform="matrix(1,0,0,-1,472.648,39.7075)"
         style="font-variant:normal;font-weight:normal;font-size:12px;font-family:BitstreamVeraSans;-inkscape-font-specification:BitstreamVeraSans-Roman;writing-mode:lr-tb;fill:#000000;fill-opacity:1;fill-rule:nonzero;stroke:none"
         id="text350"><tspan
           x="0 7.632 11.448"
           y="0"
           sodipodi:role="line"
           id="tspan352">0.0</tspan></text>
<path
         d="m 468.648,111.852 -4,0"
         style="fill:#000000;fill-opacity:1;fill-rule:nonzero;stroke:#000000;stroke-width:0.5;stroke-linecap:butt;stroke-linejoin:round;stroke-miterlimit:10;stroke-dasharray:none;stroke-opacity:1"
         id="path354"
         inkscape:connector-curvature="0" /><text
         transform="matrix(1,0,0,-1,472.648,108.5395)"
         style="font-variant:normal;font-weight:normal;font-size:12px;font-family:BitstreamVeraSans;-inkscape-font-specification:BitstreamVeraSans-Roman;writing-mode:lr-tb;fill:#000000;fill-opacity:1;fill-rule:nonzero;stroke:none"
         id="text356"><tspan
           x="0 7.632 11.448"
           y="0"
           sodipodi:role="line"
           id="tspan358">0.1</tspan></text>
<path
         d="m 468.648,180.684 -4,0"
         style="fill:#000000;fill-opacity:1;fill-rule:nonzero;stroke:#000000;stroke-width:0.5;stroke-linecap:butt;stroke-linejoin:round;stroke-miterlimit:10;stroke-dasharray:none;stroke-opacity:1"
         id="path360"
         inkscape:connector-curvature="0" /><text
         transform="matrix(1,0,0,-1,472.648,177.3715)"
         style="font-variant:normal;font-weight:normal;font-size:12px;font-family:BitstreamVeraSans;-inkscape-font-specification:BitstreamVeraSans-Roman;writing-mode:lr-tb;fill:#000000;fill-opacity:1;fill-rule:nonzero;stroke:none"
         id="text362"><tspan
           x="0 7.632 11.448"
           y="0"
           sodipodi:role="line"
           id="tspan364">0.2</tspan></text>
<path
         d="m 468.648,249.516 -4,0"
         style="fill:#000000;fill-opacity:1;fill-rule:nonzero;stroke:#000000;stroke-width:0.5;stroke-linecap:butt;stroke-linejoin:round;stroke-miterlimit:10;stroke-dasharray:none;stroke-opacity:1"
         id="path366"
         inkscape:connector-curvature="0" /><text
         transform="matrix(1,0,0,-1,472.648,246.2035)"
         style="font-variant:normal;font-weight:normal;font-size:12px;font-family:BitstreamVeraSans;-inkscape-font-specification:BitstreamVeraSans-Roman;writing-mode:lr-tb;fill:#000000;fill-opacity:1;fill-rule:nonzero;stroke:none"
         id="text368"><tspan
           x="0 7.632 11.448"
           y="0"
           sodipodi:role="line"
           id="tspan370">0.3</tspan></text>
<path
         d="m 468.648,318.348 -4,0"
         style="fill:#000000;fill-opacity:1;fill-rule:nonzero;stroke:#000000;stroke-width:0.5;stroke-linecap:butt;stroke-linejoin:round;stroke-miterlimit:10;stroke-dasharray:none;stroke-opacity:1"
         id="path372"
         inkscape:connector-curvature="0" /><text
         transform="matrix(1,0,0,-1,472.648,315.0355)"
         style="font-variant:normal;font-weight:normal;font-size:12px;font-family:BitstreamVeraSans;-inkscape-font-specification:BitstreamVeraSans-Roman;writing-mode:lr-tb;fill:#000000;fill-opacity:1;fill-rule:nonzero;stroke:none"
         id="text374"><tspan
           x="0 7.632 11.448"
           y="0"
           sodipodi:role="line"
           id="tspan376">0.4</tspan></text>
<path
         d="m 468.648,387.18 -4,0"
         style="fill:#000000;fill-opacity:1;fill-rule:nonzero;stroke:#000000;stroke-width:0.5;stroke-linecap:butt;stroke-linejoin:round;stroke-miterlimit:10;stroke-dasharray:none;stroke-opacity:1"
         id="path378"
         inkscape:connector-curvature="0" /><text
         transform="matrix(1,0,0,-1,472.648,383.8675)"
         style="font-variant:normal;font-weight:normal;font-size:12px;font-family:BitstreamVeraSans;-inkscape-font-specification:BitstreamVeraSans-Roman;writing-mode:lr-tb;fill:#000000;fill-opacity:1;fill-rule:nonzero;stroke:none"
         id="text380"><tspan
           x="0 7.632 11.448"
           y="0"
           sodipodi:role="line"
           id="tspan382">0.5</tspan></text>
</g></g></svg>