<?xml version="1.0" encoding="UTF-8" standalone="no"?>
<!-- Created with Inkscape (http://www.inkscape.org/) -->

<svg
   xmlns:dc="http://purl.org/dc/elements/1.1/"
   xmlns:cc="http://creativecommons.org/ns#"
   xmlns:rdf="http://www.w3.org/1999/02/22-rdf-syntax-ns#"
   xmlns:svg="http://www.w3.org/2000/svg"
   xmlns="http://www.w3.org/2000/svg"
   xmlns:sodipodi="http://sodipodi.sourceforge.net/DTD/sodipodi-0.dtd"
   xmlns:inkscape="http://www.inkscape.org/namespaces/inkscape"
   id="svg2"
   version="1.1"
   inkscape:version="0.91 r13725"
   xml:space="preserve"
   width="720"
   height="537.75"
   viewBox="0 0 720 537.75"
   sodipodi:docname="jeuB_perdant_fig.svg"><metadata
     id="metadata8"><rdf:RDF><cc:Work
         rdf:about=""><dc:format>image/svg+xml</dc:format><dc:type
           rdf:resource="http://purl.org/dc/dcmitype/StillImage" /><dc:title></dc:title></cc:Work></rdf:RDF></metadata><defs
     id="defs6"><clipPath
       clipPathUnits="userSpaceOnUse"
       id="clipPath20"><path
         d="m 72,43.02 357.12,0 0,344.16 -357.12,0 0,-344.16 z"
         id="path22"
         inkscape:connector-curvature="0" /></clipPath><clipPath
       clipPathUnits="userSpaceOnUse"
       id="clipPath28"><path
         d="m 72,43.02 357.12,0 0,344.16 -357.12,0 0,-344.16 z"
         id="path30"
         inkscape:connector-curvature="0" /></clipPath><clipPath
       clipPathUnits="userSpaceOnUse"
       id="clipPath38"><path
         d="m 72,43.02 357.12,0 0,344.16 -357.12,0 0,-344.16 z"
         id="path40"
         inkscape:connector-curvature="0" /></clipPath><clipPath
       clipPathUnits="userSpaceOnUse"
       id="clipPath48"><path
         d="m 72,43.02 357.12,0 0,344.16 -357.12,0 0,-344.16 z"
         id="path50"
         inkscape:connector-curvature="0" /></clipPath><clipPath
       clipPathUnits="userSpaceOnUse"
       id="clipPath58"><path
         d="m 72,43.02 357.12,0 0,344.16 -357.12,0 0,-344.16 z"
         id="path60"
         inkscape:connector-curvature="0" /></clipPath><clipPath
       clipPathUnits="userSpaceOnUse"
       id="clipPath68"><path
         d="m 72,43.02 357.12,0 0,344.16 -357.12,0 0,-344.16 z"
         id="path70"
         inkscape:connector-curvature="0" /></clipPath><clipPath
       clipPathUnits="userSpaceOnUse"
       id="clipPath78"><path
         d="m 72,43.02 357.12,0 0,344.16 -357.12,0 0,-344.16 z"
         id="path80"
         inkscape:connector-curvature="0" /></clipPath><clipPath
       clipPathUnits="userSpaceOnUse"
       id="clipPath88"><path
         d="m 72,43.02 357.12,0 0,344.16 -357.12,0 0,-344.16 z"
         id="path90"
         inkscape:connector-curvature="0" /></clipPath><clipPath
       clipPathUnits="userSpaceOnUse"
       id="clipPath98"><path
         d="m 72,43.02 357.12,0 0,344.16 -357.12,0 0,-344.16 z"
         id="path100"
         inkscape:connector-curvature="0" /></clipPath><clipPath
       clipPathUnits="userSpaceOnUse"
       id="clipPath108"><path
         d="m 72,43.02 357.12,0 0,344.16 -357.12,0 0,-344.16 z"
         id="path110"
         inkscape:connector-curvature="0" /></clipPath><clipPath
       clipPathUnits="userSpaceOnUse"
       id="clipPath118"><path
         d="m 72,43.02 357.12,0 0,344.16 -357.12,0 0,-344.16 z"
         id="path120"
         inkscape:connector-curvature="0" /></clipPath><clipPath
       clipPathUnits="userSpaceOnUse"
       id="clipPath128"><path
         d="m 72,43.02 357.12,0 0,344.16 -357.12,0 0,-344.16 z"
         id="path130"
         inkscape:connector-curvature="0" /></clipPath><clipPath
       clipPathUnits="userSpaceOnUse"
       id="clipPath318"><path
         d="m 451.44,43.02 17.208,0 0,344.16 -17.208,0 0,-344.16 z"
         id="path320"
         inkscape:connector-curvature="0" /></clipPath><clipPath
       clipPathUnits="userSpaceOnUse"
       id="clipPath328"><path
         d="m 451.44,43.02 17.208,0 0,344.16 -17.208,0 0,-344.16 z"
         id="path330"
         inkscape:connector-curvature="0" /></clipPath></defs><sodipodi:namedview
     pagecolor="#ffffff"
     bordercolor="#666666"
     borderopacity="1"
     objecttolerance="10"
     gridtolerance="10"
     guidetolerance="10"
     inkscape:pageopacity="0"
     inkscape:pageshadow="2"
     inkscape:window-width="1920"
     inkscape:window-height="1017"
     id="namedview4"
     showgrid="false"
     fit-margin-top="0"
     fit-margin-left="0"
     fit-margin-right="0"
     fit-margin-bottom="0"
     inkscape:zoom="0.43886564"
     inkscape:cx="360"
     inkscape:cy="268.875"
     inkscape:window-x="-8"
     inkscape:window-y="-8"
     inkscape:window-maximized="1"
     inkscape:current-layer="g10" /><g
     id="g10"
     inkscape:groupmode="layer"
     inkscape:label="jeuB_perdant_fig"
     transform="matrix(1.25,0,0,-1.25,0,537.75)"><path
       d="m 0,0 576,0 0,430.2 -576,0 L 0,0 Z"
       style="fill:#ffffff;fill-opacity:1;fill-rule:nonzero;stroke:none"
       id="path12"
       inkscape:connector-curvature="0" /><path
       d="m 72,43.02 357.12,0 0,344.16 -357.12,0 0,-344.16 z"
       style="fill:#ffffff;fill-opacity:1;fill-rule:nonzero;stroke:none"
       id="path14"
       inkscape:connector-curvature="0" /><g
       id="g16"><g
         id="g18"
         clip-path="url(#clipPath20)" /></g><g
       id="g24"><g
         id="g26"
         clip-path="url(#clipPath28)"><path
           d="m 72,68.548906 2.633681,-1.194361 0.973592,-0.443686 3.607272,-1.659658 2.951096,-1.373019 0.656177,-0.306998 3.607273,-1.704235 3.064461,-1.465131 0.542812,-0.261149 3.607272,-1.753147 2.971002,-1.462067 0.636271,-0.315303 3.607271,-1.806818 2.66912,-1.354243 0.93816,-0.47966 3.60727,-1.865741 2.15836,-1.130963 1.44891,-0.765627 3.60727,-1.930489 1.43936,-0.780247 2.16792,-1.186011 3.60727,-2.001731 0.51376,-0.288622"
           style="fill:none;stroke:#0000f1;stroke-width:1;stroke-linecap:butt;stroke-linejoin:round;stroke-miterlimit:10;stroke-dasharray:none;stroke-opacity:1"
           id="path32"
           inkscape:connector-curvature="0" /></g></g><g
       id="g34"><g
         id="g36"
         clip-path="url(#clipPath38)"><path
           d="m 72,93.679026 3.607273,-1.565483 0.970788,-0.424452 2.636484,-1.156094 3.607273,-1.595563 1.624924,-0.724707 1.982349,-0.887327 3.607273,-1.629067 2.106411,-0.959969 1.500861,-0.686976 3.607273,-1.666252 2.407536,-1.123136 1.199735,-0.562532 3.60728,-1.707419 2.52189,-1.206413 1.08538,-0.522241 3.60727,-1.752922 2.44437,-1.2012 1.1629,-0.575221 3.60728,-1.803174 2.17113,-1.097969 1.43614,-0.731606 3.60727,-1.858654 1.69957,-0.886104 1.9077,-1.002713 3.60728,-1.919929 1.02825,-0.553721 2.57902,-1.401249 3.60727,-1.987658 0.15695,-0.08746 3.45032,-1.941545 2.68751,-1.534818 0.91977,-0.530737 3.60727,-2.109119 1.41076,-0.836508 2.19651,-1.317145 3.54468,-2.159219 0.0626,-0.03858 3.60728,-2.25276 1.86719,-1.185019 1.74008,-1.118621 3.60727,-2.357743"
           style="fill:none;stroke:#004cff;stroke-width:1;stroke-linecap:butt;stroke-linejoin:round;stroke-miterlimit:10;stroke-dasharray:none;stroke-opacity:1"
           id="path42"
           inkscape:connector-curvature="0" /></g></g><g
       id="g44"><g
         id="g46"
         clip-path="url(#clipPath48)"><path
           d="m 72,118.67024 3.607273,-1.5335 2.603328,-1.1131 1.003944,-0.42944 3.607273,-1.55194 3.451995,-1.49499 0.155278,-0.0673 3.607273,-1.57344 3.607272,-1.58503 0.566654,-0.25056 3.040619,-1.34745 3.607271,-1.61102 1.15147,-0.51789 2.45581,-1.10781 3.60727,-1.6405 1.58844,-0.72806 2.01883,-0.92877 3.60727,-1.673691 1.86744,-0.873901 1.73984,-0.817849 3.60727,-1.71088 1.97963,-0.947634 1.62764,-0.783262 3.60727,-1.752387 1.9175,-0.940715 1.68978,-0.834044 3.60727,-1.79861 1.67483,-0.84371 1.93244,-0.980207 3.60727,-1.850007 1.24673,-0.646149 2.36055,-1.232903 3.60727,-1.907122 0.62953,-0.336339 2.97774,-1.604626 3.42703,-1.871738 0.18024,-0.09935 3.60728,-2.010108 2.41931,-1.366901 1.18796,-0.678011 3.60727,-2.085371 1.21734,-0.712982 2.38994,-1.41533 3.4282,-2.061034 0.17907,-0.108926 3.60727,-2.222089 1.83097,-1.145348 1.7763,-1.125432 3.60728,-2.322329 0.0438,-0.0286 3.56343,-2.357045 1.66432,-1.119318 1.94295,-1.325969 3.09783,-2.150395 0.50944,-0.359132 3.60728,-2.583601 0.73287,-0.533631 2.8744,-2.128188 1.78853,-1.348175 1.81874,-1.395261 2.66356,-2.081103"
           style="fill:none;stroke:#00b1ff;stroke-width:1;stroke-linecap:butt;stroke-linejoin:round;stroke-miterlimit:10;stroke-dasharray:none;stroke-opacity:1"
           id="path52"
           inkscape:connector-curvature="0" /></g></g><g
       id="g54"><g
         id="g56"
         clip-path="url(#clipPath58)"><path
           d="m 72,143.82215 3.607273,-1.54544 3.607272,-1.54997 0.854982,-0.36856 2.752291,-1.18378 3.607273,-1.55716 1.697264,-0.73542 1.910009,-0.82648 3.607272,-1.56747 2.48005,-1.08242 1.127223,-0.49172 3.607271,-1.58093 3.18639,-1.40371 0.42089,-0.18547 3.60727,-1.59762 3.60727,-1.60718 0.19224,-0.0861 3.41503,-1.53152 3.60728,-1.62849 0.69669,-0.31636 2.91058,-1.32454 3.60727,-1.65336 1.08049,-0.49846 2.52678,-1.16919 3.60728,-1.68198 1.33123,-0.62519 2.27604,-1.07302 3.60727,-1.71459 1.43773,-0.68876 2.16954,-1.04419 3.60728,-1.75151 1.39007,-0.68066 2.2172,-1.09166 3.60727,-1.79309 1.17967,-0.59161 2.4276,-1.22526 3.60728,-1.83975 0.79919,-0.41136 2.80808,-1.45587 3.60727,-1.892033 0.24267,-0.128459 3.36461,-1.795717 3.10988,-1.680646 0.49739,-0.271179 3.60727,-1.987295 2.18304,-1.21789 1.42423,-0.802366 3.60728,-2.057287 1.06847,-0.616711 2.5388,-1.481258 3.37098,-1.995105 0.23629,-0.141465 3.60727,-2.185515 1.86967,-1.149384 1.73761,-1.081739 3.60727,-2.279828 0.17935,-0.114797 3.42792,-2.22453 1.89841,-1.251833 1.70887,-1.143378 3.42993,-2.332986 0.17734,-0.122495 3.60727,-2.528091 1.15879,-0.825778 2.44848,-1.774335 2.30803,-1.702028 1.29925,-0.975233 3.27303,-2.501131 0.33424,-0.260236 3.60727,-2.857209 0.44522,-0.358918 3.16205,-2.6014 1.04366,-0.874964 2.56362,-2.195804 1.46654,-1.28056 2.14073,-1.912039 1.71736,-1.564324 1.88991,-1.76315 1.8,-1.713214"
           style="fill:none;stroke:#29ffce;stroke-width:1;stroke-linecap:butt;stroke-linejoin:round;stroke-miterlimit:10;stroke-dasharray:none;stroke-opacity:1"
           id="path62"
           inkscape:connector-curvature="0" /></g></g><g
       id="g64"><g
         id="g66"
         clip-path="url(#clipPath68)"><path
           d="m 72,169.51631 3.00043,-1.34722 0.606843,-0.27066 3.607272,-1.60991 3.577067,-1.59579 0.03021,-0.0134 3.607273,-1.60241 3.607273,-1.60304 0.57866,-0.25752 3.028612,-1.34195 3.607273,-1.60045 1.201309,-0.53396 2.405958,-1.06581 3.60728,-1.60136 1.81857,-0.80919 1.7887,-0.79398 3.60727,-1.6057 2.4117,-1.07669 1.19557,-0.53294 3.60728,-1.61346 2.96259,-1.32996 0.64468,-0.28923 3.60727,-1.62465 3.45388,-1.56249 0.15339,-0.0694 3.60728,-1.63933 3.60727,-1.64793 0.26083,-0.1197 3.34644,-1.53786 3.60727,-1.66758 0.58303,-0.27092 3.02425,-1.40845 3.60727,-1.69105 0.79928,-0.37687 2.80799,-1.32812 3.60727,-1.71851 0.89627,-0.42973 2.71101,-1.30503 3.60727,-1.75026 0.8618,-0.42107 2.74547,-1.34799 3.60728,-1.7866 0.68495,-0.34178 2.92232,-1.46662 3.60727,-1.82792 0.35602,-0.18182 3.25125,-1.67154 3.47326,-1.80482 0.13402,-0.0702 3.60727,-1.90435 2.813,-1.50186 0.79427,-0.42761 3.60727,-1.96109 1.97829,-1.08766 1.62899,-0.90403 3.60727,-2.02498 0.96451,-0.54735 2.64276,-1.51541 3.37442,-1.96096 0.23286,-0.13684 3.60727,-2.143204 1.98613,-1.196318 1.62114,-0.988548 3.60727,-2.230447 0.4112,-0.257368 3.19608,-2.027595 2.24916,-1.448769 1.35811,-0.887465 3.60727,-2.393253 0.29097,-0.195646 3.3163,-2.265191 1.74439,-1.211172 1.86289,-1.315202 3.00996,-2.161162 0.59731,-0.436523 3.60727,-2.679321 0.47762,-0.36052 3.12966,-2.408364 1.36315,-1.067999 2.24412,-1.794487 2.06492,-1.681877 1.54235,-1.283723 2.58519,-2.192641 1.02208,-0.886986 2.92678,-2.589377 0.6805,-0.616845 3.093,-2.859519 0.51427,-0.487839 3.08764,-2.988524 0.51963,-0.516869 2.91485,-2.959495 0.69243,-0.723679 2.57921,-2.752685 1.02806,-1.131473 2.08561,-2.34489 1.52166,-1.767688 1.43927,-1.708676"
           style="fill:none;stroke:#7dff7a;stroke-width:1;stroke-linecap:butt;stroke-linejoin:round;stroke-miterlimit:10;stroke-dasharray:none;stroke-opacity:1"
           id="path72"
           inkscape:connector-curvature="0" /></g></g><g
       id="g74"><g
         id="g76"
         clip-path="url(#clipPath78)"><path
           d="m 72,196.27554 0.597948,-0.29554 3.009325,-1.47006 3.607272,-1.75363 0.521044,-0.25267 3.086229,-1.4812 3.607273,-1.72443 0.567409,-0.27074 3.039864,-1.43738 3.607272,-1.70055 0.718842,-0.33843 2.888431,-1.34923 3.607271,-1.68154 0.95669,-0.4456 2.65059,-1.2263 3.60727,-1.66704 1.26199,-0.58302 2.34528,-1.07741 3.60727,-1.65676 1.61568,-0.74219 1.9916,-0.91071 3.60727,-1.6505 1.99866,-0.91516 1.60861,-0.73395 3.60727,-1.64807 2.39201,-1.09434 1.21527,-0.55456 3.60727,-1.64939 2.77708,-1.27241 0.83019,-0.37977 3.60727,-1.65442 3.1357,-1.44218 0.47158,-0.21674 3.60727,-1.66313 3.45022,-1.59649 0.15705,-0.0727 3.60727,-1.67559 3.60728,-1.68306 0.0961,-0.045 3.51114,-1.64683 3.60727,-1.70081 0.27181,-0.12873 3.33547,-1.58326 3.60727,-1.7226 0.35527,-0.1705 3.252,-1.56574 3.60727,-1.74864 0.33232,-0.16199 3.27496,-1.60296 3.60727,-1.77919 0.18986,-0.0942 3.41741,-1.70433 3.52288,-1.77203 0.0844,-0.0427 3.60728,-1.83737 3.10502,-1.5963 0.50225,-0.25995 3.60727,-1.88151 2.53465,-1.3349 1.07263,-0.56931 3.60727,-1.93176 1.80341,-0.97529 1.80386,-0.98417 3.60727,-1.9888 0.90429,-0.5034 2.70299,-1.51965 3.43804,-1.95671 0.16923,-0.0974 3.60727,-2.09562 2.18113,-1.28339 1.42614,-0.84917 3.60728,-2.17474 0.74182,-0.45246 2.86545,-1.77076 2.72086,-1.7056 0.88641,-0.5635 3.60728,-2.32371 0.90237,-0.58915 2.7049,-1.79344 2.49907,-1.68293 1.1082,-0.75864 3.60727,-2.507866 0.29767,-0.209856 3.30961,-2.375647 1.50794,-1.100716 2.09933,-1.561993 2.52883,-1.914371 1.07844,-0.833171 3.36097,-2.643193 0.24631,-0.197933 3.60727,-2.949059 0.39578,-0.329371 3.21149,-2.736616 0.85182,-0.739748 2.75545,-2.453924 1.12599,-1.02244 2.48129,-2.314243 1.22145,-1.16212 2.38582,-2.335528 1.14191,-1.140836 2.46536,-2.538935 0.89152,-0.937429 2.71575,-2.949558 0.47485,-0.526805 3.0285,-3.476364 0.10393,-0.123361 2.76348,-3.353002 0.84379,-1.063612 1.87179,-2.412752 1.73548,-2.330457 0.83415,-1.145907 2.42686,-3.476363 0.34626,-0.516508 L 319.233,43.02"
           style="fill:none;stroke:#ceff29;stroke-width:1;stroke-linecap:butt;stroke-linejoin:round;stroke-miterlimit:10;stroke-dasharray:none;stroke-opacity:1"
           id="path82"
           inkscape:connector-curvature="0" /></g></g><g
       id="g84"><g
         id="g86"
         clip-path="url(#clipPath88)"><path
           d="m 72,224.9464 8.206759,-4.63186 9.829605,-5.30583 10.821816,-5.61725 14.42909,-7.20351 18.03637,-8.69514 21.64363,-10.18938 39.68,-18.69977 18.03637,-8.80219 14.42909,-7.31178 10.82181,-5.70015 10.82182,-5.93479 10.82182,-6.23223 7.21455,-4.35031 7.21454,-4.54299 8.60669,-5.70558 5.8224,-4.07434 7.21455,-5.331 5.73986,-4.50012 5.08196,-4.217712 3.60727,-3.141377 3.60727,-3.284005 3.60727,-3.44569 3.60728,-3.630075 3.60727,-3.841702 3.60727,-4.086296 4.61129,-5.640414 2.63282,-3.476364 3.57771,-5.104536 3.41161,-5.324554 2.04374,-3.476364 1.91696,-3.476364 L 349.76,43.02 l 0,0"
           style="fill:none;stroke:#ffc400;stroke-width:1;stroke-linecap:butt;stroke-linejoin:round;stroke-miterlimit:10;stroke-dasharray:none;stroke-opacity:1"
           id="path92"
           inkscape:connector-curvature="0" /></g></g><g
       id="g94"><g
         id="g96"
         clip-path="url(#clipPath98)"><path
           d="m 72,257.10801 7.214545,-5.19556 5.581041,-3.787 8.84805,-5.66458 7.860804,-4.76451 10.17556,-5.8491 8.31747,-4.57999 13.32617,-7.03002 14.42909,-7.29816 18.03636,-8.81901 25.25091,-12.06449 28.85818,-13.81256 18.03636,-8.87554 14.4291,-7.35472 10.82181,-5.72601 10.82182,-5.9564 11.23868,-6.49582 10.40496,-6.37086 7.21454,-4.66332 7.21455,-4.90979 7.21454,-5.19665 7.21455,-5.55721 5.58492,-4.58944 5.2369,-4.5915 3.60727,-3.34522 3.60727,-3.52196 3.60728,-3.725691 3.60727,-3.962375 4.38314,-5.187797 2.8314,-3.62315 3.60728,-5.002323 3.4692,-5.279981 2.08595,-3.476364 1.94701,-3.476364 3.31966,-6.616691 1.69862,-3.812399 1.90865,-4.752653 2.00506,-5.676438 1.0848,-3.476364 0,0"
           style="fill:none;stroke:#ff6800;stroke-width:1;stroke-linecap:butt;stroke-linejoin:round;stroke-miterlimit:10;stroke-dasharray:none;stroke-opacity:1"
           id="path102"
           inkscape:connector-curvature="0" /></g></g><g
       id="g104"><g
         id="g106"
         clip-path="url(#clipPath108)"><path
           d="m 72,296.79923 0.0039,-0.005 3.603399,-4.11536 3.607272,-3.82089 3.607273,-3.57296 3.607273,-3.36483 3.607273,-3.18819 3.607272,-3.03675 7.214548,-5.67916 6.13601,-4.50913 4.98631,-3.47636 6.91405,-4.58651 9.31334,-5.84258 8.72302,-5.17308 10.82182,-6.11423 11.29367,-6.09451 13.95724,-7.22333 14.42909,-7.21411 21.64363,-10.53058 46.89455,-22.69393 15.8492,-7.95987 13.34942,-6.95273 12.78051,-6.95272 8.52269,-4.84615 9.40405,-5.58294 8.63231,-5.40245 7.6212,-5.02665 6.80789,-4.75224 7.64924,-5.67685 6.77985,-5.4195 5.8405,-5.00959 4.98132,-4.59851 3.60727,-3.54465 3.60728,-3.76253 3.60727,-4.01869 4.09818,-4.9338 3.11636,-4.095588 3.60728,-5.189369 2.91073,-4.620496 1.99942,-3.476363 2.30439,-4.388682 1.24559,-2.564046 2.36169,-5.403789 1.92124,-5.025302 1.68603,-5.139008 1.4827,-5.290082 1.56765,-6.952728 1.17635,-6.952727 0,0"
           style="fill:none;stroke:#f10800;stroke-width:1;stroke-linecap:butt;stroke-linejoin:round;stroke-miterlimit:10;stroke-dasharray:none;stroke-opacity:1"
           id="path112"
           inkscape:connector-curvature="0" /></g></g><g
       id="g114"><g
         id="g116"
         clip-path="url(#clipPath118)"><path
           d="m 72,387.18 0.15246,-6.95273 0.481957,-6.95273 0.849733,-6.95272 1.257471,-6.95273 0.865652,-3.75251 0.847622,-3.20022 1.042751,-3.47636 1.716899,-4.94508 0.765621,-2.00765 1.454957,-3.47636 1.601417,-3.47637 1.761782,-3.47636 1.919155,-3.47636 3.318887,-5.38412 1.034084,-1.56861 2.573188,-3.65646 3.607273,-4.68772 3.607271,-4.30036 3.60728,-3.98238 4.11974,-4.23126 3.61783,-3.47637 6.69152,-5.95601 5.42177,-4.47308 5.40004,-4.18438 7.21455,-5.25711 7.21454,-4.9429 7.21455,-4.67797 8.54751,-5.27218 9.48885,-5.55797 10.82182,-6.04755 10.82182,-5.80106 14.42909,-7.43828 18.03636,-8.97315 23.44769,-11.37472 34.26868,-16.62408 15.43739,-7.71046 13.46794,-6.95273 12.92298,-6.95273 8.67351,-4.87112 10.82181,-6.36443 9.85345,-6.14627 8.18292,-5.43503 7.21454,-5.08594 7.21455,-5.44959 6.04187,-4.88762 4.77995,-4.14067 3.60727,-3.3063 3.60727,-3.49544 3.60728,-3.71794 3.60727,-3.98238 3.60727,-4.30036 3.60727,-4.68772 2.57319,-3.65646 2.26228,-3.47636 2.37908,-3.98789 1.63077,-2.964842 1.9765,-3.93224 1.3867,-3.020487 2.22057,-5.484007 0.54545,-1.46872 1.17145,-3.476364 1.89038,-6.67658 0.86565,-3.752511 1.25747,-6.952727 0.84973,-6.952727 0.48196,-6.952728 L 429.12,43.02 l 0,0"
           style="fill:none;stroke:#800000;stroke-width:1;stroke-linecap:butt;stroke-linejoin:round;stroke-miterlimit:10;stroke-dasharray:none;stroke-opacity:1"
           id="path122"
           inkscape:connector-curvature="0" /></g></g><g
       id="g124"><g
         id="g126"
         clip-path="url(#clipPath128)"><path
           d="m 105.9264,296.4192 c 0.79561,0 1.55874,0.3161 2.12132,0.87868 0.56258,0.56258 0.87868,1.32571 0.87868,2.12132 0,0.79561 -0.3161,1.55874 -0.87868,2.12132 -0.56258,0.56258 -1.32571,0.87868 -2.12132,0.87868 -0.79561,0 -1.55874,-0.3161 -2.12132,-0.87868 -0.56258,-0.56258 -0.87868,-1.32571 -0.87868,-2.12132 0,-0.79561 0.3161,-1.55874 0.87868,-2.12132 0.56258,-0.56258 1.32571,-0.87868 2.12132,-0.87868 z"
           style="fill:#0000ff;fill-opacity:1;fill-rule:nonzero;stroke:#000000;stroke-width:0.5;stroke-linecap:butt;stroke-linejoin:round;stroke-miterlimit:10;stroke-dasharray:none;stroke-opacity:1"
           id="path132"
           inkscape:connector-curvature="0" /></g></g><g
       id="g134"><path
         d="m 72,43.02 0,344.16"
         style="fill:none;stroke:#000000;stroke-width:1;stroke-linecap:square;stroke-linejoin:miter;stroke-miterlimit:10;stroke-dasharray:none;stroke-opacity:1"
         id="path136"
         inkscape:connector-curvature="0" /><path
         d="m 72,387.18 357.12,0"
         style="fill:none;stroke:#000000;stroke-width:1;stroke-linecap:square;stroke-linejoin:miter;stroke-miterlimit:10;stroke-dasharray:none;stroke-opacity:1"
         id="path138"
         inkscape:connector-curvature="0" /><path
         d="m 429.12,43.02 0,344.16"
         style="fill:none;stroke:#000000;stroke-width:1;stroke-linecap:square;stroke-linejoin:miter;stroke-miterlimit:10;stroke-dasharray:none;stroke-opacity:1"
         id="path140"
         inkscape:connector-curvature="0" /><path
         d="m 72,43.02 357.12,0"
         style="fill:none;stroke:#000000;stroke-width:1;stroke-linecap:square;stroke-linejoin:miter;stroke-miterlimit:10;stroke-dasharray:none;stroke-opacity:1"
         id="path142"
         inkscape:connector-curvature="0" /><path
         d="m 72,43.02 0,4"
         style="fill:#000000;fill-opacity:1;fill-rule:nonzero;stroke:#000000;stroke-width:0.5;stroke-linecap:butt;stroke-linejoin:round;stroke-miterlimit:10;stroke-dasharray:none;stroke-opacity:1"
         id="path144"
         inkscape:connector-curvature="0" /><path
         d="m 72,387.18 0,-4"
         style="fill:#000000;fill-opacity:1;fill-rule:nonzero;stroke:#000000;stroke-width:0.5;stroke-linecap:butt;stroke-linejoin:round;stroke-miterlimit:10;stroke-dasharray:none;stroke-opacity:1"
         id="path146"
         inkscape:connector-curvature="0" /><text
         transform="matrix(1,0,0,-1,62.453125,29.895)"
         style="font-variant:normal;font-weight:normal;font-size:12px;font-family:BitstreamVeraSans;-inkscape-font-specification:BitstreamVeraSans-Roman;writing-mode:lr-tb;fill:#000000;fill-opacity:1;fill-rule:nonzero;stroke:none"
         id="text148"><tspan
           x="0 7.632 11.448"
           y="0"
           sodipodi:role="line"
           id="tspan150">0.0</tspan></text>
<path
         d="m 143.424,43.02 0,4"
         style="fill:#000000;fill-opacity:1;fill-rule:nonzero;stroke:#000000;stroke-width:0.5;stroke-linecap:butt;stroke-linejoin:round;stroke-miterlimit:10;stroke-dasharray:none;stroke-opacity:1"
         id="path152"
         inkscape:connector-curvature="0" /><path
         d="m 143.424,387.18 0,-4"
         style="fill:#000000;fill-opacity:1;fill-rule:nonzero;stroke:#000000;stroke-width:0.5;stroke-linecap:butt;stroke-linejoin:round;stroke-miterlimit:10;stroke-dasharray:none;stroke-opacity:1"
         id="path154"
         inkscape:connector-curvature="0" /><text
         transform="matrix(1,0,0,-1,133.87712,29.895)"
         style="font-variant:normal;font-weight:normal;font-size:12px;font-family:BitstreamVeraSans;-inkscape-font-specification:BitstreamVeraSans-Roman;writing-mode:lr-tb;fill:#000000;fill-opacity:1;fill-rule:nonzero;stroke:none"
         id="text156"><tspan
           x="0 7.632 11.448"
           y="0"
           sodipodi:role="line"
           id="tspan158">0.2</tspan></text>
<path
         d="m 214.848,43.02 0,4"
         style="fill:#000000;fill-opacity:1;fill-rule:nonzero;stroke:#000000;stroke-width:0.5;stroke-linecap:butt;stroke-linejoin:round;stroke-miterlimit:10;stroke-dasharray:none;stroke-opacity:1"
         id="path160"
         inkscape:connector-curvature="0" /><path
         d="m 214.848,387.18 0,-4"
         style="fill:#000000;fill-opacity:1;fill-rule:nonzero;stroke:#000000;stroke-width:0.5;stroke-linecap:butt;stroke-linejoin:round;stroke-miterlimit:10;stroke-dasharray:none;stroke-opacity:1"
         id="path162"
         inkscape:connector-curvature="0" /><text
         transform="matrix(1,0,0,-1,205.30113,29.895)"
         style="font-variant:normal;font-weight:normal;font-size:12px;font-family:BitstreamVeraSans;-inkscape-font-specification:BitstreamVeraSans-Roman;writing-mode:lr-tb;fill:#000000;fill-opacity:1;fill-rule:nonzero;stroke:none"
         id="text164"><tspan
           x="0 7.632 11.448"
           y="0"
           sodipodi:role="line"
           id="tspan166">0.4</tspan></text>
<path
         d="m 286.272,43.02 0,4"
         style="fill:#000000;fill-opacity:1;fill-rule:nonzero;stroke:#000000;stroke-width:0.5;stroke-linecap:butt;stroke-linejoin:round;stroke-miterlimit:10;stroke-dasharray:none;stroke-opacity:1"
         id="path168"
         inkscape:connector-curvature="0" /><path
         d="m 286.272,387.18 0,-4"
         style="fill:#000000;fill-opacity:1;fill-rule:nonzero;stroke:#000000;stroke-width:0.5;stroke-linecap:butt;stroke-linejoin:round;stroke-miterlimit:10;stroke-dasharray:none;stroke-opacity:1"
         id="path170"
         inkscape:connector-curvature="0" /><text
         transform="matrix(1,0,0,-1,276.72512,29.895)"
         style="font-variant:normal;font-weight:normal;font-size:12px;font-family:BitstreamVeraSans;-inkscape-font-specification:BitstreamVeraSans-Roman;writing-mode:lr-tb;fill:#000000;fill-opacity:1;fill-rule:nonzero;stroke:none"
         id="text172"><tspan
           x="0 7.632 11.448"
           y="0"
           sodipodi:role="line"
           id="tspan174">0.6</tspan></text>
<path
         d="m 357.696,43.02 0,4"
         style="fill:#000000;fill-opacity:1;fill-rule:nonzero;stroke:#000000;stroke-width:0.5;stroke-linecap:butt;stroke-linejoin:round;stroke-miterlimit:10;stroke-dasharray:none;stroke-opacity:1"
         id="path176"
         inkscape:connector-curvature="0" /><path
         d="m 357.696,387.18 0,-4"
         style="fill:#000000;fill-opacity:1;fill-rule:nonzero;stroke:#000000;stroke-width:0.5;stroke-linecap:butt;stroke-linejoin:round;stroke-miterlimit:10;stroke-dasharray:none;stroke-opacity:1"
         id="path178"
         inkscape:connector-curvature="0" /><text
         transform="matrix(1,0,0,-1,348.14913,29.895)"
         style="font-variant:normal;font-weight:normal;font-size:12px;font-family:BitstreamVeraSans;-inkscape-font-specification:BitstreamVeraSans-Roman;writing-mode:lr-tb;fill:#000000;fill-opacity:1;fill-rule:nonzero;stroke:none"
         id="text180"><tspan
           x="0 7.632 11.448"
           y="0"
           sodipodi:role="line"
           id="tspan182">0.8</tspan></text>
<path
         d="m 429.12,43.02 0,4"
         style="fill:#000000;fill-opacity:1;fill-rule:nonzero;stroke:#000000;stroke-width:0.5;stroke-linecap:butt;stroke-linejoin:round;stroke-miterlimit:10;stroke-dasharray:none;stroke-opacity:1"
         id="path184"
         inkscape:connector-curvature="0" /><path
         d="m 429.12,387.18 0,-4"
         style="fill:#000000;fill-opacity:1;fill-rule:nonzero;stroke:#000000;stroke-width:0.5;stroke-linecap:butt;stroke-linejoin:round;stroke-miterlimit:10;stroke-dasharray:none;stroke-opacity:1"
         id="path186"
         inkscape:connector-curvature="0" /><text
         transform="matrix(1,0,0,-1,419.57312,29.895)"
         style="font-variant:normal;font-weight:normal;font-size:12px;font-family:BitstreamVeraSans;-inkscape-font-specification:BitstreamVeraSans-Roman;writing-mode:lr-tb;fill:#000000;fill-opacity:1;fill-rule:nonzero;stroke:none"
         id="text188"><tspan
           x="0 7.632 11.448"
           y="0"
           sodipodi:role="line"
           id="tspan190">1.0</tspan></text>
<g
         id="g192"
         transform="translate(244.56,13.77)"><text
           transform="matrix(1,0,0,-1,0,0.703125)"
           style="font-variant:normal;font-weight:normal;font-size:12px;font-family:Cmmi10;-inkscape-font-specification:Cmmi10;writing-mode:lr-tb;fill:#000000;fill-opacity:1;fill-rule:nonzero;stroke:none"
           id="text194"><tspan
             x="0"
             y="0"
             id="tspan196">p</tspan></text>
<text
           transform="matrix(1,0,0,-1,6.0351562,-1.337625)"
           style="font-variant:normal;font-weight:normal;font-size:8.39999962px;font-family:Cmr10;-inkscape-font-specification:Cmr10;writing-mode:lr-tb;fill:#000000;fill-opacity:1;fill-rule:nonzero;stroke:none"
           id="text198"><tspan
             x="0"
             y="0"
             id="tspan200">1</tspan></text>
</g><path
         d="m 72,43.02 4,0"
         style="fill:#000000;fill-opacity:1;fill-rule:nonzero;stroke:#000000;stroke-width:0.5;stroke-linecap:butt;stroke-linejoin:round;stroke-miterlimit:10;stroke-dasharray:none;stroke-opacity:1"
         id="path202"
         inkscape:connector-curvature="0" /><path
         d="m 429.12,43.02 -4,0"
         style="fill:#000000;fill-opacity:1;fill-rule:nonzero;stroke:#000000;stroke-width:0.5;stroke-linecap:butt;stroke-linejoin:round;stroke-miterlimit:10;stroke-dasharray:none;stroke-opacity:1"
         id="path204"
         inkscape:connector-curvature="0" /><text
         transform="matrix(1,0,0,-1,48.90625,39.7075)"
         style="font-variant:normal;font-weight:normal;font-size:12px;font-family:BitstreamVeraSans;-inkscape-font-specification:BitstreamVeraSans-Roman;writing-mode:lr-tb;fill:#000000;fill-opacity:1;fill-rule:nonzero;stroke:none"
         id="text206"><tspan
           x="0 7.632 11.448"
           y="0"
           sodipodi:role="line"
           id="tspan208">0.0</tspan></text>
<path
         d="m 72,111.852 4,0"
         style="fill:#000000;fill-opacity:1;fill-rule:nonzero;stroke:#000000;stroke-width:0.5;stroke-linecap:butt;stroke-linejoin:round;stroke-miterlimit:10;stroke-dasharray:none;stroke-opacity:1"
         id="path210"
         inkscape:connector-curvature="0" /><path
         d="m 429.12,111.852 -4,0"
         style="fill:#000000;fill-opacity:1;fill-rule:nonzero;stroke:#000000;stroke-width:0.5;stroke-linecap:butt;stroke-linejoin:round;stroke-miterlimit:10;stroke-dasharray:none;stroke-opacity:1"
         id="path212"
         inkscape:connector-curvature="0" /><text
         transform="matrix(1,0,0,-1,48.90625,108.5395)"
         style="font-variant:normal;font-weight:normal;font-size:12px;font-family:BitstreamVeraSans;-inkscape-font-specification:BitstreamVeraSans-Roman;writing-mode:lr-tb;fill:#000000;fill-opacity:1;fill-rule:nonzero;stroke:none"
         id="text214"><tspan
           x="0 7.632 11.448"
           y="0"
           sodipodi:role="line"
           id="tspan216">0.2</tspan></text>
<path
         d="m 72,180.684 4,0"
         style="fill:#000000;fill-opacity:1;fill-rule:nonzero;stroke:#000000;stroke-width:0.5;stroke-linecap:butt;stroke-linejoin:round;stroke-miterlimit:10;stroke-dasharray:none;stroke-opacity:1"
         id="path218"
         inkscape:connector-curvature="0" /><path
         d="m 429.12,180.684 -4,0"
         style="fill:#000000;fill-opacity:1;fill-rule:nonzero;stroke:#000000;stroke-width:0.5;stroke-linecap:butt;stroke-linejoin:round;stroke-miterlimit:10;stroke-dasharray:none;stroke-opacity:1"
         id="path220"
         inkscape:connector-curvature="0" /><text
         transform="matrix(1,0,0,-1,48.90625,177.3715)"
         style="font-variant:normal;font-weight:normal;font-size:12px;font-family:BitstreamVeraSans;-inkscape-font-specification:BitstreamVeraSans-Roman;writing-mode:lr-tb;fill:#000000;fill-opacity:1;fill-rule:nonzero;stroke:none"
         id="text222"><tspan
           x="0 7.632 11.448"
           y="0"
           sodipodi:role="line"
           id="tspan224">0.4</tspan></text>
<path
         d="m 72,249.516 4,0"
         style="fill:#000000;fill-opacity:1;fill-rule:nonzero;stroke:#000000;stroke-width:0.5;stroke-linecap:butt;stroke-linejoin:round;stroke-miterlimit:10;stroke-dasharray:none;stroke-opacity:1"
         id="path226"
         inkscape:connector-curvature="0" /><path
         d="m 429.12,249.516 -4,0"
         style="fill:#000000;fill-opacity:1;fill-rule:nonzero;stroke:#000000;stroke-width:0.5;stroke-linecap:butt;stroke-linejoin:round;stroke-miterlimit:10;stroke-dasharray:none;stroke-opacity:1"
         id="path228"
         inkscape:connector-curvature="0" /><text
         transform="matrix(1,0,0,-1,48.90625,246.2035)"
         style="font-variant:normal;font-weight:normal;font-size:12px;font-family:BitstreamVeraSans;-inkscape-font-specification:BitstreamVeraSans-Roman;writing-mode:lr-tb;fill:#000000;fill-opacity:1;fill-rule:nonzero;stroke:none"
         id="text230"><tspan
           x="0 7.632 11.448"
           y="0"
           sodipodi:role="line"
           id="tspan232">0.6</tspan></text>
<path
         d="m 72,318.348 4,0"
         style="fill:#000000;fill-opacity:1;fill-rule:nonzero;stroke:#000000;stroke-width:0.5;stroke-linecap:butt;stroke-linejoin:round;stroke-miterlimit:10;stroke-dasharray:none;stroke-opacity:1"
         id="path234"
         inkscape:connector-curvature="0" /><path
         d="m 429.12,318.348 -4,0"
         style="fill:#000000;fill-opacity:1;fill-rule:nonzero;stroke:#000000;stroke-width:0.5;stroke-linecap:butt;stroke-linejoin:round;stroke-miterlimit:10;stroke-dasharray:none;stroke-opacity:1"
         id="path236"
         inkscape:connector-curvature="0" /><text
         transform="matrix(1,0,0,-1,48.90625,315.0355)"
         style="font-variant:normal;font-weight:normal;font-size:12px;font-family:BitstreamVeraSans;-inkscape-font-specification:BitstreamVeraSans-Roman;writing-mode:lr-tb;fill:#000000;fill-opacity:1;fill-rule:nonzero;stroke:none"
         id="text238"><tspan
           x="0 7.632 11.448"
           y="0"
           sodipodi:role="line"
           id="tspan240">0.8</tspan></text>
<path
         d="m 72,387.18 4,0"
         style="fill:#000000;fill-opacity:1;fill-rule:nonzero;stroke:#000000;stroke-width:0.5;stroke-linecap:butt;stroke-linejoin:round;stroke-miterlimit:10;stroke-dasharray:none;stroke-opacity:1"
         id="path242"
         inkscape:connector-curvature="0" /><path
         d="m 429.12,387.18 -4,0"
         style="fill:#000000;fill-opacity:1;fill-rule:nonzero;stroke:#000000;stroke-width:0.5;stroke-linecap:butt;stroke-linejoin:round;stroke-miterlimit:10;stroke-dasharray:none;stroke-opacity:1"
         id="path244"
         inkscape:connector-curvature="0" /><text
         transform="matrix(1,0,0,-1,48.90625,383.8675)"
         style="font-variant:normal;font-weight:normal;font-size:12px;font-family:BitstreamVeraSans;-inkscape-font-specification:BitstreamVeraSans-Roman;writing-mode:lr-tb;fill:#000000;fill-opacity:1;fill-rule:nonzero;stroke:none"
         id="text246"><tspan
           x="0 7.632 11.448"
           y="0"
           sodipodi:role="line"
           id="tspan248">1.0</tspan></text>
<g
         id="g250"
         transform="matrix(0,1,-1,0,40.90625,209.1)"><text
           transform="matrix(1,0,0,-1,0,0.703125)"
           style="font-variant:normal;font-weight:normal;font-size:12px;font-family:Cmmi10;-inkscape-font-specification:Cmmi10;writing-mode:lr-tb;fill:#000000;fill-opacity:1;fill-rule:nonzero;stroke:none"
           id="text252"><tspan
             x="0"
             y="0"
             id="tspan254">p</tspan></text>
<text
           transform="matrix(1,0,0,-1,6.0351562,-1.337625)"
           style="font-variant:normal;font-weight:normal;font-size:8.39999962px;font-family:Cmr10;-inkscape-font-specification:Cmr10;writing-mode:lr-tb;fill:#000000;fill-opacity:1;fill-rule:nonzero;stroke:none"
           id="text256"><tspan
             x="0"
             y="0"
             id="tspan258">2</tspan></text>
</g><g
         id="g260"
         transform="translate(73.56,392.18)"><text
           transform="matrix(1,0,0,-1,0,0.203125)"
           style="font-variant:normal;font-weight:normal;font-size:14.39999962px;font-family:BitstreamVeraSans;-inkscape-font-specification:BitstreamVeraSans-Roman;writing-mode:lr-tb;fill:#000000;fill-opacity:1;fill-rule:nonzero;stroke:none"
           id="text262"><tspan
             x="0 10.037231 18.832092 27.94281 37.067566 41.061401 49.905396 57.394714"
             y="0"
             sodipodi:role="line"
             id="tspan264">Couples </tspan></text>
<text
           transform="matrix(1,0,0,-1,61.964111,0.203125)"
           style="font-variant:normal;font-weight:normal;font-size:14.39999962px;font-family:Cmr10;-inkscape-font-specification:Cmr10;writing-mode:lr-tb;fill:#000000;fill-opacity:1;fill-rule:nonzero;stroke:none"
           id="text266"><tspan
             x="0"
             y="0"
             id="tspan268">(</tspan></text>
<text
           transform="matrix(1,0,0,-1,67.550308,0.203125)"
           style="font-variant:normal;font-weight:normal;font-size:14.39999962px;font-family:Cmmi10;-inkscape-font-specification:Cmmi10;writing-mode:lr-tb;fill:#000000;fill-opacity:1;fill-rule:nonzero;stroke:none"
           id="text270"><tspan
             x="0"
             y="0"
             id="tspan272">p</tspan></text>
<text
           transform="matrix(1,0,0,-1,74.787781,-2.245775)"
           style="font-variant:normal;font-weight:normal;font-size:10.07999992px;font-family:Cmr10;-inkscape-font-specification:Cmr10;writing-mode:lr-tb;fill:#000000;fill-opacity:1;fill-rule:nonzero;stroke:none"
           id="text274"><tspan
             x="0"
             y="0"
             id="tspan276">1</tspan></text>
<text
           transform="matrix(1,0,0,-1,80.742837,0.203125)"
           style="font-variant:normal;font-weight:normal;font-size:14.39999962px;font-family:Cmmi10;-inkscape-font-specification:Cmmi10;writing-mode:lr-tb;fill:#000000;fill-opacity:1;fill-rule:nonzero;stroke:none"
           id="text278"><tspan
             x="0 6.5109072"
             y="0"
             sodipodi:role="line"
             id="tspan280">,p</tspan></text>
<text
           transform="matrix(1,0,0,-1,94.491217,-2.245775)"
           style="font-variant:normal;font-weight:normal;font-size:10.07999992px;font-family:Cmr10;-inkscape-font-specification:Cmr10;writing-mode:lr-tb;fill:#000000;fill-opacity:1;fill-rule:nonzero;stroke:none"
           id="text282"><tspan
             x="0"
             y="0"
             id="tspan284">2</tspan></text>
<text
           transform="matrix(1,0,0,-1,100.44627,0.203125)"
           style="font-variant:normal;font-weight:normal;font-size:14.39999962px;font-family:Cmr10;-inkscape-font-specification:Cmr10;writing-mode:lr-tb;fill:#000000;fill-opacity:1;fill-rule:nonzero;stroke:none"
           id="text286"><tspan
             x="0"
             y="0"
             id="tspan288">)</tspan></text>
<text
           transform="matrix(1,0,0,-1,110.60187,0.203125)"
           style="font-variant:normal;font-weight:normal;font-size:14.39999962px;font-family:BitstreamVeraSans;-inkscape-font-specification:BitstreamVeraSans-Roman;writing-mode:lr-tb;fill:#000000;fill-opacity:1;fill-rule:nonzero;stroke:none"
           id="text290"><tspan
             x="0 9.1247559 17.919617 27.030334 36.141052 44.949951 54.060669 59.69696 64.266357 68.260193 77.104187 81.673584 85.667419 94.511414 103.62213 108.19153 118.05328 122.62268 131.74744 140.59143 146.50146 155.62622 164.43512 173.54584 179.18213 183.75153"
             y="0"
             sodipodi:role="line"
             id="tspan292">donnant le jeu B perdant (</tspan></text>
<text
           transform="matrix(1,0,0,-1,299.96161,0.203125)"
           style="font-variant:normal;font-weight:normal;font-size:14.39999962px;font-family:Cmmi10;-inkscape-font-specification:Cmmi10;writing-mode:lr-tb;fill:#000000;fill-opacity:1;fill-rule:nonzero;stroke:none"
           id="text294"><tspan
             x="0"
             y="0"
             id="tspan296">P</tspan></text>
<text
           transform="matrix(1,0,0,-1,309.20167,-2.245775)"
           style="font-variant:normal;font-weight:normal;font-size:10.07999992px;font-family:Cmmi10;-inkscape-font-specification:Cmmi10;writing-mode:lr-tb;fill:#000000;fill-opacity:1;fill-rule:nonzero;stroke:none"
           id="text298"><tspan
             x="0"
             y="0"
             id="tspan300">B</tspan></text>
<text
           transform="matrix(1,0,0,-1,320.28058,0.203125)"
           style="font-variant:normal;font-weight:normal;font-size:14.39999962px;font-family:Cmmi10;-inkscape-font-specification:Cmmi10;writing-mode:lr-tb;fill:#000000;fill-opacity:1;fill-rule:nonzero;stroke:none"
           id="text302"><tspan
             x="0 13.70622"
             y="0"
             sodipodi:role="line"
             id="tspan304">&lt;.</tspan></text>
<text
           transform="matrix(1,0,0,-1,340.49771,0.203125)"
           style="font-variant:normal;font-weight:normal;font-size:14.39999962px;font-family:Cmr10;-inkscape-font-specification:Cmr10;writing-mode:lr-tb;fill:#000000;fill-opacity:1;fill-rule:nonzero;stroke:none"
           id="text306"><tspan
             x="0"
             y="0"
             id="tspan308">5</tspan></text>
<text
           transform="matrix(1,0,0,-1,347.69302,0.203125)"
           style="font-variant:normal;font-weight:normal;font-size:14.39999962px;font-family:BitstreamVeraSans;-inkscape-font-specification:BitstreamVeraSans-Roman;writing-mode:lr-tb;fill:#000000;fill-opacity:1;fill-rule:nonzero;stroke:none"
           id="text310"><tspan
             x="0"
             y="0"
             id="tspan312">)</tspan></text>
</g></g><g
       id="g314"><g
         id="g316"
         clip-path="url(#clipPath318)"><path
           d="m 451.44,43.02 0,34.416 0,275.328 0,34.416 17.208,0 0,-34.416 0,-275.328 0,-34.416 -17.208,0 z"
           style="fill:#ffffff;fill-opacity:1;fill-rule:nonzero;stroke:#ffffff;stroke-width:0.01;stroke-linecap:butt;stroke-linejoin:miter;stroke-miterlimit:10;stroke-dasharray:none;stroke-opacity:1"
           id="path322"
           inkscape:connector-curvature="0" /></g></g><g
       id="g324"><g
         id="g326"
         clip-path="url(#clipPath328)"><path
           d="m 451.44,43.02 17.208,0"
           style="fill:none;stroke:#000080;stroke-width:1;stroke-linecap:butt;stroke-linejoin:round;stroke-miterlimit:10;stroke-dasharray:none;stroke-opacity:1"
           id="path332"
           inkscape:connector-curvature="0" /><path
           d="m 451.44,77.436 17.208,0"
           style="fill:none;stroke:#0000f1;stroke-width:1;stroke-linecap:butt;stroke-linejoin:round;stroke-miterlimit:10;stroke-dasharray:none;stroke-opacity:1"
           id="path334"
           inkscape:connector-curvature="0" /><path
           d="m 451.44,111.852 17.208,0"
           style="fill:none;stroke:#004cff;stroke-width:1;stroke-linecap:butt;stroke-linejoin:round;stroke-miterlimit:10;stroke-dasharray:none;stroke-opacity:1"
           id="path336"
           inkscape:connector-curvature="0" /><path
           d="m 451.44,146.268 17.208,0"
           style="fill:none;stroke:#00b1ff;stroke-width:1;stroke-linecap:butt;stroke-linejoin:round;stroke-miterlimit:10;stroke-dasharray:none;stroke-opacity:1"
           id="path338"
           inkscape:connector-curvature="0" /><path
           d="m 451.44,180.684 17.208,0"
           style="fill:none;stroke:#29ffce;stroke-width:1;stroke-linecap:butt;stroke-linejoin:round;stroke-miterlimit:10;stroke-dasharray:none;stroke-opacity:1"
           id="path340"
           inkscape:connector-curvature="0" /><path
           d="m 451.44,215.1 17.208,0"
           style="fill:none;stroke:#7dff7a;stroke-width:1;stroke-linecap:butt;stroke-linejoin:round;stroke-miterlimit:10;stroke-dasharray:none;stroke-opacity:1"
           id="path342"
           inkscape:connector-curvature="0" /><path
           d="m 451.44,249.516 17.208,0"
           style="fill:none;stroke:#ceff29;stroke-width:1;stroke-linecap:butt;stroke-linejoin:round;stroke-miterlimit:10;stroke-dasharray:none;stroke-opacity:1"
           id="path344"
           inkscape:connector-curvature="0" /><path
           d="m 451.44,283.932 17.208,0"
           style="fill:none;stroke:#ffc400;stroke-width:1;stroke-linecap:butt;stroke-linejoin:round;stroke-miterlimit:10;stroke-dasharray:none;stroke-opacity:1"
           id="path346"
           inkscape:connector-curvature="0" /><path
           d="m 451.44,318.348 17.208,0"
           style="fill:none;stroke:#ff6800;stroke-width:1;stroke-linecap:butt;stroke-linejoin:round;stroke-miterlimit:10;stroke-dasharray:none;stroke-opacity:1"
           id="path348"
           inkscape:connector-curvature="0" /><path
           d="m 451.44,352.764 17.208,0"
           style="fill:none;stroke:#f10800;stroke-width:1;stroke-linecap:butt;stroke-linejoin:round;stroke-miterlimit:10;stroke-dasharray:none;stroke-opacity:1"
           id="path350"
           inkscape:connector-curvature="0" /><path
           d="m 451.44,387.18 17.208,0"
           style="fill:none;stroke:#800000;stroke-width:1;stroke-linecap:butt;stroke-linejoin:round;stroke-miterlimit:10;stroke-dasharray:none;stroke-opacity:1"
           id="path352"
           inkscape:connector-curvature="0" /></g></g><g
       id="g354"><path
         d="m 451.44,43.02 0,34.416 0,275.328 0,34.416 17.208,0 0,-34.416 0,-275.328 0,-34.416 -17.208,0 z"
         style="fill:none;stroke:#000000;stroke-width:1;stroke-linecap:butt;stroke-linejoin:miter;stroke-miterlimit:10;stroke-dasharray:none;stroke-opacity:1"
         id="path356"
         inkscape:connector-curvature="0" /><path
         d="m 468.648,43.02 -4,0"
         style="fill:#000000;fill-opacity:1;fill-rule:nonzero;stroke:#000000;stroke-width:0.5;stroke-linecap:butt;stroke-linejoin:round;stroke-miterlimit:10;stroke-dasharray:none;stroke-opacity:1"
         id="path358"
         inkscape:connector-curvature="0" /><text
         transform="matrix(1,0,0,-1,472.648,39.7075)"
         style="font-variant:normal;font-weight:normal;font-size:12px;font-family:BitstreamVeraSans;-inkscape-font-specification:BitstreamVeraSans-Roman;writing-mode:lr-tb;fill:#000000;fill-opacity:1;fill-rule:nonzero;stroke:none"
         id="text360"><tspan
           x="0 7.632 11.448"
           y="0"
           sodipodi:role="line"
           id="tspan362">0.0</tspan></text>
<path
         d="m 468.648,111.852 -4,0"
         style="fill:#000000;fill-opacity:1;fill-rule:nonzero;stroke:#000000;stroke-width:0.5;stroke-linecap:butt;stroke-linejoin:round;stroke-miterlimit:10;stroke-dasharray:none;stroke-opacity:1"
         id="path364"
         inkscape:connector-curvature="0" /><text
         transform="matrix(1,0,0,-1,472.648,108.5395)"
         style="font-variant:normal;font-weight:normal;font-size:12px;font-family:BitstreamVeraSans;-inkscape-font-specification:BitstreamVeraSans-Roman;writing-mode:lr-tb;fill:#000000;fill-opacity:1;fill-rule:nonzero;stroke:none"
         id="text366"><tspan
           x="0 7.632 11.448"
           y="0"
           sodipodi:role="line"
           id="tspan368">0.1</tspan></text>
<path
         d="m 468.648,180.684 -4,0"
         style="fill:#000000;fill-opacity:1;fill-rule:nonzero;stroke:#000000;stroke-width:0.5;stroke-linecap:butt;stroke-linejoin:round;stroke-miterlimit:10;stroke-dasharray:none;stroke-opacity:1"
         id="path370"
         inkscape:connector-curvature="0" /><text
         transform="matrix(1,0,0,-1,472.648,177.3715)"
         style="font-variant:normal;font-weight:normal;font-size:12px;font-family:BitstreamVeraSans;-inkscape-font-specification:BitstreamVeraSans-Roman;writing-mode:lr-tb;fill:#000000;fill-opacity:1;fill-rule:nonzero;stroke:none"
         id="text372"><tspan
           x="0 7.632 11.448"
           y="0"
           sodipodi:role="line"
           id="tspan374">0.2</tspan></text>
<path
         d="m 468.648,249.516 -4,0"
         style="fill:#000000;fill-opacity:1;fill-rule:nonzero;stroke:#000000;stroke-width:0.5;stroke-linecap:butt;stroke-linejoin:round;stroke-miterlimit:10;stroke-dasharray:none;stroke-opacity:1"
         id="path376"
         inkscape:connector-curvature="0" /><text
         transform="matrix(1,0,0,-1,472.648,246.2035)"
         style="font-variant:normal;font-weight:normal;font-size:12px;font-family:BitstreamVeraSans;-inkscape-font-specification:BitstreamVeraSans-Roman;writing-mode:lr-tb;fill:#000000;fill-opacity:1;fill-rule:nonzero;stroke:none"
         id="text378"><tspan
           x="0 7.632 11.448"
           y="0"
           sodipodi:role="line"
           id="tspan380">0.3</tspan></text>
<path
         d="m 468.648,318.348 -4,0"
         style="fill:#000000;fill-opacity:1;fill-rule:nonzero;stroke:#000000;stroke-width:0.5;stroke-linecap:butt;stroke-linejoin:round;stroke-miterlimit:10;stroke-dasharray:none;stroke-opacity:1"
         id="path382"
         inkscape:connector-curvature="0" /><text
         transform="matrix(1,0,0,-1,472.648,315.0355)"
         style="font-variant:normal;font-weight:normal;font-size:12px;font-family:BitstreamVeraSans;-inkscape-font-specification:BitstreamVeraSans-Roman;writing-mode:lr-tb;fill:#000000;fill-opacity:1;fill-rule:nonzero;stroke:none"
         id="text384"><tspan
           x="0 7.632 11.448"
           y="0"
           sodipodi:role="line"
           id="tspan386">0.4</tspan></text>
<path
         d="m 468.648,387.18 -4,0"
         style="fill:#000000;fill-opacity:1;fill-rule:nonzero;stroke:#000000;stroke-width:0.5;stroke-linecap:butt;stroke-linejoin:round;stroke-miterlimit:10;stroke-dasharray:none;stroke-opacity:1"
         id="path388"
         inkscape:connector-curvature="0" /><text
         transform="matrix(1,0,0,-1,472.648,383.8675)"
         style="font-variant:normal;font-weight:normal;font-size:12px;font-family:BitstreamVeraSans;-inkscape-font-specification:BitstreamVeraSans-Roman;writing-mode:lr-tb;fill:#000000;fill-opacity:1;fill-rule:nonzero;stroke:none"
         id="text390"><tspan
           x="0 7.632 11.448"
           y="0"
           sodipodi:role="line"
           id="tspan392">0.5</tspan></text>
</g></g></svg>