<?xml version="1.0" encoding="UTF-8" standalone="no"?>
<!-- Created with Inkscape (http://www.inkscape.org/) -->

<svg
   xmlns:dc="http://purl.org/dc/elements/1.1/"
   xmlns:cc="http://creativecommons.org/ns#"
   xmlns:rdf="http://www.w3.org/1999/02/22-rdf-syntax-ns#"
   xmlns:svg="http://www.w3.org/2000/svg"
   xmlns="http://www.w3.org/2000/svg"
   xmlns:sodipodi="http://sodipodi.sourceforge.net/DTD/sodipodi-0.dtd"
   xmlns:inkscape="http://www.inkscape.org/namespaces/inkscape"
   id="svg3492"
   version="1.1"
   inkscape:version="0.91 r13725"
   xml:space="preserve"
   width="720"
   height="537.75"
   viewBox="0 0 720 537.75"
   sodipodi:docname="superposition_jeuB_jeuAB_m5_zoom_fig.svg"><metadata
     id="metadata3498"><rdf:RDF><cc:Work
         rdf:about=""><dc:format>image/svg+xml</dc:format><dc:type
           rdf:resource="http://purl.org/dc/dcmitype/StillImage" /><dc:title></dc:title></cc:Work></rdf:RDF></metadata><defs
     id="defs3496"><clipPath
       clipPathUnits="userSpaceOnUse"
       id="clipPath3510"><path
         d="m 72,43.02 446.4,0 0,344.16 -446.4,0 0,-344.16 z"
         id="path3512"
         inkscape:connector-curvature="0" /></clipPath><clipPath
       clipPathUnits="userSpaceOnUse"
       id="clipPath3520"><path
         d="m 72,43.02 446.4,0 0,344.16 -446.4,0 0,-344.16 z"
         id="path3522"
         inkscape:connector-curvature="0" /></clipPath></defs><sodipodi:namedview
     pagecolor="#ffffff"
     bordercolor="#666666"
     borderopacity="1"
     objecttolerance="10"
     gridtolerance="10"
     guidetolerance="10"
     inkscape:pageopacity="0"
     inkscape:pageshadow="2"
     inkscape:window-width="756"
     inkscape:window-height="480"
     id="namedview3494"
     showgrid="false"
     inkscape:zoom="0.43886564"
     inkscape:cx="360"
     inkscape:cy="268.875"
     inkscape:window-x="4"
     inkscape:window-y="11"
     inkscape:window-maximized="0"
     inkscape:current-layer="g3500" /><g
     id="g3500"
     inkscape:groupmode="layer"
     inkscape:label="superposition_jeuB_jeuAB_m5_zoom_fig"
     transform="matrix(1.25,0,0,-1.25,0,537.75)"><path
       d="m 0,0 576,0 0,430.2 -576,0 L 0,0 Z"
       style="fill:#ffffff;fill-opacity:1;fill-rule:nonzero;stroke:none"
       id="path3502"
       inkscape:connector-curvature="0" /><path
       d="m 72,43.02 446.4,0 0,344.16 -446.4,0 0,-344.16 z"
       style="fill:#ffffff;fill-opacity:1;fill-rule:nonzero;stroke:none"
       id="path3504"
       inkscape:connector-curvature="0" /><g
       id="g3506"><g
         id="g3508"
         clip-path="url(#clipPath3510)"><path
           d="m 72,141.52715 4.509091,-0.57176 4.509091,-0.57027 0.213378,-0.0269 4.295713,-0.54001 4.509091,-0.56542 4.509091,-0.56399 4.50909,-0.56258 4.509095,-0.56116 4.50909,-0.55977 0.99597,-0.12343 3.51312,-0.43355 4.50909,-0.55523 4.50909,-0.55388 4.50909,-0.55256 4.50909,-0.55125 4.50909,-0.54993 2.29988,-0.27997 2.20921,-0.26784 4.50909,-0.54568 4.50909,-0.54442 4.5091,-0.54317 4.50909,-0.54195 4.50909,-0.54072 4.11661,-0.49258 0.39248,-0.0468 4.50909,-0.53672 4.50909,-0.53555 4.50909,-0.53438 4.50909,-0.53322 4.50909,-0.53208 4.50909,-0.53094 1.92841,-0.22669 2.58068,-0.30227 4.5091,-0.52723 4.50909,-0.52613 4.50909,-0.52505 4.50909,-0.52397 4.50909,-0.52291 4.50909,-0.52186 0.23314,-0.0269 4.27595,-0.49254 4.50909,-0.51839 4.50909,-0.51739 4.50909,-0.51638 4.50909,-0.51538 4.5091,-0.51439 3.52914,-0.40189 0.97995,-0.11123 4.50909,-0.51114 4.50909,-0.5102 4.50909,-0.50925 4.50909,-0.50832 4.50909,-0.50739 4.50909,-0.50647 2.78523,-0.31236 1.72386,-0.19274 4.50909,-0.50345 4.50909,-0.50258 4.5091,-0.50169 4.50909,-0.50084 4.50909,-0.49997 4.50909,-0.49911 2.49681,-0.27599 2.01228,-0.22178 4.50909,-0.49631 4.50909,-0.4955 4.50909,-0.49468 4.50909,-0.49388 4.50909,-0.49308 4.5091,-0.49229 2.64917,-0.28884 1.85992,-0.20223 4.50909,-0.48969 4.50909,-0.48893 4.50909,-0.48818 4.50909,-0.48743 4.50909,-0.48669 4.50909,-0.48595 3.22648,-0.34726 1.28261,-0.1377 4.50909,-0.48354 4.5091,-0.48284 4.50909,-0.48215 4.50909,-0.48145 4.50909,-0.48077 4.50909,-0.48009 4.2118,-0.44783 0.29729,-0.0315 4.50909,-0.47786 4.50909,-0.47721 4.50909,-0.47656 4.50909,-0.47593 4.50909,-0.475292 4.50909,-0.474667 4.50909,-0.474043 1.07842,-0.11327 3.43068,-0.35953 4.50909,-0.472003 4.50909,-0.471409 4.50909,-0.470821 4.50909,-0.470238 4.50909,-0.469659 4.50909,-0.469086 2.82534,-0.293617 1.68375,-0.174617 4.50909,-0.467203 4.5091,-0.466658 4.50909,-0.466117 4.50909,-0.46558 4.50909,-0.465049 4.50909,-0.464522 4.50909,-0.464001 0.41445,-0.04262 L 518.4,91.26895"
           style="fill:none;stroke:#000080;stroke-width:1;stroke-linecap:butt;stroke-linejoin:round;stroke-miterlimit:10;stroke-dasharray:none;stroke-opacity:1"
           id="path3514"
           inkscape:connector-curvature="0" /></g></g><g
       id="g3516"><g
         id="g3518"
         clip-path="url(#clipPath3520)"><path
           d="m 72,387.18 0.107014,-55.62182 0.247833,-17.38182 0.425617,-13.90545 0.535632,-10.42909 0.80503,-10.42909 0.734464,-6.95273 0.933985,-6.95273 1.178433,-6.95272 1.475101,-6.95273 1.824811,-6.95273 1.065568,-3.47636 1.183139,-3.47637 1.306429,-3.47636 1.704217,-4.06494 1.328077,-2.88779 3.181014,-6.07712 0.493791,-0.87561 2.11551,-3.47636 2.316522,-3.47636 4.092358,-5.44046 1.225765,-1.51227 3.28333,-3.74446 4.50909,-4.62012 4.50909,-4.15642 1.59026,-1.38445 4.27715,-3.47637 4.64738,-3.47636 5.04388,-3.47637 6.98678,-4.38554 4.50909,-2.62787 9.01818,-4.80382 4.5091,-2.23701 9.01818,-4.14722 9.01818,-3.81114 9.01818,-3.52834 9.01818,-3.28822 9.01818,-3.0827 13.52728,-4.28749 13.52727,-3.95738 13.52727,-3.67863 13.52728,-3.44107 13.52727,-3.23692 13.52727,-3.06011 18.03636,-3.84117 18.03637,-3.60645 18.03636,-3.40448 22.54546,-4.01264 22.54545,-3.78047 22.54546,-3.58106 27.05454,-4.07401 24.88522,-3.558982 33.73296,-4.578992 31.56364,-4.072435 0,0"
           style="fill:none;stroke:#000080;stroke-width:1;stroke-linecap:butt;stroke-linejoin:round;stroke-miterlimit:10;stroke-dasharray:none;stroke-opacity:1"
           id="path3524"
           inkscape:connector-curvature="0" /></g></g><g
       id="g3526"><path
         d="m 72,43.02 446.4,0"
         style="fill:none;stroke:#000000;stroke-width:1;stroke-linecap:square;stroke-linejoin:miter;stroke-miterlimit:10;stroke-dasharray:none;stroke-opacity:1"
         id="path3528"
         inkscape:connector-curvature="0" /><path
         d="m 72,43.02 0,344.16"
         style="fill:none;stroke:#000000;stroke-width:1;stroke-linecap:square;stroke-linejoin:miter;stroke-miterlimit:10;stroke-dasharray:none;stroke-opacity:1"
         id="path3530"
         inkscape:connector-curvature="0" /><path
         d="m 72,387.18 446.4,0"
         style="fill:none;stroke:#000000;stroke-width:1;stroke-linecap:square;stroke-linejoin:miter;stroke-miterlimit:10;stroke-dasharray:none;stroke-opacity:1"
         id="path3532"
         inkscape:connector-curvature="0" /><path
         d="m 518.4,43.02 0,344.16"
         style="fill:none;stroke:#000000;stroke-width:1;stroke-linecap:square;stroke-linejoin:miter;stroke-miterlimit:10;stroke-dasharray:none;stroke-opacity:1"
         id="path3534"
         inkscape:connector-curvature="0" /><path
         d="m 72,43.02 0,4"
         style="fill:#000000;fill-opacity:1;fill-rule:nonzero;stroke:#000000;stroke-width:0.5;stroke-linecap:butt;stroke-linejoin:round;stroke-miterlimit:10;stroke-dasharray:none;stroke-opacity:1"
         id="path3536"
         inkscape:connector-curvature="0" /><path
         d="m 72,387.18 0,-4"
         style="fill:#000000;fill-opacity:1;fill-rule:nonzero;stroke:#000000;stroke-width:0.5;stroke-linecap:butt;stroke-linejoin:round;stroke-miterlimit:10;stroke-dasharray:none;stroke-opacity:1"
         id="path3538"
         inkscape:connector-curvature="0" /><text
         transform="matrix(1,0,0,-1,58.632813,29.895)"
         style="font-variant:normal;font-weight:normal;font-size:12px;font-family:BitstreamVeraSans;-inkscape-font-specification:BitstreamVeraSans-Roman;writing-mode:lr-tb;fill:#000000;fill-opacity:1;fill-rule:nonzero;stroke:none"
         id="text3540"><tspan
           x="0 7.632 11.448 19.08"
           y="0"
           sodipodi:role="line"
           id="tspan3542">0.00</tspan></text>
<path
         d="m 161.28,43.02 0,4"
         style="fill:#000000;fill-opacity:1;fill-rule:nonzero;stroke:#000000;stroke-width:0.5;stroke-linecap:butt;stroke-linejoin:round;stroke-miterlimit:10;stroke-dasharray:none;stroke-opacity:1"
         id="path3544"
         inkscape:connector-curvature="0" /><path
         d="m 161.28,387.18 0,-4"
         style="fill:#000000;fill-opacity:1;fill-rule:nonzero;stroke:#000000;stroke-width:0.5;stroke-linecap:butt;stroke-linejoin:round;stroke-miterlimit:10;stroke-dasharray:none;stroke-opacity:1"
         id="path3546"
         inkscape:connector-curvature="0" /><text
         transform="matrix(1,0,0,-1,147.91281,29.895)"
         style="font-variant:normal;font-weight:normal;font-size:12px;font-family:BitstreamVeraSans;-inkscape-font-specification:BitstreamVeraSans-Roman;writing-mode:lr-tb;fill:#000000;fill-opacity:1;fill-rule:nonzero;stroke:none"
         id="text3548"><tspan
           x="0 7.632 11.448 19.08"
           y="0"
           sodipodi:role="line"
           id="tspan3550">0.05</tspan></text>
<path
         d="m 250.56,43.02 0,4"
         style="fill:#000000;fill-opacity:1;fill-rule:nonzero;stroke:#000000;stroke-width:0.5;stroke-linecap:butt;stroke-linejoin:round;stroke-miterlimit:10;stroke-dasharray:none;stroke-opacity:1"
         id="path3552"
         inkscape:connector-curvature="0" /><path
         d="m 250.56,387.18 0,-4"
         style="fill:#000000;fill-opacity:1;fill-rule:nonzero;stroke:#000000;stroke-width:0.5;stroke-linecap:butt;stroke-linejoin:round;stroke-miterlimit:10;stroke-dasharray:none;stroke-opacity:1"
         id="path3554"
         inkscape:connector-curvature="0" /><text
         transform="matrix(1,0,0,-1,237.19281,29.895)"
         style="font-variant:normal;font-weight:normal;font-size:12px;font-family:BitstreamVeraSans;-inkscape-font-specification:BitstreamVeraSans-Roman;writing-mode:lr-tb;fill:#000000;fill-opacity:1;fill-rule:nonzero;stroke:none"
         id="text3556"><tspan
           x="0 7.632 11.448 19.08"
           y="0"
           sodipodi:role="line"
           id="tspan3558">0.10</tspan></text>
<path
         d="m 339.84,43.02 0,4"
         style="fill:#000000;fill-opacity:1;fill-rule:nonzero;stroke:#000000;stroke-width:0.5;stroke-linecap:butt;stroke-linejoin:round;stroke-miterlimit:10;stroke-dasharray:none;stroke-opacity:1"
         id="path3560"
         inkscape:connector-curvature="0" /><path
         d="m 339.84,387.18 0,-4"
         style="fill:#000000;fill-opacity:1;fill-rule:nonzero;stroke:#000000;stroke-width:0.5;stroke-linecap:butt;stroke-linejoin:round;stroke-miterlimit:10;stroke-dasharray:none;stroke-opacity:1"
         id="path3562"
         inkscape:connector-curvature="0" /><text
         transform="matrix(1,0,0,-1,326.47281,29.895)"
         style="font-variant:normal;font-weight:normal;font-size:12px;font-family:BitstreamVeraSans;-inkscape-font-specification:BitstreamVeraSans-Roman;writing-mode:lr-tb;fill:#000000;fill-opacity:1;fill-rule:nonzero;stroke:none"
         id="text3564"><tspan
           x="0 7.632 11.448 19.08"
           y="0"
           sodipodi:role="line"
           id="tspan3566">0.15</tspan></text>
<path
         d="m 429.12,43.02 0,4"
         style="fill:#000000;fill-opacity:1;fill-rule:nonzero;stroke:#000000;stroke-width:0.5;stroke-linecap:butt;stroke-linejoin:round;stroke-miterlimit:10;stroke-dasharray:none;stroke-opacity:1"
         id="path3568"
         inkscape:connector-curvature="0" /><path
         d="m 429.12,387.18 0,-4"
         style="fill:#000000;fill-opacity:1;fill-rule:nonzero;stroke:#000000;stroke-width:0.5;stroke-linecap:butt;stroke-linejoin:round;stroke-miterlimit:10;stroke-dasharray:none;stroke-opacity:1"
         id="path3570"
         inkscape:connector-curvature="0" /><text
         transform="matrix(1,0,0,-1,415.75281,29.895)"
         style="font-variant:normal;font-weight:normal;font-size:12px;font-family:BitstreamVeraSans;-inkscape-font-specification:BitstreamVeraSans-Roman;writing-mode:lr-tb;fill:#000000;fill-opacity:1;fill-rule:nonzero;stroke:none"
         id="text3572"><tspan
           x="0 7.632 11.448 19.08"
           y="0"
           sodipodi:role="line"
           id="tspan3574">0.20</tspan></text>
<path
         d="m 518.4,43.02 0,4"
         style="fill:#000000;fill-opacity:1;fill-rule:nonzero;stroke:#000000;stroke-width:0.5;stroke-linecap:butt;stroke-linejoin:round;stroke-miterlimit:10;stroke-dasharray:none;stroke-opacity:1"
         id="path3576"
         inkscape:connector-curvature="0" /><path
         d="m 518.4,387.18 0,-4"
         style="fill:#000000;fill-opacity:1;fill-rule:nonzero;stroke:#000000;stroke-width:0.5;stroke-linecap:butt;stroke-linejoin:round;stroke-miterlimit:10;stroke-dasharray:none;stroke-opacity:1"
         id="path3578"
         inkscape:connector-curvature="0" /><text
         transform="matrix(1,0,0,-1,505.03281,29.895)"
         style="font-variant:normal;font-weight:normal;font-size:12px;font-family:BitstreamVeraSans;-inkscape-font-specification:BitstreamVeraSans-Roman;writing-mode:lr-tb;fill:#000000;fill-opacity:1;fill-rule:nonzero;stroke:none"
         id="text3580"><tspan
           x="0 7.632 11.448 19.08"
           y="0"
           sodipodi:role="line"
           id="tspan3582">0.25</tspan></text>
<g
         id="g3584"
         transform="translate(289.2,13.77)"><text
           transform="matrix(1,0,0,-1,0,0.703125)"
           style="font-variant:normal;font-weight:normal;font-size:12px;font-family:Cmmi10;-inkscape-font-specification:Cmmi10;writing-mode:lr-tb;fill:#000000;fill-opacity:1;fill-rule:nonzero;stroke:none"
           id="text3586"><tspan
             x="0"
             y="0"
             id="tspan3588">p</tspan></text>
<text
           transform="matrix(1,0,0,-1,6.0351562,-1.337625)"
           style="font-variant:normal;font-weight:normal;font-size:8.39999962px;font-family:Cmr10;-inkscape-font-specification:Cmr10;writing-mode:lr-tb;fill:#000000;fill-opacity:1;fill-rule:nonzero;stroke:none"
           id="text3590"><tspan
             x="0"
             y="0"
             id="tspan3592">1</tspan></text>
</g><path
         d="m 72,43.02 4,0"
         style="fill:#000000;fill-opacity:1;fill-rule:nonzero;stroke:#000000;stroke-width:0.5;stroke-linecap:butt;stroke-linejoin:round;stroke-miterlimit:10;stroke-dasharray:none;stroke-opacity:1"
         id="path3594"
         inkscape:connector-curvature="0" /><path
         d="m 518.4,43.02 -4,0"
         style="fill:#000000;fill-opacity:1;fill-rule:nonzero;stroke:#000000;stroke-width:0.5;stroke-linecap:butt;stroke-linejoin:round;stroke-miterlimit:10;stroke-dasharray:none;stroke-opacity:1"
         id="path3596"
         inkscape:connector-curvature="0" /><text
         transform="matrix(1,0,0,-1,48.90625,39.7075)"
         style="font-variant:normal;font-weight:normal;font-size:12px;font-family:BitstreamVeraSans;-inkscape-font-specification:BitstreamVeraSans-Roman;writing-mode:lr-tb;fill:#000000;fill-opacity:1;fill-rule:nonzero;stroke:none"
         id="text3598"><tspan
           x="0 7.632 11.448"
           y="0"
           sodipodi:role="line"
           id="tspan3600">0.5</tspan></text>
<path
         d="m 72,111.852 4,0"
         style="fill:#000000;fill-opacity:1;fill-rule:nonzero;stroke:#000000;stroke-width:0.5;stroke-linecap:butt;stroke-linejoin:round;stroke-miterlimit:10;stroke-dasharray:none;stroke-opacity:1"
         id="path3602"
         inkscape:connector-curvature="0" /><path
         d="m 518.4,111.852 -4,0"
         style="fill:#000000;fill-opacity:1;fill-rule:nonzero;stroke:#000000;stroke-width:0.5;stroke-linecap:butt;stroke-linejoin:round;stroke-miterlimit:10;stroke-dasharray:none;stroke-opacity:1"
         id="path3604"
         inkscape:connector-curvature="0" /><text
         transform="matrix(1,0,0,-1,48.90625,108.5395)"
         style="font-variant:normal;font-weight:normal;font-size:12px;font-family:BitstreamVeraSans;-inkscape-font-specification:BitstreamVeraSans-Roman;writing-mode:lr-tb;fill:#000000;fill-opacity:1;fill-rule:nonzero;stroke:none"
         id="text3606"><tspan
           x="0 7.632 11.448"
           y="0"
           sodipodi:role="line"
           id="tspan3608">0.6</tspan></text>
<path
         d="m 72,180.684 4,0"
         style="fill:#000000;fill-opacity:1;fill-rule:nonzero;stroke:#000000;stroke-width:0.5;stroke-linecap:butt;stroke-linejoin:round;stroke-miterlimit:10;stroke-dasharray:none;stroke-opacity:1"
         id="path3610"
         inkscape:connector-curvature="0" /><path
         d="m 518.4,180.684 -4,0"
         style="fill:#000000;fill-opacity:1;fill-rule:nonzero;stroke:#000000;stroke-width:0.5;stroke-linecap:butt;stroke-linejoin:round;stroke-miterlimit:10;stroke-dasharray:none;stroke-opacity:1"
         id="path3612"
         inkscape:connector-curvature="0" /><text
         transform="matrix(1,0,0,-1,48.90625,177.3715)"
         style="font-variant:normal;font-weight:normal;font-size:12px;font-family:BitstreamVeraSans;-inkscape-font-specification:BitstreamVeraSans-Roman;writing-mode:lr-tb;fill:#000000;fill-opacity:1;fill-rule:nonzero;stroke:none"
         id="text3614"><tspan
           x="0 7.632 11.448"
           y="0"
           sodipodi:role="line"
           id="tspan3616">0.7</tspan></text>
<path
         d="m 72,249.516 4,0"
         style="fill:#000000;fill-opacity:1;fill-rule:nonzero;stroke:#000000;stroke-width:0.5;stroke-linecap:butt;stroke-linejoin:round;stroke-miterlimit:10;stroke-dasharray:none;stroke-opacity:1"
         id="path3618"
         inkscape:connector-curvature="0" /><path
         d="m 518.4,249.516 -4,0"
         style="fill:#000000;fill-opacity:1;fill-rule:nonzero;stroke:#000000;stroke-width:0.5;stroke-linecap:butt;stroke-linejoin:round;stroke-miterlimit:10;stroke-dasharray:none;stroke-opacity:1"
         id="path3620"
         inkscape:connector-curvature="0" /><text
         transform="matrix(1,0,0,-1,48.90625,246.2035)"
         style="font-variant:normal;font-weight:normal;font-size:12px;font-family:BitstreamVeraSans;-inkscape-font-specification:BitstreamVeraSans-Roman;writing-mode:lr-tb;fill:#000000;fill-opacity:1;fill-rule:nonzero;stroke:none"
         id="text3622"><tspan
           x="0 7.632 11.448"
           y="0"
           sodipodi:role="line"
           id="tspan3624">0.8</tspan></text>
<path
         d="m 72,318.348 4,0"
         style="fill:#000000;fill-opacity:1;fill-rule:nonzero;stroke:#000000;stroke-width:0.5;stroke-linecap:butt;stroke-linejoin:round;stroke-miterlimit:10;stroke-dasharray:none;stroke-opacity:1"
         id="path3626"
         inkscape:connector-curvature="0" /><path
         d="m 518.4,318.348 -4,0"
         style="fill:#000000;fill-opacity:1;fill-rule:nonzero;stroke:#000000;stroke-width:0.5;stroke-linecap:butt;stroke-linejoin:round;stroke-miterlimit:10;stroke-dasharray:none;stroke-opacity:1"
         id="path3628"
         inkscape:connector-curvature="0" /><text
         transform="matrix(1,0,0,-1,48.90625,315.0355)"
         style="font-variant:normal;font-weight:normal;font-size:12px;font-family:BitstreamVeraSans;-inkscape-font-specification:BitstreamVeraSans-Roman;writing-mode:lr-tb;fill:#000000;fill-opacity:1;fill-rule:nonzero;stroke:none"
         id="text3630"><tspan
           x="0 7.632 11.448"
           y="0"
           sodipodi:role="line"
           id="tspan3632">0.9</tspan></text>
<path
         d="m 72,387.18 4,0"
         style="fill:#000000;fill-opacity:1;fill-rule:nonzero;stroke:#000000;stroke-width:0.5;stroke-linecap:butt;stroke-linejoin:round;stroke-miterlimit:10;stroke-dasharray:none;stroke-opacity:1"
         id="path3634"
         inkscape:connector-curvature="0" /><path
         d="m 518.4,387.18 -4,0"
         style="fill:#000000;fill-opacity:1;fill-rule:nonzero;stroke:#000000;stroke-width:0.5;stroke-linecap:butt;stroke-linejoin:round;stroke-miterlimit:10;stroke-dasharray:none;stroke-opacity:1"
         id="path3636"
         inkscape:connector-curvature="0" /><text
         transform="matrix(1,0,0,-1,48.90625,383.8675)"
         style="font-variant:normal;font-weight:normal;font-size:12px;font-family:BitstreamVeraSans;-inkscape-font-specification:BitstreamVeraSans-Roman;writing-mode:lr-tb;fill:#000000;fill-opacity:1;fill-rule:nonzero;stroke:none"
         id="text3638"><tspan
           x="0 7.632 11.448"
           y="0"
           sodipodi:role="line"
           id="tspan3640">1.0</tspan></text>
<g
         id="g3642"
         transform="matrix(0,1,-1,0,40.90625,209.1)"><text
           transform="matrix(1,0,0,-1,0,0.703125)"
           style="font-variant:normal;font-weight:normal;font-size:12px;font-family:Cmmi10;-inkscape-font-specification:Cmmi10;writing-mode:lr-tb;fill:#000000;fill-opacity:1;fill-rule:nonzero;stroke:none"
           id="text3644"><tspan
             x="0"
             y="0"
             id="tspan3646">p</tspan></text>
<text
           transform="matrix(1,0,0,-1,6.0351562,-1.337625)"
           style="font-variant:normal;font-weight:normal;font-size:8.39999962px;font-family:Cmr10;-inkscape-font-specification:Cmr10;writing-mode:lr-tb;fill:#000000;fill-opacity:1;fill-rule:nonzero;stroke:none"
           id="text3648"><tspan
             x="0"
             y="0"
             id="tspan3650">2</tspan></text>
</g><text
         transform="matrix(1,0,0,-1,277.60625,392.18)"
         style="font-variant:normal;font-weight:normal;font-size:14.39999962px;font-family:BitstreamVeraSans;-inkscape-font-specification:BitstreamVeraSans-Roman;writing-mode:lr-tb;fill:#000000;fill-opacity:1;fill-rule:nonzero;stroke:none"
         id="text3652"><tspan
           x="0 14.0256 26.0928"
           y="0"
           sodipodi:role="line"
           id="tspan3654">m=5</tspan></text>
</g></g></svg>