<?xml version="1.0" encoding="UTF-8" standalone="no"?>
<!-- Created with Inkscape (http://www.inkscape.org/) -->

<svg
   xmlns:dc="http://purl.org/dc/elements/1.1/"
   xmlns:cc="http://creativecommons.org/ns#"
   xmlns:rdf="http://www.w3.org/1999/02/22-rdf-syntax-ns#"
   xmlns:svg="http://www.w3.org/2000/svg"
   xmlns="http://www.w3.org/2000/svg"
   xmlns:sodipodi="http://sodipodi.sourceforge.net/DTD/sodipodi-0.dtd"
   xmlns:inkscape="http://www.inkscape.org/namespaces/inkscape"
   id="svg2"
   version="1.1"
   inkscape:version="0.91 r13725"
   xml:space="preserve"
   width="720"
   height="537.75"
   viewBox="0 0 720 537.75"
   sodipodi:docname="superposition_jeuB_jeuAB_m6_zoom_fig.svg"><metadata
     id="metadata8"><rdf:RDF><cc:Work
         rdf:about=""><dc:format>image/svg+xml</dc:format><dc:type
           rdf:resource="http://purl.org/dc/dcmitype/StillImage" /><dc:title></dc:title></cc:Work></rdf:RDF></metadata><defs
     id="defs6"><clipPath
       clipPathUnits="userSpaceOnUse"
       id="clipPath20"><path
         d="m 72,43.02 446.4,0 0,344.16 -446.4,0 0,-344.16 z"
         id="path22"
         inkscape:connector-curvature="0" /></clipPath><clipPath
       clipPathUnits="userSpaceOnUse"
       id="clipPath30"><path
         d="m 72,43.02 446.4,0 0,344.16 -446.4,0 0,-344.16 z"
         id="path32"
         inkscape:connector-curvature="0" /></clipPath></defs><sodipodi:namedview
     pagecolor="#ffffff"
     bordercolor="#666666"
     borderopacity="1"
     objecttolerance="10"
     gridtolerance="10"
     guidetolerance="10"
     inkscape:pageopacity="0"
     inkscape:pageshadow="2"
     inkscape:window-width="756"
     inkscape:window-height="480"
     id="namedview4"
     showgrid="false"
     inkscape:zoom="0.43886564"
     inkscape:cx="360"
     inkscape:cy="268.875"
     inkscape:window-x="0"
     inkscape:window-y="0"
     inkscape:window-maximized="0"
     inkscape:current-layer="g10" /><g
     id="g10"
     inkscape:groupmode="layer"
     inkscape:label="superposition_jeuB_jeuAB_m6_zoom_fig"
     transform="matrix(1.25,0,0,-1.25,0,537.75)"><path
       d="m 0,0 576,0 0,430.2 -576,0 L 0,0 Z"
       style="fill:#ffffff;fill-opacity:1;fill-rule:nonzero;stroke:none"
       id="path12"
       inkscape:connector-curvature="0" /><path
       d="m 72,43.02 446.4,0 0,344.16 -446.4,0 0,-344.16 z"
       style="fill:#ffffff;fill-opacity:1;fill-rule:nonzero;stroke:none"
       id="path14"
       inkscape:connector-curvature="0" /><g
       id="g16"><g
         id="g18"
         clip-path="url(#clipPath20)"><path
           d="m 72,122.68868 4.509091,-0.45957 4.509091,-0.45832 4.509091,-0.45707 4.509091,-0.45583 4.509091,-0.45459 4.50909,-0.45338 4.486595,-0.44992 0.0225,-0.002 4.50909,-0.4494 4.50909,-0.44823 4.50909,-0.44709 4.50909,-0.44593 4.50909,-0.4448 4.50909,-0.44368 4.50909,-0.44255 3.59912,-0.35243 0.90997,-0.0887 4.50909,-0.43891 4.50909,-0.43784 4.5091,-0.43679 4.50909,-0.43573 4.50909,-0.43469 4.50909,-0.43367 4.50909,-0.43263 3.52383,-0.33738 0.98526,-0.0939 4.50909,-0.42929 4.50909,-0.42831 4.50909,-0.42734 4.50909,-0.42638 4.50909,-0.42542 4.5091,-0.42447 4.50909,-0.42354 4.24276,-0.39766 0.26633,-0.0249 4.50909,-0.42046 4.50909,-0.41956 4.50909,-0.41868 4.50909,-0.41779 4.50909,-0.41691 4.50909,-0.41604 4.50909,-0.41519 4.50909,-0.41433 1.22654,-0.11253 3.28256,-0.30013 4.50909,-0.41154 4.50909,-0.41072 4.50909,-0.40991 4.50909,-0.4091 4.50909,-0.40831 4.50909,-0.40752 4.50909,-0.40674 3.46931,-0.3124 1.03978,-0.0933 4.50909,-0.40417 4.50909,-0.40342 4.5091,-0.40268 4.50909,-0.40194 4.50909,-0.40122 4.50909,-0.400485 4.50909,-0.399771 4.50909,-0.399059 1.92691,-0.170297 2.58218,-0.22752 4.50909,-0.396727 4.50909,-0.396049 4.50909,-0.395374 4.5091,-0.394706 4.50909,-0.394044 4.50909,-0.393387 4.50909,-0.392735 4.50909,-0.392089 1.07919,-0.09373 3.4299,-0.29707 4.50909,-0.389974 4.50909,-0.389358 4.50909,-0.388748 4.50909,-0.388142 4.5091,-0.387542 4.50909,-0.386947 4.50909,-0.386357 4.50909,-0.385771 0.89458,-0.07645 3.61451,-0.308118 4.50909,-0.383857 4.50909,-0.3833 4.50909,-0.382747 4.50909,-0.3822 4.50909,-0.381657 4.50909,-0.38112 4.50909,-0.380586 4.50909,-0.380058 1.3387,-0.112721 3.1704,-0.266324 4.50909,-0.378329 4.50909,-0.377826 4.50909,-0.377329 4.50909,-0.376835 4.50909,-0.376347 4.50909,-0.375863 4.50909,-0.375382 4.50909,-0.374908 2.37447,-0.19722 2.13463,-0.176919 4.50909,-0.373351 4.50909,-0.3729 4.50909,-0.372453 4.50909,-0.372011 4.50909,-0.371572 L 518.4,82.32602"
           style="fill:none;stroke:#000080;stroke-width:1;stroke-linecap:butt;stroke-linejoin:round;stroke-miterlimit:10;stroke-dasharray:none;stroke-opacity:1"
           id="path24"
           inkscape:connector-curvature="0" /></g></g><g
       id="g26"><g
         id="g28"
         clip-path="url(#clipPath30)"><path
           d="m 72,387.18 0.08954,-83.43273 0.235938,-20.85818 0.36055,-13.90545 0.461348,-10.42909 0.711942,-10.4291 0.667235,-6.95272 0.869852,-6.95273 1.124847,-6.95273 1.453663,-6.95273 1.85188,-6.95272 1.191389,-3.72735 1.160102,-3.22538 1.399681,-3.47636 1.949308,-4.24964 1.378791,-2.70309 3.1303,-5.34038 1.038106,-1.61235 3.470985,-4.79026 1.725146,-2.16247 3.048101,-3.47636 4.244936,-4.28079 4.50909,-4.01949 4.50909,-3.59222 4.50909,-3.24962 4.50909,-2.9718 4.50909,-2.74426 6.26908,-3.47636 7.25819,-3.64092 9.01818,-4.05978 9.01819,-3.65892 9.01818,-3.33365 9.01818,-3.0663 9.87304,-3.09862 12.67241,-3.64219 13.52728,-3.55333 13.52727,-3.27078 15.42584,-3.43915 16.90759,-3.47636 18.30322,-3.47637 21.5088,-3.76851 L 320,105.12891 342.54545,101.73329 369.6,97.940404 l 27.05455,-3.539674 31.56363,-3.862883 31.56364,-3.625458 36.07273,-3.902356 22.54545,-2.329821 0,0"
           style="fill:none;stroke:#000080;stroke-width:1;stroke-linecap:butt;stroke-linejoin:round;stroke-miterlimit:10;stroke-dasharray:none;stroke-opacity:1"
           id="path34"
           inkscape:connector-curvature="0" /></g></g><g
       id="g36"><path
         d="m 72,43.02 446.4,0"
         style="fill:none;stroke:#000000;stroke-width:1;stroke-linecap:square;stroke-linejoin:miter;stroke-miterlimit:10;stroke-dasharray:none;stroke-opacity:1"
         id="path38"
         inkscape:connector-curvature="0" /><path
         d="m 72,43.02 0,344.16"
         style="fill:none;stroke:#000000;stroke-width:1;stroke-linecap:square;stroke-linejoin:miter;stroke-miterlimit:10;stroke-dasharray:none;stroke-opacity:1"
         id="path40"
         inkscape:connector-curvature="0" /><path
         d="m 72,387.18 446.4,0"
         style="fill:none;stroke:#000000;stroke-width:1;stroke-linecap:square;stroke-linejoin:miter;stroke-miterlimit:10;stroke-dasharray:none;stroke-opacity:1"
         id="path42"
         inkscape:connector-curvature="0" /><path
         d="m 518.4,43.02 0,344.16"
         style="fill:none;stroke:#000000;stroke-width:1;stroke-linecap:square;stroke-linejoin:miter;stroke-miterlimit:10;stroke-dasharray:none;stroke-opacity:1"
         id="path44"
         inkscape:connector-curvature="0" /><path
         d="m 72,43.02 0,4"
         style="fill:#000000;fill-opacity:1;fill-rule:nonzero;stroke:#000000;stroke-width:0.5;stroke-linecap:butt;stroke-linejoin:round;stroke-miterlimit:10;stroke-dasharray:none;stroke-opacity:1"
         id="path46"
         inkscape:connector-curvature="0" /><path
         d="m 72,387.18 0,-4"
         style="fill:#000000;fill-opacity:1;fill-rule:nonzero;stroke:#000000;stroke-width:0.5;stroke-linecap:butt;stroke-linejoin:round;stroke-miterlimit:10;stroke-dasharray:none;stroke-opacity:1"
         id="path48"
         inkscape:connector-curvature="0" /><text
         transform="matrix(1,0,0,-1,58.632813,29.895)"
         style="font-variant:normal;font-weight:normal;font-size:12px;font-family:BitstreamVeraSans;-inkscape-font-specification:BitstreamVeraSans-Roman;writing-mode:lr-tb;fill:#000000;fill-opacity:1;fill-rule:nonzero;stroke:none"
         id="text50"><tspan
           x="0 7.632 11.448 19.08"
           y="0"
           sodipodi:role="line"
           id="tspan52">0.00</tspan></text>
<path
         d="m 161.28,43.02 0,4"
         style="fill:#000000;fill-opacity:1;fill-rule:nonzero;stroke:#000000;stroke-width:0.5;stroke-linecap:butt;stroke-linejoin:round;stroke-miterlimit:10;stroke-dasharray:none;stroke-opacity:1"
         id="path54"
         inkscape:connector-curvature="0" /><path
         d="m 161.28,387.18 0,-4"
         style="fill:#000000;fill-opacity:1;fill-rule:nonzero;stroke:#000000;stroke-width:0.5;stroke-linecap:butt;stroke-linejoin:round;stroke-miterlimit:10;stroke-dasharray:none;stroke-opacity:1"
         id="path56"
         inkscape:connector-curvature="0" /><text
         transform="matrix(1,0,0,-1,147.91281,29.895)"
         style="font-variant:normal;font-weight:normal;font-size:12px;font-family:BitstreamVeraSans;-inkscape-font-specification:BitstreamVeraSans-Roman;writing-mode:lr-tb;fill:#000000;fill-opacity:1;fill-rule:nonzero;stroke:none"
         id="text58"><tspan
           x="0 7.632 11.448 19.08"
           y="0"
           sodipodi:role="line"
           id="tspan60">0.05</tspan></text>
<path
         d="m 250.56,43.02 0,4"
         style="fill:#000000;fill-opacity:1;fill-rule:nonzero;stroke:#000000;stroke-width:0.5;stroke-linecap:butt;stroke-linejoin:round;stroke-miterlimit:10;stroke-dasharray:none;stroke-opacity:1"
         id="path62"
         inkscape:connector-curvature="0" /><path
         d="m 250.56,387.18 0,-4"
         style="fill:#000000;fill-opacity:1;fill-rule:nonzero;stroke:#000000;stroke-width:0.5;stroke-linecap:butt;stroke-linejoin:round;stroke-miterlimit:10;stroke-dasharray:none;stroke-opacity:1"
         id="path64"
         inkscape:connector-curvature="0" /><text
         transform="matrix(1,0,0,-1,237.19281,29.895)"
         style="font-variant:normal;font-weight:normal;font-size:12px;font-family:BitstreamVeraSans;-inkscape-font-specification:BitstreamVeraSans-Roman;writing-mode:lr-tb;fill:#000000;fill-opacity:1;fill-rule:nonzero;stroke:none"
         id="text66"><tspan
           x="0 7.632 11.448 19.08"
           y="0"
           sodipodi:role="line"
           id="tspan68">0.10</tspan></text>
<path
         d="m 339.84,43.02 0,4"
         style="fill:#000000;fill-opacity:1;fill-rule:nonzero;stroke:#000000;stroke-width:0.5;stroke-linecap:butt;stroke-linejoin:round;stroke-miterlimit:10;stroke-dasharray:none;stroke-opacity:1"
         id="path70"
         inkscape:connector-curvature="0" /><path
         d="m 339.84,387.18 0,-4"
         style="fill:#000000;fill-opacity:1;fill-rule:nonzero;stroke:#000000;stroke-width:0.5;stroke-linecap:butt;stroke-linejoin:round;stroke-miterlimit:10;stroke-dasharray:none;stroke-opacity:1"
         id="path72"
         inkscape:connector-curvature="0" /><text
         transform="matrix(1,0,0,-1,326.47281,29.895)"
         style="font-variant:normal;font-weight:normal;font-size:12px;font-family:BitstreamVeraSans;-inkscape-font-specification:BitstreamVeraSans-Roman;writing-mode:lr-tb;fill:#000000;fill-opacity:1;fill-rule:nonzero;stroke:none"
         id="text74"><tspan
           x="0 7.632 11.448 19.08"
           y="0"
           sodipodi:role="line"
           id="tspan76">0.15</tspan></text>
<path
         d="m 429.12,43.02 0,4"
         style="fill:#000000;fill-opacity:1;fill-rule:nonzero;stroke:#000000;stroke-width:0.5;stroke-linecap:butt;stroke-linejoin:round;stroke-miterlimit:10;stroke-dasharray:none;stroke-opacity:1"
         id="path78"
         inkscape:connector-curvature="0" /><path
         d="m 429.12,387.18 0,-4"
         style="fill:#000000;fill-opacity:1;fill-rule:nonzero;stroke:#000000;stroke-width:0.5;stroke-linecap:butt;stroke-linejoin:round;stroke-miterlimit:10;stroke-dasharray:none;stroke-opacity:1"
         id="path80"
         inkscape:connector-curvature="0" /><text
         transform="matrix(1,0,0,-1,415.75281,29.895)"
         style="font-variant:normal;font-weight:normal;font-size:12px;font-family:BitstreamVeraSans;-inkscape-font-specification:BitstreamVeraSans-Roman;writing-mode:lr-tb;fill:#000000;fill-opacity:1;fill-rule:nonzero;stroke:none"
         id="text82"><tspan
           x="0 7.632 11.448 19.08"
           y="0"
           sodipodi:role="line"
           id="tspan84">0.20</tspan></text>
<path
         d="m 518.4,43.02 0,4"
         style="fill:#000000;fill-opacity:1;fill-rule:nonzero;stroke:#000000;stroke-width:0.5;stroke-linecap:butt;stroke-linejoin:round;stroke-miterlimit:10;stroke-dasharray:none;stroke-opacity:1"
         id="path86"
         inkscape:connector-curvature="0" /><path
         d="m 518.4,387.18 0,-4"
         style="fill:#000000;fill-opacity:1;fill-rule:nonzero;stroke:#000000;stroke-width:0.5;stroke-linecap:butt;stroke-linejoin:round;stroke-miterlimit:10;stroke-dasharray:none;stroke-opacity:1"
         id="path88"
         inkscape:connector-curvature="0" /><text
         transform="matrix(1,0,0,-1,505.03281,29.895)"
         style="font-variant:normal;font-weight:normal;font-size:12px;font-family:BitstreamVeraSans;-inkscape-font-specification:BitstreamVeraSans-Roman;writing-mode:lr-tb;fill:#000000;fill-opacity:1;fill-rule:nonzero;stroke:none"
         id="text90"><tspan
           x="0 7.632 11.448 19.08"
           y="0"
           sodipodi:role="line"
           id="tspan92">0.25</tspan></text>
<g
         id="g94"
         transform="translate(289.2,13.77)"><text
           transform="matrix(1,0,0,-1,0,0.703125)"
           style="font-variant:normal;font-weight:normal;font-size:12px;font-family:Cmmi10;-inkscape-font-specification:Cmmi10;writing-mode:lr-tb;fill:#000000;fill-opacity:1;fill-rule:nonzero;stroke:none"
           id="text96"><tspan
             x="0"
             y="0"
             id="tspan98">p</tspan></text>
<text
           transform="matrix(1,0,0,-1,6.0351562,-1.337625)"
           style="font-variant:normal;font-weight:normal;font-size:8.39999962px;font-family:Cmr10;-inkscape-font-specification:Cmr10;writing-mode:lr-tb;fill:#000000;fill-opacity:1;fill-rule:nonzero;stroke:none"
           id="text100"><tspan
             x="0"
             y="0"
             id="tspan102">1</tspan></text>
</g><path
         d="m 72,43.02 4,0"
         style="fill:#000000;fill-opacity:1;fill-rule:nonzero;stroke:#000000;stroke-width:0.5;stroke-linecap:butt;stroke-linejoin:round;stroke-miterlimit:10;stroke-dasharray:none;stroke-opacity:1"
         id="path104"
         inkscape:connector-curvature="0" /><path
         d="m 518.4,43.02 -4,0"
         style="fill:#000000;fill-opacity:1;fill-rule:nonzero;stroke:#000000;stroke-width:0.5;stroke-linecap:butt;stroke-linejoin:round;stroke-miterlimit:10;stroke-dasharray:none;stroke-opacity:1"
         id="path106"
         inkscape:connector-curvature="0" /><text
         transform="matrix(1,0,0,-1,48.90625,39.7075)"
         style="font-variant:normal;font-weight:normal;font-size:12px;font-family:BitstreamVeraSans;-inkscape-font-specification:BitstreamVeraSans-Roman;writing-mode:lr-tb;fill:#000000;fill-opacity:1;fill-rule:nonzero;stroke:none"
         id="text108"><tspan
           x="0 7.632 11.448"
           y="0"
           sodipodi:role="line"
           id="tspan110">0.5</tspan></text>
<path
         d="m 72,111.852 4,0"
         style="fill:#000000;fill-opacity:1;fill-rule:nonzero;stroke:#000000;stroke-width:0.5;stroke-linecap:butt;stroke-linejoin:round;stroke-miterlimit:10;stroke-dasharray:none;stroke-opacity:1"
         id="path112"
         inkscape:connector-curvature="0" /><path
         d="m 518.4,111.852 -4,0"
         style="fill:#000000;fill-opacity:1;fill-rule:nonzero;stroke:#000000;stroke-width:0.5;stroke-linecap:butt;stroke-linejoin:round;stroke-miterlimit:10;stroke-dasharray:none;stroke-opacity:1"
         id="path114"
         inkscape:connector-curvature="0" /><text
         transform="matrix(1,0,0,-1,48.90625,108.5395)"
         style="font-variant:normal;font-weight:normal;font-size:12px;font-family:BitstreamVeraSans;-inkscape-font-specification:BitstreamVeraSans-Roman;writing-mode:lr-tb;fill:#000000;fill-opacity:1;fill-rule:nonzero;stroke:none"
         id="text116"><tspan
           x="0 7.632 11.448"
           y="0"
           sodipodi:role="line"
           id="tspan118">0.6</tspan></text>
<path
         d="m 72,180.684 4,0"
         style="fill:#000000;fill-opacity:1;fill-rule:nonzero;stroke:#000000;stroke-width:0.5;stroke-linecap:butt;stroke-linejoin:round;stroke-miterlimit:10;stroke-dasharray:none;stroke-opacity:1"
         id="path120"
         inkscape:connector-curvature="0" /><path
         d="m 518.4,180.684 -4,0"
         style="fill:#000000;fill-opacity:1;fill-rule:nonzero;stroke:#000000;stroke-width:0.5;stroke-linecap:butt;stroke-linejoin:round;stroke-miterlimit:10;stroke-dasharray:none;stroke-opacity:1"
         id="path122"
         inkscape:connector-curvature="0" /><text
         transform="matrix(1,0,0,-1,48.90625,177.3715)"
         style="font-variant:normal;font-weight:normal;font-size:12px;font-family:BitstreamVeraSans;-inkscape-font-specification:BitstreamVeraSans-Roman;writing-mode:lr-tb;fill:#000000;fill-opacity:1;fill-rule:nonzero;stroke:none"
         id="text124"><tspan
           x="0 7.632 11.448"
           y="0"
           sodipodi:role="line"
           id="tspan126">0.7</tspan></text>
<path
         d="m 72,249.516 4,0"
         style="fill:#000000;fill-opacity:1;fill-rule:nonzero;stroke:#000000;stroke-width:0.5;stroke-linecap:butt;stroke-linejoin:round;stroke-miterlimit:10;stroke-dasharray:none;stroke-opacity:1"
         id="path128"
         inkscape:connector-curvature="0" /><path
         d="m 518.4,249.516 -4,0"
         style="fill:#000000;fill-opacity:1;fill-rule:nonzero;stroke:#000000;stroke-width:0.5;stroke-linecap:butt;stroke-linejoin:round;stroke-miterlimit:10;stroke-dasharray:none;stroke-opacity:1"
         id="path130"
         inkscape:connector-curvature="0" /><text
         transform="matrix(1,0,0,-1,48.90625,246.2035)"
         style="font-variant:normal;font-weight:normal;font-size:12px;font-family:BitstreamVeraSans;-inkscape-font-specification:BitstreamVeraSans-Roman;writing-mode:lr-tb;fill:#000000;fill-opacity:1;fill-rule:nonzero;stroke:none"
         id="text132"><tspan
           x="0 7.632 11.448"
           y="0"
           sodipodi:role="line"
           id="tspan134">0.8</tspan></text>
<path
         d="m 72,318.348 4,0"
         style="fill:#000000;fill-opacity:1;fill-rule:nonzero;stroke:#000000;stroke-width:0.5;stroke-linecap:butt;stroke-linejoin:round;stroke-miterlimit:10;stroke-dasharray:none;stroke-opacity:1"
         id="path136"
         inkscape:connector-curvature="0" /><path
         d="m 518.4,318.348 -4,0"
         style="fill:#000000;fill-opacity:1;fill-rule:nonzero;stroke:#000000;stroke-width:0.5;stroke-linecap:butt;stroke-linejoin:round;stroke-miterlimit:10;stroke-dasharray:none;stroke-opacity:1"
         id="path138"
         inkscape:connector-curvature="0" /><text
         transform="matrix(1,0,0,-1,48.90625,315.0355)"
         style="font-variant:normal;font-weight:normal;font-size:12px;font-family:BitstreamVeraSans;-inkscape-font-specification:BitstreamVeraSans-Roman;writing-mode:lr-tb;fill:#000000;fill-opacity:1;fill-rule:nonzero;stroke:none"
         id="text140"><tspan
           x="0 7.632 11.448"
           y="0"
           sodipodi:role="line"
           id="tspan142">0.9</tspan></text>
<path
         d="m 72,387.18 4,0"
         style="fill:#000000;fill-opacity:1;fill-rule:nonzero;stroke:#000000;stroke-width:0.5;stroke-linecap:butt;stroke-linejoin:round;stroke-miterlimit:10;stroke-dasharray:none;stroke-opacity:1"
         id="path144"
         inkscape:connector-curvature="0" /><path
         d="m 518.4,387.18 -4,0"
         style="fill:#000000;fill-opacity:1;fill-rule:nonzero;stroke:#000000;stroke-width:0.5;stroke-linecap:butt;stroke-linejoin:round;stroke-miterlimit:10;stroke-dasharray:none;stroke-opacity:1"
         id="path146"
         inkscape:connector-curvature="0" /><text
         transform="matrix(1,0,0,-1,48.90625,383.8675)"
         style="font-variant:normal;font-weight:normal;font-size:12px;font-family:BitstreamVeraSans;-inkscape-font-specification:BitstreamVeraSans-Roman;writing-mode:lr-tb;fill:#000000;fill-opacity:1;fill-rule:nonzero;stroke:none"
         id="text148"><tspan
           x="0 7.632 11.448"
           y="0"
           sodipodi:role="line"
           id="tspan150">1.0</tspan></text>
<g
         id="g152"
         transform="matrix(0,1,-1,0,40.90625,209.1)"><text
           transform="matrix(1,0,0,-1,0,0.703125)"
           style="font-variant:normal;font-weight:normal;font-size:12px;font-family:Cmmi10;-inkscape-font-specification:Cmmi10;writing-mode:lr-tb;fill:#000000;fill-opacity:1;fill-rule:nonzero;stroke:none"
           id="text154"><tspan
             x="0"
             y="0"
             id="tspan156">p</tspan></text>
<text
           transform="matrix(1,0,0,-1,6.0351562,-1.337625)"
           style="font-variant:normal;font-weight:normal;font-size:8.39999962px;font-family:Cmr10;-inkscape-font-specification:Cmr10;writing-mode:lr-tb;fill:#000000;fill-opacity:1;fill-rule:nonzero;stroke:none"
           id="text158"><tspan
             x="0"
             y="0"
             id="tspan160">2</tspan></text>
</g><text
         transform="matrix(1,0,0,-1,277.60625,392.18)"
         style="font-variant:normal;font-weight:normal;font-size:14.39999962px;font-family:BitstreamVeraSans;-inkscape-font-specification:BitstreamVeraSans-Roman;writing-mode:lr-tb;fill:#000000;fill-opacity:1;fill-rule:nonzero;stroke:none"
         id="text162"><tspan
           x="0 14.0256 26.0928"
           y="0"
           sodipodi:role="line"
           id="tspan164">m=6</tspan></text>
</g></g></svg>