<?xml version="1.0" encoding="UTF-8" standalone="no"?>
<!-- Created with Inkscape (http://www.inkscape.org/) -->

<svg
   xmlns:dc="http://purl.org/dc/elements/1.1/"
   xmlns:cc="http://creativecommons.org/ns#"
   xmlns:rdf="http://www.w3.org/1999/02/22-rdf-syntax-ns#"
   xmlns:svg="http://www.w3.org/2000/svg"
   xmlns="http://www.w3.org/2000/svg"
   xmlns:sodipodi="http://sodipodi.sourceforge.net/DTD/sodipodi-0.dtd"
   xmlns:inkscape="http://www.inkscape.org/namespaces/inkscape"
   id="svg2"
   version="1.1"
   inkscape:version="0.91 r13725"
   xml:space="preserve"
   width="720"
   height="537.75"
   viewBox="0 0 720 537.75"
   sodipodi:docname="superposition_jeuB_jeuAB_m4_zoom_fig.svg"><metadata
     id="metadata8"><rdf:RDF><cc:Work
         rdf:about=""><dc:format>image/svg+xml</dc:format><dc:type
           rdf:resource="http://purl.org/dc/dcmitype/StillImage" /><dc:title></dc:title></cc:Work></rdf:RDF></metadata><defs
     id="defs6"><clipPath
       clipPathUnits="userSpaceOnUse"
       id="clipPath20"><path
         d="m 72,43.02 446.4,0 0,344.16 -446.4,0 0,-344.16 z"
         id="path22"
         inkscape:connector-curvature="0" /></clipPath><clipPath
       clipPathUnits="userSpaceOnUse"
       id="clipPath30"><path
         d="m 72,43.02 446.4,0 0,344.16 -446.4,0 0,-344.16 z"
         id="path32"
         inkscape:connector-curvature="0" /></clipPath></defs><sodipodi:namedview
     pagecolor="#ffffff"
     bordercolor="#666666"
     borderopacity="1"
     objecttolerance="10"
     gridtolerance="10"
     guidetolerance="10"
     inkscape:pageopacity="0"
     inkscape:pageshadow="2"
     inkscape:window-width="756"
     inkscape:window-height="480"
     id="namedview4"
     showgrid="false"
     inkscape:zoom="0.43886564"
     inkscape:cx="360"
     inkscape:cy="268.875"
     inkscape:window-x="0"
     inkscape:window-y="0"
     inkscape:window-maximized="0"
     inkscape:current-layer="g10" /><g
     id="g10"
     inkscape:groupmode="layer"
     inkscape:label="superposition_jeuB_jeuAB_m4_zoom_fig"
     transform="matrix(1.25,0,0,-1.25,0,537.75)"><path
       d="m 0,0 576,0 0,430.2 -576,0 L 0,0 Z"
       style="fill:#ffffff;fill-opacity:1;fill-rule:nonzero;stroke:none"
       id="path12"
       inkscape:connector-curvature="0" /><path
       d="m 72,43.02 446.4,0 0,344.16 -446.4,0 0,-344.16 z"
       style="fill:#ffffff;fill-opacity:1;fill-rule:nonzero;stroke:none"
       id="path14"
       inkscape:connector-curvature="0" /><g
       id="g16"><g
         id="g18"
         clip-path="url(#clipPath20)"><path
           d="m 72,172.58944 4.509091,-0.75128 1.158495,-0.19271 3.350596,-0.55512 4.509091,-0.74552 4.509091,-0.74383 4.509091,-0.74214 4.200014,-0.68975 0.309076,-0.0506 4.509095,-0.73662 4.50909,-0.735 4.50909,-0.73338 4.50909,-0.73179 3.01888,-0.48901 1.49021,-0.24049 4.50909,-0.72655 4.50909,-0.725 4.50909,-0.72347 4.50909,-0.72196 2.12015,-0.3389 2.38894,-0.38049 4.50909,-0.71697 4.5091,-0.71551 4.50909,-0.71406 4.50909,-0.71262 1.50001,-0.23671 3.00908,-0.47321 4.50909,-0.70788 4.50909,-0.7065 4.50909,-0.70512 4.50909,-0.70375 1.1543,-0.1799 3.35479,-0.52114 4.50909,-0.69925 4.50909,-0.69794 4.5091,-0.69662 4.50909,-0.69532 1.0785,-0.1661 3.43059,-0.52663 4.50909,-0.69105 4.50909,-0.6898 4.50909,-0.68856 4.50909,-0.68732 1.26778,-0.193 3.24131,-0.49192 4.50909,-0.68327 4.50909,-0.68207 4.50909,-0.6809 4.5091,-0.67972 1.71695,-0.25849 2.79214,-0.41911 4.50909,-0.67586 4.50909,-0.67474 4.50909,-0.67362 4.50909,-0.6725 2.42054,-0.36053 2.08855,-0.31019 4.50909,-0.66885 4.50909,-0.66777 4.50909,-0.66671 4.50909,-0.66565 3.37271,-0.49719 1.13639,-0.16707 4.50909,-0.66217 4.50909,-0.66116 4.50909,-0.66016 4.50909,-0.65915 4.50909,-0.65816 0.0583,-0.008 4.45083,-0.64737 4.50909,-0.65489 4.50909,-0.65393 4.50909,-0.65299 4.5091,-0.65204 1.48933,-0.21514 3.01976,-0.43513 4.50909,-0.64894 4.50909,-0.64804 4.50909,-0.64713 4.50909,-0.64625 3.1497,-0.45087 1.35939,-0.19413 4.50909,-0.64331 4.50909,-0.64245 4.50909,-0.64159 4.5091,-0.64076 4.50909,-0.63991 0.52337,-0.0742 3.98572,-0.56388 4.50909,-0.63716 4.50909,-0.63635 4.50909,-0.63555 4.50909,-0.63477 2.62147,-0.36865 1.88762,-0.26488 4.50909,-0.63215 4.50909,-0.63139 4.50909,-0.63064 4.50909,-0.62989 4.50909,-0.62915 0.41788,-0.0583 4.09122,-0.56925 4.50909,-0.62671 4.50909,-0.62599 4.50909,-0.62529 4.50909,-0.62459 2.92328,-0.40454 1.58581,-0.21903 4.50909,-0.62228 4.50909,-0.62161 4.50909,-0.62094 4.5091,-0.62029 4.50909,-0.61964 1.11109,-0.15257 3.398,-0.46576 4.50909,-0.61748 4.50909,-0.61686 4.50909,-0.61624 4.50909,-0.61562"
           style="fill:none;stroke:#000080;stroke-width:1;stroke-linecap:butt;stroke-linejoin:round;stroke-miterlimit:10;stroke-dasharray:none;stroke-opacity:1"
           id="path24"
           inkscape:connector-curvature="0" /></g></g><g
       id="g26"><g
         id="g28"
         clip-path="url(#clipPath30)"><path
           d="m 72,387.18 0.0881,-24.33454 0.276056,-13.90546 0.423522,-10.42909 0.692763,-10.42909 0.654922,-6.95273 0.843955,-6.95273 1.0661,-6.95272 1.328293,-6.95273 1.629888,-6.95273 2.01458,-7.08102 2.332817,-6.82443 2.176274,-5.44373 2.245002,-4.98536 2.264089,-4.47222 1.347699,-2.48051 3.161392,-5.28676 1.060506,-1.66597 3.448584,-4.9765 1.457478,-1.97623 3.05162,-3.86018 4.50909,-5.19752 1.25542,-1.37139 3.36946,-3.47636 4.3933,-4.19647 4.50909,-3.98988 4.50909,-3.71577 4.50909,-3.4795 4.50909,-3.27467 4.50909,-3.0961 4.50909,-2.93967 5.04221,-3.11885 8.48507,-4.88745 4.50909,-2.45431 9.01818,-4.61546 9.01818,-4.30313 9.01818,-4.03243 4.50909,-1.921 9.01819,-3.68777 9.01818,-3.49536 9.01818,-3.32505 13.52727,-4.70921 9.01818,-2.97206 13.52728,-4.24712 L 270.4,157.74 l 18.03636,-5.04067 18.03637,-4.74591 16.52095,-4.11888 19.55177,-4.62145 22.54546,-5.0485 19.89233,-4.2355 25.19858,-5.10159 22.54545,-4.3569 27.05455,-5.00002 31.56364,-5.56043 27.05454,-4.56795 0,0"
           style="fill:none;stroke:#000080;stroke-width:1;stroke-linecap:butt;stroke-linejoin:round;stroke-miterlimit:10;stroke-dasharray:none;stroke-opacity:1"
           id="path34"
           inkscape:connector-curvature="0" /></g></g><g
       id="g36"><path
         d="m 72,43.02 446.4,0"
         style="fill:none;stroke:#000000;stroke-width:1;stroke-linecap:square;stroke-linejoin:miter;stroke-miterlimit:10;stroke-dasharray:none;stroke-opacity:1"
         id="path38"
         inkscape:connector-curvature="0" /><path
         d="m 72,43.02 0,344.16"
         style="fill:none;stroke:#000000;stroke-width:1;stroke-linecap:square;stroke-linejoin:miter;stroke-miterlimit:10;stroke-dasharray:none;stroke-opacity:1"
         id="path40"
         inkscape:connector-curvature="0" /><path
         d="m 72,387.18 446.4,0"
         style="fill:none;stroke:#000000;stroke-width:1;stroke-linecap:square;stroke-linejoin:miter;stroke-miterlimit:10;stroke-dasharray:none;stroke-opacity:1"
         id="path42"
         inkscape:connector-curvature="0" /><path
         d="m 518.4,43.02 0,344.16"
         style="fill:none;stroke:#000000;stroke-width:1;stroke-linecap:square;stroke-linejoin:miter;stroke-miterlimit:10;stroke-dasharray:none;stroke-opacity:1"
         id="path44"
         inkscape:connector-curvature="0" /><path
         d="m 72,43.02 0,4"
         style="fill:#000000;fill-opacity:1;fill-rule:nonzero;stroke:#000000;stroke-width:0.5;stroke-linecap:butt;stroke-linejoin:round;stroke-miterlimit:10;stroke-dasharray:none;stroke-opacity:1"
         id="path46"
         inkscape:connector-curvature="0" /><path
         d="m 72,387.18 0,-4"
         style="fill:#000000;fill-opacity:1;fill-rule:nonzero;stroke:#000000;stroke-width:0.5;stroke-linecap:butt;stroke-linejoin:round;stroke-miterlimit:10;stroke-dasharray:none;stroke-opacity:1"
         id="path48"
         inkscape:connector-curvature="0" /><text
         transform="matrix(1,0,0,-1,58.632813,29.895)"
         style="font-variant:normal;font-weight:normal;font-size:12px;font-family:BitstreamVeraSans;-inkscape-font-specification:BitstreamVeraSans-Roman;writing-mode:lr-tb;fill:#000000;fill-opacity:1;fill-rule:nonzero;stroke:none"
         id="text50"><tspan
           x="0 7.632 11.448 19.08"
           y="0"
           sodipodi:role="line"
           id="tspan52">0.00</tspan></text>
<path
         d="m 161.28,43.02 0,4"
         style="fill:#000000;fill-opacity:1;fill-rule:nonzero;stroke:#000000;stroke-width:0.5;stroke-linecap:butt;stroke-linejoin:round;stroke-miterlimit:10;stroke-dasharray:none;stroke-opacity:1"
         id="path54"
         inkscape:connector-curvature="0" /><path
         d="m 161.28,387.18 0,-4"
         style="fill:#000000;fill-opacity:1;fill-rule:nonzero;stroke:#000000;stroke-width:0.5;stroke-linecap:butt;stroke-linejoin:round;stroke-miterlimit:10;stroke-dasharray:none;stroke-opacity:1"
         id="path56"
         inkscape:connector-curvature="0" /><text
         transform="matrix(1,0,0,-1,147.91281,29.895)"
         style="font-variant:normal;font-weight:normal;font-size:12px;font-family:BitstreamVeraSans;-inkscape-font-specification:BitstreamVeraSans-Roman;writing-mode:lr-tb;fill:#000000;fill-opacity:1;fill-rule:nonzero;stroke:none"
         id="text58"><tspan
           x="0 7.632 11.448 19.08"
           y="0"
           sodipodi:role="line"
           id="tspan60">0.05</tspan></text>
<path
         d="m 250.56,43.02 0,4"
         style="fill:#000000;fill-opacity:1;fill-rule:nonzero;stroke:#000000;stroke-width:0.5;stroke-linecap:butt;stroke-linejoin:round;stroke-miterlimit:10;stroke-dasharray:none;stroke-opacity:1"
         id="path62"
         inkscape:connector-curvature="0" /><path
         d="m 250.56,387.18 0,-4"
         style="fill:#000000;fill-opacity:1;fill-rule:nonzero;stroke:#000000;stroke-width:0.5;stroke-linecap:butt;stroke-linejoin:round;stroke-miterlimit:10;stroke-dasharray:none;stroke-opacity:1"
         id="path64"
         inkscape:connector-curvature="0" /><text
         transform="matrix(1,0,0,-1,237.19281,29.895)"
         style="font-variant:normal;font-weight:normal;font-size:12px;font-family:BitstreamVeraSans;-inkscape-font-specification:BitstreamVeraSans-Roman;writing-mode:lr-tb;fill:#000000;fill-opacity:1;fill-rule:nonzero;stroke:none"
         id="text66"><tspan
           x="0 7.632 11.448 19.08"
           y="0"
           sodipodi:role="line"
           id="tspan68">0.10</tspan></text>
<path
         d="m 339.84,43.02 0,4"
         style="fill:#000000;fill-opacity:1;fill-rule:nonzero;stroke:#000000;stroke-width:0.5;stroke-linecap:butt;stroke-linejoin:round;stroke-miterlimit:10;stroke-dasharray:none;stroke-opacity:1"
         id="path70"
         inkscape:connector-curvature="0" /><path
         d="m 339.84,387.18 0,-4"
         style="fill:#000000;fill-opacity:1;fill-rule:nonzero;stroke:#000000;stroke-width:0.5;stroke-linecap:butt;stroke-linejoin:round;stroke-miterlimit:10;stroke-dasharray:none;stroke-opacity:1"
         id="path72"
         inkscape:connector-curvature="0" /><text
         transform="matrix(1,0,0,-1,326.47281,29.895)"
         style="font-variant:normal;font-weight:normal;font-size:12px;font-family:BitstreamVeraSans;-inkscape-font-specification:BitstreamVeraSans-Roman;writing-mode:lr-tb;fill:#000000;fill-opacity:1;fill-rule:nonzero;stroke:none"
         id="text74"><tspan
           x="0 7.632 11.448 19.08"
           y="0"
           sodipodi:role="line"
           id="tspan76">0.15</tspan></text>
<path
         d="m 429.12,43.02 0,4"
         style="fill:#000000;fill-opacity:1;fill-rule:nonzero;stroke:#000000;stroke-width:0.5;stroke-linecap:butt;stroke-linejoin:round;stroke-miterlimit:10;stroke-dasharray:none;stroke-opacity:1"
         id="path78"
         inkscape:connector-curvature="0" /><path
         d="m 429.12,387.18 0,-4"
         style="fill:#000000;fill-opacity:1;fill-rule:nonzero;stroke:#000000;stroke-width:0.5;stroke-linecap:butt;stroke-linejoin:round;stroke-miterlimit:10;stroke-dasharray:none;stroke-opacity:1"
         id="path80"
         inkscape:connector-curvature="0" /><text
         transform="matrix(1,0,0,-1,415.75281,29.895)"
         style="font-variant:normal;font-weight:normal;font-size:12px;font-family:BitstreamVeraSans;-inkscape-font-specification:BitstreamVeraSans-Roman;writing-mode:lr-tb;fill:#000000;fill-opacity:1;fill-rule:nonzero;stroke:none"
         id="text82"><tspan
           x="0 7.632 11.448 19.08"
           y="0"
           sodipodi:role="line"
           id="tspan84">0.20</tspan></text>
<path
         d="m 518.4,43.02 0,4"
         style="fill:#000000;fill-opacity:1;fill-rule:nonzero;stroke:#000000;stroke-width:0.5;stroke-linecap:butt;stroke-linejoin:round;stroke-miterlimit:10;stroke-dasharray:none;stroke-opacity:1"
         id="path86"
         inkscape:connector-curvature="0" /><path
         d="m 518.4,387.18 0,-4"
         style="fill:#000000;fill-opacity:1;fill-rule:nonzero;stroke:#000000;stroke-width:0.5;stroke-linecap:butt;stroke-linejoin:round;stroke-miterlimit:10;stroke-dasharray:none;stroke-opacity:1"
         id="path88"
         inkscape:connector-curvature="0" /><text
         transform="matrix(1,0,0,-1,505.03281,29.895)"
         style="font-variant:normal;font-weight:normal;font-size:12px;font-family:BitstreamVeraSans;-inkscape-font-specification:BitstreamVeraSans-Roman;writing-mode:lr-tb;fill:#000000;fill-opacity:1;fill-rule:nonzero;stroke:none"
         id="text90"><tspan
           x="0 7.632 11.448 19.08"
           y="0"
           sodipodi:role="line"
           id="tspan92">0.25</tspan></text>
<g
         id="g94"
         transform="translate(289.2,13.77)"><text
           transform="matrix(1,0,0,-1,0,0.703125)"
           style="font-variant:normal;font-weight:normal;font-size:12px;font-family:Cmmi10;-inkscape-font-specification:Cmmi10;writing-mode:lr-tb;fill:#000000;fill-opacity:1;fill-rule:nonzero;stroke:none"
           id="text96"><tspan
             x="0"
             y="0"
             id="tspan98">p</tspan></text>
<text
           transform="matrix(1,0,0,-1,6.0351562,-1.337625)"
           style="font-variant:normal;font-weight:normal;font-size:8.39999962px;font-family:Cmr10;-inkscape-font-specification:Cmr10;writing-mode:lr-tb;fill:#000000;fill-opacity:1;fill-rule:nonzero;stroke:none"
           id="text100"><tspan
             x="0"
             y="0"
             id="tspan102">1</tspan></text>
</g><path
         d="m 72,43.02 4,0"
         style="fill:#000000;fill-opacity:1;fill-rule:nonzero;stroke:#000000;stroke-width:0.5;stroke-linecap:butt;stroke-linejoin:round;stroke-miterlimit:10;stroke-dasharray:none;stroke-opacity:1"
         id="path104"
         inkscape:connector-curvature="0" /><path
         d="m 518.4,43.02 -4,0"
         style="fill:#000000;fill-opacity:1;fill-rule:nonzero;stroke:#000000;stroke-width:0.5;stroke-linecap:butt;stroke-linejoin:round;stroke-miterlimit:10;stroke-dasharray:none;stroke-opacity:1"
         id="path106"
         inkscape:connector-curvature="0" /><text
         transform="matrix(1,0,0,-1,48.90625,39.7075)"
         style="font-variant:normal;font-weight:normal;font-size:12px;font-family:BitstreamVeraSans;-inkscape-font-specification:BitstreamVeraSans-Roman;writing-mode:lr-tb;fill:#000000;fill-opacity:1;fill-rule:nonzero;stroke:none"
         id="text108"><tspan
           x="0 7.632 11.448"
           y="0"
           sodipodi:role="line"
           id="tspan110">0.5</tspan></text>
<path
         d="m 72,111.852 4,0"
         style="fill:#000000;fill-opacity:1;fill-rule:nonzero;stroke:#000000;stroke-width:0.5;stroke-linecap:butt;stroke-linejoin:round;stroke-miterlimit:10;stroke-dasharray:none;stroke-opacity:1"
         id="path112"
         inkscape:connector-curvature="0" /><path
         d="m 518.4,111.852 -4,0"
         style="fill:#000000;fill-opacity:1;fill-rule:nonzero;stroke:#000000;stroke-width:0.5;stroke-linecap:butt;stroke-linejoin:round;stroke-miterlimit:10;stroke-dasharray:none;stroke-opacity:1"
         id="path114"
         inkscape:connector-curvature="0" /><text
         transform="matrix(1,0,0,-1,48.90625,108.5395)"
         style="font-variant:normal;font-weight:normal;font-size:12px;font-family:BitstreamVeraSans;-inkscape-font-specification:BitstreamVeraSans-Roman;writing-mode:lr-tb;fill:#000000;fill-opacity:1;fill-rule:nonzero;stroke:none"
         id="text116"><tspan
           x="0 7.632 11.448"
           y="0"
           sodipodi:role="line"
           id="tspan118">0.6</tspan></text>
<path
         d="m 72,180.684 4,0"
         style="fill:#000000;fill-opacity:1;fill-rule:nonzero;stroke:#000000;stroke-width:0.5;stroke-linecap:butt;stroke-linejoin:round;stroke-miterlimit:10;stroke-dasharray:none;stroke-opacity:1"
         id="path120"
         inkscape:connector-curvature="0" /><path
         d="m 518.4,180.684 -4,0"
         style="fill:#000000;fill-opacity:1;fill-rule:nonzero;stroke:#000000;stroke-width:0.5;stroke-linecap:butt;stroke-linejoin:round;stroke-miterlimit:10;stroke-dasharray:none;stroke-opacity:1"
         id="path122"
         inkscape:connector-curvature="0" /><text
         transform="matrix(1,0,0,-1,48.90625,177.3715)"
         style="font-variant:normal;font-weight:normal;font-size:12px;font-family:BitstreamVeraSans;-inkscape-font-specification:BitstreamVeraSans-Roman;writing-mode:lr-tb;fill:#000000;fill-opacity:1;fill-rule:nonzero;stroke:none"
         id="text124"><tspan
           x="0 7.632 11.448"
           y="0"
           sodipodi:role="line"
           id="tspan126">0.7</tspan></text>
<path
         d="m 72,249.516 4,0"
         style="fill:#000000;fill-opacity:1;fill-rule:nonzero;stroke:#000000;stroke-width:0.5;stroke-linecap:butt;stroke-linejoin:round;stroke-miterlimit:10;stroke-dasharray:none;stroke-opacity:1"
         id="path128"
         inkscape:connector-curvature="0" /><path
         d="m 518.4,249.516 -4,0"
         style="fill:#000000;fill-opacity:1;fill-rule:nonzero;stroke:#000000;stroke-width:0.5;stroke-linecap:butt;stroke-linejoin:round;stroke-miterlimit:10;stroke-dasharray:none;stroke-opacity:1"
         id="path130"
         inkscape:connector-curvature="0" /><text
         transform="matrix(1,0,0,-1,48.90625,246.2035)"
         style="font-variant:normal;font-weight:normal;font-size:12px;font-family:BitstreamVeraSans;-inkscape-font-specification:BitstreamVeraSans-Roman;writing-mode:lr-tb;fill:#000000;fill-opacity:1;fill-rule:nonzero;stroke:none"
         id="text132"><tspan
           x="0 7.632 11.448"
           y="0"
           sodipodi:role="line"
           id="tspan134">0.8</tspan></text>
<path
         d="m 72,318.348 4,0"
         style="fill:#000000;fill-opacity:1;fill-rule:nonzero;stroke:#000000;stroke-width:0.5;stroke-linecap:butt;stroke-linejoin:round;stroke-miterlimit:10;stroke-dasharray:none;stroke-opacity:1"
         id="path136"
         inkscape:connector-curvature="0" /><path
         d="m 518.4,318.348 -4,0"
         style="fill:#000000;fill-opacity:1;fill-rule:nonzero;stroke:#000000;stroke-width:0.5;stroke-linecap:butt;stroke-linejoin:round;stroke-miterlimit:10;stroke-dasharray:none;stroke-opacity:1"
         id="path138"
         inkscape:connector-curvature="0" /><text
         transform="matrix(1,0,0,-1,48.90625,315.0355)"
         style="font-variant:normal;font-weight:normal;font-size:12px;font-family:BitstreamVeraSans;-inkscape-font-specification:BitstreamVeraSans-Roman;writing-mode:lr-tb;fill:#000000;fill-opacity:1;fill-rule:nonzero;stroke:none"
         id="text140"><tspan
           x="0 7.632 11.448"
           y="0"
           sodipodi:role="line"
           id="tspan142">0.9</tspan></text>
<path
         d="m 72,387.18 4,0"
         style="fill:#000000;fill-opacity:1;fill-rule:nonzero;stroke:#000000;stroke-width:0.5;stroke-linecap:butt;stroke-linejoin:round;stroke-miterlimit:10;stroke-dasharray:none;stroke-opacity:1"
         id="path144"
         inkscape:connector-curvature="0" /><path
         d="m 518.4,387.18 -4,0"
         style="fill:#000000;fill-opacity:1;fill-rule:nonzero;stroke:#000000;stroke-width:0.5;stroke-linecap:butt;stroke-linejoin:round;stroke-miterlimit:10;stroke-dasharray:none;stroke-opacity:1"
         id="path146"
         inkscape:connector-curvature="0" /><text
         transform="matrix(1,0,0,-1,48.90625,383.8675)"
         style="font-variant:normal;font-weight:normal;font-size:12px;font-family:BitstreamVeraSans;-inkscape-font-specification:BitstreamVeraSans-Roman;writing-mode:lr-tb;fill:#000000;fill-opacity:1;fill-rule:nonzero;stroke:none"
         id="text148"><tspan
           x="0 7.632 11.448"
           y="0"
           sodipodi:role="line"
           id="tspan150">1.0</tspan></text>
<g
         id="g152"
         transform="matrix(0,1,-1,0,40.90625,209.1)"><text
           transform="matrix(1,0,0,-1,0,0.703125)"
           style="font-variant:normal;font-weight:normal;font-size:12px;font-family:Cmmi10;-inkscape-font-specification:Cmmi10;writing-mode:lr-tb;fill:#000000;fill-opacity:1;fill-rule:nonzero;stroke:none"
           id="text154"><tspan
             x="0"
             y="0"
             id="tspan156">p</tspan></text>
<text
           transform="matrix(1,0,0,-1,6.0351562,-1.337625)"
           style="font-variant:normal;font-weight:normal;font-size:8.39999962px;font-family:Cmr10;-inkscape-font-specification:Cmr10;writing-mode:lr-tb;fill:#000000;fill-opacity:1;fill-rule:nonzero;stroke:none"
           id="text158"><tspan
             x="0"
             y="0"
             id="tspan160">2</tspan></text>
</g><text
         transform="matrix(1,0,0,-1,277.60625,392.18)"
         style="font-variant:normal;font-weight:normal;font-size:14.39999962px;font-family:BitstreamVeraSans;-inkscape-font-specification:BitstreamVeraSans-Roman;writing-mode:lr-tb;fill:#000000;fill-opacity:1;fill-rule:nonzero;stroke:none"
         id="text162"><tspan
           x="0 14.0256 26.0928"
           y="0"
           sodipodi:role="line"
           id="tspan164">m=4</tspan></text>
</g></g></svg>