<?xml version="1.0" encoding="UTF-8" standalone="no"?>
<!-- Created with Inkscape (http://www.inkscape.org/) -->

<svg
   xmlns:dc="http://purl.org/dc/elements/1.1/"
   xmlns:cc="http://creativecommons.org/ns#"
   xmlns:rdf="http://www.w3.org/1999/02/22-rdf-syntax-ns#"
   xmlns:svg="http://www.w3.org/2000/svg"
   xmlns="http://www.w3.org/2000/svg"
   xmlns:sodipodi="http://sodipodi.sourceforge.net/DTD/sodipodi-0.dtd"
   xmlns:inkscape="http://www.inkscape.org/namespaces/inkscape"
   id="svg2"
   version="1.1"
   inkscape:version="0.91 r13725"
   xml:space="preserve"
   width="720"
   height="537.75"
   viewBox="0 0 720 537.75"
   sodipodi:docname="superposition_jeuB_jeuAB_m4_fig.pdf"><metadata
     id="metadata8"><rdf:RDF><cc:Work
         rdf:about=""><dc:format>image/svg+xml</dc:format><dc:type
           rdf:resource="http://purl.org/dc/dcmitype/StillImage" /><dc:title></dc:title></cc:Work></rdf:RDF></metadata><defs
     id="defs6"><clipPath
       clipPathUnits="userSpaceOnUse"
       id="clipPath20"><path
         d="m 72,43.02 446.4,0 0,344.16 -446.4,0 0,-344.16 z"
         id="path22"
         inkscape:connector-curvature="0" /></clipPath><clipPath
       clipPathUnits="userSpaceOnUse"
       id="clipPath30"><path
         d="m 72,43.02 446.4,0 0,344.16 -446.4,0 0,-344.16 z"
         id="path32"
         inkscape:connector-curvature="0" /></clipPath><clipPath
       clipPathUnits="userSpaceOnUse"
       id="clipPath40"><path
         d="m 72,43.02 446.4,0 0,344.16 -446.4,0 0,-344.16 z"
         id="path42"
         inkscape:connector-curvature="0" /></clipPath></defs><sodipodi:namedview
     pagecolor="#ffffff"
     bordercolor="#666666"
     borderopacity="1"
     objecttolerance="10"
     gridtolerance="10"
     guidetolerance="10"
     inkscape:pageopacity="0"
     inkscape:pageshadow="2"
     inkscape:window-width="756"
     inkscape:window-height="480"
     id="namedview4"
     showgrid="false"
     inkscape:zoom="0.43886564"
     inkscape:cx="360"
     inkscape:cy="268.875"
     inkscape:window-x="0"
     inkscape:window-y="0"
     inkscape:window-maximized="0"
     inkscape:current-layer="g10" /><g
     id="g10"
     inkscape:groupmode="layer"
     inkscape:label="superposition_jeuB_jeuAB_m4_fig"
     transform="matrix(1.25,0,0,-1.25,0,537.75)"><path
       d="m 0,0 576,0 0,430.2 -576,0 L 0,0 Z"
       style="fill:#ffffff;fill-opacity:1;fill-rule:nonzero;stroke:none"
       id="path12"
       inkscape:connector-curvature="0" /><path
       d="m 72,43.02 446.4,0 0,344.16 -446.4,0 0,-344.16 z"
       style="fill:#ffffff;fill-opacity:1;fill-rule:nonzero;stroke:none"
       id="path14"
       inkscape:connector-curvature="0" /><g
       id="g16"><g
         id="g18"
         clip-path="url(#clipPath20)"><path
           d="m 72,279.88546 13.527273,-4.43193 20.561357,-6.46989 20.02046,-6.03696 18.03636,-5.25738 22.54546,-6.37189 27.05454,-7.41038 31.56364,-8.40527 40.58182,-10.56294 112.72727,-29.19052 31.56364,-8.47214 27.05454,-7.48999 22.54546,-6.45644 22.54545,-6.70311 18.03637,-5.57788 18.03636,-5.81396 0,0"
           style="fill:none;stroke:#000080;stroke-width:1;stroke-linecap:butt;stroke-linejoin:round;stroke-miterlimit:10;stroke-dasharray:none;stroke-opacity:1"
           id="path24"
           inkscape:connector-curvature="0" /></g></g><g
       id="g26"><g
         id="g28"
         clip-path="url(#clipPath30)"><path
           d="m 72,387.18 0.0678,-17.38182 0.237858,-10.42909 0.331424,-6.95273 0.538542,-6.95272 0.81901,-6.95273 1.187581,-6.95273 1.326875,-5.68261 0.338745,-1.27012 1.06003,-3.47636 1.227156,-3.47636 1.88316,-4.50999 1.161603,-2.44274 1.865357,-3.47636 2.121573,-3.47637 2.412456,-3.47636 2.722447,-3.47637 3.243837,-3.66865 4.50909,-4.44929 4.509096,-3.9113 4.50909,-3.49913 4.50909,-3.1765 4.50909,-2.91918 4.50909,-2.71049 6.29307,-3.47636 7.2342,-3.65829 9.01818,-4.15447 9.01819,-3.80832 9.01818,-3.53225 9.01818,-3.3089 9.01818,-3.12602 13.52727,-4.40847 13.52728,-4.14791 15.89045,-4.61901 15.67318,-4.34961 22.77385,-6.07948 35.84433,-9.27038 36.07273,-9.35915 22.54546,-6.06574 18.03636,-5.08575 16.73332,-4.98262 11.03194,-3.47636 12.81656,-4.28825 9.01818,-3.21095 9.01818,-3.41403 9.01818,-3.66414 9.01819,-3.97639 4.88704,-2.30442 8.64023,-4.43866 4.50909,-2.51407 5.73962,-3.47636 5.22184,-3.47637 4.73068,-3.47636 4.26864,-3.47637 3.83769,-3.47636 3.43922,-3.47636 4.32595,-5.05615 1.45719,-1.89658 3.0519,-4.49318 1.48213,-2.45955 1.86535,-3.47636 1.63217,-3.47636 1.4126,-3.47637 1.22715,-3.47636 1.39878,-4.74648 0.56287,-2.20625 0.764,-3.476362 1.18758,-6.952727 0.81902,-6.952727 0.53854,-6.952728 0.33142,-6.952727 L 518.3322,60.401818 518.4,43.02 l 0,0"
           style="fill:none;stroke:#000080;stroke-width:1;stroke-linecap:butt;stroke-linejoin:round;stroke-miterlimit:10;stroke-dasharray:none;stroke-opacity:1"
           id="path34"
           inkscape:connector-curvature="0" /></g></g><g
       id="g36"><g
         id="g38"
         clip-path="url(#clipPath40)"><path
           d="m 83.16,298.14 c 0.795609,0 1.55874,0.3161 2.12132,0.87868 0.562581,0.56258 0.87868,1.32571 0.87868,2.12132 0,0.79561 -0.316099,1.55874 -0.87868,2.12132 -0.56258,0.56258 -1.325711,0.87868 -2.12132,0.87868 -0.795609,0 -1.55874,-0.3161 -2.12132,-0.87868 C 80.476099,302.69874 80.16,301.93561 80.16,301.14 c 0,-0.79561 0.316099,-1.55874 0.87868,-2.12132 C 81.60126,298.4561 82.364391,298.14 83.16,298.14 Z"
           style="fill:#0000ff;fill-opacity:1;fill-rule:nonzero;stroke:#000000;stroke-width:0.5;stroke-linecap:butt;stroke-linejoin:round;stroke-miterlimit:10;stroke-dasharray:none;stroke-opacity:1"
           id="path44"
           inkscape:connector-curvature="0" /></g></g><g
       id="g46"><path
         d="m 72,43.02 0,344.16"
         style="fill:none;stroke:#000000;stroke-width:1;stroke-linecap:square;stroke-linejoin:miter;stroke-miterlimit:10;stroke-dasharray:none;stroke-opacity:1"
         id="path48"
         inkscape:connector-curvature="0" /><path
         d="m 518.4,43.02 0,344.16"
         style="fill:none;stroke:#000000;stroke-width:1;stroke-linecap:square;stroke-linejoin:miter;stroke-miterlimit:10;stroke-dasharray:none;stroke-opacity:1"
         id="path50"
         inkscape:connector-curvature="0" /><path
         d="m 72,43.02 446.4,0"
         style="fill:none;stroke:#000000;stroke-width:1;stroke-linecap:square;stroke-linejoin:miter;stroke-miterlimit:10;stroke-dasharray:none;stroke-opacity:1"
         id="path52"
         inkscape:connector-curvature="0" /><path
         d="m 72,387.18 446.4,0"
         style="fill:none;stroke:#000000;stroke-width:1;stroke-linecap:square;stroke-linejoin:miter;stroke-miterlimit:10;stroke-dasharray:none;stroke-opacity:1"
         id="path54"
         inkscape:connector-curvature="0" /><path
         d="m 72,43.02 0,4"
         style="fill:#000000;fill-opacity:1;fill-rule:nonzero;stroke:#000000;stroke-width:0.5;stroke-linecap:butt;stroke-linejoin:round;stroke-miterlimit:10;stroke-dasharray:none;stroke-opacity:1"
         id="path56"
         inkscape:connector-curvature="0" /><path
         d="m 72,387.18 0,-4"
         style="fill:#000000;fill-opacity:1;fill-rule:nonzero;stroke:#000000;stroke-width:0.5;stroke-linecap:butt;stroke-linejoin:round;stroke-miterlimit:10;stroke-dasharray:none;stroke-opacity:1"
         id="path58"
         inkscape:connector-curvature="0" /><text
         transform="matrix(1,0,0,-1,62.453125,29.895)"
         style="font-variant:normal;font-weight:normal;font-size:12px;font-family:BitstreamVeraSans;-inkscape-font-specification:BitstreamVeraSans-Roman;writing-mode:lr-tb;fill:#000000;fill-opacity:1;fill-rule:nonzero;stroke:none"
         id="text60"><tspan
           x="0 7.632 11.448"
           y="0"
           sodipodi:role="line"
           id="tspan62">0.0</tspan></text>
<path
         d="m 161.28,43.02 0,4"
         style="fill:#000000;fill-opacity:1;fill-rule:nonzero;stroke:#000000;stroke-width:0.5;stroke-linecap:butt;stroke-linejoin:round;stroke-miterlimit:10;stroke-dasharray:none;stroke-opacity:1"
         id="path64"
         inkscape:connector-curvature="0" /><path
         d="m 161.28,387.18 0,-4"
         style="fill:#000000;fill-opacity:1;fill-rule:nonzero;stroke:#000000;stroke-width:0.5;stroke-linecap:butt;stroke-linejoin:round;stroke-miterlimit:10;stroke-dasharray:none;stroke-opacity:1"
         id="path66"
         inkscape:connector-curvature="0" /><text
         transform="matrix(1,0,0,-1,151.73312,29.895)"
         style="font-variant:normal;font-weight:normal;font-size:12px;font-family:BitstreamVeraSans;-inkscape-font-specification:BitstreamVeraSans-Roman;writing-mode:lr-tb;fill:#000000;fill-opacity:1;fill-rule:nonzero;stroke:none"
         id="text68"><tspan
           x="0 7.632 11.448"
           y="0"
           sodipodi:role="line"
           id="tspan70">0.2</tspan></text>
<path
         d="m 250.56,43.02 0,4"
         style="fill:#000000;fill-opacity:1;fill-rule:nonzero;stroke:#000000;stroke-width:0.5;stroke-linecap:butt;stroke-linejoin:round;stroke-miterlimit:10;stroke-dasharray:none;stroke-opacity:1"
         id="path72"
         inkscape:connector-curvature="0" /><path
         d="m 250.56,387.18 0,-4"
         style="fill:#000000;fill-opacity:1;fill-rule:nonzero;stroke:#000000;stroke-width:0.5;stroke-linecap:butt;stroke-linejoin:round;stroke-miterlimit:10;stroke-dasharray:none;stroke-opacity:1"
         id="path74"
         inkscape:connector-curvature="0" /><text
         transform="matrix(1,0,0,-1,241.01312,29.895)"
         style="font-variant:normal;font-weight:normal;font-size:12px;font-family:BitstreamVeraSans;-inkscape-font-specification:BitstreamVeraSans-Roman;writing-mode:lr-tb;fill:#000000;fill-opacity:1;fill-rule:nonzero;stroke:none"
         id="text76"><tspan
           x="0 7.632 11.448"
           y="0"
           sodipodi:role="line"
           id="tspan78">0.4</tspan></text>
<path
         d="m 339.84,43.02 0,4"
         style="fill:#000000;fill-opacity:1;fill-rule:nonzero;stroke:#000000;stroke-width:0.5;stroke-linecap:butt;stroke-linejoin:round;stroke-miterlimit:10;stroke-dasharray:none;stroke-opacity:1"
         id="path80"
         inkscape:connector-curvature="0" /><path
         d="m 339.84,387.18 0,-4"
         style="fill:#000000;fill-opacity:1;fill-rule:nonzero;stroke:#000000;stroke-width:0.5;stroke-linecap:butt;stroke-linejoin:round;stroke-miterlimit:10;stroke-dasharray:none;stroke-opacity:1"
         id="path82"
         inkscape:connector-curvature="0" /><text
         transform="matrix(1,0,0,-1,330.29312,29.895)"
         style="font-variant:normal;font-weight:normal;font-size:12px;font-family:BitstreamVeraSans;-inkscape-font-specification:BitstreamVeraSans-Roman;writing-mode:lr-tb;fill:#000000;fill-opacity:1;fill-rule:nonzero;stroke:none"
         id="text84"><tspan
           x="0 7.632 11.448"
           y="0"
           sodipodi:role="line"
           id="tspan86">0.6</tspan></text>
<path
         d="m 429.12,43.02 0,4"
         style="fill:#000000;fill-opacity:1;fill-rule:nonzero;stroke:#000000;stroke-width:0.5;stroke-linecap:butt;stroke-linejoin:round;stroke-miterlimit:10;stroke-dasharray:none;stroke-opacity:1"
         id="path88"
         inkscape:connector-curvature="0" /><path
         d="m 429.12,387.18 0,-4"
         style="fill:#000000;fill-opacity:1;fill-rule:nonzero;stroke:#000000;stroke-width:0.5;stroke-linecap:butt;stroke-linejoin:round;stroke-miterlimit:10;stroke-dasharray:none;stroke-opacity:1"
         id="path90"
         inkscape:connector-curvature="0" /><text
         transform="matrix(1,0,0,-1,419.57312,29.895)"
         style="font-variant:normal;font-weight:normal;font-size:12px;font-family:BitstreamVeraSans;-inkscape-font-specification:BitstreamVeraSans-Roman;writing-mode:lr-tb;fill:#000000;fill-opacity:1;fill-rule:nonzero;stroke:none"
         id="text92"><tspan
           x="0 7.632 11.448"
           y="0"
           sodipodi:role="line"
           id="tspan94">0.8</tspan></text>
<path
         d="m 518.4,43.02 0,4"
         style="fill:#000000;fill-opacity:1;fill-rule:nonzero;stroke:#000000;stroke-width:0.5;stroke-linecap:butt;stroke-linejoin:round;stroke-miterlimit:10;stroke-dasharray:none;stroke-opacity:1"
         id="path96"
         inkscape:connector-curvature="0" /><path
         d="m 518.4,387.18 0,-4"
         style="fill:#000000;fill-opacity:1;fill-rule:nonzero;stroke:#000000;stroke-width:0.5;stroke-linecap:butt;stroke-linejoin:round;stroke-miterlimit:10;stroke-dasharray:none;stroke-opacity:1"
         id="path98"
         inkscape:connector-curvature="0" /><text
         transform="matrix(1,0,0,-1,508.85312,29.895)"
         style="font-variant:normal;font-weight:normal;font-size:12px;font-family:BitstreamVeraSans;-inkscape-font-specification:BitstreamVeraSans-Roman;writing-mode:lr-tb;fill:#000000;fill-opacity:1;fill-rule:nonzero;stroke:none"
         id="text100"><tspan
           x="0 7.632 11.448"
           y="0"
           sodipodi:role="line"
           id="tspan102">1.0</tspan></text>
<g
         id="g104"
         transform="translate(289.2,13.77)"><text
           transform="matrix(1,0,0,-1,0,0.703125)"
           style="font-variant:normal;font-weight:normal;font-size:12px;font-family:Cmmi10;-inkscape-font-specification:Cmmi10;writing-mode:lr-tb;fill:#000000;fill-opacity:1;fill-rule:nonzero;stroke:none"
           id="text106"><tspan
             x="0"
             y="0"
             id="tspan108">p</tspan></text>
<text
           transform="matrix(1,0,0,-1,6.0351562,-1.337625)"
           style="font-variant:normal;font-weight:normal;font-size:8.39999962px;font-family:Cmr10;-inkscape-font-specification:Cmr10;writing-mode:lr-tb;fill:#000000;fill-opacity:1;fill-rule:nonzero;stroke:none"
           id="text110"><tspan
             x="0"
             y="0"
             id="tspan112">1</tspan></text>
</g><path
         d="m 72,43.02 4,0"
         style="fill:#000000;fill-opacity:1;fill-rule:nonzero;stroke:#000000;stroke-width:0.5;stroke-linecap:butt;stroke-linejoin:round;stroke-miterlimit:10;stroke-dasharray:none;stroke-opacity:1"
         id="path114"
         inkscape:connector-curvature="0" /><path
         d="m 518.4,43.02 -4,0"
         style="fill:#000000;fill-opacity:1;fill-rule:nonzero;stroke:#000000;stroke-width:0.5;stroke-linecap:butt;stroke-linejoin:round;stroke-miterlimit:10;stroke-dasharray:none;stroke-opacity:1"
         id="path116"
         inkscape:connector-curvature="0" /><text
         transform="matrix(1,0,0,-1,48.90625,39.7075)"
         style="font-variant:normal;font-weight:normal;font-size:12px;font-family:BitstreamVeraSans;-inkscape-font-specification:BitstreamVeraSans-Roman;writing-mode:lr-tb;fill:#000000;fill-opacity:1;fill-rule:nonzero;stroke:none"
         id="text118"><tspan
           x="0 7.632 11.448"
           y="0"
           sodipodi:role="line"
           id="tspan120">0.0</tspan></text>
<path
         d="m 72,111.852 4,0"
         style="fill:#000000;fill-opacity:1;fill-rule:nonzero;stroke:#000000;stroke-width:0.5;stroke-linecap:butt;stroke-linejoin:round;stroke-miterlimit:10;stroke-dasharray:none;stroke-opacity:1"
         id="path122"
         inkscape:connector-curvature="0" /><path
         d="m 518.4,111.852 -4,0"
         style="fill:#000000;fill-opacity:1;fill-rule:nonzero;stroke:#000000;stroke-width:0.5;stroke-linecap:butt;stroke-linejoin:round;stroke-miterlimit:10;stroke-dasharray:none;stroke-opacity:1"
         id="path124"
         inkscape:connector-curvature="0" /><text
         transform="matrix(1,0,0,-1,48.90625,108.5395)"
         style="font-variant:normal;font-weight:normal;font-size:12px;font-family:BitstreamVeraSans;-inkscape-font-specification:BitstreamVeraSans-Roman;writing-mode:lr-tb;fill:#000000;fill-opacity:1;fill-rule:nonzero;stroke:none"
         id="text126"><tspan
           x="0 7.632 11.448"
           y="0"
           sodipodi:role="line"
           id="tspan128">0.2</tspan></text>
<path
         d="m 72,180.684 4,0"
         style="fill:#000000;fill-opacity:1;fill-rule:nonzero;stroke:#000000;stroke-width:0.5;stroke-linecap:butt;stroke-linejoin:round;stroke-miterlimit:10;stroke-dasharray:none;stroke-opacity:1"
         id="path130"
         inkscape:connector-curvature="0" /><path
         d="m 518.4,180.684 -4,0"
         style="fill:#000000;fill-opacity:1;fill-rule:nonzero;stroke:#000000;stroke-width:0.5;stroke-linecap:butt;stroke-linejoin:round;stroke-miterlimit:10;stroke-dasharray:none;stroke-opacity:1"
         id="path132"
         inkscape:connector-curvature="0" /><text
         transform="matrix(1,0,0,-1,48.90625,177.3715)"
         style="font-variant:normal;font-weight:normal;font-size:12px;font-family:BitstreamVeraSans;-inkscape-font-specification:BitstreamVeraSans-Roman;writing-mode:lr-tb;fill:#000000;fill-opacity:1;fill-rule:nonzero;stroke:none"
         id="text134"><tspan
           x="0 7.632 11.448"
           y="0"
           sodipodi:role="line"
           id="tspan136">0.4</tspan></text>
<path
         d="m 72,249.516 4,0"
         style="fill:#000000;fill-opacity:1;fill-rule:nonzero;stroke:#000000;stroke-width:0.5;stroke-linecap:butt;stroke-linejoin:round;stroke-miterlimit:10;stroke-dasharray:none;stroke-opacity:1"
         id="path138"
         inkscape:connector-curvature="0" /><path
         d="m 518.4,249.516 -4,0"
         style="fill:#000000;fill-opacity:1;fill-rule:nonzero;stroke:#000000;stroke-width:0.5;stroke-linecap:butt;stroke-linejoin:round;stroke-miterlimit:10;stroke-dasharray:none;stroke-opacity:1"
         id="path140"
         inkscape:connector-curvature="0" /><text
         transform="matrix(1,0,0,-1,48.90625,246.2035)"
         style="font-variant:normal;font-weight:normal;font-size:12px;font-family:BitstreamVeraSans;-inkscape-font-specification:BitstreamVeraSans-Roman;writing-mode:lr-tb;fill:#000000;fill-opacity:1;fill-rule:nonzero;stroke:none"
         id="text142"><tspan
           x="0 7.632 11.448"
           y="0"
           sodipodi:role="line"
           id="tspan144">0.6</tspan></text>
<path
         d="m 72,318.348 4,0"
         style="fill:#000000;fill-opacity:1;fill-rule:nonzero;stroke:#000000;stroke-width:0.5;stroke-linecap:butt;stroke-linejoin:round;stroke-miterlimit:10;stroke-dasharray:none;stroke-opacity:1"
         id="path146"
         inkscape:connector-curvature="0" /><path
         d="m 518.4,318.348 -4,0"
         style="fill:#000000;fill-opacity:1;fill-rule:nonzero;stroke:#000000;stroke-width:0.5;stroke-linecap:butt;stroke-linejoin:round;stroke-miterlimit:10;stroke-dasharray:none;stroke-opacity:1"
         id="path148"
         inkscape:connector-curvature="0" /><text
         transform="matrix(1,0,0,-1,48.90625,315.0355)"
         style="font-variant:normal;font-weight:normal;font-size:12px;font-family:BitstreamVeraSans;-inkscape-font-specification:BitstreamVeraSans-Roman;writing-mode:lr-tb;fill:#000000;fill-opacity:1;fill-rule:nonzero;stroke:none"
         id="text150"><tspan
           x="0 7.632 11.448"
           y="0"
           sodipodi:role="line"
           id="tspan152">0.8</tspan></text>
<path
         d="m 72,387.18 4,0"
         style="fill:#000000;fill-opacity:1;fill-rule:nonzero;stroke:#000000;stroke-width:0.5;stroke-linecap:butt;stroke-linejoin:round;stroke-miterlimit:10;stroke-dasharray:none;stroke-opacity:1"
         id="path154"
         inkscape:connector-curvature="0" /><path
         d="m 518.4,387.18 -4,0"
         style="fill:#000000;fill-opacity:1;fill-rule:nonzero;stroke:#000000;stroke-width:0.5;stroke-linecap:butt;stroke-linejoin:round;stroke-miterlimit:10;stroke-dasharray:none;stroke-opacity:1"
         id="path156"
         inkscape:connector-curvature="0" /><text
         transform="matrix(1,0,0,-1,48.90625,383.8675)"
         style="font-variant:normal;font-weight:normal;font-size:12px;font-family:BitstreamVeraSans;-inkscape-font-specification:BitstreamVeraSans-Roman;writing-mode:lr-tb;fill:#000000;fill-opacity:1;fill-rule:nonzero;stroke:none"
         id="text158"><tspan
           x="0 7.632 11.448"
           y="0"
           sodipodi:role="line"
           id="tspan160">1.0</tspan></text>
<g
         id="g162"
         transform="matrix(0,1,-1,0,40.90625,209.1)"><text
           transform="matrix(1,0,0,-1,0,0.703125)"
           style="font-variant:normal;font-weight:normal;font-size:12px;font-family:Cmmi10;-inkscape-font-specification:Cmmi10;writing-mode:lr-tb;fill:#000000;fill-opacity:1;fill-rule:nonzero;stroke:none"
           id="text164"><tspan
             x="0"
             y="0"
             id="tspan166">p</tspan></text>
<text
           transform="matrix(1,0,0,-1,6.0351562,-1.337625)"
           style="font-variant:normal;font-weight:normal;font-size:8.39999962px;font-family:Cmr10;-inkscape-font-specification:Cmr10;writing-mode:lr-tb;fill:#000000;fill-opacity:1;fill-rule:nonzero;stroke:none"
           id="text168"><tspan
             x="0"
             y="0"
             id="tspan170">2</tspan></text>
</g></g></g></svg>