<?xml version="1.0" encoding="UTF-8"?>
<!DOCTYPE svg PUBLIC "-//W3C//DTD SVG 1.1//EN"
        "http://www.w3.org/Graphics/SVG/1.1/DTD/svg11.dtd">
<svg
  xmlns="http://www.w3.org/2000/svg"
  xmlns:xlink="http://www.w3.org/1999/xlink"
  version="1.1"
  width="720pt"
  height="540pt"
  viewBox="0 0 720 540"
  >
  <rect
    x="0"
    y="0"
    width="720"
    height="540"
    stroke="none"
    fill="#FFFFFF"
    fill-opacity="1.000000"
    />
  <g
    transform="matrix(1 0 0 -1 0 540)"
    >
    <polyline
      stroke-width="1.000000e+00"
      stroke="#A000D5"
      stroke-opacity="1.000000"
      fill="none"
      points="656.98,63.00 601.37,199.17 545.75,288.14 490.14,346.15 434.50,379.24 378.89,390.00 323.27,379.24 267.66,346.15 212.02,288.14 156.41,199.17 
      100.79,63.00 "/>
    <polyline
      stroke-width="1.000000e+00"
      stroke="#FF00FF"
      stroke-opacity="1.000000"
      fill="none"
      points="656.98,63.00 629.18,151.57 601.37,218.15 573.57,271.13 545.75,313.93 517.93,348.32 490.14,375.41 462.32,395.92 434.50,410.26 406.70,418.77 
      378.89,421.60 351.09,418.77 323.27,410.26 295.45,395.92 267.66,375.41 239.84,348.32 212.02,313.93 184.22,271.13 156.41,218.15 128.61,151.57 
      100.79,63.00 "/>
    <polyline
      stroke-width="1.000000e+00"
      stroke="#FFFF00"
      stroke-opacity="1.000000"
      fill="none"
      points="656.98,63.00 638.46,130.04 619.91,182.77 601.37,226.79 582.82,264.45 564.30,296.95 545.75,325.07 527.21,349.38 508.66,370.18 490.14,387.81 
      471.59,402.44 453.05,414.22 434.50,423.27 415.98,429.69 397.43,433.51 378.89,434.79 360.34,433.51 341.82,429.69 323.27,423.27 304.73,414.22 
      286.18,402.44 267.66,387.81 249.11,370.18 230.57,349.38 212.02,325.07 193.50,296.95 174.95,264.45 156.41,226.79 137.86,182.77 119.34,130.04 
      100.79,63.00 "/>
    <polyline
      stroke-width="1.000000e+00"
      stroke="#00FF00"
      stroke-opacity="1.000000"
      fill="none"
      points="656.98,63.00 643.09,117.54 629.18,161.46 615.28,198.99 601.37,231.88 587.46,261.07 573.57,287.15 559.66,310.53 545.75,331.47 531.84,350.23 
      517.93,366.95 504.02,381.79 490.14,394.84 476.23,406.18 462.32,415.89 448.41,424.02 434.50,430.61 420.61,435.71 406.70,439.33 392.80,441.51 
      378.89,442.24 364.98,441.51 351.09,439.33 337.18,435.71 323.27,430.61 309.36,424.02 295.45,415.89 281.54,406.18 267.66,394.84 253.75,381.79 
      239.84,366.95 225.93,350.23 212.02,331.47 198.13,310.53 184.22,287.15 170.32,261.07 156.41,231.88 142.50,198.99 128.61,161.46 114.70,117.54 
      100.79,63.00 "/>
    <polyline
      stroke-width="1.000000e+00"
      stroke="#00FFFF"
      stroke-opacity="1.000000"
      fill="none"
      points="656.98,63.00 645.86,109.27 634.74,147.11 623.62,179.90 612.48,209.03 601.37,235.29 590.25,259.13 579.13,280.86 567.99,300.77 556.87,318.99 
      545.75,335.66 534.63,350.94 523.49,364.89 512.37,377.57 501.26,389.06 490.14,399.43 479.00,408.68 467.88,416.88 456.76,424.04 445.64,430.22 
      434.50,435.40 423.38,439.62 412.26,442.89 401.15,445.20 390.00,446.61 378.89,447.07 367.77,446.61 356.65,445.20 345.51,442.89 334.39,439.62 
      323.27,435.40 312.15,430.22 301.01,424.04 289.89,416.88 278.78,408.68 267.66,399.43 256.52,389.06 245.40,377.57 234.28,364.89 223.16,350.94 
      212.02,335.66 200.90,318.99 189.78,300.77 178.67,280.86 167.52,259.13 156.41,235.29 145.29,209.03 134.17,179.90 123.03,147.11 111.91,109.27 
      100.79,63.00 "/>
    <polyline
      stroke-width="1.000000e+00"
      stroke="#C8C8C8"
      stroke-opacity="1.000000"
      fill="none"
      points="656.98,63.00 647.73,103.36 638.46,136.72 629.18,165.90 619.91,192.09 610.64,215.91 601.37,237.75 592.09,257.88 582.82,276.53 573.57,293.81 
      564.30,309.87 555.02,324.79 545.75,338.67 536.48,351.55 527.21,363.48 517.93,374.51 508.66,384.71 499.41,394.09 490.14,402.68 480.86,410.48 
      471.59,417.56 462.32,423.93 453.05,429.56 443.77,434.52 434.50,438.79 425.25,442.37 415.98,445.31 406.70,447.57 397.43,449.20 388.16,450.17 
      378.89,450.50 369.61,450.17 360.34,449.20 351.09,447.57 341.82,445.31 332.54,442.37 323.27,438.79 314.00,434.52 304.73,429.56 295.45,423.93 
      286.18,417.56 276.93,410.48 267.66,402.68 258.38,394.09 249.11,384.71 239.84,374.51 230.57,363.48 221.29,351.55 212.02,338.67 202.77,324.79 
      193.50,309.87 184.22,293.81 174.95,276.53 165.68,257.88 156.41,237.75 147.13,215.91 137.86,192.09 128.61,165.90 119.34,136.72 110.06,103.36 
      100.79,63.00 "/>
    <polyline
      stroke-width="1.000000e+00"
      stroke="#A52A2A"
      stroke-opacity="1.000000"
      fill="none"
      points="656.98,63.00 649.05,98.88 641.09,128.81 633.16,155.18 625.21,178.99 617.25,200.79 609.32,220.92 601.37,239.62 593.43,257.04 585.48,273.35 
      577.52,288.64 569.59,302.97 561.64,316.42 553.71,329.05 545.75,340.92 537.80,352.06 529.86,362.47 521.91,372.25 513.96,381.37 506.02,389.87 
      498.07,397.78 490.14,405.12 482.18,411.89 474.23,418.09 466.30,423.78 458.34,428.92 450.41,433.56 442.45,437.69 434.50,441.31 426.57,444.43 
      418.61,447.07 410.68,449.22 402.73,450.91 394.77,452.10 386.84,452.80 378.89,453.05 370.95,452.80 363.00,452.10 355.05,450.91 347.11,449.22 
      339.16,447.07 331.23,444.43 323.27,441.31 315.32,437.69 307.38,433.56 299.43,428.92 291.48,423.78 283.54,418.09 275.59,411.89 267.66,405.12 
      259.70,397.78 251.75,389.87 243.82,381.37 235.86,372.25 227.93,362.47 219.97,352.06 212.02,340.92 204.09,329.05 196.13,316.42 188.20,302.97 
      180.25,288.64 172.29,273.35 164.36,257.04 156.41,239.62 148.47,220.92 140.52,200.79 132.57,178.99 124.63,155.18 116.68,128.81 108.75,98.88 
      100.79,63.00 "/>
    <polyline
      stroke-width="1.000000e+00"
      stroke="#FF0000"
      stroke-opacity="1.000000"
      fill="none"
      points="656.98,63.00 650.04,95.39 643.09,122.57 636.13,146.65 629.18,168.51 622.22,188.64 615.28,207.32 608.33,224.74 601.37,241.09 594.42,256.45 
      587.46,270.95 580.51,284.62 573.57,297.56 566.60,309.80 559.66,321.36 552.70,332.32 545.75,342.67 538.79,352.47 531.84,361.75 524.90,370.49 
      517.93,378.73 510.99,386.49 504.02,393.78 497.08,400.62 490.14,407.01 483.17,412.99 476.23,418.53 469.26,423.65 462.32,428.37 455.38,432.68 
      448.41,436.61 441.47,440.13 434.50,443.29 427.56,446.06 420.61,448.45 413.65,450.48 406.70,452.12 399.74,453.40 392.80,454.32 385.85,454.87 
      378.89,455.05 371.94,454.87 364.98,454.32 358.03,453.40 351.09,452.12 344.12,450.48 337.18,448.45 330.22,446.06 323.27,443.29 316.31,440.13 
      309.36,436.61 302.42,432.68 295.45,428.37 288.51,423.65 281.54,418.53 274.60,412.99 267.66,407.01 260.69,400.62 253.75,393.78 246.78,386.49 
      239.84,378.73 232.90,370.49 225.93,361.75 218.99,352.47 212.02,342.67 205.08,332.32 198.13,321.36 191.17,309.80 184.22,297.56 177.26,284.62 
      170.32,270.95 163.37,256.45 156.41,241.09 149.46,224.74 142.50,207.32 135.55,188.64 128.61,168.51 121.64,146.65 114.70,122.57 107.74,95.39 
      100.79,63.00 "/>
    <polyline
      stroke-width="1.000000e+00"
      stroke="#0000FF"
      stroke-opacity="1.000000"
      fill="none"
      points="656.98,63.00 650.81,92.57 644.63,117.51 638.46,139.71 632.26,159.94 626.09,178.64 619.91,196.07 613.74,212.39 607.54,227.75 601.37,242.28 
      595.19,256.03 589.02,269.06 582.82,281.46 576.65,293.23 570.47,304.42 564.30,315.10 558.10,325.25 551.93,334.92 545.75,344.10 539.58,352.87 
      533.38,361.20 527.21,369.11 521.03,376.60 514.86,383.74 508.66,390.49 502.49,396.86 496.31,402.88 490.14,408.55 483.94,413.89 477.77,418.88 
      471.59,423.54 465.42,427.89 459.22,431.91 453.05,435.60 446.87,439.01 440.70,442.08 434.50,444.87 428.33,447.35 422.15,449.55 415.98,451.44 
      409.78,453.02 403.61,454.34 397.43,455.35 391.26,456.08 385.06,456.50 378.89,456.65 372.71,456.50 366.54,456.08 360.34,455.35 354.17,454.34 
      347.99,453.02 341.82,451.44 335.62,449.55 329.45,447.35 323.27,444.87 317.10,442.08 310.90,439.01 304.73,435.60 298.55,431.91 292.38,427.89 
      286.18,423.54 280.01,418.88 273.83,413.89 267.66,408.55 261.46,402.88 255.29,396.86 249.11,390.49 242.94,383.74 236.74,376.60 230.57,369.11 
      224.39,361.20 218.22,352.87 212.02,344.10 205.85,334.92 199.67,325.25 193.50,315.10 187.30,304.42 181.13,293.23 174.95,281.46 168.78,269.06 
      162.58,256.03 156.41,242.28 150.23,227.75 144.06,212.39 137.86,196.07 131.69,178.64 125.51,159.94 119.34,139.71 113.14,117.51 106.97,92.57 
      100.79,63.00 "/>
    <polyline
      stroke-width="1.000000e+00"
      stroke="#000000"
      stroke-opacity="1.000000"
      fill="none"
      points="656.98,63.00 651.42,90.22 645.86,113.32 640.30,133.93 634.74,152.78 629.18,170.27 623.62,186.60 618.07,201.96 612.48,216.46 606.93,230.21 
      601.37,243.27 595.81,255.70 590.25,267.55 584.69,278.86 579.13,289.67 573.57,300.00 567.99,309.87 562.43,319.32 556.87,328.37 551.31,337.00 
      545.75,345.29 540.19,353.20 534.63,360.76 529.07,367.97 523.49,374.86 517.93,381.46 512.37,387.72 506.81,393.67 501.26,399.34 495.70,404.73 
      490.14,409.82 484.58,414.64 479.00,419.19 473.44,423.45 467.88,427.47 462.32,431.20 456.76,434.72 451.20,437.95 445.64,440.94 440.08,443.69 
      434.50,446.17 428.94,448.43 423.38,450.43 417.82,452.21 412.26,453.75 406.70,455.02 401.15,456.10 395.59,456.91 390.00,457.51 384.45,457.86 
      378.89,457.97 373.33,457.86 367.77,457.51 362.21,456.91 356.65,456.10 351.09,455.02 345.51,453.75 339.95,452.21 334.39,450.43 328.83,448.43 
      323.27,446.17 317.71,443.69 312.15,440.94 306.59,437.95 301.01,434.72 295.45,431.20 289.89,427.47 284.33,423.45 278.78,419.19 273.22,414.64 
      267.66,409.82 262.10,404.73 256.52,399.34 250.96,393.67 245.40,387.72 239.84,381.46 234.28,374.86 228.72,367.97 223.16,360.76 217.60,353.20 
      212.02,345.29 206.46,337.00 200.90,328.37 195.34,319.32 189.78,309.87 184.22,300.00 178.67,289.67 173.11,278.86 167.52,267.55 161.97,255.70 
      156.41,243.27 150.85,230.21 145.29,216.46 139.73,201.96 134.17,186.60 128.61,170.27 123.03,152.78 117.47,133.93 111.91,113.32 106.35,90.22 
      100.79,63.00 "/>
    <g
      clip-path="url(#text-clipping0)"
      >
      <text
        dominant-baseline="no-change"
        fill="#000000"
        fill-opacity="1.000000"
        xml:space="preserve"
        font-size="16"
        transform="matrix(1.000000 0.000000 0.000000 -1.000000 378.908048 25.203406)"
        text-anchor="middle"
        x="0.000000"
        y="6.451584"
><tspan font-family="sans-serif" font-style="normal" font-weight="normal">&#x45;&#x74;&#x6f;&#x74;&#x20;&#x3d;&#x20;&#x28;&#x2d;&#x4e;&#x31;&#x2e;&#x3b5;&#x20;&#x2b;&#x20;&#x4e;&#x32;&#x2e;&#x3b5;&#x29;&#x20;&#x2f;&#x20;&#x4e;</tspan></text>
    </g>
    <g
      clip-path="url(#text-clipping0)"
      >
      <text
        dominant-baseline="no-change"
        fill="#000000"
        fill-opacity="1.000000"
        xml:space="preserve"
        font-size="16"
        transform="matrix(0.000000 1.000000 1.000000 -0.000000 37.794122 270.008240)"
        text-anchor="middle"
        x="0.000000"
        y="6.451584"
><tspan font-family="sans-serif" font-style="normal" font-weight="normal">&#x6e;&#x6f;&#x6d;&#x62;&#x72;&#x65;&#x20;&#x64;&#x65;&#x20;&#x6d;&#x69;&#x63;&#x72;&#x6f;&#xe9;&#x74;&#x61;&#x74;&#x73;&#x3a;&#x20;&#x6c;&#x6e;&#x28;&#x3a9;&#x29;&#x2f;&#x4e;</tspan></text>
    </g>
    <g
      clip-path="url(#text-clipping0)"
      >
      <text
        dominant-baseline="no-change"
        fill="#000000"
        fill-opacity="1.000000"
        xml:space="preserve"
        font-size="16"
        transform="matrix(1.000000 0.000000 0.000000 -1.000000 650.256661 464.384289)"
        text-anchor="end"
        x="0.000000"
        y="6.451584"
><tspan font-family="sans-serif" font-style="normal" font-weight="normal">&#x4e;&#x3d;&#x31;&#x30;</tspan></text>
    </g>
    <polyline
      stroke-width="1.000000e+00"
      stroke="#A000D5"
      stroke-opacity="1.000000"
      fill="none"
      points="509.80,464.38 565.44,464.38"
      />
    <g
      clip-path="url(#text-clipping0)"
      >
      <text
        dominant-baseline="no-change"
        fill="#000000"
        fill-opacity="1.000000"
        xml:space="preserve"
        font-size="16"
        transform="matrix(1.000000 0.000000 0.000000 -1.000000 650.256661 439.180883)"
        text-anchor="end"
        x="0.000000"
        y="6.451584"
><tspan font-family="sans-serif" font-style="normal" font-weight="normal">&#x4e;&#x3d;&#x32;&#x30;</tspan></text>
    </g>
    <polyline
      stroke-width="1.000000e+00"
      stroke="#FF00FF"
      stroke-opacity="1.000000"
      fill="none"
      points="509.80,439.18 565.44,439.18"
      />
    <g
      clip-path="url(#text-clipping0)"
      >
      <text
        dominant-baseline="no-change"
        fill="#000000"
        fill-opacity="1.000000"
        xml:space="preserve"
        font-size="16"
        transform="matrix(1.000000 0.000000 0.000000 -1.000000 650.256661 413.977477)"
        text-anchor="end"
        x="0.000000"
        y="6.451584"
><tspan font-family="sans-serif" font-style="normal" font-weight="normal">&#x4e;&#x3d;&#x33;&#x30;</tspan></text>
    </g>
    <polyline
      stroke-width="1.000000e+00"
      stroke="#FFFF00"
      stroke-opacity="1.000000"
      fill="none"
      points="509.80,413.98 565.44,413.98"
      />
    <g
      clip-path="url(#text-clipping0)"
      >
      <text
        dominant-baseline="no-change"
        fill="#000000"
        fill-opacity="1.000000"
        xml:space="preserve"
        font-size="16"
        transform="matrix(1.000000 0.000000 0.000000 -1.000000 650.256661 388.796045)"
        text-anchor="end"
        x="0.000000"
        y="6.451584"
><tspan font-family="sans-serif" font-style="normal" font-weight="normal">&#x4e;&#x3d;&#x34;&#x30;</tspan></text>
    </g>
    <polyline
      stroke-width="1.000000e+00"
      stroke="#00FF00"
      stroke-opacity="1.000000"
      fill="none"
      points="509.80,388.80 565.44,388.80"
      />
    <g
      clip-path="url(#text-clipping0)"
      >
      <text
        dominant-baseline="no-change"
        fill="#000000"
        fill-opacity="1.000000"
        xml:space="preserve"
        font-size="16"
        transform="matrix(1.000000 0.000000 0.000000 -1.000000 650.256661 363.592639)"
        text-anchor="end"
        x="0.000000"
        y="6.451584"
><tspan font-family="sans-serif" font-style="normal" font-weight="normal">&#x4e;&#x3d;&#x35;&#x30;</tspan></text>
    </g>
    <polyline
      stroke-width="1.000000e+00"
      stroke="#00FFFF"
      stroke-opacity="1.000000"
      fill="none"
      points="509.80,363.59 565.44,363.59"
      />
    <g
      clip-path="url(#text-clipping0)"
      >
      <text
        dominant-baseline="no-change"
        fill="#000000"
        fill-opacity="1.000000"
        xml:space="preserve"
        font-size="16"
        transform="matrix(1.000000 0.000000 0.000000 -1.000000 650.256661 338.389233)"
        text-anchor="end"
        x="0.000000"
        y="6.451584"
><tspan font-family="sans-serif" font-style="normal" font-weight="normal">&#x4e;&#x3d;&#x36;&#x30;</tspan></text>
    </g>
    <polyline
      stroke-width="1.000000e+00"
      stroke="#C8C8C8"
      stroke-opacity="1.000000"
      fill="none"
      points="509.80,338.39 565.44,338.39"
      />
    <g
      clip-path="url(#text-clipping0)"
      >
      <text
        dominant-baseline="no-change"
        fill="#000000"
        fill-opacity="1.000000"
        xml:space="preserve"
        font-size="16"
        transform="matrix(1.000000 0.000000 0.000000 -1.000000 650.256661 313.185827)"
        text-anchor="end"
        x="0.000000"
        y="6.451584"
><tspan font-family="sans-serif" font-style="normal" font-weight="normal">&#x4e;&#x3d;&#x37;&#x30;</tspan></text>
    </g>
    <polyline
      stroke-width="1.000000e+00"
      stroke="#A52A2A"
      stroke-opacity="1.000000"
      fill="none"
      points="509.80,313.19 565.44,313.19"
      />
    <g
      clip-path="url(#text-clipping0)"
      >
      <text
        dominant-baseline="no-change"
        fill="#000000"
        fill-opacity="1.000000"
        xml:space="preserve"
        font-size="16"
        transform="matrix(1.000000 0.000000 0.000000 -1.000000 650.256661 287.982421)"
        text-anchor="end"
        x="0.000000"
        y="6.451584"
><tspan font-family="sans-serif" font-style="normal" font-weight="normal">&#x4e;&#x3d;&#x38;&#x30;</tspan></text>
    </g>
    <polyline
      stroke-width="1.000000e+00"
      stroke="#FF0000"
      stroke-opacity="1.000000"
      fill="none"
      points="509.80,287.98 565.44,287.98"
      />
    <g
      clip-path="url(#text-clipping0)"
      >
      <text
        dominant-baseline="no-change"
        fill="#000000"
        fill-opacity="1.000000"
        xml:space="preserve"
        font-size="16"
        transform="matrix(1.000000 0.000000 0.000000 -1.000000 650.256661 262.800989)"
        text-anchor="end"
        x="0.000000"
        y="6.451584"
><tspan font-family="sans-serif" font-style="normal" font-weight="normal">&#x4e;&#x3d;&#x39;&#x30;</tspan></text>
    </g>
    <polyline
      stroke-width="1.000000e+00"
      stroke="#0000FF"
      stroke-opacity="1.000000"
      fill="none"
      points="509.80,262.80 565.44,262.80"
      />
    <g
      clip-path="url(#text-clipping0)"
      >
      <text
        dominant-baseline="no-change"
        fill="#000000"
        fill-opacity="1.000000"
        xml:space="preserve"
        font-size="16"
        transform="matrix(1.000000 0.000000 0.000000 -1.000000 650.256661 237.597583)"
        text-anchor="end"
        x="0.000000"
        y="6.451584"
><tspan font-family="sans-serif" font-style="normal" font-weight="normal">&#x4e;&#x3d;&#x31;&#x30;&#x30;</tspan></text>
    </g>
    <polyline
      stroke-width="1.000000e+00"
      stroke="#000000"
      stroke-opacity="1.000000"
      fill="none"
      points="509.80,237.60 565.44,237.60"
      />
    <polyline
      stroke-width="1.000000e+00"
      stroke="#000000"
      stroke-opacity="1.000000"
      fill="none"
      points="100.79,63.00 657.00,63.00"
      />
    <polyline
      stroke-width="1.000000e+00"
      stroke="#000000"
      stroke-opacity="1.000000"
      fill="none"
      points="100.79,53.55 100.79,63.00"
      />
    <polyline
      stroke-width="1.000000e+00"
      stroke="#000000"
      stroke-opacity="1.000000"
      fill="none"
      points="128.61,58.27 128.61,63.00"
      />
    <polyline
      stroke-width="1.000000e+00"
      stroke="#000000"
      stroke-opacity="1.000000"
      fill="none"
      points="156.41,58.27 156.41,63.00"
      />
    <polyline
      stroke-width="1.000000e+00"
      stroke="#000000"
      stroke-opacity="1.000000"
      fill="none"
      points="184.22,58.27 184.22,63.00"
      />
    <polyline
      stroke-width="1.000000e+00"
      stroke="#000000"
      stroke-opacity="1.000000"
      fill="none"
      points="212.02,58.27 212.02,63.00"
      />
    <polyline
      stroke-width="1.000000e+00"
      stroke="#000000"
      stroke-opacity="1.000000"
      fill="none"
      points="239.84,53.55 239.84,63.00"
      />
    <polyline
      stroke-width="1.000000e+00"
      stroke="#000000"
      stroke-opacity="1.000000"
      fill="none"
      points="267.66,58.27 267.66,63.00"
      />
    <polyline
      stroke-width="1.000000e+00"
      stroke="#000000"
      stroke-opacity="1.000000"
      fill="none"
      points="295.45,58.27 295.45,63.00"
      />
    <polyline
      stroke-width="1.000000e+00"
      stroke="#000000"
      stroke-opacity="1.000000"
      fill="none"
      points="323.27,58.27 323.27,63.00"
      />
    <polyline
      stroke-width="1.000000e+00"
      stroke="#000000"
      stroke-opacity="1.000000"
      fill="none"
      points="351.09,58.27 351.09,63.00"
      />
    <polyline
      stroke-width="1.000000e+00"
      stroke="#000000"
      stroke-opacity="1.000000"
      fill="none"
      points="378.89,53.55 378.89,63.00"
      />
    <polyline
      stroke-width="1.000000e+00"
      stroke="#000000"
      stroke-opacity="1.000000"
      fill="none"
      points="406.70,58.27 406.70,63.00"
      />
    <polyline
      stroke-width="1.000000e+00"
      stroke="#000000"
      stroke-opacity="1.000000"
      fill="none"
      points="434.50,58.27 434.50,63.00"
      />
    <polyline
      stroke-width="1.000000e+00"
      stroke="#000000"
      stroke-opacity="1.000000"
      fill="none"
      points="462.32,58.27 462.32,63.00"
      />
    <polyline
      stroke-width="1.000000e+00"
      stroke="#000000"
      stroke-opacity="1.000000"
      fill="none"
      points="490.14,58.27 490.14,63.00"
      />
    <polyline
      stroke-width="1.000000e+00"
      stroke="#000000"
      stroke-opacity="1.000000"
      fill="none"
      points="517.93,53.55 517.93,63.00"
      />
    <polyline
      stroke-width="1.000000e+00"
      stroke="#000000"
      stroke-opacity="1.000000"
      fill="none"
      points="545.75,58.27 545.75,63.00"
      />
    <polyline
      stroke-width="1.000000e+00"
      stroke="#000000"
      stroke-opacity="1.000000"
      fill="none"
      points="573.57,58.27 573.57,63.00"
      />
    <polyline
      stroke-width="1.000000e+00"
      stroke="#000000"
      stroke-opacity="1.000000"
      fill="none"
      points="601.37,58.27 601.37,63.00"
      />
    <polyline
      stroke-width="1.000000e+00"
      stroke="#000000"
      stroke-opacity="1.000000"
      fill="none"
      points="629.18,58.27 629.18,63.00"
      />
    <polyline
      stroke-width="1.000000e+00"
      stroke="#000000"
      stroke-opacity="1.000000"
      fill="none"
      points="656.98,53.55 656.98,63.00"
      />
    <polyline
      stroke-width="1.000000e+00"
      stroke="#000000"
      stroke-opacity="1.000000"
      fill="none"
      points="657.00,63.00 657.00,477.00"
      />
    <polyline
      stroke-width="1.000000e+00"
      stroke="#000000"
      stroke-opacity="1.000000"
      fill="none"
      points="657.00,63.00 666.45,63.00"
      />
    <polyline
      stroke-width="1.000000e+00"
      stroke="#000000"
      stroke-opacity="1.000000"
      fill="none"
      points="657.00,92.57 661.73,92.57"
      />
    <polyline
      stroke-width="1.000000e+00"
      stroke="#000000"
      stroke-opacity="1.000000"
      fill="none"
      points="657.00,122.13 661.73,122.13"
      />
    <polyline
      stroke-width="1.000000e+00"
      stroke="#000000"
      stroke-opacity="1.000000"
      fill="none"
      points="657.00,151.70 661.73,151.70"
      />
    <polyline
      stroke-width="1.000000e+00"
      stroke="#000000"
      stroke-opacity="1.000000"
      fill="none"
      points="657.00,181.28 666.45,181.28"
      />
    <polyline
      stroke-width="1.000000e+00"
      stroke="#000000"
      stroke-opacity="1.000000"
      fill="none"
      points="657.00,210.86 661.73,210.86"
      />
    <polyline
      stroke-width="1.000000e+00"
      stroke="#000000"
      stroke-opacity="1.000000"
      fill="none"
      points="657.00,240.41 661.73,240.41"
      />
    <polyline
      stroke-width="1.000000e+00"
      stroke="#000000"
      stroke-opacity="1.000000"
      fill="none"
      points="657.00,269.99 661.73,269.99"
      />
    <polyline
      stroke-width="1.000000e+00"
      stroke="#000000"
      stroke-opacity="1.000000"
      fill="none"
      points="657.00,299.56 666.45,299.56"
      />
    <polyline
      stroke-width="1.000000e+00"
      stroke="#000000"
      stroke-opacity="1.000000"
      fill="none"
      points="657.00,329.14 661.73,329.14"
      />
    <polyline
      stroke-width="1.000000e+00"
      stroke="#000000"
      stroke-opacity="1.000000"
      fill="none"
      points="657.00,358.71 661.73,358.71"
      />
    <polyline
      stroke-width="1.000000e+00"
      stroke="#000000"
      stroke-opacity="1.000000"
      fill="none"
      points="657.00,388.27 661.73,388.27"
      />
    <polyline
      stroke-width="1.000000e+00"
      stroke="#000000"
      stroke-opacity="1.000000"
      fill="none"
      points="657.00,417.84 666.45,417.84"
      />
    <polyline
      stroke-width="1.000000e+00"
      stroke="#000000"
      stroke-opacity="1.000000"
      fill="none"
      points="657.00,447.42 661.73,447.42"
      />
    <polyline
      stroke-width="1.000000e+00"
      stroke="#000000"
      stroke-opacity="1.000000"
      fill="none"
      points="657.00,477.00 661.73,477.00"
      />
    <polyline
      stroke-width="1.000000e+00"
      stroke="#000000"
      stroke-opacity="1.000000"
      fill="none"
      points="657.00,477.00 100.79,477.00"
      />
    <polyline
      stroke-width="1.000000e+00"
      stroke="#000000"
      stroke-opacity="1.000000"
      fill="none"
      points="656.98,477.00 656.98,486.45"
      />
    <polyline
      stroke-width="1.000000e+00"
      stroke="#000000"
      stroke-opacity="1.000000"
      fill="none"
      points="629.18,477.00 629.18,481.72"
      />
    <polyline
      stroke-width="1.000000e+00"
      stroke="#000000"
      stroke-opacity="1.000000"
      fill="none"
      points="601.37,477.00 601.37,481.72"
      />
    <polyline
      stroke-width="1.000000e+00"
      stroke="#000000"
      stroke-opacity="1.000000"
      fill="none"
      points="573.57,477.00 573.57,481.72"
      />
    <polyline
      stroke-width="1.000000e+00"
      stroke="#000000"
      stroke-opacity="1.000000"
      fill="none"
      points="545.75,477.00 545.75,481.72"
      />
    <polyline
      stroke-width="1.000000e+00"
      stroke="#000000"
      stroke-opacity="1.000000"
      fill="none"
      points="517.93,477.00 517.93,486.45"
      />
    <polyline
      stroke-width="1.000000e+00"
      stroke="#000000"
      stroke-opacity="1.000000"
      fill="none"
      points="490.14,477.00 490.14,481.72"
      />
    <polyline
      stroke-width="1.000000e+00"
      stroke="#000000"
      stroke-opacity="1.000000"
      fill="none"
      points="462.32,477.00 462.32,481.72"
      />
    <polyline
      stroke-width="1.000000e+00"
      stroke="#000000"
      stroke-opacity="1.000000"
      fill="none"
      points="434.50,477.00 434.50,481.72"
      />
    <polyline
      stroke-width="1.000000e+00"
      stroke="#000000"
      stroke-opacity="1.000000"
      fill="none"
      points="406.70,477.00 406.70,481.72"
      />
    <polyline
      stroke-width="1.000000e+00"
      stroke="#000000"
      stroke-opacity="1.000000"
      fill="none"
      points="378.89,477.00 378.89,486.45"
      />
    <polyline
      stroke-width="1.000000e+00"
      stroke="#000000"
      stroke-opacity="1.000000"
      fill="none"
      points="351.09,477.00 351.09,481.72"
      />
    <polyline
      stroke-width="1.000000e+00"
      stroke="#000000"
      stroke-opacity="1.000000"
      fill="none"
      points="323.27,477.00 323.27,481.72"
      />
    <polyline
      stroke-width="1.000000e+00"
      stroke="#000000"
      stroke-opacity="1.000000"
      fill="none"
      points="295.45,477.00 295.45,481.72"
      />
    <polyline
      stroke-width="1.000000e+00"
      stroke="#000000"
      stroke-opacity="1.000000"
      fill="none"
      points="267.66,477.00 267.66,481.72"
      />
    <polyline
      stroke-width="1.000000e+00"
      stroke="#000000"
      stroke-opacity="1.000000"
      fill="none"
      points="239.84,477.00 239.84,486.45"
      />
    <polyline
      stroke-width="1.000000e+00"
      stroke="#000000"
      stroke-opacity="1.000000"
      fill="none"
      points="212.02,477.00 212.02,481.72"
      />
    <polyline
      stroke-width="1.000000e+00"
      stroke="#000000"
      stroke-opacity="1.000000"
      fill="none"
      points="184.22,477.00 184.22,481.72"
      />
    <polyline
      stroke-width="1.000000e+00"
      stroke="#000000"
      stroke-opacity="1.000000"
      fill="none"
      points="156.41,477.00 156.41,481.72"
      />
    <polyline
      stroke-width="1.000000e+00"
      stroke="#000000"
      stroke-opacity="1.000000"
      fill="none"
      points="128.61,477.00 128.61,481.72"
      />
    <polyline
      stroke-width="1.000000e+00"
      stroke="#000000"
      stroke-opacity="1.000000"
      fill="none"
      points="100.79,477.00 100.79,486.45"
      />
    <polyline
      stroke-width="1.000000e+00"
      stroke="#000000"
      stroke-opacity="1.000000"
      fill="none"
      points="100.79,477.00 100.79,63.00"
      />
    <polyline
      stroke-width="1.000000e+00"
      stroke="#000000"
      stroke-opacity="1.000000"
      fill="none"
      points="96.07,477.00 100.79,477.00"
      />
    <polyline
      stroke-width="1.000000e+00"
      stroke="#000000"
      stroke-opacity="1.000000"
      fill="none"
      points="96.07,447.42 100.79,447.42"
      />
    <polyline
      stroke-width="1.000000e+00"
      stroke="#000000"
      stroke-opacity="1.000000"
      fill="none"
      points="91.34,417.84 100.79,417.84"
      />
    <polyline
      stroke-width="1.000000e+00"
      stroke="#000000"
      stroke-opacity="1.000000"
      fill="none"
      points="96.07,388.27 100.79,388.27"
      />
    <polyline
      stroke-width="1.000000e+00"
      stroke="#000000"
      stroke-opacity="1.000000"
      fill="none"
      points="96.07,358.71 100.79,358.71"
      />
    <polyline
      stroke-width="1.000000e+00"
      stroke="#000000"
      stroke-opacity="1.000000"
      fill="none"
      points="96.07,329.14 100.79,329.14"
      />
    <polyline
      stroke-width="1.000000e+00"
      stroke="#000000"
      stroke-opacity="1.000000"
      fill="none"
      points="91.34,299.56 100.79,299.56"
      />
    <polyline
      stroke-width="1.000000e+00"
      stroke="#000000"
      stroke-opacity="1.000000"
      fill="none"
      points="96.07,269.99 100.79,269.99"
      />
    <polyline
      stroke-width="1.000000e+00"
      stroke="#000000"
      stroke-opacity="1.000000"
      fill="none"
      points="96.07,240.41 100.79,240.41"
      />
    <polyline
      stroke-width="1.000000e+00"
      stroke="#000000"
      stroke-opacity="1.000000"
      fill="none"
      points="96.07,210.86 100.79,210.86"
      />
    <polyline
      stroke-width="1.000000e+00"
      stroke="#000000"
      stroke-opacity="1.000000"
      fill="none"
      points="91.34,181.28 100.79,181.28"
      />
    <polyline
      stroke-width="1.000000e+00"
      stroke="#000000"
      stroke-opacity="1.000000"
      fill="none"
      points="96.07,151.70 100.79,151.70"
      />
    <polyline
      stroke-width="1.000000e+00"
      stroke="#000000"
      stroke-opacity="1.000000"
      fill="none"
      points="96.07,122.13 100.79,122.13"
      />
    <polyline
      stroke-width="1.000000e+00"
      stroke="#000000"
      stroke-opacity="1.000000"
      fill="none"
      points="96.07,92.57 100.79,92.57"
      />
    <polyline
      stroke-width="1.000000e+00"
      stroke="#000000"
      stroke-opacity="1.000000"
      fill="none"
      points="91.34,63.00 100.79,63.00"
      />
    <g
      clip-path="url(#text-clipping0)"
      >
      <text
        dominant-baseline="no-change"
        fill="#000000"
        fill-opacity="1.000000"
        xml:space="preserve"
        font-size="16"
        transform="matrix(1.000000 0.000000 0.000000 -1.000000 100.813623 40.958281)"
        text-anchor="middle"
        x="0.000000"
        y="6.451584"
><tspan font-family="sans-serif" font-style="normal" font-weight="normal">&#x2d;&#x31;&#x2e;&#x30;</tspan></text>
    </g>
    <g
      clip-path="url(#text-clipping0)"
      >
      <text
        dominant-baseline="no-change"
        fill="#000000"
        fill-opacity="1.000000"
        xml:space="preserve"
        font-size="16"
        transform="matrix(1.000000 0.000000 0.000000 -1.000000 239.860836 40.958281)"
        text-anchor="middle"
        x="0.000000"
        y="6.451584"
><tspan font-family="sans-serif" font-style="normal" font-weight="normal">&#x2d;&#x30;&#x2e;&#x35;</tspan></text>
    </g>
    <g
      clip-path="url(#text-clipping0)"
      >
      <text
        dominant-baseline="no-change"
        fill="#000000"
        fill-opacity="1.000000"
        xml:space="preserve"
        font-size="16"
        transform="matrix(1.000000 0.000000 0.000000 -1.000000 378.908048 40.958281)"
        text-anchor="middle"
        x="0.000000"
        y="6.451584"
><tspan font-family="sans-serif" font-style="normal" font-weight="normal">&#x30;&#x2e;&#x30;</tspan></text>
    </g>
    <g
      clip-path="url(#text-clipping0)"
      >
      <text
        dominant-baseline="no-change"
        fill="#000000"
        fill-opacity="1.000000"
        xml:space="preserve"
        font-size="16"
        transform="matrix(1.000000 0.000000 0.000000 -1.000000 517.955260 40.958281)"
        text-anchor="middle"
        x="0.000000"
        y="6.451584"
><tspan font-family="sans-serif" font-style="normal" font-weight="normal">&#x30;&#x2e;&#x35;</tspan></text>
    </g>
    <g
      clip-path="url(#text-clipping0)"
      >
      <text
        dominant-baseline="no-change"
        fill="#000000"
        fill-opacity="1.000000"
        xml:space="preserve"
        font-size="16"
        transform="matrix(1.000000 0.000000 0.000000 -1.000000 657.002472 40.958281)"
        text-anchor="middle"
        x="0.000000"
        y="6.451584"
><tspan font-family="sans-serif" font-style="normal" font-weight="normal">&#x31;&#x2e;&#x30;</tspan></text>
    </g>
    <g
      clip-path="url(#text-clipping0)"
      >
      <text
        dominant-baseline="no-change"
        fill="#000000"
        fill-opacity="1.000000"
        xml:space="preserve"
        font-size="16"
        transform="matrix(1.000000 0.000000 0.000000 -1.000000 88.200934 62.997528)"
        text-anchor="end"
        x="0.000000"
        y="6.451584"
><tspan font-family="sans-serif" font-style="normal" font-weight="normal">&#x30;&#x2e;&#x30;</tspan></text>
    </g>
    <g
      clip-path="url(#text-clipping0)"
      >
      <text
        dominant-baseline="no-change"
        fill="#000000"
        fill-opacity="1.000000"
        xml:space="preserve"
        font-size="16"
        transform="matrix(1.000000 0.000000 0.000000 -1.000000 88.200934 181.279946)"
        text-anchor="end"
        x="0.000000"
        y="6.451584"
><tspan font-family="sans-serif" font-style="normal" font-weight="normal">&#x30;&#x2e;&#x32;</tspan></text>
    </g>
    <g
      clip-path="url(#text-clipping0)"
      >
      <text
        dominant-baseline="no-change"
        fill="#000000"
        fill-opacity="1.000000"
        xml:space="preserve"
        font-size="16"
        transform="matrix(1.000000 0.000000 0.000000 -1.000000 88.200934 299.562365)"
        text-anchor="end"
        x="0.000000"
        y="6.451584"
><tspan font-family="sans-serif" font-style="normal" font-weight="normal">&#x30;&#x2e;&#x34;</tspan></text>
    </g>
    <g
      clip-path="url(#text-clipping0)"
      >
      <text
        dominant-baseline="no-change"
        fill="#000000"
        fill-opacity="1.000000"
        xml:space="preserve"
        font-size="16"
        transform="matrix(1.000000 0.000000 0.000000 -1.000000 88.200934 417.844783)"
        text-anchor="end"
        x="0.000000"
        y="6.451584"
><tspan font-family="sans-serif" font-style="normal" font-weight="normal">&#x30;&#x2e;&#x36;</tspan></text>
    </g>
  </g>
</svg>
