<?xml version="1.0" encoding="UTF-8"?>
<!DOCTYPE svg PUBLIC "-//W3C//DTD SVG 1.1//EN"
        "http://www.w3.org/Graphics/SVG/1.1/DTD/svg11.dtd">
<svg
  xmlns="http://www.w3.org/2000/svg"
  xmlns:xlink="http://www.w3.org/1999/xlink"
  version="1.1"
  width="720pt"
  height="540pt"
  viewBox="0 0 720 540"
  >
  <rect
    x="0"
    y="0"
    width="720"
    height="540"
    stroke="none"
    fill="#FFFFFF"
    fill-opacity="1.000000"
    />
  <g
    transform="matrix(1 0 0 -1 0 540)"
    >
    <polyline
      stroke-width="1.000000e+00"
      stroke="#0000FF"
      stroke-opacity="1.000000"
      fill="none"
      points="656.98,269.94 656.43,269.92 655.88,269.92 655.31,269.92 654.76,269.92 654.21,269.92 653.66,269.90 653.09,269.90 652.54,269.90 651.99,269.90 
      651.42,269.90 650.87,269.90 650.32,269.90 649.75,269.90 649.20,269.90 648.65,269.90 648.08,269.90 647.53,269.90 646.98,269.88 646.41,269.88 
      645.86,269.88 645.31,269.88 644.76,269.88 644.19,269.88 643.64,269.88 643.09,269.88 642.52,269.88 641.97,269.88 641.42,269.88 640.85,269.88 
      640.30,269.88 639.75,269.88 639.18,269.88 638.63,269.88 638.08,269.88 637.51,269.88 636.96,269.85 636.41,269.85 635.86,269.85 635.29,269.85 
      634.74,269.85 634.19,269.85 633.62,269.85 633.07,269.85 632.52,269.85 631.95,269.85 631.40,269.85 630.85,269.85 630.28,269.85 629.73,269.85 
      629.18,269.85 628.61,269.85 628.06,269.85 627.51,269.85 626.96,269.85 626.39,269.85 625.84,269.85 625.29,269.85 624.72,269.83 624.17,269.83 
      623.62,269.83 623.05,269.83 622.50,269.83 621.96,269.83 621.38,269.83 620.83,269.83 620.29,269.83 619.71,269.83 619.16,269.83 618.62,269.83 
      618.07,269.83 617.49,269.83 616.95,269.83 616.40,269.83 615.82,269.83 615.28,269.83 614.73,269.83 614.15,269.83 613.61,269.83 613.06,269.83 
      612.48,269.83 611.94,269.81 611.39,269.81 610.81,269.81 610.27,269.81 609.72,269.81 609.17,269.81 608.60,269.81 608.05,269.81 607.50,269.81 
      606.93,269.81 606.38,269.81 605.83,269.81 605.26,269.81 604.71,269.81 604.16,269.81 603.59,269.81 603.04,269.81 602.49,269.81 601.92,269.81 
      601.37,269.81 600.82,269.81 600.27,269.81 599.70,269.81 599.15,269.79 598.60,269.79 598.03,269.79 597.48,269.79 596.93,269.79 596.36,269.79 
      595.81,269.79 595.26,269.79 594.69,269.79 594.14,269.79 593.59,269.79 593.02,269.79 592.47,269.79 591.92,269.79 591.37,269.79 590.80,269.79 
      590.25,269.79 589.70,269.79 589.13,269.79 588.58,269.79 588.03,269.79 587.46,269.79 586.91,269.77 586.36,269.77 585.79,269.77 585.24,269.77 
      584.69,269.77 584.12,269.77 583.57,269.77 583.02,269.77 582.47,269.77 581.90,269.77 581.35,269.77 580.80,269.77 580.23,269.77 579.68,269.77 
      579.13,269.77 578.56,269.77 578.01,269.77 577.46,269.77 576.89,269.77 576.34,269.77 575.79,269.77 575.22,269.77 574.67,269.74 574.12,269.74 
      573.57,269.74 573.00,269.74 572.45,269.74 571.90,269.74 571.33,269.74 570.78,269.74 570.23,269.74 569.66,269.74 569.11,269.74 568.56,269.74 
      567.99,269.74 567.44,269.74 566.89,269.74 566.32,269.74 565.77,269.74 565.22,269.74 564.67,269.74 564.10,269.72 563.55,269.72 563.00,269.72 
      562.43,269.72 561.88,269.72 561.33,269.72 560.76,269.72 560.21,269.72 559.66,269.72 559.09,269.72 558.54,269.72 557.99,269.72 557.42,269.72 
      556.87,269.72 556.32,269.72 555.77,269.72 555.20,269.72 554.65,269.72 554.10,269.72 553.53,269.70 552.98,269.70 552.43,269.70 551.86,269.70 
      551.31,269.70 550.76,269.70 550.19,269.70 549.64,269.70 549.09,269.70 548.52,269.70 547.97,269.70 547.42,269.70 546.87,269.70 546.30,269.70 
      545.75,269.70 545.20,269.70 544.63,269.70 544.08,269.68 543.53,269.68 542.96,269.68 542.41,269.68 541.86,269.68 541.29,269.68 540.74,269.68 
      540.19,269.68 539.62,269.68 539.07,269.68 538.52,269.68 537.97,269.68 537.40,269.68 536.85,269.68 536.30,269.68 535.73,269.66 535.18,269.66 
      534.63,269.66 534.06,269.66 533.51,269.66 532.96,269.66 532.39,269.66 531.84,269.66 531.29,269.66 530.72,269.66 530.17,269.66 529.62,269.66 
      529.07,269.66 528.50,269.66 527.95,269.63 527.40,269.63 526.83,269.63 526.28,269.63 525.73,269.63 525.16,269.63 524.61,269.63 524.06,269.63 
      523.49,269.63 522.94,269.63 522.39,269.63 521.82,269.63 521.27,269.63 520.72,269.61 520.17,269.61 519.60,269.61 519.05,269.61 518.50,269.61 
      517.93,269.61 517.38,269.61 516.83,269.61 516.26,269.61 515.71,269.61 515.16,269.61 "/>
    <polyline
      stroke-width="1.000000e+00"
      stroke="#0000FF"
      stroke-opacity="1.000000"
      fill="none"
      points="515.16,269.61 514.59,269.61 514.04,269.59 513.49,269.59 512.92,269.59 512.37,269.59 511.82,269.59 511.28,269.59 510.70,269.59 510.15,269.59 
      509.61,269.59 509.03,269.59 508.48,269.59 507.94,269.57 507.36,269.57 506.81,269.57 506.27,269.57 505.69,269.57 505.14,269.57 504.60,269.57 
      504.02,269.57 503.47,269.57 502.93,269.57 502.38,269.55 501.80,269.55 501.26,269.55 500.71,269.55 500.13,269.55 499.59,269.55 499.04,269.55 
      498.46,269.55 497.92,269.55 497.37,269.52 496.79,269.52 496.25,269.52 495.70,269.52 495.12,269.52 494.58,269.52 494.03,269.52 493.48,269.52 
      492.91,269.52 492.36,269.50 491.81,269.50 491.24,269.50 490.69,269.50 490.14,269.50 489.57,269.50 489.02,269.50 488.47,269.50 487.90,269.48 
      487.35,269.48 486.80,269.48 486.23,269.48 485.68,269.48 485.13,269.48 484.58,269.48 484.01,269.46 483.46,269.46 482.91,269.46 482.34,269.46 
      481.79,269.46 481.24,269.46 480.67,269.46 480.12,269.44 479.57,269.44 479.00,269.44 478.45,269.44 477.90,269.44 477.33,269.44 476.78,269.44 
      476.23,269.41 475.68,269.41 475.11,269.41 474.56,269.41 474.01,269.41 473.44,269.41 472.89,269.39 472.34,269.39 471.77,269.39 471.22,269.39 
      470.67,269.39 470.10,269.39 469.55,269.37 469.00,269.37 468.43,269.37 467.88,269.37 467.33,269.37 466.78,269.35 466.21,269.35 465.66,269.35 
      465.11,269.35 464.54,269.35 463.99,269.33 463.44,269.33 462.87,269.33 462.32,269.33 461.77,269.31 461.20,269.31 460.65,269.31 460.10,269.31 
      459.53,269.31 458.98,269.28 458.43,269.28 457.88,269.28 457.31,269.28 456.76,269.26 456.21,269.26 455.64,269.26 455.09,269.26 454.54,269.24 
      453.97,269.24 453.42,269.24 452.87,269.24 452.30,269.22 451.75,269.22 451.20,269.22 450.63,269.20 450.08,269.20 449.53,269.20 448.98,269.20 
      448.41,269.17 447.86,269.17 447.31,269.17 446.74,269.15 446.19,269.15 445.64,269.15 445.07,269.13 444.52,269.13 443.97,269.13 443.40,269.11 
      442.85,269.11 442.30,269.09 441.73,269.09 441.18,269.09 440.63,269.06 440.08,269.06 439.51,269.06 438.96,269.04 438.41,269.04 437.84,269.02 
      437.29,269.02 436.74,269.00 436.17,269.00 435.62,268.98 435.07,268.98 434.50,268.98 433.95,268.95 433.40,268.95 432.83,268.93 432.28,268.93 
      431.73,268.91 431.18,268.89 430.61,268.89 430.06,268.87 429.51,268.87 428.94,268.84 428.39,268.84 427.84,268.82 427.27,268.80 426.72,268.80 
      426.17,268.78 425.60,268.76 425.05,268.76 424.50,268.73 423.93,268.71 423.38,268.71 422.83,268.69 422.28,268.67 421.71,268.65 421.16,268.62 
      420.61,268.62 420.04,268.60 419.49,268.58 418.94,268.56 418.37,268.54 417.82,268.51 417.27,268.49 416.70,268.47 416.15,268.45 415.60,268.43 
      415.03,268.40 414.48,268.36 413.93,268.34 413.38,268.32 412.81,268.29 412.26,268.25 411.71,268.23 411.14,268.21 410.59,268.16 410.04,268.14 
      409.47,268.10 408.92,268.07 408.37,268.03 407.80,267.99 407.25,267.94 406.70,267.90 406.13,267.85 405.58,267.81 405.03,267.77 404.49,267.72 
      403.91,267.68 403.36,267.61 402.82,267.57 402.24,267.50 401.69,267.44 401.15,267.37 400.57,267.31 400.02,267.24 399.48,267.15 398.90,267.09 
      398.35,267.00 397.81,266.91 397.23,266.82 396.68,266.71 396.14,266.60 395.59,266.49 395.01,266.36 394.47,266.23 393.92,266.10 393.34,265.94 
      392.80,265.77 392.25,265.59 391.67,265.39 391.13,265.17 390.58,264.95 390.00,264.69 389.46,264.41 388.91,264.08 388.33,263.72 387.79,263.31 
      387.24,262.87 386.69,262.32 386.12,261.72 385.57,261.00 385.02,260.14 384.45,259.11 383.90,257.81 383.35,256.19 382.78,254.08 382.23,251.18 
      381.68,247.00 381.11,240.43 380.56,228.59 380.01,200.99 379.44,63.00 378.89,477.00 378.34,338.98 377.79,311.38 377.22,299.56 376.67,292.99 
      376.12,288.82 375.55,285.92 375.00,283.79 374.45,282.16 373.88,280.89 373.33,279.85 "/>
    <polyline
      stroke-width="1.000000e+00"
      stroke="#0000FF"
      stroke-opacity="1.000000"
      fill="none"
      points="373.33,279.85 372.78,279.00 372.21,278.27 371.66,277.65 371.11,277.13 370.54,276.67 369.99,276.27 369.44,275.90 368.89,275.59 368.32,275.30 
      367.77,275.04 367.22,274.80 366.65,274.58 366.10,274.40 365.55,274.21 364.98,274.05 364.43,273.90 363.88,273.74 363.31,273.61 362.76,273.50 
      362.21,273.37 361.64,273.28 361.09,273.17 360.54,273.08 359.99,273.00 359.42,272.91 358.87,272.82 358.32,272.75 357.75,272.67 357.20,272.60 
      356.65,272.54 356.08,272.47 355.53,272.43 354.98,272.36 354.41,272.32 353.86,272.25 353.31,272.21 352.74,272.16 352.19,272.12 351.64,272.07 
      351.09,272.03 350.52,271.99 349.97,271.96 349.42,271.92 348.85,271.88 348.30,271.85 347.75,271.81 347.18,271.79 346.63,271.74 346.08,271.72 
      345.51,271.70 344.96,271.66 344.41,271.63 343.84,271.61 343.29,271.59 342.74,271.57 342.19,271.55 341.62,271.52 341.07,271.50 340.52,271.48 
      339.95,271.46 339.40,271.44 338.85,271.41 338.28,271.39 337.73,271.37 337.18,271.35 336.61,271.33 336.06,271.33 335.51,271.30 334.94,271.28 
      334.39,271.26 333.84,271.26 333.29,271.24 332.72,271.22 332.17,271.19 331.62,271.19 331.05,271.17 330.50,271.17 329.95,271.15 329.38,271.13 
      328.83,271.13 328.28,271.11 327.71,271.11 327.16,271.08 326.61,271.06 326.04,271.06 325.49,271.04 324.94,271.04 324.39,271.02 323.82,271.02 
      323.27,271.00 322.72,271.00 322.15,271.00 321.60,270.98 321.05,270.98 320.48,270.95 319.93,270.95 319.38,270.93 318.81,270.93 318.26,270.93 
      317.71,270.91 317.14,270.91 316.59,270.89 316.04,270.89 315.49,270.89 314.92,270.87 314.37,270.87 313.82,270.87 313.25,270.84 312.70,270.84 
      312.15,270.84 311.58,270.82 311.03,270.82 310.48,270.82 309.91,270.80 309.36,270.80 308.81,270.80 308.24,270.78 307.69,270.78 307.14,270.78 
      306.59,270.78 306.02,270.76 305.47,270.76 304.92,270.76 304.35,270.73 303.80,270.73 303.25,270.73 302.68,270.73 302.13,270.71 301.58,270.71 
      301.01,270.71 300.46,270.71 299.91,270.69 299.34,270.69 298.79,270.69 298.24,270.69 297.69,270.67 297.12,270.67 296.57,270.67 296.02,270.67 
      295.45,270.67 294.90,270.65 294.35,270.65 293.78,270.65 293.23,270.65 292.68,270.65 292.11,270.62 291.56,270.62 291.01,270.62 290.44,270.62 
      289.89,270.62 289.34,270.60 288.80,270.60 288.22,270.60 287.67,270.60 287.13,270.60 286.55,270.58 286.00,270.58 285.46,270.58 284.88,270.58 
      284.33,270.58 283.79,270.58 283.21,270.56 282.66,270.56 282.12,270.56 281.54,270.56 280.99,270.56 280.45,270.56 279.90,270.54 279.32,270.54 
      278.78,270.54 278.23,270.54 277.65,270.54 277.11,270.54 276.56,270.54 275.98,270.51 275.44,270.51 274.89,270.51 274.32,270.51 273.77,270.51 
      273.22,270.51 272.65,270.51 272.10,270.49 271.55,270.49 271.00,270.49 270.43,270.49 269.88,270.49 269.33,270.49 268.76,270.49 268.21,270.49 
      267.66,270.47 267.09,270.47 266.54,270.47 265.99,270.47 265.42,270.47 264.87,270.47 264.32,270.47 263.75,270.47 263.20,270.45 262.65,270.45 
      262.10,270.45 261.53,270.45 260.98,270.45 260.43,270.45 259.86,270.45 259.31,270.45 258.76,270.45 258.19,270.43 257.64,270.43 257.09,270.43 
      256.52,270.43 255.97,270.43 255.42,270.43 254.85,270.43 254.30,270.43 253.75,270.43 253.20,270.43 252.63,270.40 252.08,270.40 251.53,270.40 
      250.96,270.40 250.41,270.40 249.86,270.40 249.29,270.40 248.74,270.40 248.19,270.40 247.62,270.40 247.07,270.38 246.52,270.38 245.95,270.38 
      245.40,270.38 244.85,270.38 244.30,270.38 243.73,270.38 243.18,270.38 242.63,270.38 242.06,270.38 241.51,270.38 240.96,270.38 240.39,270.36 
      239.84,270.36 239.29,270.36 238.72,270.36 238.17,270.36 237.62,270.36 237.05,270.36 236.50,270.36 235.95,270.36 235.40,270.36 234.83,270.36 
      234.28,270.36 233.73,270.34 233.16,270.34 232.61,270.34 232.06,270.34 231.49,270.34 "/>
    <polyline
      stroke-width="1.000000e+00"
      stroke="#0000FF"
      stroke-opacity="1.000000"
      fill="none"
      points="231.49,270.34 230.94,270.34 230.39,270.34 229.82,270.34 229.27,270.34 228.72,270.34 228.15,270.34 227.60,270.34 227.05,270.34 226.50,270.34 
      225.93,270.32 225.38,270.32 224.83,270.32 224.26,270.32 223.71,270.32 223.16,270.32 222.59,270.32 222.04,270.32 221.49,270.32 220.92,270.32 
      220.37,270.32 219.82,270.32 219.25,270.32 218.70,270.32 218.15,270.32 217.60,270.29 217.03,270.29 216.48,270.29 215.93,270.29 215.36,270.29 
      214.81,270.29 214.26,270.29 213.69,270.29 213.14,270.29 212.59,270.29 212.02,270.29 211.47,270.29 210.92,270.29 210.35,270.29 209.80,270.29 
      209.25,270.29 208.70,270.27 208.13,270.27 207.58,270.27 207.03,270.27 206.46,270.27 205.91,270.27 205.36,270.27 204.79,270.27 204.24,270.27 
      203.69,270.27 203.12,270.27 202.57,270.27 202.02,270.27 201.45,270.27 200.90,270.27 200.35,270.27 199.80,270.27 199.23,270.25 198.68,270.25 
      198.13,270.25 197.56,270.25 197.01,270.25 196.46,270.25 195.89,270.25 195.34,270.25 194.79,270.25 194.22,270.25 193.67,270.25 193.12,270.25 
      192.55,270.25 192.00,270.25 191.45,270.25 190.90,270.25 190.33,270.25 189.78,270.25 189.23,270.25 188.66,270.23 188.11,270.23 187.56,270.23 
      186.99,270.23 186.44,270.23 185.89,270.23 185.32,270.23 184.77,270.23 184.22,270.23 183.65,270.23 183.10,270.23 182.55,270.23 182.01,270.23 
      181.43,270.23 180.88,270.23 180.34,270.23 179.76,270.23 179.21,270.23 178.67,270.23 178.09,270.23 177.54,270.23 177.00,270.21 176.42,270.21 
      175.87,270.21 175.33,270.21 174.75,270.21 174.20,270.21 173.66,270.21 173.11,270.21 172.53,270.21 171.99,270.21 171.44,270.21 170.86,270.21 
      170.32,270.21 169.77,270.21 169.19,270.21 168.65,270.21 168.10,270.21 167.52,270.21 166.98,270.21 166.43,270.21 165.85,270.21 165.31,270.21 
      164.76,270.18 164.21,270.18 163.64,270.18 163.09,270.18 162.54,270.18 161.97,270.18 161.42,270.18 160.87,270.18 160.30,270.18 159.75,270.18 
      159.20,270.18 158.63,270.18 158.08,270.18 157.53,270.18 156.96,270.18 156.41,270.18 155.86,270.18 155.31,270.18 154.74,270.18 154.19,270.18 
      153.64,270.18 153.07,270.18 152.52,270.18 151.97,270.16 151.40,270.16 150.85,270.16 150.30,270.16 149.73,270.16 149.18,270.16 148.63,270.16 
      148.06,270.16 147.51,270.16 146.96,270.16 146.41,270.16 145.84,270.16 145.29,270.16 144.74,270.16 144.17,270.16 143.62,270.16 143.07,270.16 
      142.50,270.16 141.95,270.16 141.40,270.16 140.83,270.16 140.28,270.16 139.73,270.16 139.16,270.14 138.61,270.14 138.06,270.14 137.51,270.14 
      136.94,270.14 136.39,270.14 135.84,270.14 135.27,270.14 134.72,270.14 134.17,270.14 133.60,270.14 133.05,270.14 132.50,270.14 131.93,270.14 
      131.38,270.14 130.83,270.14 130.26,270.14 129.71,270.14 129.16,270.14 128.61,270.14 128.04,270.14 127.49,270.14 126.94,270.14 126.37,270.12 
      125.82,270.12 125.27,270.12 124.70,270.12 124.15,270.12 123.60,270.12 123.03,270.12 122.48,270.12 121.93,270.12 121.36,270.12 120.81,270.12 
      120.26,270.12 119.71,270.12 119.14,270.12 118.59,270.12 118.04,270.12 117.47,270.12 116.92,270.12 116.37,270.12 115.80,270.12 115.25,270.10 
      114.70,270.10 114.13,270.10 113.58,270.10 113.03,270.10 112.46,270.10 111.91,270.10 111.36,270.10 110.81,270.10 110.24,270.10 109.69,270.10 
      109.14,270.10 108.57,270.10 108.02,270.10 107.47,270.10 106.90,270.07 106.35,270.07 105.80,270.07 105.23,270.07 104.68,270.07 104.13,270.07 
      103.56,270.07 103.01,270.07 102.46,270.05 101.91,270.05 101.34,270.05 "/>
    <g
      clip-path="url(#text-clipping0)"
      >
      <text
        dominant-baseline="no-change"
        fill="#000000"
        fill-opacity="1.000000"
        xml:space="preserve"
        font-size="16"
        transform="matrix(1.000000 0.000000 0.000000 -1.000000 378.908048 25.203406)"
        text-anchor="middle"
        x="0.000000"
        y="6.451584"
><tspan font-family="sans-serif" font-style="normal" font-weight="normal">&#x45;&#x28;&#x74;&#x6f;&#x74;&#x29;&#x3d;&#x28;&#x2d;&#x4e;&#x31;&#x2e;&#x3b5;&#x20;&#x2b;&#x20;&#x4e;&#x32;&#x2e;&#x3b5;&#x29;&#x20;&#x2f;&#x20;&#x4e;</tspan></text>
    </g>
    <g
      clip-path="url(#text-clipping0)"
      >
      <text
        dominant-baseline="no-change"
        fill="#000000"
        fill-opacity="1.000000"
        xml:space="preserve"
        font-size="16"
        transform="matrix(0.000000 1.000000 1.000000 -0.000000 37.794122 270.008240)"
        text-anchor="middle"
        x="0.000000"
        y="6.451584"
><tspan font-family="sans-serif" font-style="normal" font-weight="normal">&#x54;</tspan></text>
    </g>
    <polyline
      stroke-width="1.000000e+00"
      stroke="#000000"
      stroke-opacity="1.000000"
      fill="none"
      points="100.79,63.00 657.00,63.00"
      />
    <polyline
      stroke-width="1.000000e+00"
      stroke="#000000"
      stroke-opacity="1.000000"
      fill="none"
      points="100.79,53.55 100.79,63.00"
      />
    <polyline
      stroke-width="1.000000e+00"
      stroke="#000000"
      stroke-opacity="1.000000"
      fill="none"
      points="128.61,58.27 128.61,63.00"
      />
    <polyline
      stroke-width="1.000000e+00"
      stroke="#000000"
      stroke-opacity="1.000000"
      fill="none"
      points="156.41,58.27 156.41,63.00"
      />
    <polyline
      stroke-width="1.000000e+00"
      stroke="#000000"
      stroke-opacity="1.000000"
      fill="none"
      points="184.22,58.27 184.22,63.00"
      />
    <polyline
      stroke-width="1.000000e+00"
      stroke="#000000"
      stroke-opacity="1.000000"
      fill="none"
      points="212.02,58.27 212.02,63.00"
      />
    <polyline
      stroke-width="1.000000e+00"
      stroke="#000000"
      stroke-opacity="1.000000"
      fill="none"
      points="239.84,53.55 239.84,63.00"
      />
    <polyline
      stroke-width="1.000000e+00"
      stroke="#000000"
      stroke-opacity="1.000000"
      fill="none"
      points="267.66,58.27 267.66,63.00"
      />
    <polyline
      stroke-width="1.000000e+00"
      stroke="#000000"
      stroke-opacity="1.000000"
      fill="none"
      points="295.45,58.27 295.45,63.00"
      />
    <polyline
      stroke-width="1.000000e+00"
      stroke="#000000"
      stroke-opacity="1.000000"
      fill="none"
      points="323.27,58.27 323.27,63.00"
      />
    <polyline
      stroke-width="1.000000e+00"
      stroke="#000000"
      stroke-opacity="1.000000"
      fill="none"
      points="351.09,58.27 351.09,63.00"
      />
    <polyline
      stroke-width="1.000000e+00"
      stroke="#000000"
      stroke-opacity="1.000000"
      fill="none"
      points="378.89,53.55 378.89,63.00"
      />
    <polyline
      stroke-width="1.000000e+00"
      stroke="#000000"
      stroke-opacity="1.000000"
      fill="none"
      points="406.70,58.27 406.70,63.00"
      />
    <polyline
      stroke-width="1.000000e+00"
      stroke="#000000"
      stroke-opacity="1.000000"
      fill="none"
      points="434.50,58.27 434.50,63.00"
      />
    <polyline
      stroke-width="1.000000e+00"
      stroke="#000000"
      stroke-opacity="1.000000"
      fill="none"
      points="462.32,58.27 462.32,63.00"
      />
    <polyline
      stroke-width="1.000000e+00"
      stroke="#000000"
      stroke-opacity="1.000000"
      fill="none"
      points="490.14,58.27 490.14,63.00"
      />
    <polyline
      stroke-width="1.000000e+00"
      stroke="#000000"
      stroke-opacity="1.000000"
      fill="none"
      points="517.93,53.55 517.93,63.00"
      />
    <polyline
      stroke-width="1.000000e+00"
      stroke="#000000"
      stroke-opacity="1.000000"
      fill="none"
      points="545.75,58.27 545.75,63.00"
      />
    <polyline
      stroke-width="1.000000e+00"
      stroke="#000000"
      stroke-opacity="1.000000"
      fill="none"
      points="573.57,58.27 573.57,63.00"
      />
    <polyline
      stroke-width="1.000000e+00"
      stroke="#000000"
      stroke-opacity="1.000000"
      fill="none"
      points="601.37,58.27 601.37,63.00"
      />
    <polyline
      stroke-width="1.000000e+00"
      stroke="#000000"
      stroke-opacity="1.000000"
      fill="none"
      points="629.18,58.27 629.18,63.00"
      />
    <polyline
      stroke-width="1.000000e+00"
      stroke="#000000"
      stroke-opacity="1.000000"
      fill="none"
      points="656.98,53.55 656.98,63.00"
      />
    <polyline
      stroke-width="1.000000e+00"
      stroke="#000000"
      stroke-opacity="1.000000"
      fill="none"
      points="657.00,63.00 657.00,477.00"
      />
    <polyline
      stroke-width="1.000000e+00"
      stroke="#000000"
      stroke-opacity="1.000000"
      fill="none"
      points="657.00,63.20 666.45,63.20"
      />
    <polyline
      stroke-width="1.000000e+00"
      stroke="#000000"
      stroke-opacity="1.000000"
      fill="none"
      points="657.00,83.87 661.73,83.87"
      />
    <polyline
      stroke-width="1.000000e+00"
      stroke="#000000"
      stroke-opacity="1.000000"
      fill="none"
      points="657.00,104.57 661.73,104.57"
      />
    <polyline
      stroke-width="1.000000e+00"
      stroke="#000000"
      stroke-opacity="1.000000"
      fill="none"
      points="657.00,125.25 661.73,125.25"
      />
    <polyline
      stroke-width="1.000000e+00"
      stroke="#000000"
      stroke-opacity="1.000000"
      fill="none"
      points="657.00,145.92 661.73,145.92"
      />
    <polyline
      stroke-width="1.000000e+00"
      stroke="#000000"
      stroke-opacity="1.000000"
      fill="none"
      points="657.00,166.60 666.45,166.60"
      />
    <polyline
      stroke-width="1.000000e+00"
      stroke="#000000"
      stroke-opacity="1.000000"
      fill="none"
      points="657.00,187.28 661.73,187.28"
      />
    <polyline
      stroke-width="1.000000e+00"
      stroke="#000000"
      stroke-opacity="1.000000"
      fill="none"
      points="657.00,207.96 661.73,207.96"
      />
    <polyline
      stroke-width="1.000000e+00"
      stroke="#000000"
      stroke-opacity="1.000000"
      fill="none"
      points="657.00,228.63 661.73,228.63"
      />
    <polyline
      stroke-width="1.000000e+00"
      stroke="#000000"
      stroke-opacity="1.000000"
      fill="none"
      points="657.00,249.31 661.73,249.31"
      />
    <polyline
      stroke-width="1.000000e+00"
      stroke="#000000"
      stroke-opacity="1.000000"
      fill="none"
      points="657.00,269.99 666.45,269.99"
      />
    <polyline
      stroke-width="1.000000e+00"
      stroke="#000000"
      stroke-opacity="1.000000"
      fill="none"
      points="657.00,290.66 661.73,290.66"
      />
    <polyline
      stroke-width="1.000000e+00"
      stroke="#000000"
      stroke-opacity="1.000000"
      fill="none"
      points="657.00,311.34 661.73,311.34"
      />
    <polyline
      stroke-width="1.000000e+00"
      stroke="#000000"
      stroke-opacity="1.000000"
      fill="none"
      points="657.00,332.04 661.73,332.04"
      />
    <polyline
      stroke-width="1.000000e+00"
      stroke="#000000"
      stroke-opacity="1.000000"
      fill="none"
      points="657.00,352.72 661.73,352.72"
      />
    <polyline
      stroke-width="1.000000e+00"
      stroke="#000000"
      stroke-opacity="1.000000"
      fill="none"
      points="657.00,373.39 666.45,373.39"
      />
    <polyline
      stroke-width="1.000000e+00"
      stroke="#000000"
      stroke-opacity="1.000000"
      fill="none"
      points="657.00,394.07 661.73,394.07"
      />
    <polyline
      stroke-width="1.000000e+00"
      stroke="#000000"
      stroke-opacity="1.000000"
      fill="none"
      points="657.00,414.75 661.73,414.75"
      />
    <polyline
      stroke-width="1.000000e+00"
      stroke="#000000"
      stroke-opacity="1.000000"
      fill="none"
      points="657.00,435.42 661.73,435.42"
      />
    <polyline
      stroke-width="1.000000e+00"
      stroke="#000000"
      stroke-opacity="1.000000"
      fill="none"
      points="657.00,456.10 661.73,456.10"
      />
    <polyline
      stroke-width="1.000000e+00"
      stroke="#000000"
      stroke-opacity="1.000000"
      fill="none"
      points="657.00,476.78 666.45,476.78"
      />
    <polyline
      stroke-width="1.000000e+00"
      stroke="#000000"
      stroke-opacity="1.000000"
      fill="none"
      points="657.00,477.00 100.79,477.00"
      />
    <polyline
      stroke-width="1.000000e+00"
      stroke="#000000"
      stroke-opacity="1.000000"
      fill="none"
      points="656.98,477.00 656.98,486.45"
      />
    <polyline
      stroke-width="1.000000e+00"
      stroke="#000000"
      stroke-opacity="1.000000"
      fill="none"
      points="629.18,477.00 629.18,481.72"
      />
    <polyline
      stroke-width="1.000000e+00"
      stroke="#000000"
      stroke-opacity="1.000000"
      fill="none"
      points="601.37,477.00 601.37,481.72"
      />
    <polyline
      stroke-width="1.000000e+00"
      stroke="#000000"
      stroke-opacity="1.000000"
      fill="none"
      points="573.57,477.00 573.57,481.72"
      />
    <polyline
      stroke-width="1.000000e+00"
      stroke="#000000"
      stroke-opacity="1.000000"
      fill="none"
      points="545.75,477.00 545.75,481.72"
      />
    <polyline
      stroke-width="1.000000e+00"
      stroke="#000000"
      stroke-opacity="1.000000"
      fill="none"
      points="517.93,477.00 517.93,486.45"
      />
    <polyline
      stroke-width="1.000000e+00"
      stroke="#000000"
      stroke-opacity="1.000000"
      fill="none"
      points="490.14,477.00 490.14,481.72"
      />
    <polyline
      stroke-width="1.000000e+00"
      stroke="#000000"
      stroke-opacity="1.000000"
      fill="none"
      points="462.32,477.00 462.32,481.72"
      />
    <polyline
      stroke-width="1.000000e+00"
      stroke="#000000"
      stroke-opacity="1.000000"
      fill="none"
      points="434.50,477.00 434.50,481.72"
      />
    <polyline
      stroke-width="1.000000e+00"
      stroke="#000000"
      stroke-opacity="1.000000"
      fill="none"
      points="406.70,477.00 406.70,481.72"
      />
    <polyline
      stroke-width="1.000000e+00"
      stroke="#000000"
      stroke-opacity="1.000000"
      fill="none"
      points="378.89,477.00 378.89,486.45"
      />
    <polyline
      stroke-width="1.000000e+00"
      stroke="#000000"
      stroke-opacity="1.000000"
      fill="none"
      points="351.09,477.00 351.09,481.72"
      />
    <polyline
      stroke-width="1.000000e+00"
      stroke="#000000"
      stroke-opacity="1.000000"
      fill="none"
      points="323.27,477.00 323.27,481.72"
      />
    <polyline
      stroke-width="1.000000e+00"
      stroke="#000000"
      stroke-opacity="1.000000"
      fill="none"
      points="295.45,477.00 295.45,481.72"
      />
    <polyline
      stroke-width="1.000000e+00"
      stroke="#000000"
      stroke-opacity="1.000000"
      fill="none"
      points="267.66,477.00 267.66,481.72"
      />
    <polyline
      stroke-width="1.000000e+00"
      stroke="#000000"
      stroke-opacity="1.000000"
      fill="none"
      points="239.84,477.00 239.84,486.45"
      />
    <polyline
      stroke-width="1.000000e+00"
      stroke="#000000"
      stroke-opacity="1.000000"
      fill="none"
      points="212.02,477.00 212.02,481.72"
      />
    <polyline
      stroke-width="1.000000e+00"
      stroke="#000000"
      stroke-opacity="1.000000"
      fill="none"
      points="184.22,477.00 184.22,481.72"
      />
    <polyline
      stroke-width="1.000000e+00"
      stroke="#000000"
      stroke-opacity="1.000000"
      fill="none"
      points="156.41,477.00 156.41,481.72"
      />
    <polyline
      stroke-width="1.000000e+00"
      stroke="#000000"
      stroke-opacity="1.000000"
      fill="none"
      points="128.61,477.00 128.61,481.72"
      />
    <polyline
      stroke-width="1.000000e+00"
      stroke="#000000"
      stroke-opacity="1.000000"
      fill="none"
      points="100.79,477.00 100.79,486.45"
      />
    <polyline
      stroke-width="1.000000e+00"
      stroke="#000000"
      stroke-opacity="1.000000"
      fill="none"
      points="100.79,477.00 100.79,63.00"
      />
    <polyline
      stroke-width="1.000000e+00"
      stroke="#000000"
      stroke-opacity="1.000000"
      fill="none"
      points="91.34,476.78 100.79,476.78"
      />
    <polyline
      stroke-width="1.000000e+00"
      stroke="#000000"
      stroke-opacity="1.000000"
      fill="none"
      points="96.07,456.10 100.79,456.10"
      />
    <polyline
      stroke-width="1.000000e+00"
      stroke="#000000"
      stroke-opacity="1.000000"
      fill="none"
      points="96.07,435.42 100.79,435.42"
      />
    <polyline
      stroke-width="1.000000e+00"
      stroke="#000000"
      stroke-opacity="1.000000"
      fill="none"
      points="96.07,414.75 100.79,414.75"
      />
    <polyline
      stroke-width="1.000000e+00"
      stroke="#000000"
      stroke-opacity="1.000000"
      fill="none"
      points="96.07,394.07 100.79,394.07"
      />
    <polyline
      stroke-width="1.000000e+00"
      stroke="#000000"
      stroke-opacity="1.000000"
      fill="none"
      points="91.34,373.39 100.79,373.39"
      />
    <polyline
      stroke-width="1.000000e+00"
      stroke="#000000"
      stroke-opacity="1.000000"
      fill="none"
      points="96.07,352.72 100.79,352.72"
      />
    <polyline
      stroke-width="1.000000e+00"
      stroke="#000000"
      stroke-opacity="1.000000"
      fill="none"
      points="96.07,332.04 100.79,332.04"
      />
    <polyline
      stroke-width="1.000000e+00"
      stroke="#000000"
      stroke-opacity="1.000000"
      fill="none"
      points="96.07,311.34 100.79,311.34"
      />
    <polyline
      stroke-width="1.000000e+00"
      stroke="#000000"
      stroke-opacity="1.000000"
      fill="none"
      points="96.07,290.66 100.79,290.66"
      />
    <polyline
      stroke-width="1.000000e+00"
      stroke="#000000"
      stroke-opacity="1.000000"
      fill="none"
      points="91.34,269.99 100.79,269.99"
      />
    <polyline
      stroke-width="1.000000e+00"
      stroke="#000000"
      stroke-opacity="1.000000"
      fill="none"
      points="96.07,249.31 100.79,249.31"
      />
    <polyline
      stroke-width="1.000000e+00"
      stroke="#000000"
      stroke-opacity="1.000000"
      fill="none"
      points="96.07,228.63 100.79,228.63"
      />
    <polyline
      stroke-width="1.000000e+00"
      stroke="#000000"
      stroke-opacity="1.000000"
      fill="none"
      points="96.07,207.96 100.79,207.96"
      />
    <polyline
      stroke-width="1.000000e+00"
      stroke="#000000"
      stroke-opacity="1.000000"
      fill="none"
      points="96.07,187.28 100.79,187.28"
      />
    <polyline
      stroke-width="1.000000e+00"
      stroke="#000000"
      stroke-opacity="1.000000"
      fill="none"
      points="91.34,166.60 100.79,166.60"
      />
    <polyline
      stroke-width="1.000000e+00"
      stroke="#000000"
      stroke-opacity="1.000000"
      fill="none"
      points="96.07,145.92 100.79,145.92"
      />
    <polyline
      stroke-width="1.000000e+00"
      stroke="#000000"
      stroke-opacity="1.000000"
      fill="none"
      points="96.07,125.25 100.79,125.25"
      />
    <polyline
      stroke-width="1.000000e+00"
      stroke="#000000"
      stroke-opacity="1.000000"
      fill="none"
      points="96.07,104.57 100.79,104.57"
      />
    <polyline
      stroke-width="1.000000e+00"
      stroke="#000000"
      stroke-opacity="1.000000"
      fill="none"
      points="96.07,83.87 100.79,83.87"
      />
    <polyline
      stroke-width="1.000000e+00"
      stroke="#000000"
      stroke-opacity="1.000000"
      fill="none"
      points="91.34,63.20 100.79,63.20"
      />
    <g
      clip-path="url(#text-clipping0)"
      >
      <text
        dominant-baseline="no-change"
        fill="#000000"
        fill-opacity="1.000000"
        xml:space="preserve"
        font-size="16"
        transform="matrix(1.000000 0.000000 0.000000 -1.000000 100.813623 40.958281)"
        text-anchor="middle"
        x="0.000000"
        y="6.451584"
><tspan font-family="sans-serif" font-style="normal" font-weight="normal">&#x2d;&#x31;&#x2e;&#x30;</tspan></text>
    </g>
    <g
      clip-path="url(#text-clipping0)"
      >
      <text
        dominant-baseline="no-change"
        fill="#000000"
        fill-opacity="1.000000"
        xml:space="preserve"
        font-size="16"
        transform="matrix(1.000000 0.000000 0.000000 -1.000000 239.860836 40.958281)"
        text-anchor="middle"
        x="0.000000"
        y="6.451584"
><tspan font-family="sans-serif" font-style="normal" font-weight="normal">&#x2d;&#x30;&#x2e;&#x35;</tspan></text>
    </g>
    <g
      clip-path="url(#text-clipping0)"
      >
      <text
        dominant-baseline="no-change"
        fill="#000000"
        fill-opacity="1.000000"
        xml:space="preserve"
        font-size="16"
        transform="matrix(1.000000 0.000000 0.000000 -1.000000 378.908048 40.958281)"
        text-anchor="middle"
        x="0.000000"
        y="6.451584"
><tspan font-family="sans-serif" font-style="normal" font-weight="normal">&#x30;&#x2e;&#x30;</tspan></text>
    </g>
    <g
      clip-path="url(#text-clipping0)"
      >
      <text
        dominant-baseline="no-change"
        fill="#000000"
        fill-opacity="1.000000"
        xml:space="preserve"
        font-size="16"
        transform="matrix(1.000000 0.000000 0.000000 -1.000000 517.955260 40.958281)"
        text-anchor="middle"
        x="0.000000"
        y="6.451584"
><tspan font-family="sans-serif" font-style="normal" font-weight="normal">&#x30;&#x2e;&#x35;</tspan></text>
    </g>
    <g
      clip-path="url(#text-clipping0)"
      >
      <text
        dominant-baseline="no-change"
        fill="#000000"
        fill-opacity="1.000000"
        xml:space="preserve"
        font-size="16"
        transform="matrix(1.000000 0.000000 0.000000 -1.000000 657.002472 40.958281)"
        text-anchor="middle"
        x="0.000000"
        y="6.451584"
><tspan font-family="sans-serif" font-style="normal" font-weight="normal">&#x31;&#x2e;&#x30;</tspan></text>
    </g>
    <g
      clip-path="url(#text-clipping0)"
      >
      <text
        dominant-baseline="no-change"
        fill="#000000"
        fill-opacity="1.000000"
        xml:space="preserve"
        font-size="16"
        transform="matrix(1.000000 0.000000 0.000000 -1.000000 88.200934 63.217261)"
        text-anchor="end"
        x="0.000000"
        y="6.451584"
><tspan font-family="sans-serif" font-style="normal" font-weight="normal">&#x2d;&#x31;&#x2e;&#x30;</tspan></text>
    </g>
    <g
      clip-path="url(#text-clipping0)"
      >
      <text
        dominant-baseline="no-change"
        fill="#000000"
        fill-opacity="1.000000"
        xml:space="preserve"
        font-size="16"
        transform="matrix(1.000000 0.000000 0.000000 -1.000000 88.200934 166.601764)"
        text-anchor="end"
        x="0.000000"
        y="6.451584"
><tspan font-family="sans-serif" font-style="normal" font-weight="normal">&#x2d;&#x30;&#x2e;&#x35;</tspan></text>
    </g>
    <g
      clip-path="url(#text-clipping0)"
      >
      <text
        dominant-baseline="no-change"
        fill="#000000"
        fill-opacity="1.000000"
        xml:space="preserve"
        font-size="16"
        transform="matrix(1.000000 0.000000 0.000000 -1.000000 88.200934 270.008240)"
        text-anchor="end"
        x="0.000000"
        y="6.451584"
><tspan font-family="sans-serif" font-style="normal" font-weight="normal">&#x30;&#x2e;&#x30;</tspan></text>
    </g>
    <g
      clip-path="url(#text-clipping0)"
      >
      <text
        dominant-baseline="no-change"
        fill="#000000"
        fill-opacity="1.000000"
        xml:space="preserve"
        font-size="16"
        transform="matrix(1.000000 0.000000 0.000000 -1.000000 88.200934 373.392743)"
        text-anchor="end"
        x="0.000000"
        y="6.451584"
><tspan font-family="sans-serif" font-style="normal" font-weight="normal">&#x30;&#x2e;&#x35;</tspan></text>
    </g>
    <g
      clip-path="url(#text-clipping0)"
      >
      <text
        dominant-baseline="no-change"
        fill="#000000"
        fill-opacity="1.000000"
        xml:space="preserve"
        font-size="16"
        transform="matrix(1.000000 0.000000 0.000000 -1.000000 88.200934 476.777245)"
        text-anchor="end"
        x="0.000000"
        y="6.451584"
><tspan font-family="sans-serif" font-style="normal" font-weight="normal">&#x31;&#x2e;&#x30;</tspan></text>
    </g>
  </g>
</svg>
