<?xml version="1.0" encoding="UTF-8"?>
<!DOCTYPE svg PUBLIC "-//W3C//DTD SVG 1.1//EN"
        "http://www.w3.org/Graphics/SVG/1.1/DTD/svg11.dtd">
<svg
  xmlns="http://www.w3.org/2000/svg"
  xmlns:xlink="http://www.w3.org/1999/xlink"
  version="1.1"
  width="720pt"
  height="540pt"
  viewBox="0 0 720 540"
  >
  <rect
    x="0"
    y="0"
    width="720"
    height="540"
    stroke="none"
    fill="#FFFFFF"
    fill-opacity="1.000000"
    />
  <g
    transform="matrix(1 0 0 -1 0 540)"
    >
    <polyline
      stroke-width="1.000000e+00"
      stroke="#0000FF"
      stroke-opacity="1.000000"
      fill="none"
      points="656.98,63.00 656.43,83.81 655.88,95.98 655.31,104.64 654.76,111.34 654.21,116.83 653.66,121.49 653.09,125.51 652.54,129.07 651.99,132.26 
      651.42,135.16 650.87,137.79 650.32,140.21 649.75,142.48 649.20,144.56 648.65,146.54 648.08,148.39 647.53,150.12 646.98,151.77 646.41,153.33 
      645.86,154.82 645.31,156.25 644.76,157.61 644.19,158.93 643.64,160.19 643.09,161.39 642.52,162.54 641.97,163.66 641.42,164.76 640.85,165.79 
      640.30,166.82 639.75,167.79 639.18,168.76 638.63,169.68 638.08,170.58 637.51,171.44 636.96,172.29 636.41,173.13 635.86,173.94 635.29,174.73 
      634.74,175.50 634.19,176.25 633.62,177.00 633.07,177.70 632.52,178.42 631.95,179.10 631.40,179.79 630.85,180.44 630.28,181.08 629.73,181.72 
      629.18,182.36 628.61,182.97 628.06,183.57 627.51,184.16 626.96,184.75 626.39,185.32 625.84,185.87 625.29,186.42 624.72,186.97 624.17,187.50 
      623.62,188.03 623.05,188.55 622.50,189.06 621.96,189.56 621.38,190.07 620.83,190.55 620.29,191.04 619.71,191.52 619.16,191.98 618.62,192.44 
      618.07,192.90 617.49,193.37 616.95,193.80 616.40,194.24 615.82,194.68 615.28,195.10 614.73,195.54 614.15,195.96 613.61,196.35 613.06,196.77 
      612.48,197.17 611.94,197.58 611.39,197.98 610.81,198.38 610.27,198.75 609.72,199.14 609.17,199.52 608.60,199.89 608.05,200.26 607.50,200.64 
      606.93,200.99 606.38,201.36 605.83,201.72 605.26,202.07 604.71,202.42 604.16,202.77 603.59,203.10 603.04,203.45 602.49,203.78 601.92,204.11 
      601.37,204.44 600.82,204.77 600.27,205.10 599.70,205.43 599.15,205.74 598.60,206.07 598.03,206.37 597.48,206.68 596.93,207.01 596.36,207.32 
      595.81,207.60 595.26,207.91 594.69,208.22 594.14,208.50 593.59,208.81 593.02,209.10 592.47,209.38 591.92,209.69 591.37,209.98 590.80,210.26 
      590.25,210.53 589.70,210.81 589.13,211.10 588.58,211.36 588.03,211.65 587.46,211.91 586.91,212.20 586.36,212.46 585.79,212.72 585.24,212.99 
      584.69,213.25 584.12,213.51 583.57,213.78 583.02,214.04 582.47,214.31 581.90,214.55 581.35,214.81 580.80,215.05 580.23,215.32 579.68,215.56 
      579.13,215.80 578.56,216.06 578.01,216.31 577.46,216.55 576.89,216.79 576.34,217.03 575.79,217.27 575.22,217.51 574.67,217.73 574.12,217.98 
      573.57,218.22 573.00,218.44 572.45,218.68 571.90,218.90 571.33,219.14 570.78,219.36 570.23,219.60 569.66,219.82 569.11,220.04 568.56,220.26 
      567.99,220.48 567.44,220.70 566.89,220.92 566.32,221.14 565.77,221.36 565.22,221.58 564.67,221.80 564.10,222.02 563.55,222.24 563.00,222.44 
      562.43,222.66 561.88,222.85 561.33,223.07 560.76,223.29 560.21,223.49 559.66,223.69 559.09,223.91 558.54,224.11 557.99,224.30 557.42,224.52 
      556.87,224.72 556.32,224.92 555.77,225.12 555.20,225.31 554.65,225.51 554.10,225.71 553.53,225.91 552.98,226.11 552.43,226.30 551.86,226.50 
      551.31,226.70 550.76,226.90 550.19,227.09 549.64,227.27 549.09,227.47 548.52,227.67 547.97,227.84 547.42,228.04 546.87,228.21 546.30,228.41 
      545.75,228.61 545.20,228.79 544.63,228.96 544.08,229.16 543.53,229.34 542.96,229.53 542.41,229.71 541.86,229.88 541.29,230.06 540.74,230.26 
      540.19,230.43 539.62,230.61 539.07,230.79 538.52,230.96 537.97,231.14 537.40,231.31 536.85,231.51 536.30,231.69 535.73,231.86 535.18,232.02 
      534.63,232.19 534.06,232.37 533.51,232.54 532.96,232.72 532.39,232.90 531.84,233.07 531.29,233.22 530.72,233.40 530.17,233.58 529.62,233.75 
      529.07,233.91 528.50,234.08 527.95,234.26 527.40,234.41 526.83,234.59 526.28,234.74 525.73,234.92 525.16,235.09 524.61,235.25 524.06,235.42 
      523.49,235.58 522.94,235.73 522.39,235.91 521.82,236.06 521.27,236.24 520.72,236.39 520.17,236.54 519.60,236.72 519.05,236.87 518.50,237.03 
      517.93,237.18 517.38,237.36 516.83,237.51 516.26,237.66 515.71,237.82 515.16,237.99 "/>
    <polyline
      stroke-width="1.000000e+00"
      stroke="#0000FF"
      stroke-opacity="1.000000"
      fill="none"
      points="515.16,237.99 514.59,238.15 514.04,238.30 513.49,238.45 512.92,238.61 512.37,238.76 511.82,238.92 511.28,239.07 510.70,239.22 510.15,239.38 
      509.61,239.53 509.03,239.69 508.48,239.84 507.94,239.99 507.36,240.15 506.81,240.30 506.27,240.45 505.69,240.61 505.14,240.76 504.60,240.89 
      504.02,241.05 503.47,241.20 502.93,241.36 502.38,241.51 501.80,241.64 501.26,241.79 500.71,241.95 500.13,242.10 499.59,242.23 499.04,242.39 
      498.46,242.54 497.92,242.67 497.37,242.83 496.79,242.98 496.25,243.11 495.70,243.27 495.12,243.40 494.58,243.55 494.03,243.71 493.48,243.84 
      492.91,243.99 492.36,244.12 491.81,244.28 491.24,244.41 490.69,244.56 490.14,244.69 489.57,244.85 489.02,244.98 488.47,245.13 487.90,245.27 
      487.35,245.42 486.80,245.55 486.23,245.68 485.68,245.84 485.13,245.97 484.58,246.10 484.01,246.26 483.46,246.39 482.91,246.54 482.34,246.67 
      481.79,246.80 481.24,246.94 480.67,247.09 480.12,247.22 479.57,247.35 479.00,247.51 478.45,247.64 477.90,247.77 477.33,247.90 476.78,248.06 
      476.23,248.19 475.68,248.32 475.11,248.45 474.56,248.58 474.01,248.72 473.44,248.87 472.89,249.00 472.34,249.13 471.77,249.27 471.22,249.40 
      470.67,249.53 470.10,249.66 469.55,249.79 469.00,249.95 468.43,250.08 467.88,250.21 467.33,250.34 466.78,250.47 466.21,250.61 465.66,250.74 
      465.11,250.87 464.54,251.00 463.99,251.13 463.44,251.26 462.87,251.40 462.32,251.53 461.77,251.66 461.20,251.79 460.65,251.92 460.10,252.06 
      459.53,252.19 458.98,252.32 458.43,252.45 457.88,252.58 457.31,252.69 456.76,252.83 456.21,252.96 455.64,253.09 455.09,253.22 454.54,253.35 
      453.97,253.48 453.42,253.62 452.87,253.75 452.30,253.86 451.75,253.99 451.20,254.12 450.63,254.25 450.08,254.39 449.53,254.52 448.98,254.63 
      448.41,254.76 447.86,254.89 447.31,255.02 446.74,255.15 446.19,255.26 445.64,255.40 445.07,255.53 444.52,255.66 443.97,255.79 443.40,255.90 
      442.85,256.03 442.30,256.17 441.73,256.30 441.18,256.41 440.63,256.54 440.08,256.67 439.51,256.78 438.96,256.91 438.41,257.04 437.84,257.18 
      437.29,257.29 436.74,257.42 436.17,257.55 435.62,257.66 435.07,257.79 434.50,257.92 433.95,258.03 433.40,258.16 432.83,258.30 432.28,258.41 
      431.73,258.54 431.18,258.67 430.61,258.78 430.06,258.91 429.51,259.04 428.94,259.15 428.39,259.29 427.84,259.40 427.27,259.53 426.72,259.66 
      426.17,259.77 425.60,259.90 425.05,260.03 424.50,260.14 423.93,260.27 423.38,260.38 422.83,260.52 422.28,260.63 421.71,260.76 421.16,260.89 
      420.61,261.00 420.04,261.13 419.49,261.24 418.94,261.37 418.37,261.48 417.82,261.61 417.27,261.75 416.70,261.86 416.15,261.99 415.60,262.10 
      415.03,262.23 414.48,262.34 413.93,262.47 413.38,262.58 412.81,262.71 412.26,262.82 411.71,262.95 411.14,263.09 410.59,263.20 410.04,263.33 
      409.47,263.44 408.92,263.57 408.37,263.68 407.80,263.81 407.25,263.92 406.70,264.05 406.13,264.16 405.58,264.30 405.03,264.41 404.49,264.54 
      403.91,264.65 403.36,264.78 402.82,264.89 402.24,265.02 401.69,265.13 401.15,265.26 400.57,265.37 400.02,265.50 399.48,265.61 398.90,265.72 
      398.35,265.86 397.81,265.97 397.23,266.10 396.68,266.21 396.14,266.34 395.59,266.45 395.01,266.58 394.47,266.69 393.92,266.82 393.34,266.93 
      392.80,267.06 392.25,267.17 391.67,267.31 391.13,267.42 390.58,267.53 390.00,267.66 389.46,267.77 388.91,267.90 388.33,268.01 387.79,268.14 
      387.24,268.25 386.69,268.38 386.12,268.49 385.57,268.62 385.02,268.73 384.45,268.84 383.90,268.98 383.35,269.09 382.78,269.22 382.23,269.33 
      381.68,269.46 381.11,269.57 380.56,269.70 380.01,269.81 379.44,269.94 378.89,270.05 378.34,270.16 377.79,270.29 377.22,270.40 376.67,270.54 
      376.12,270.65 375.55,270.78 375.00,270.89 374.45,271.02 373.88,271.13 373.33,271.24 "/>
    <polyline
      stroke-width="1.000000e+00"
      stroke="#0000FF"
      stroke-opacity="1.000000"
      fill="none"
      points="373.33,271.24 372.78,271.37 372.21,271.48 371.66,271.61 371.11,271.72 370.54,271.85 369.99,271.96 369.44,272.10 368.89,272.21 368.32,272.34 
      367.77,272.45 367.22,272.56 366.65,272.69 366.10,272.80 365.55,272.93 364.98,273.04 364.43,273.17 363.88,273.28 363.31,273.41 362.76,273.52 
      362.21,273.66 361.64,273.77 361.09,273.90 360.54,274.01 359.99,274.14 359.42,274.25 358.87,274.38 358.32,274.49 357.75,274.60 357.20,274.73 
      356.65,274.84 356.08,274.97 355.53,275.08 354.98,275.22 354.41,275.33 353.86,275.46 353.31,275.57 352.74,275.70 352.19,275.81 351.64,275.94 
      351.09,276.05 350.52,276.18 349.97,276.29 349.42,276.42 348.85,276.53 348.30,276.67 347.75,276.78 347.18,276.91 346.63,277.04 346.08,277.15 
      345.51,277.28 344.96,277.39 344.41,277.52 343.84,277.63 343.29,277.76 342.74,277.87 342.19,278.01 341.62,278.12 341.07,278.25 340.52,278.36 
      339.95,278.49 339.40,278.62 338.85,278.73 338.28,278.86 337.73,278.97 337.18,279.11 336.61,279.22 336.06,279.35 335.51,279.48 334.94,279.59 
      334.39,279.72 333.84,279.83 333.29,279.96 332.72,280.09 332.17,280.20 331.62,280.34 331.05,280.45 330.50,280.58 329.95,280.71 329.38,280.82 
      328.83,280.95 328.28,281.08 327.71,281.19 327.16,281.32 326.61,281.43 326.04,281.57 325.49,281.70 324.94,281.81 324.39,281.94 323.82,282.07 
      323.27,282.18 322.72,282.31 322.15,282.45 321.60,282.58 321.05,282.69 320.48,282.82 319.93,282.95 319.38,283.06 318.81,283.19 318.26,283.32 
      317.71,283.46 317.14,283.57 316.59,283.70 316.04,283.83 315.49,283.94 314.92,284.07 314.37,284.20 313.82,284.33 313.25,284.47 312.70,284.58 
      312.15,284.71 311.58,284.84 311.03,284.97 310.48,285.08 309.91,285.21 309.36,285.35 308.81,285.48 308.24,285.61 307.69,285.74 307.14,285.85 
      306.59,285.98 306.02,286.11 305.47,286.25 304.92,286.38 304.35,286.51 303.80,286.64 303.25,286.75 302.68,286.88 302.13,287.02 301.58,287.15 
      301.01,287.28 300.46,287.41 299.91,287.54 299.34,287.67 298.79,287.81 298.24,287.94 297.69,288.07 297.12,288.20 296.57,288.33 296.02,288.47 
      295.45,288.60 294.90,288.73 294.35,288.86 293.78,288.99 293.23,289.13 292.68,289.26 292.11,289.39 291.56,289.52 291.01,289.65 290.44,289.78 
      289.89,289.92 289.34,290.05 288.80,290.18 288.22,290.31 287.67,290.44 287.13,290.58 286.55,290.71 286.00,290.86 285.46,290.99 284.88,291.12 
      284.33,291.26 283.79,291.39 283.21,291.52 282.66,291.67 282.12,291.81 281.54,291.94 280.99,292.07 280.45,292.20 279.90,292.36 279.32,292.49 
      278.78,292.62 278.23,292.75 277.65,292.90 277.11,293.04 276.56,293.17 275.98,293.32 275.44,293.45 274.89,293.59 274.32,293.74 273.77,293.87 
      273.22,294.00 272.65,294.16 272.10,294.29 271.55,294.44 271.00,294.57 270.43,294.71 269.88,294.86 269.33,294.99 268.76,295.15 268.21,295.28 
      267.66,295.43 267.09,295.56 266.54,295.72 265.99,295.85 265.42,296.00 264.87,296.13 264.32,296.29 263.75,296.42 263.20,296.57 262.65,296.73 
      262.10,296.86 261.53,297.01 260.98,297.17 260.43,297.30 259.86,297.45 259.31,297.61 258.76,297.74 258.19,297.89 257.64,298.05 257.09,298.18 
      256.52,298.33 255.97,298.49 255.42,298.64 254.85,298.77 254.30,298.93 253.75,299.08 253.20,299.23 252.63,299.39 252.08,299.54 251.53,299.69 
      250.96,299.85 250.41,299.98 249.86,300.13 249.29,300.29 248.74,300.44 248.19,300.60 247.62,300.75 247.07,300.90 246.52,301.06 245.95,301.21 
      245.40,301.39 244.85,301.54 244.30,301.69 243.73,301.85 243.18,302.00 242.63,302.16 242.06,302.31 241.51,302.48 240.96,302.64 240.39,302.79 
      239.84,302.95 239.29,303.12 238.72,303.28 238.17,303.43 237.62,303.61 237.05,303.76 236.50,303.91 235.95,304.09 235.40,304.24 234.83,304.42 
      234.28,304.57 233.73,304.73 233.16,304.90 232.61,305.08 232.06,305.23 231.49,305.41 "/>
    <polyline
      stroke-width="1.000000e+00"
      stroke="#0000FF"
      stroke-opacity="1.000000"
      fill="none"
      points="231.49,305.41 230.94,305.56 230.39,305.74 229.82,305.89 229.27,306.07 228.72,306.24 228.15,306.42 227.60,306.57 227.05,306.75 226.50,306.92 
      225.93,307.10 225.38,307.25 224.83,307.43 224.26,307.60 223.71,307.78 223.16,307.96 222.59,308.13 222.04,308.31 221.49,308.48 220.92,308.66 
      220.37,308.84 219.82,309.01 219.25,309.19 218.70,309.36 218.15,309.56 217.60,309.74 217.03,309.91 216.48,310.09 215.93,310.29 215.36,310.46 
      214.81,310.64 214.26,310.83 213.69,311.01 213.14,311.21 212.59,311.38 212.02,311.56 211.47,311.76 210.92,311.96 210.35,312.13 209.80,312.33 
      209.25,312.53 208.70,312.70 208.13,312.90 207.58,313.10 207.03,313.30 206.46,313.47 205.91,313.67 205.36,313.87 204.79,314.06 204.24,314.26 
      203.69,314.46 203.12,314.66 202.57,314.86 202.02,315.05 201.45,315.27 200.90,315.47 200.35,315.67 199.80,315.87 199.23,316.09 198.68,316.28 
      198.13,316.50 197.56,316.70 197.01,316.90 196.46,317.12 195.89,317.34 195.34,317.54 194.79,317.76 194.22,317.98 193.67,318.17 193.12,318.39 
      192.55,318.61 192.00,318.83 191.45,319.05 190.90,319.27 190.33,319.49 189.78,319.71 189.23,319.93 188.66,320.17 188.11,320.39 187.56,320.61 
      186.99,320.85 186.44,321.07 185.89,321.32 185.32,321.54 184.77,321.78 184.22,322.00 183.65,322.24 183.10,322.48 182.55,322.72 182.01,322.96 
      181.43,323.21 180.88,323.45 180.34,323.69 179.76,323.93 179.21,324.17 178.67,324.41 178.09,324.68 177.54,324.92 177.00,325.18 176.42,325.42 
      175.87,325.69 175.33,325.95 174.75,326.19 174.20,326.46 173.66,326.72 173.11,326.99 172.53,327.25 171.99,327.51 171.44,327.80 170.86,328.06 
      170.32,328.35 169.77,328.61 169.19,328.90 168.65,329.16 168.10,329.45 167.52,329.73 166.98,330.02 166.43,330.30 165.85,330.59 165.31,330.87 
      164.76,331.18 164.21,331.47 163.64,331.78 163.09,332.06 162.54,332.37 161.97,332.68 161.42,332.98 160.87,333.29 160.30,333.60 159.75,333.93 
      159.20,334.24 158.63,334.57 158.08,334.87 157.53,335.20 156.96,335.53 156.41,335.86 155.86,336.19 155.31,336.54 154.74,336.87 154.19,337.22 
      153.64,337.58 153.07,337.93 152.52,338.28 151.97,338.63 151.40,338.98 150.85,339.36 150.30,339.73 149.73,340.10 149.18,340.48 148.63,340.85 
      148.06,341.22 147.51,341.62 146.96,342.01 146.41,342.41 145.84,342.81 145.29,343.20 144.74,343.62 144.17,344.04 143.62,344.45 143.07,344.87 
      142.50,345.31 141.95,345.75 141.40,346.19 140.83,346.63 140.28,347.07 139.73,347.53 139.16,347.99 138.61,348.47 138.06,348.94 137.51,349.42 
      136.94,349.93 136.39,350.41 135.84,350.91 135.27,351.42 134.72,351.95 134.17,352.47 133.60,353.00 133.05,353.55 132.50,354.10 131.93,354.67 
      131.38,355.24 130.83,355.81 130.26,356.41 129.71,357.02 129.16,357.64 128.61,358.25 128.04,358.89 127.49,359.55 126.94,360.21 126.37,360.89 
      125.82,361.57 125.27,362.27 124.70,363.00 124.15,363.72 123.60,364.49 123.03,365.26 122.48,366.05 121.93,366.84 121.36,367.68 120.81,368.54 
      120.26,369.42 119.71,370.32 119.14,371.24 118.59,372.18 118.04,373.17 117.47,374.18 116.92,375.24 116.37,376.32 115.80,377.44 115.25,378.60 
      114.70,379.81 114.13,381.06 113.58,382.36 113.03,383.72 112.46,385.15 111.91,386.64 111.36,388.20 110.81,389.85 110.24,391.61 109.69,393.45 
      109.14,395.41 108.57,397.52 108.02,399.76 107.47,402.20 106.90,404.84 106.35,407.72 105.80,410.90 105.23,414.46 104.68,418.50 104.13,423.14 
      103.56,428.63 103.01,435.36 102.46,444.02 101.91,456.19 101.34,477.00 "/>
    <g
      clip-path="url(#text-clipping0)"
      >
      <text
        dominant-baseline="no-change"
        fill="#000000"
        fill-opacity="1.000000"
        xml:space="preserve"
        font-size="16"
        transform="matrix(1.000000 0.000000 0.000000 -1.000000 378.908048 25.203406)"
        text-anchor="middle"
        x="0.000000"
        y="6.451584"
><tspan font-family="sans-serif" font-style="normal" font-weight="normal">&#x45;&#x28;&#x74;&#x6f;&#x74;&#x29;&#x3d;&#x28;&#x2d;&#x4e;&#x31;&#x2e;&#x3b5;&#x20;&#x2b;&#x20;&#x4e;&#x32;&#x2e;&#x3b5;&#x29;&#x20;&#x2f;&#x20;&#x4e;</tspan></text>
    </g>
    <g
      clip-path="url(#text-clipping0)"
      >
      <text
        dominant-baseline="no-change"
        fill="#000000"
        fill-opacity="1.000000"
        xml:space="preserve"
        font-size="16"
        transform="matrix(0.000000 1.000000 1.000000 -0.000000 37.794122 270.008240)"
        text-anchor="middle"
        x="0.000000"
        y="6.451584"
><tspan font-family="sans-serif" font-style="normal" font-weight="normal">&#x31;&#x2f;&#x54;</tspan></text>
    </g>
    <polyline
      stroke-width="1.000000e+00"
      stroke="#000000"
      stroke-opacity="1.000000"
      fill="none"
      points="100.79,63.00 657.00,63.00"
      />
    <polyline
      stroke-width="1.000000e+00"
      stroke="#000000"
      stroke-opacity="1.000000"
      fill="none"
      points="100.79,53.55 100.79,63.00"
      />
    <polyline
      stroke-width="1.000000e+00"
      stroke="#000000"
      stroke-opacity="1.000000"
      fill="none"
      points="128.61,58.27 128.61,63.00"
      />
    <polyline
      stroke-width="1.000000e+00"
      stroke="#000000"
      stroke-opacity="1.000000"
      fill="none"
      points="156.41,58.27 156.41,63.00"
      />
    <polyline
      stroke-width="1.000000e+00"
      stroke="#000000"
      stroke-opacity="1.000000"
      fill="none"
      points="184.22,58.27 184.22,63.00"
      />
    <polyline
      stroke-width="1.000000e+00"
      stroke="#000000"
      stroke-opacity="1.000000"
      fill="none"
      points="212.02,58.27 212.02,63.00"
      />
    <polyline
      stroke-width="1.000000e+00"
      stroke="#000000"
      stroke-opacity="1.000000"
      fill="none"
      points="239.84,53.55 239.84,63.00"
      />
    <polyline
      stroke-width="1.000000e+00"
      stroke="#000000"
      stroke-opacity="1.000000"
      fill="none"
      points="267.66,58.27 267.66,63.00"
      />
    <polyline
      stroke-width="1.000000e+00"
      stroke="#000000"
      stroke-opacity="1.000000"
      fill="none"
      points="295.45,58.27 295.45,63.00"
      />
    <polyline
      stroke-width="1.000000e+00"
      stroke="#000000"
      stroke-opacity="1.000000"
      fill="none"
      points="323.27,58.27 323.27,63.00"
      />
    <polyline
      stroke-width="1.000000e+00"
      stroke="#000000"
      stroke-opacity="1.000000"
      fill="none"
      points="351.09,58.27 351.09,63.00"
      />
    <polyline
      stroke-width="1.000000e+00"
      stroke="#000000"
      stroke-opacity="1.000000"
      fill="none"
      points="378.89,53.55 378.89,63.00"
      />
    <polyline
      stroke-width="1.000000e+00"
      stroke="#000000"
      stroke-opacity="1.000000"
      fill="none"
      points="406.70,58.27 406.70,63.00"
      />
    <polyline
      stroke-width="1.000000e+00"
      stroke="#000000"
      stroke-opacity="1.000000"
      fill="none"
      points="434.50,58.27 434.50,63.00"
      />
    <polyline
      stroke-width="1.000000e+00"
      stroke="#000000"
      stroke-opacity="1.000000"
      fill="none"
      points="462.32,58.27 462.32,63.00"
      />
    <polyline
      stroke-width="1.000000e+00"
      stroke="#000000"
      stroke-opacity="1.000000"
      fill="none"
      points="490.14,58.27 490.14,63.00"
      />
    <polyline
      stroke-width="1.000000e+00"
      stroke="#000000"
      stroke-opacity="1.000000"
      fill="none"
      points="517.93,53.55 517.93,63.00"
      />
    <polyline
      stroke-width="1.000000e+00"
      stroke="#000000"
      stroke-opacity="1.000000"
      fill="none"
      points="545.75,58.27 545.75,63.00"
      />
    <polyline
      stroke-width="1.000000e+00"
      stroke="#000000"
      stroke-opacity="1.000000"
      fill="none"
      points="573.57,58.27 573.57,63.00"
      />
    <polyline
      stroke-width="1.000000e+00"
      stroke="#000000"
      stroke-opacity="1.000000"
      fill="none"
      points="601.37,58.27 601.37,63.00"
      />
    <polyline
      stroke-width="1.000000e+00"
      stroke="#000000"
      stroke-opacity="1.000000"
      fill="none"
      points="629.18,58.27 629.18,63.00"
      />
    <polyline
      stroke-width="1.000000e+00"
      stroke="#000000"
      stroke-opacity="1.000000"
      fill="none"
      points="656.98,53.55 656.98,63.00"
      />
    <polyline
      stroke-width="1.000000e+00"
      stroke="#000000"
      stroke-opacity="1.000000"
      fill="none"
      points="657.00,63.00 657.00,477.00"
      />
    <polyline
      stroke-width="1.000000e+00"
      stroke="#000000"
      stroke-opacity="1.000000"
      fill="none"
      points="657.00,90.20 661.73,90.20"
      />
    <polyline
      stroke-width="1.000000e+00"
      stroke="#000000"
      stroke-opacity="1.000000"
      fill="none"
      points="657.00,120.17 661.73,120.17"
      />
    <polyline
      stroke-width="1.000000e+00"
      stroke="#000000"
      stroke-opacity="1.000000"
      fill="none"
      points="657.00,150.12 666.45,150.12"
      />
    <polyline
      stroke-width="1.000000e+00"
      stroke="#000000"
      stroke-opacity="1.000000"
      fill="none"
      points="657.00,180.09 661.73,180.09"
      />
    <polyline
      stroke-width="1.000000e+00"
      stroke="#000000"
      stroke-opacity="1.000000"
      fill="none"
      points="657.00,210.07 661.73,210.07"
      />
    <polyline
      stroke-width="1.000000e+00"
      stroke="#000000"
      stroke-opacity="1.000000"
      fill="none"
      points="657.00,240.04 661.73,240.04"
      />
    <polyline
      stroke-width="1.000000e+00"
      stroke="#000000"
      stroke-opacity="1.000000"
      fill="none"
      points="657.00,269.99 666.45,269.99"
      />
    <polyline
      stroke-width="1.000000e+00"
      stroke="#000000"
      stroke-opacity="1.000000"
      fill="none"
      points="657.00,299.96 661.73,299.96"
      />
    <polyline
      stroke-width="1.000000e+00"
      stroke="#000000"
      stroke-opacity="1.000000"
      fill="none"
      points="657.00,329.93 661.73,329.93"
      />
    <polyline
      stroke-width="1.000000e+00"
      stroke="#000000"
      stroke-opacity="1.000000"
      fill="none"
      points="657.00,359.88 661.73,359.88"
      />
    <polyline
      stroke-width="1.000000e+00"
      stroke="#000000"
      stroke-opacity="1.000000"
      fill="none"
      points="657.00,389.85 666.45,389.85"
      />
    <polyline
      stroke-width="1.000000e+00"
      stroke="#000000"
      stroke-opacity="1.000000"
      fill="none"
      points="657.00,419.82 661.73,419.82"
      />
    <polyline
      stroke-width="1.000000e+00"
      stroke="#000000"
      stroke-opacity="1.000000"
      fill="none"
      points="657.00,449.79 661.73,449.79"
      />
    <polyline
      stroke-width="1.000000e+00"
      stroke="#000000"
      stroke-opacity="1.000000"
      fill="none"
      points="657.00,477.00 100.79,477.00"
      />
    <polyline
      stroke-width="1.000000e+00"
      stroke="#000000"
      stroke-opacity="1.000000"
      fill="none"
      points="656.98,477.00 656.98,486.45"
      />
    <polyline
      stroke-width="1.000000e+00"
      stroke="#000000"
      stroke-opacity="1.000000"
      fill="none"
      points="629.18,477.00 629.18,481.72"
      />
    <polyline
      stroke-width="1.000000e+00"
      stroke="#000000"
      stroke-opacity="1.000000"
      fill="none"
      points="601.37,477.00 601.37,481.72"
      />
    <polyline
      stroke-width="1.000000e+00"
      stroke="#000000"
      stroke-opacity="1.000000"
      fill="none"
      points="573.57,477.00 573.57,481.72"
      />
    <polyline
      stroke-width="1.000000e+00"
      stroke="#000000"
      stroke-opacity="1.000000"
      fill="none"
      points="545.75,477.00 545.75,481.72"
      />
    <polyline
      stroke-width="1.000000e+00"
      stroke="#000000"
      stroke-opacity="1.000000"
      fill="none"
      points="517.93,477.00 517.93,486.45"
      />
    <polyline
      stroke-width="1.000000e+00"
      stroke="#000000"
      stroke-opacity="1.000000"
      fill="none"
      points="490.14,477.00 490.14,481.72"
      />
    <polyline
      stroke-width="1.000000e+00"
      stroke="#000000"
      stroke-opacity="1.000000"
      fill="none"
      points="462.32,477.00 462.32,481.72"
      />
    <polyline
      stroke-width="1.000000e+00"
      stroke="#000000"
      stroke-opacity="1.000000"
      fill="none"
      points="434.50,477.00 434.50,481.72"
      />
    <polyline
      stroke-width="1.000000e+00"
      stroke="#000000"
      stroke-opacity="1.000000"
      fill="none"
      points="406.70,477.00 406.70,481.72"
      />
    <polyline
      stroke-width="1.000000e+00"
      stroke="#000000"
      stroke-opacity="1.000000"
      fill="none"
      points="378.89,477.00 378.89,486.45"
      />
    <polyline
      stroke-width="1.000000e+00"
      stroke="#000000"
      stroke-opacity="1.000000"
      fill="none"
      points="351.09,477.00 351.09,481.72"
      />
    <polyline
      stroke-width="1.000000e+00"
      stroke="#000000"
      stroke-opacity="1.000000"
      fill="none"
      points="323.27,477.00 323.27,481.72"
      />
    <polyline
      stroke-width="1.000000e+00"
      stroke="#000000"
      stroke-opacity="1.000000"
      fill="none"
      points="295.45,477.00 295.45,481.72"
      />
    <polyline
      stroke-width="1.000000e+00"
      stroke="#000000"
      stroke-opacity="1.000000"
      fill="none"
      points="267.66,477.00 267.66,481.72"
      />
    <polyline
      stroke-width="1.000000e+00"
      stroke="#000000"
      stroke-opacity="1.000000"
      fill="none"
      points="239.84,477.00 239.84,486.45"
      />
    <polyline
      stroke-width="1.000000e+00"
      stroke="#000000"
      stroke-opacity="1.000000"
      fill="none"
      points="212.02,477.00 212.02,481.72"
      />
    <polyline
      stroke-width="1.000000e+00"
      stroke="#000000"
      stroke-opacity="1.000000"
      fill="none"
      points="184.22,477.00 184.22,481.72"
      />
    <polyline
      stroke-width="1.000000e+00"
      stroke="#000000"
      stroke-opacity="1.000000"
      fill="none"
      points="156.41,477.00 156.41,481.72"
      />
    <polyline
      stroke-width="1.000000e+00"
      stroke="#000000"
      stroke-opacity="1.000000"
      fill="none"
      points="128.61,477.00 128.61,481.72"
      />
    <polyline
      stroke-width="1.000000e+00"
      stroke="#000000"
      stroke-opacity="1.000000"
      fill="none"
      points="100.79,477.00 100.79,486.45"
      />
    <polyline
      stroke-width="1.000000e+00"
      stroke="#000000"
      stroke-opacity="1.000000"
      fill="none"
      points="100.79,477.00 100.79,63.00"
      />
    <polyline
      stroke-width="1.000000e+00"
      stroke="#000000"
      stroke-opacity="1.000000"
      fill="none"
      points="96.07,449.79 100.79,449.79"
      />
    <polyline
      stroke-width="1.000000e+00"
      stroke="#000000"
      stroke-opacity="1.000000"
      fill="none"
      points="96.07,419.82 100.79,419.82"
      />
    <polyline
      stroke-width="1.000000e+00"
      stroke="#000000"
      stroke-opacity="1.000000"
      fill="none"
      points="91.34,389.85 100.79,389.85"
      />
    <polyline
      stroke-width="1.000000e+00"
      stroke="#000000"
      stroke-opacity="1.000000"
      fill="none"
      points="96.07,359.88 100.79,359.88"
      />
    <polyline
      stroke-width="1.000000e+00"
      stroke="#000000"
      stroke-opacity="1.000000"
      fill="none"
      points="96.07,329.93 100.79,329.93"
      />
    <polyline
      stroke-width="1.000000e+00"
      stroke="#000000"
      stroke-opacity="1.000000"
      fill="none"
      points="96.07,299.96 100.79,299.96"
      />
    <polyline
      stroke-width="1.000000e+00"
      stroke="#000000"
      stroke-opacity="1.000000"
      fill="none"
      points="91.34,269.99 100.79,269.99"
      />
    <polyline
      stroke-width="1.000000e+00"
      stroke="#000000"
      stroke-opacity="1.000000"
      fill="none"
      points="96.07,240.04 100.79,240.04"
      />
    <polyline
      stroke-width="1.000000e+00"
      stroke="#000000"
      stroke-opacity="1.000000"
      fill="none"
      points="96.07,210.07 100.79,210.07"
      />
    <polyline
      stroke-width="1.000000e+00"
      stroke="#000000"
      stroke-opacity="1.000000"
      fill="none"
      points="96.07,180.09 100.79,180.09"
      />
    <polyline
      stroke-width="1.000000e+00"
      stroke="#000000"
      stroke-opacity="1.000000"
      fill="none"
      points="91.34,150.12 100.79,150.12"
      />
    <polyline
      stroke-width="1.000000e+00"
      stroke="#000000"
      stroke-opacity="1.000000"
      fill="none"
      points="96.07,120.17 100.79,120.17"
      />
    <polyline
      stroke-width="1.000000e+00"
      stroke="#000000"
      stroke-opacity="1.000000"
      fill="none"
      points="96.07,90.20 100.79,90.20"
      />
    <g
      clip-path="url(#text-clipping0)"
      >
      <text
        dominant-baseline="no-change"
        fill="#000000"
        fill-opacity="1.000000"
        xml:space="preserve"
        font-size="16"
        transform="matrix(1.000000 0.000000 0.000000 -1.000000 100.813623 40.958281)"
        text-anchor="middle"
        x="0.000000"
        y="6.451584"
><tspan font-family="sans-serif" font-style="normal" font-weight="normal">&#x2d;&#x31;&#x2e;&#x30;</tspan></text>
    </g>
    <g
      clip-path="url(#text-clipping0)"
      >
      <text
        dominant-baseline="no-change"
        fill="#000000"
        fill-opacity="1.000000"
        xml:space="preserve"
        font-size="16"
        transform="matrix(1.000000 0.000000 0.000000 -1.000000 239.860836 40.958281)"
        text-anchor="middle"
        x="0.000000"
        y="6.451584"
><tspan font-family="sans-serif" font-style="normal" font-weight="normal">&#x2d;&#x30;&#x2e;&#x35;</tspan></text>
    </g>
    <g
      clip-path="url(#text-clipping0)"
      >
      <text
        dominant-baseline="no-change"
        fill="#000000"
        fill-opacity="1.000000"
        xml:space="preserve"
        font-size="16"
        transform="matrix(1.000000 0.000000 0.000000 -1.000000 378.908048 40.958281)"
        text-anchor="middle"
        x="0.000000"
        y="6.451584"
><tspan font-family="sans-serif" font-style="normal" font-weight="normal">&#x30;&#x2e;&#x30;</tspan></text>
    </g>
    <g
      clip-path="url(#text-clipping0)"
      >
      <text
        dominant-baseline="no-change"
        fill="#000000"
        fill-opacity="1.000000"
        xml:space="preserve"
        font-size="16"
        transform="matrix(1.000000 0.000000 0.000000 -1.000000 517.955260 40.958281)"
        text-anchor="middle"
        x="0.000000"
        y="6.451584"
><tspan font-family="sans-serif" font-style="normal" font-weight="normal">&#x30;&#x2e;&#x35;</tspan></text>
    </g>
    <g
      clip-path="url(#text-clipping0)"
      >
      <text
        dominant-baseline="no-change"
        fill="#000000"
        fill-opacity="1.000000"
        xml:space="preserve"
        font-size="16"
        transform="matrix(1.000000 0.000000 0.000000 -1.000000 657.002472 40.958281)"
        text-anchor="middle"
        x="0.000000"
        y="6.451584"
><tspan font-family="sans-serif" font-style="normal" font-weight="normal">&#x31;&#x2e;&#x30;</tspan></text>
    </g>
    <g
      clip-path="url(#text-clipping0)"
      >
      <text
        dominant-baseline="no-change"
        fill="#000000"
        fill-opacity="1.000000"
        xml:space="preserve"
        font-size="16"
        transform="matrix(1.000000 0.000000 0.000000 -1.000000 88.200934 150.143742)"
        text-anchor="end"
        x="0.000000"
        y="6.451584"
><tspan font-family="sans-serif" font-style="normal" font-weight="normal">&#x2d;&#x32;</tspan></text>
    </g>
    <g
      clip-path="url(#text-clipping0)"
      >
      <text
        dominant-baseline="no-change"
        fill="#000000"
        fill-opacity="1.000000"
        xml:space="preserve"
        font-size="16"
        transform="matrix(1.000000 0.000000 0.000000 -1.000000 88.200934 270.008240)"
        text-anchor="end"
        x="0.000000"
        y="6.451584"
><tspan font-family="sans-serif" font-style="normal" font-weight="normal">&#x30;</tspan></text>
    </g>
    <g
      clip-path="url(#text-clipping0)"
      >
      <text
        dominant-baseline="no-change"
        fill="#000000"
        fill-opacity="1.000000"
        xml:space="preserve"
        font-size="16"
        transform="matrix(1.000000 0.000000 0.000000 -1.000000 88.200934 389.850764)"
        text-anchor="end"
        x="0.000000"
        y="6.451584"
><tspan font-family="sans-serif" font-style="normal" font-weight="normal">&#x32;</tspan></text>
    </g>
    <g
      clip-path="url(#text-clipping0)"
      >
      <text
        dominant-baseline="no-change"
        fill="#000000"
        fill-opacity="1.000000"
        xml:space="preserve"
        font-size="16"
        transform="matrix(1.000000 0.000000 0.000000 -1.000000 60.470595 518.394726)"
        text-anchor="middle"
        x="0.000000"
        y="6.451584"
><tspan font-family="sans-serif" font-style="normal" font-weight="normal">&#x28;&#x78;&#x31;&#x30;<tspan dy="-11.010430" font-size="12">&#x33;<tspan dy="11.010430" font-size="16">&#x29;</tspan></tspan></tspan></text>
    </g>
  </g>
</svg>
