<?xml version="1.0" encoding="UTF-8"?>
<!DOCTYPE svg PUBLIC "-//W3C//DTD SVG 1.1//EN"
        "http://www.w3.org/Graphics/SVG/1.1/DTD/svg11.dtd">
<svg
  xmlns="http://www.w3.org/2000/svg"
  xmlns:xlink="http://www.w3.org/1999/xlink"
  version="1.1"
  width="720pt"
  height="540pt"
  viewBox="0 0 720 540"
  >
  <rect
    x="0"
    y="0"
    width="720"
    height="540"
    stroke="none"
    fill="#FFFFFF"
    fill-opacity="1.000000"
    />
  <g
    transform="matrix(1 0 0 -1 0 540)"
    >
    <polyline
      stroke-width="1.000000e+00"
      stroke="#0000FF"
      stroke-opacity="1.000000"
      fill="none"
      points="100.79,63.00 101.34,63.00 101.91,63.00 102.46,63.00 103.01,63.00 103.58,63.00 104.13,63.00 104.68,63.00 105.25,63.00 105.80,63.00 
      106.35,63.00 106.92,63.00 107.47,63.00 108.02,63.00 108.59,63.00 109.14,63.00 109.69,63.00 110.26,63.00 110.81,63.00 111.36,63.00 
      111.93,63.00 112.48,63.00 113.03,63.00 113.60,63.00 114.15,63.00 114.70,63.00 115.27,63.00 115.82,63.00 116.37,63.00 116.94,63.00 
      117.49,63.00 118.04,63.00 118.61,63.00 119.16,63.00 119.71,63.02 120.28,63.02 120.83,63.02 121.38,63.02 121.95,63.02 122.50,63.02 
      123.05,63.02 123.62,63.02 124.17,63.02 124.72,63.04 125.29,63.04 125.84,63.04 126.39,63.04 126.96,63.04 127.51,63.04 128.06,63.06 
      128.63,63.06 129.18,63.06 129.73,63.06 130.30,63.09 130.85,63.09 131.40,63.09 131.97,63.11 132.52,63.11 133.09,63.11 133.64,63.13 
      134.19,63.13 134.76,63.13 135.31,63.15 135.86,63.15 136.43,63.17 136.98,63.17 137.53,63.20 138.10,63.20 138.65,63.22 139.20,63.22 
      139.77,63.24 140.32,63.26 140.87,63.26 141.44,63.28 141.99,63.31 142.54,63.33 143.11,63.33 143.66,63.35 144.21,63.37 144.78,63.39 
      145.33,63.42 145.88,63.44 146.45,63.46 147.00,63.48 147.55,63.50 148.12,63.52 148.67,63.55 149.22,63.57 149.79,63.59 150.34,63.61 
      150.89,63.66 151.46,63.68 152.01,63.70 152.56,63.74 153.13,63.77 153.68,63.79 154.23,63.83 154.80,63.85 155.35,63.90 155.90,63.92 
      156.47,63.96 157.02,64.01 157.57,64.03 158.14,64.07 158.69,64.12 159.24,64.16 159.81,64.18 160.36,64.23 160.91,64.27 161.48,64.32 
      162.03,64.36 162.58,64.40 163.15,64.45 163.70,64.49 164.25,64.54 164.82,64.58 165.37,64.62 165.92,64.67 166.49,64.71 167.04,64.76 
      167.59,64.82 168.16,64.87 168.71,64.91 169.26,64.95 169.83,65.00 170.38,65.06 170.93,65.11 171.50,65.15 172.05,65.19 172.60,65.26 
      173.17,65.30 173.72,65.35 174.29,65.39 174.84,65.44 175.39,65.50 175.96,65.55 176.51,65.59 177.06,65.63 177.63,65.68 178.18,65.72 
      178.73,65.77 179.30,65.81 179.85,65.85 180.40,65.90 180.97,65.94 181.52,65.99 182.07,66.03 182.64,66.07 183.19,66.10 183.74,66.14 
      184.31,66.16 184.86,66.21 185.41,66.23 185.98,66.27 186.53,66.29 187.08,66.32 187.65,66.34 188.20,66.36 188.75,66.38 189.32,66.40 
      189.87,66.40 190.42,66.43 190.99,66.43 191.54,66.45 192.09,66.45 192.66,66.45 193.21,66.45 193.76,66.45 194.33,66.45 194.88,66.43 
      195.43,66.43 196.00,66.40 196.55,66.38 197.10,66.36 197.67,66.34 198.22,66.32 198.77,66.29 199.34,66.25 199.89,66.23 200.44,66.18 
      201.01,66.14 201.56,66.10 202.11,66.05 202.68,66.01 203.23,65.96 203.78,65.90 204.35,65.83 204.90,65.79 205.45,65.72 206.02,65.66 
      206.57,65.59 207.12,65.52 207.69,65.44 208.24,65.37 208.79,65.30 209.36,65.22 209.91,65.13 210.46,65.06 211.03,64.98 211.58,64.89 
      212.13,64.80 212.70,64.73 213.25,64.65 213.80,64.56 214.37,64.47 214.92,64.38 215.49,64.29 216.04,64.21 216.59,64.12 217.16,64.05 
      217.71,63.96 218.26,63.88 218.83,63.81 219.38,63.72 219.93,63.66 220.50,63.59 221.05,63.50 221.60,63.44 222.17,63.39 222.72,63.33 
      223.27,63.26 223.84,63.22 224.39,63.17 224.94,63.13 225.51,63.11 226.06,63.06 226.61,63.04 227.18,63.02 227.73,63.00 228.28,63.00 
      228.85,63.00 229.40,63.00 229.95,63.02 230.52,63.02 231.07,63.06 231.62,63.09 232.19,63.13 232.74,63.17 233.29,63.22 233.86,63.28 
      234.41,63.35 234.96,63.42 235.53,63.50 236.08,63.59 236.63,63.70 237.20,63.79 237.75,63.90 238.30,64.03 238.87,64.14 239.42,64.27 
      239.97,64.40 240.54,64.56 241.09,64.71 241.64,64.87 242.21,65.02 242.76,65.17 "/>
    <polyline
      stroke-width="1.000000e+00"
      stroke="#0000FF"
      stroke-opacity="1.000000"
      fill="none"
      points="242.76,65.17 243.31,65.35 243.88,65.52 244.43,65.70 244.98,65.88 245.55,66.05 246.10,66.23 246.65,66.43 247.22,66.60 247.77,66.78 
      248.32,66.97 248.89,67.15 249.44,67.35 249.99,67.52 250.56,67.70 251.11,67.88 251.66,68.05 252.23,68.21 252.78,68.38 253.33,68.53 
      253.90,68.69 254.45,68.82 255.00,68.97 255.57,69.08 256.12,69.22 256.69,69.33 257.24,69.41 257.79,69.52 258.36,69.59 258.91,69.66 
      259.46,69.72 260.03,69.77 260.58,69.79 261.13,69.81 261.70,69.81 262.25,69.81 262.80,69.79 263.37,69.77 263.92,69.70 264.47,69.66 
      265.04,69.57 265.59,69.48 266.14,69.39 266.71,69.26 267.26,69.15 267.81,69.00 268.38,68.84 268.93,68.69 269.48,68.51 270.05,68.32 
      270.60,68.12 271.15,67.92 271.72,67.70 272.27,67.48 272.82,67.26 273.39,67.04 273.94,66.80 274.49,66.56 275.06,66.32 275.61,66.07 
      276.16,65.83 276.73,65.59 277.28,65.35 277.83,65.11 278.40,64.89 278.95,64.65 279.50,64.45 280.07,64.23 280.62,64.03 281.17,63.85 
      281.74,63.70 282.29,63.55 282.84,63.39 283.41,63.28 283.96,63.17 284.51,63.11 285.08,63.04 285.63,63.00 286.18,63.00 286.75,63.02 
      287.30,63.04 287.85,63.11 288.42,63.20 288.97,63.33 289.52,63.46 290.09,63.63 290.64,63.85 291.19,64.07 291.76,64.34 292.31,64.62 
      292.86,64.95 293.43,65.30 293.98,65.68 294.53,66.07 295.10,66.51 295.65,66.95 296.20,67.44 296.77,67.94 297.32,68.45 297.89,69.00 
      298.44,69.55 298.99,70.14 299.56,70.71 300.11,71.33 300.66,71.94 301.23,72.56 301.78,73.17 302.33,73.81 302.90,74.42 303.45,75.04 
      304.00,75.68 304.57,76.27 305.12,76.86 305.67,77.46 306.24,78.03 306.79,78.55 307.34,79.08 307.91,79.59 308.46,80.05 309.01,80.49 
      309.58,80.88 310.13,81.24 310.68,81.56 311.25,81.85 311.80,82.07 312.35,82.27 312.92,82.40 313.47,82.49 314.02,82.53 314.59,82.51 
      315.14,82.44 315.69,82.33 316.26,82.16 316.81,81.92 317.36,81.63 317.93,81.28 318.48,80.88 319.03,80.44 319.60,79.94 320.15,79.39 
      320.70,78.80 321.27,78.14 321.82,77.46 322.37,76.75 322.94,75.98 323.49,75.21 324.04,74.40 324.61,73.57 325.16,72.73 325.71,71.87 
      326.28,71.04 326.83,70.18 327.38,69.35 327.95,68.51 328.50,67.72 329.05,66.97 329.62,66.25 330.17,65.57 330.72,64.95 331.29,64.40 
      331.84,63.94 332.39,63.55 332.96,63.26 333.51,63.09 334.06,63.00 334.63,63.04 335.18,63.22 335.73,63.52 336.30,63.99 336.85,64.62 
      337.40,65.41 337.97,66.36 338.52,67.52 339.09,68.86 339.64,70.40 340.19,72.14 340.76,74.09 341.31,76.29 341.86,78.69 342.43,81.32 
      342.98,84.20 343.53,87.32 344.10,90.68 344.65,94.31 345.20,98.18 345.77,102.29 346.32,106.66 346.87,111.29 347.44,116.17 347.99,121.31 
      348.54,126.70 349.11,132.32 349.66,138.21 350.21,144.32 350.78,150.67 351.33,157.26 351.88,164.07 352.45,171.08 353.00,178.31 353.55,185.74 
      354.12,193.34 354.67,201.12 355.22,209.08 355.79,217.16 356.34,225.40 356.89,233.77 357.46,242.23 358.01,250.80 358.56,259.44 359.13,268.14 
      359.68,276.91 360.23,285.68 360.80,294.46 361.35,303.25 361.90,312.00 362.47,320.72 363.02,329.38 363.57,337.95 364.14,346.43 364.69,354.78 
      365.24,363.00 365.81,371.06 366.36,378.95 366.91,386.64 367.48,394.14 368.03,401.39 368.58,408.42 369.15,415.16 369.70,421.65 370.25,427.82 
      370.82,433.69 371.37,439.25 371.92,444.45 372.49,449.33 373.04,453.82 373.59,457.95 374.16,461.70 374.71,465.07 375.26,468.01 375.83,470.56 
      376.38,472.69 376.93,474.40 377.50,475.70 378.05,476.56 378.60,477.00 379.17,477.00 379.72,476.56 380.27,475.70 380.84,474.40 381.39,472.69 
      381.96,470.56 382.51,468.01 383.06,465.07 383.63,461.70 384.18,457.95 384.73,453.82 "/>
    <polyline
      stroke-width="1.000000e+00"
      stroke="#0000FF"
      stroke-opacity="1.000000"
      fill="none"
      points="384.73,453.82 385.30,449.33 385.85,444.45 386.40,439.25 386.97,433.69 387.52,427.82 388.07,421.65 388.64,415.16 389.19,408.42 389.74,401.39 
      390.31,394.14 390.86,386.64 391.41,378.95 391.98,371.06 392.53,363.00 393.08,354.78 393.65,346.43 394.20,337.95 394.75,329.38 395.32,320.72 
      395.87,312.00 396.42,303.25 396.99,294.46 397.54,285.68 398.09,276.91 398.66,268.14 399.21,259.44 399.76,250.80 400.33,242.23 400.88,233.77 
      401.43,225.40 402.00,217.16 402.55,209.08 403.10,201.12 403.67,193.34 404.22,185.74 404.77,178.31 405.34,171.08 405.89,164.07 406.44,157.26 
      407.01,150.67 407.56,144.32 408.11,138.21 408.68,132.32 409.23,126.70 409.78,121.31 410.35,116.17 410.90,111.29 411.45,106.66 412.02,102.29 
      412.57,98.18 413.12,94.31 413.69,90.68 414.24,87.32 414.79,84.20 415.36,81.32 415.91,78.69 416.46,76.29 417.03,74.09 417.58,72.14 
      418.13,70.40 418.70,68.86 419.25,67.52 419.80,66.36 420.37,65.41 420.92,64.62 421.47,63.99 422.04,63.52 422.59,63.22 423.16,63.04 
      423.71,63.00 424.26,63.09 424.83,63.26 425.38,63.55 425.93,63.94 426.50,64.40 427.05,64.95 427.60,65.57 428.17,66.25 428.72,66.97 
      429.27,67.72 429.84,68.51 430.39,69.35 430.94,70.18 431.51,71.04 432.06,71.87 432.61,72.73 433.18,73.57 433.73,74.40 434.28,75.21 
      434.85,75.98 435.40,76.75 435.95,77.46 436.52,78.14 437.07,78.80 437.62,79.39 438.19,79.94 438.74,80.44 439.29,80.88 439.86,81.28 
      440.41,81.63 440.96,81.92 441.53,82.16 442.08,82.33 442.63,82.44 443.20,82.51 443.75,82.53 444.30,82.49 444.87,82.40 445.42,82.27 
      445.97,82.07 446.54,81.85 447.09,81.56 447.64,81.24 448.21,80.88 448.76,80.49 449.31,80.05 449.88,79.59 450.43,79.08 450.98,78.55 
      451.55,78.03 452.10,77.46 452.65,76.86 453.22,76.27 453.77,75.68 454.32,75.04 454.89,74.42 455.44,73.81 455.99,73.17 456.56,72.56 
      457.11,71.94 457.66,71.33 458.23,70.71 458.78,70.14 459.33,69.55 459.90,69.00 460.45,68.45 461.00,67.94 461.57,67.44 462.12,66.95 
      462.67,66.51 463.24,66.07 463.79,65.68 464.36,65.30 464.91,64.95 465.46,64.62 466.03,64.34 466.58,64.07 467.13,63.85 467.70,63.63 
      468.25,63.46 468.80,63.33 469.37,63.20 469.92,63.11 470.47,63.04 471.04,63.02 471.59,63.00 472.14,63.00 472.71,63.04 473.26,63.11 
      473.81,63.17 474.38,63.28 474.93,63.39 475.48,63.55 476.05,63.70 476.60,63.85 477.15,64.03 477.72,64.23 478.27,64.45 478.82,64.65 
      479.39,64.89 479.94,65.11 480.49,65.35 481.06,65.59 481.61,65.83 482.16,66.07 482.73,66.32 483.28,66.56 483.83,66.80 484.40,67.04 
      484.95,67.26 485.50,67.48 486.07,67.70 486.62,67.92 487.17,68.12 487.74,68.32 488.29,68.51 488.84,68.69 489.41,68.84 489.96,69.00 
      490.51,69.15 491.08,69.26 491.63,69.39 492.18,69.48 492.75,69.57 493.30,69.66 493.85,69.70 494.42,69.77 494.97,69.79 495.52,69.81 
      496.09,69.81 496.64,69.81 497.19,69.79 497.76,69.77 498.31,69.72 498.86,69.66 499.43,69.59 499.98,69.52 500.53,69.41 501.10,69.33 
      501.65,69.22 502.20,69.08 502.77,68.97 503.32,68.82 503.87,68.69 504.44,68.53 504.99,68.38 505.56,68.21 506.11,68.05 506.66,67.88 
      507.23,67.70 507.78,67.52 508.33,67.35 508.90,67.15 509.45,66.97 510.00,66.78 510.57,66.60 511.12,66.43 511.67,66.23 512.24,66.05 
      512.79,65.88 513.34,65.70 513.91,65.52 514.46,65.35 515.01,65.17 515.58,65.02 516.13,64.87 516.68,64.71 517.25,64.56 517.80,64.40 
      518.35,64.27 518.92,64.14 519.47,64.03 520.02,63.90 520.59,63.79 521.14,63.70 521.69,63.59 522.26,63.50 522.81,63.42 523.36,63.35 
      523.93,63.28 524.48,63.22 525.03,63.17 525.60,63.13 526.15,63.09 526.70,63.06 "/>
    <polyline
      stroke-width="1.000000e+00"
      stroke="#0000FF"
      stroke-opacity="1.000000"
      fill="none"
      points="526.70,63.06 527.27,63.02 527.82,63.02 528.37,63.00 528.94,63.00 529.49,63.00 530.04,63.00 530.61,63.02 531.16,63.04 531.71,63.06 
      532.28,63.11 532.83,63.13 533.38,63.17 533.95,63.22 534.50,63.26 535.05,63.33 535.62,63.39 536.17,63.44 536.72,63.50 537.29,63.59 
      537.84,63.66 538.39,63.72 538.96,63.81 539.51,63.88 540.06,63.96 540.63,64.05 541.18,64.12 541.73,64.21 542.30,64.29 542.85,64.38 
      543.40,64.47 543.97,64.56 544.52,64.65 545.07,64.73 545.64,64.80 546.19,64.89 546.76,64.98 547.31,65.06 547.86,65.13 548.43,65.22 
      548.98,65.30 549.53,65.37 550.10,65.44 550.65,65.52 551.20,65.59 551.77,65.66 552.32,65.72 552.87,65.79 553.44,65.83 553.99,65.90 
      554.54,65.96 555.11,66.01 555.66,66.05 556.21,66.10 556.78,66.14 557.33,66.18 557.88,66.23 558.45,66.25 559.00,66.29 559.55,66.32 
      560.12,66.34 560.67,66.36 561.22,66.38 561.79,66.40 562.34,66.43 562.89,66.43 563.46,66.45 564.01,66.45 564.56,66.45 565.13,66.45 
      565.68,66.45 566.23,66.45 566.80,66.43 567.35,66.43 567.90,66.40 568.47,66.40 569.02,66.38 569.57,66.36 570.14,66.34 570.69,66.32 
      571.24,66.29 571.81,66.27 572.36,66.23 572.91,66.21 573.48,66.16 574.03,66.14 574.58,66.10 575.15,66.07 575.70,66.03 576.25,65.99 
      576.82,65.94 577.37,65.90 577.92,65.85 578.49,65.81 579.04,65.77 579.59,65.72 580.16,65.68 580.71,65.63 581.26,65.59 581.83,65.55 
      582.38,65.50 582.93,65.44 583.50,65.39 584.05,65.35 584.60,65.30 585.17,65.26 585.72,65.19 586.27,65.15 586.84,65.11 587.39,65.06 
      587.96,65.00 588.51,64.95 589.06,64.91 589.63,64.87 590.18,64.82 590.73,64.76 591.30,64.71 591.85,64.67 592.40,64.62 592.97,64.58 
      593.52,64.54 594.07,64.49 594.64,64.45 595.19,64.40 595.74,64.36 596.31,64.32 596.86,64.27 597.41,64.23 597.98,64.18 598.53,64.16 
      599.08,64.12 599.65,64.07 600.20,64.03 600.75,64.01 601.32,63.96 601.87,63.92 602.42,63.90 602.99,63.85 603.54,63.83 604.09,63.79 
      604.66,63.77 605.21,63.74 605.76,63.70 606.33,63.68 606.88,63.66 607.43,63.61 608.00,63.59 608.55,63.57 609.10,63.55 609.67,63.52 
      610.22,63.50 610.77,63.48 611.34,63.46 611.89,63.44 612.44,63.42 613.01,63.39 613.56,63.37 614.11,63.35 614.68,63.33 615.23,63.33 
      615.78,63.31 616.35,63.28 616.90,63.26 617.45,63.26 618.02,63.24 618.57,63.22 619.12,63.22 619.69,63.20 620.24,63.20 620.79,63.17 
      621.36,63.17 621.91,63.15 622.46,63.15 623.03,63.13 623.58,63.13 624.13,63.13 624.70,63.11 625.25,63.11 625.80,63.11 626.37,63.09 
      626.92,63.09 627.47,63.09 628.04,63.06 628.59,63.06 629.16,63.06 629.71,63.06 630.26,63.04 630.83,63.04 631.38,63.04 631.93,63.04 
      632.50,63.04 633.05,63.04 633.60,63.02 634.17,63.02 634.72,63.02 635.27,63.02 635.84,63.02 636.39,63.02 636.94,63.02 637.51,63.02 
      638.06,63.02 638.61,63.00 639.18,63.00 639.73,63.00 640.28,63.00 640.85,63.00 641.40,63.00 641.95,63.00 642.52,63.00 643.07,63.00 
      643.62,63.00 644.19,63.00 644.74,63.00 645.29,63.00 645.86,63.00 646.41,63.00 646.96,63.00 647.53,63.00 648.08,63.00 648.63,63.00 
      649.20,63.00 649.75,63.00 650.30,63.00 650.87,63.00 651.42,63.00 651.97,63.00 652.54,63.00 653.09,63.00 653.64,63.00 654.21,63.00 
      654.76,63.00 655.31,63.00 655.88,63.00 656.43,63.00 656.98,63.00 "/>
    <clipPath
      id="text-clipping0"
      >
      <polygon
        points="0.000000,0.000000 0.000000,539.994507 720.000000,539.994507 720.000000,0.000000"
        />
    </clipPath>
    <g
      clip-path="url(#text-clipping0)"
      >
      <text
        dominant-baseline="no-change"
        fill="#000000"
        fill-opacity="1.000000"
        xml:space="preserve"
        font-size="16"
        transform="matrix(1.000000 0.000000 0.000000 -1.000000 378.908048 502.200385)"
        text-anchor="middle"
        x="0.000000"
        y="6.451584"
><tspan font-family="sans-serif" font-style="normal" font-weight="normal">&#x46;&#x65;&#x6e;&#x74;&#x65;&#x3a;&#x20;&#x61;&#x3d;&#x34;&#x2e;&#x3bb;</tspan></text>
    </g>
    <g
      clip-path="url(#text-clipping0)"
      >
      <text
        dominant-baseline="no-change"
        fill="#000000"
        fill-opacity="1.000000"
        xml:space="preserve"
        font-size="16"
        transform="matrix(1.000000 0.000000 0.000000 -1.000000 378.908048 22.676473)"
        text-anchor="middle"
        x="0.000000"
        y="6.451584"
><tspan font-family="sans-serif" font-style="normal" font-weight="normal">&#x41;&#x6e;&#x67;&#x6c;&#x65;&#x20;&#x3b8;&#x20;&#x65;&#x6e;&#x20;&#x72;&#x61;&#x64;</tspan></text>
    </g>
    <g
      clip-path="url(#text-clipping0)"
      >
      <text
        dominant-baseline="no-change"
        fill="#000000"
        fill-opacity="1.000000"
        xml:space="preserve"
        font-size="16"
        transform="matrix(0.000000 1.000000 1.000000 -0.000000 37.794122 270.008240)"
        text-anchor="middle"
        x="0.000000"
        y="6.451584"
><tspan font-family="sans-serif" font-style="normal" font-weight="normal">&#x50;&#x72;&#x6f;&#x62;&#x61;&#x62;&#x69;&#x6c;&#x69;&#x74;&#xe9;</tspan></text>
    </g>
    <polyline
      stroke-width="1.000000e+00"
      stroke="#000000"
      stroke-opacity="1.000000"
      fill="none"
      points="100.79,63.00 657.00,63.00"
      />
    <polyline
      stroke-width="1.000000e+00"
      stroke="#000000"
      stroke-opacity="1.000000"
      fill="none"
      points="131.03,58.27 131.03,63.00"
      />
    <polyline
      stroke-width="1.000000e+00"
      stroke="#000000"
      stroke-opacity="1.000000"
      fill="none"
      points="166.43,58.27 166.43,63.00"
      />
    <polyline
      stroke-width="1.000000e+00"
      stroke="#000000"
      stroke-opacity="1.000000"
      fill="none"
      points="201.85,53.55 201.85,63.00"
      />
    <polyline
      stroke-width="1.000000e+00"
      stroke="#000000"
      stroke-opacity="1.000000"
      fill="none"
      points="237.25,58.27 237.25,63.00"
      />
    <polyline
      stroke-width="1.000000e+00"
      stroke="#000000"
      stroke-opacity="1.000000"
      fill="none"
      points="272.67,58.27 272.67,63.00"
      />
    <polyline
      stroke-width="1.000000e+00"
      stroke="#000000"
      stroke-opacity="1.000000"
      fill="none"
      points="308.07,58.27 308.07,63.00"
      />
    <polyline
      stroke-width="1.000000e+00"
      stroke="#000000"
      stroke-opacity="1.000000"
      fill="none"
      points="343.49,58.27 343.49,63.00"
      />
    <polyline
      stroke-width="1.000000e+00"
      stroke="#000000"
      stroke-opacity="1.000000"
      fill="none"
      points="378.89,53.55 378.89,63.00"
      />
    <polyline
      stroke-width="1.000000e+00"
      stroke="#000000"
      stroke-opacity="1.000000"
      fill="none"
      points="414.31,58.27 414.31,63.00"
      />
    <polyline
      stroke-width="1.000000e+00"
      stroke="#000000"
      stroke-opacity="1.000000"
      fill="none"
      points="449.71,58.27 449.71,63.00"
      />
    <polyline
      stroke-width="1.000000e+00"
      stroke="#000000"
      stroke-opacity="1.000000"
      fill="none"
      points="485.11,58.27 485.11,63.00"
      />
    <polyline
      stroke-width="1.000000e+00"
      stroke="#000000"
      stroke-opacity="1.000000"
      fill="none"
      points="520.53,58.27 520.53,63.00"
      />
    <polyline
      stroke-width="1.000000e+00"
      stroke="#000000"
      stroke-opacity="1.000000"
      fill="none"
      points="555.93,53.55 555.93,63.00"
      />
    <polyline
      stroke-width="1.000000e+00"
      stroke="#000000"
      stroke-opacity="1.000000"
      fill="none"
      points="591.35,58.27 591.35,63.00"
      />
    <polyline
      stroke-width="1.000000e+00"
      stroke="#000000"
      stroke-opacity="1.000000"
      fill="none"
      points="626.75,58.27 626.75,63.00"
      />
    <polyline
      stroke-width="1.000000e+00"
      stroke="#000000"
      stroke-opacity="1.000000"
      fill="none"
      points="657.00,63.00 657.00,477.00"
      />
    <polyline
      stroke-width="1.000000e+00"
      stroke="#000000"
      stroke-opacity="1.000000"
      fill="none"
      points="657.00,63.00 666.45,63.00"
      />
    <polyline
      stroke-width="1.000000e+00"
      stroke="#000000"
      stroke-opacity="1.000000"
      fill="none"
      points="657.00,95.52 661.73,95.52"
      />
    <polyline
      stroke-width="1.000000e+00"
      stroke="#000000"
      stroke-opacity="1.000000"
      fill="none"
      points="657.00,128.04 661.73,128.04"
      />
    <polyline
      stroke-width="1.000000e+00"
      stroke="#000000"
      stroke-opacity="1.000000"
      fill="none"
      points="657.00,160.56 661.73,160.56"
      />
    <polyline
      stroke-width="1.000000e+00"
      stroke="#000000"
      stroke-opacity="1.000000"
      fill="none"
      points="657.00,193.08 666.45,193.08"
      />
    <polyline
      stroke-width="1.000000e+00"
      stroke="#000000"
      stroke-opacity="1.000000"
      fill="none"
      points="657.00,225.60 661.73,225.60"
      />
    <polyline
      stroke-width="1.000000e+00"
      stroke="#000000"
      stroke-opacity="1.000000"
      fill="none"
      points="657.00,258.12 661.73,258.12"
      />
    <polyline
      stroke-width="1.000000e+00"
      stroke="#000000"
      stroke-opacity="1.000000"
      fill="none"
      points="657.00,290.62 661.73,290.62"
      />
    <polyline
      stroke-width="1.000000e+00"
      stroke="#000000"
      stroke-opacity="1.000000"
      fill="none"
      points="657.00,323.14 666.45,323.14"
      />
    <polyline
      stroke-width="1.000000e+00"
      stroke="#000000"
      stroke-opacity="1.000000"
      fill="none"
      points="657.00,355.66 661.73,355.66"
      />
    <polyline
      stroke-width="1.000000e+00"
      stroke="#000000"
      stroke-opacity="1.000000"
      fill="none"
      points="657.00,388.18 661.73,388.18"
      />
    <polyline
      stroke-width="1.000000e+00"
      stroke="#000000"
      stroke-opacity="1.000000"
      fill="none"
      points="657.00,420.70 661.73,420.70"
      />
    <polyline
      stroke-width="1.000000e+00"
      stroke="#000000"
      stroke-opacity="1.000000"
      fill="none"
      points="657.00,453.22 666.45,453.22"
      />
    <polyline
      stroke-width="1.000000e+00"
      stroke="#000000"
      stroke-opacity="1.000000"
      fill="none"
      points="657.00,477.00 100.79,477.00"
      />
    <polyline
      stroke-width="1.000000e+00"
      stroke="#000000"
      stroke-opacity="1.000000"
      fill="none"
      points="626.75,477.00 626.75,481.72"
      />
    <polyline
      stroke-width="1.000000e+00"
      stroke="#000000"
      stroke-opacity="1.000000"
      fill="none"
      points="591.35,477.00 591.35,481.72"
      />
    <polyline
      stroke-width="1.000000e+00"
      stroke="#000000"
      stroke-opacity="1.000000"
      fill="none"
      points="555.93,477.00 555.93,486.45"
      />
    <polyline
      stroke-width="1.000000e+00"
      stroke="#000000"
      stroke-opacity="1.000000"
      fill="none"
      points="520.53,477.00 520.53,481.72"
      />
    <polyline
      stroke-width="1.000000e+00"
      stroke="#000000"
      stroke-opacity="1.000000"
      fill="none"
      points="485.11,477.00 485.11,481.72"
      />
    <polyline
      stroke-width="1.000000e+00"
      stroke="#000000"
      stroke-opacity="1.000000"
      fill="none"
      points="449.71,477.00 449.71,481.72"
      />
    <polyline
      stroke-width="1.000000e+00"
      stroke="#000000"
      stroke-opacity="1.000000"
      fill="none"
      points="414.31,477.00 414.31,481.72"
      />
    <polyline
      stroke-width="1.000000e+00"
      stroke="#000000"
      stroke-opacity="1.000000"
      fill="none"
      points="378.89,477.00 378.89,486.45"
      />
    <polyline
      stroke-width="1.000000e+00"
      stroke="#000000"
      stroke-opacity="1.000000"
      fill="none"
      points="343.49,477.00 343.49,481.72"
      />
    <polyline
      stroke-width="1.000000e+00"
      stroke="#000000"
      stroke-opacity="1.000000"
      fill="none"
      points="308.07,477.00 308.07,481.72"
      />
    <polyline
      stroke-width="1.000000e+00"
      stroke="#000000"
      stroke-opacity="1.000000"
      fill="none"
      points="272.67,477.00 272.67,481.72"
      />
    <polyline
      stroke-width="1.000000e+00"
      stroke="#000000"
      stroke-opacity="1.000000"
      fill="none"
      points="237.25,477.00 237.25,481.72"
      />
    <polyline
      stroke-width="1.000000e+00"
      stroke="#000000"
      stroke-opacity="1.000000"
      fill="none"
      points="201.85,477.00 201.85,486.45"
      />
    <polyline
      stroke-width="1.000000e+00"
      stroke="#000000"
      stroke-opacity="1.000000"
      fill="none"
      points="166.43,477.00 166.43,481.72"
      />
    <polyline
      stroke-width="1.000000e+00"
      stroke="#000000"
      stroke-opacity="1.000000"
      fill="none"
      points="131.03,477.00 131.03,481.72"
      />
    <polyline
      stroke-width="1.000000e+00"
      stroke="#000000"
      stroke-opacity="1.000000"
      fill="none"
      points="100.79,477.00 100.79,63.00"
      />
    <polyline
      stroke-width="1.000000e+00"
      stroke="#000000"
      stroke-opacity="1.000000"
      fill="none"
      points="91.34,453.22 100.79,453.22"
      />
    <polyline
      stroke-width="1.000000e+00"
      stroke="#000000"
      stroke-opacity="1.000000"
      fill="none"
      points="96.07,420.70 100.79,420.70"
      />
    <polyline
      stroke-width="1.000000e+00"
      stroke="#000000"
      stroke-opacity="1.000000"
      fill="none"
      points="96.07,388.18 100.79,388.18"
      />
    <polyline
      stroke-width="1.000000e+00"
      stroke="#000000"
      stroke-opacity="1.000000"
      fill="none"
      points="96.07,355.66 100.79,355.66"
      />
    <polyline
      stroke-width="1.000000e+00"
      stroke="#000000"
      stroke-opacity="1.000000"
      fill="none"
      points="91.34,323.14 100.79,323.14"
      />
    <polyline
      stroke-width="1.000000e+00"
      stroke="#000000"
      stroke-opacity="1.000000"
      fill="none"
      points="96.07,290.62 100.79,290.62"
      />
    <polyline
      stroke-width="1.000000e+00"
      stroke="#000000"
      stroke-opacity="1.000000"
      fill="none"
      points="96.07,258.12 100.79,258.12"
      />
    <polyline
      stroke-width="1.000000e+00"
      stroke="#000000"
      stroke-opacity="1.000000"
      fill="none"
      points="96.07,225.60 100.79,225.60"
      />
    <polyline
      stroke-width="1.000000e+00"
      stroke="#000000"
      stroke-opacity="1.000000"
      fill="none"
      points="91.34,193.08 100.79,193.08"
      />
    <polyline
      stroke-width="1.000000e+00"
      stroke="#000000"
      stroke-opacity="1.000000"
      fill="none"
      points="96.07,160.56 100.79,160.56"
      />
    <polyline
      stroke-width="1.000000e+00"
      stroke="#000000"
      stroke-opacity="1.000000"
      fill="none"
      points="96.07,128.04 100.79,128.04"
      />
    <polyline
      stroke-width="1.000000e+00"
      stroke="#000000"
      stroke-opacity="1.000000"
      fill="none"
      points="96.07,95.52 100.79,95.52"
      />
    <polyline
      stroke-width="1.000000e+00"
      stroke="#000000"
      stroke-opacity="1.000000"
      fill="none"
      points="91.34,63.00 100.79,63.00"
      />
    <g
      clip-path="url(#text-clipping0)"
      >
      <text
        dominant-baseline="no-change"
        fill="#000000"
        fill-opacity="1.000000"
        xml:space="preserve"
        font-size="16"
        transform="matrix(1.000000 0.000000 0.000000 -1.000000 201.868954 40.958281)"
        text-anchor="middle"
        x="0.000000"
        y="6.451584"
><tspan font-family="sans-serif" font-style="normal" font-weight="normal">&#x2d;&#x31;</tspan></text>
    </g>
    <g
      clip-path="url(#text-clipping0)"
      >
      <text
        dominant-baseline="no-change"
        fill="#000000"
        fill-opacity="1.000000"
        xml:space="preserve"
        font-size="16"
        transform="matrix(1.000000 0.000000 0.000000 -1.000000 378.908048 40.958281)"
        text-anchor="middle"
        x="0.000000"
        y="6.451584"
><tspan font-family="sans-serif" font-style="normal" font-weight="normal">&#x30;</tspan></text>
    </g>
    <g
      clip-path="url(#text-clipping0)"
      >
      <text
        dominant-baseline="no-change"
        fill="#000000"
        fill-opacity="1.000000"
        xml:space="preserve"
        font-size="16"
        transform="matrix(1.000000 0.000000 0.000000 -1.000000 555.947142 40.958281)"
        text-anchor="middle"
        x="0.000000"
        y="6.451584"
><tspan font-family="sans-serif" font-style="normal" font-weight="normal">&#x31;</tspan></text>
    </g>
    <g
      clip-path="url(#text-clipping0)"
      >
      <text
        dominant-baseline="no-change"
        fill="#000000"
        fill-opacity="1.000000"
        xml:space="preserve"
        font-size="16"
        transform="matrix(1.000000 0.000000 0.000000 -1.000000 88.200934 62.997528)"
        text-anchor="end"
        x="0.000000"
        y="6.451584"
><tspan font-family="sans-serif" font-style="normal" font-weight="normal">&#x30;</tspan></text>
    </g>
    <g
      clip-path="url(#text-clipping0)"
      >
      <text
        dominant-baseline="no-change"
        fill="#000000"
        fill-opacity="1.000000"
        xml:space="preserve"
        font-size="16"
        transform="matrix(1.000000 0.000000 0.000000 -1.000000 88.200934 193.079623)"
        text-anchor="end"
        x="0.000000"
        y="6.451584"
><tspan font-family="sans-serif" font-style="normal" font-weight="normal">&#x32;</tspan></text>
    </g>
    <g
      clip-path="url(#text-clipping0)"
      >
      <text
        dominant-baseline="no-change"
        fill="#000000"
        fill-opacity="1.000000"
        xml:space="preserve"
        font-size="16"
        transform="matrix(1.000000 0.000000 0.000000 -1.000000 88.200934 323.161718)"
        text-anchor="end"
        x="0.000000"
        y="6.451584"
><tspan font-family="sans-serif" font-style="normal" font-weight="normal">&#x34;</tspan></text>
    </g>
    <g
      clip-path="url(#text-clipping0)"
      >
      <text
        dominant-baseline="no-change"
        fill="#000000"
        fill-opacity="1.000000"
        xml:space="preserve"
        font-size="16"
        transform="matrix(1.000000 0.000000 0.000000 -1.000000 88.200934 453.221839)"
        text-anchor="end"
        x="0.000000"
        y="6.451584"
><tspan font-family="sans-serif" font-style="normal" font-weight="normal">&#x36;</tspan></text>
    </g>
    <g
      clip-path="url(#text-clipping0)"
      >
      <text
        dominant-baseline="no-change"
        fill="#000000"
        fill-opacity="1.000000"
        xml:space="preserve"
        font-size="16"
        transform="matrix(1.000000 0.000000 0.000000 -1.000000 60.470595 518.394726)"
        text-anchor="middle"
        x="0.000000"
        y="6.451584"
><tspan font-family="sans-serif" font-style="normal" font-weight="normal">&#x28;&#x78;&#x31;&#x30;<tspan dy="-11.010430" font-size="12">&#x2d;&#x38;<tspan dy="11.010430" font-size="16">&#x29;</tspan></tspan></tspan></text>
    </g>
  </g>
</svg>
