<?xml version="1.0" encoding="UTF-8"?>
<!DOCTYPE svg PUBLIC "-//W3C//DTD SVG 1.1//EN"
        "http://www.w3.org/Graphics/SVG/1.1/DTD/svg11.dtd">
<svg
  xmlns="http://www.w3.org/2000/svg"
  xmlns:xlink="http://www.w3.org/1999/xlink"
  version="1.1"
  width="720pt"
  height="540pt"
  viewBox="0 0 720 540"
  >
  <rect
    x="0"
    y="0"
    width="720"
    height="540"
    stroke="none"
    fill="#FFFFFF"
    fill-opacity="1.000000"
    />
  <g
    transform="matrix(1 0 0 -1 0 540)"
    >
    <polyline
      stroke-width="1.000000e+00"
      stroke="#0000FF"
      stroke-opacity="1.000000"
      fill="none"
      points="100.79,63.00 101.34,63.00 101.91,63.00 102.46,63.00 103.01,63.00 103.58,63.00 104.13,63.00 104.68,63.00 105.25,63.00 105.80,63.00 
      106.35,63.00 106.92,63.00 107.47,63.00 108.02,63.00 108.59,63.00 109.14,63.00 109.69,63.00 110.26,63.00 110.81,63.00 111.36,63.00 
      111.93,63.00 112.48,63.00 113.03,63.00 113.60,63.00 114.15,63.00 114.70,63.00 115.27,63.00 115.82,63.00 116.37,63.00 116.94,63.00 
      117.49,63.00 118.04,63.00 118.61,63.00 119.16,63.00 119.71,63.02 120.28,63.02 120.83,63.02 121.38,63.02 121.95,63.02 122.50,63.02 
      123.05,63.02 123.62,63.02 124.17,63.02 124.72,63.04 125.29,63.04 125.84,63.04 126.39,63.04 126.96,63.04 127.51,63.04 128.06,63.06 
      128.63,63.06 129.18,63.06 129.73,63.06 130.30,63.09 130.85,63.09 131.40,63.09 131.97,63.09 132.52,63.11 133.09,63.11 133.64,63.11 
      134.19,63.13 134.76,63.13 135.31,63.15 135.86,63.15 136.43,63.15 136.98,63.17 137.53,63.17 138.10,63.20 138.65,63.20 139.20,63.22 
      139.77,63.22 140.32,63.24 140.87,63.26 141.44,63.26 141.99,63.28 142.54,63.28 143.11,63.31 143.66,63.33 144.21,63.33 144.78,63.35 
      145.33,63.37 145.88,63.39 146.45,63.39 147.00,63.42 147.55,63.44 148.12,63.46 148.67,63.46 149.22,63.48 149.79,63.50 150.34,63.52 
      150.89,63.55 151.46,63.57 152.01,63.57 152.56,63.59 153.13,63.61 153.68,63.63 154.23,63.66 154.80,63.68 155.35,63.68 155.90,63.70 
      156.47,63.72 157.02,63.74 157.57,63.77 158.14,63.77 158.69,63.79 159.24,63.81 159.81,63.83 160.36,63.83 160.91,63.85 161.48,63.85 
      162.03,63.88 162.58,63.88 163.15,63.90 163.70,63.90 164.25,63.92 164.82,63.92 165.37,63.92 165.92,63.92 166.49,63.94 167.04,63.94 
      167.59,63.94 168.16,63.94 168.71,63.92 169.26,63.92 169.83,63.92 170.38,63.92 170.93,63.90 171.50,63.90 172.05,63.88 172.60,63.85 
      173.17,63.85 173.72,63.83 174.29,63.81 174.84,63.79 175.39,63.77 175.96,63.74 176.51,63.70 177.06,63.68 177.63,63.66 178.18,63.61 
      178.73,63.59 179.30,63.55 179.85,63.52 180.40,63.48 180.97,63.44 181.52,63.42 182.07,63.37 182.64,63.33 183.19,63.31 183.74,63.26 
      184.31,63.24 184.86,63.20 185.41,63.15 185.98,63.13 186.53,63.11 187.08,63.09 187.65,63.04 188.20,63.04 188.75,63.02 189.32,63.00 
      189.87,63.00 190.42,63.00 190.99,63.00 191.54,63.02 192.09,63.04 192.66,63.06 193.21,63.09 193.76,63.13 194.33,63.20 194.88,63.26 
      195.43,63.33 196.00,63.42 196.55,63.52 197.10,63.63 197.67,63.77 198.22,63.90 198.77,64.07 199.34,64.25 199.89,64.43 200.44,64.65 
      201.01,64.87 201.56,65.13 202.11,65.39 202.68,65.68 203.23,65.99 203.78,66.34 204.35,66.69 204.90,67.06 205.45,67.46 206.02,67.90 
      206.57,68.34 207.12,68.82 207.69,69.33 208.24,69.85 208.79,70.40 209.36,70.97 209.91,71.59 210.46,72.20 211.03,72.86 211.58,73.54 
      212.13,74.25 212.70,74.97 213.25,75.74 213.80,76.51 214.37,77.30 214.92,78.14 215.49,78.97 216.04,79.83 216.59,80.71 217.16,81.61 
      217.71,82.51 218.26,83.43 218.83,84.38 219.38,85.30 219.93,86.27 220.50,87.21 221.05,88.18 221.60,89.15 222.17,90.09 222.72,91.06 
      223.27,92.00 223.84,92.95 224.39,93.87 224.94,94.77 225.51,95.65 226.06,96.53 226.61,97.36 227.18,98.18 227.73,98.97 228.28,99.71 
      228.85,100.42 229.40,101.08 229.95,101.71 230.52,102.29 231.07,102.79 231.62,103.25 232.19,103.67 232.74,104.02 233.29,104.31 233.86,104.51 
      234.41,104.66 234.96,104.75 235.53,104.75 236.08,104.68 236.63,104.53 237.20,104.29 237.75,104.00 238.30,103.60 238.87,103.14 239.42,102.59 
      239.97,101.98 240.54,101.25 241.09,100.48 241.64,99.63 242.21,98.68 242.76,97.67 "/>
    <polyline
      stroke-width="1.000000e+00"
      stroke="#0000FF"
      stroke-opacity="1.000000"
      fill="none"
      points="242.76,97.67 243.31,96.59 243.88,95.45 244.43,94.24 244.98,92.99 245.55,91.65 246.10,90.29 246.65,88.88 247.22,87.43 247.77,85.96 
      248.32,84.44 248.89,82.93 249.44,81.39 249.99,79.85 250.56,78.33 251.11,76.84 251.66,75.35 252.23,73.92 252.78,72.51 253.33,71.17 
      253.90,69.90 254.45,68.69 255.00,67.57 255.57,66.56 256.12,65.63 256.69,64.84 257.24,64.18 257.79,63.66 258.36,63.28 258.91,63.06 
      259.46,63.00 260.03,63.13 260.58,63.44 261.13,63.92 261.70,64.62 262.25,65.52 262.80,66.65 263.37,67.99 263.92,69.55 264.47,71.33 
      265.04,73.32 265.59,75.57 266.14,78.05 266.71,80.75 267.26,83.67 267.81,86.82 268.38,90.18 268.93,93.78 269.48,97.56 270.05,101.56 
      270.60,105.74 271.15,110.11 271.72,114.63 272.27,119.34 272.82,124.17 273.39,129.14 273.94,134.21 274.49,139.38 275.06,144.61 275.61,149.90 
      276.16,155.24 276.73,160.58 277.28,165.90 277.83,171.22 278.40,176.45 278.95,181.63 279.50,186.69 280.07,191.63 280.62,196.42 281.17,201.03 
      281.74,205.45 282.29,209.63 282.84,213.58 283.41,217.25 283.96,220.63 284.51,223.71 285.08,226.44 285.63,228.83 286.18,230.85 286.75,232.48 
      287.30,233.71 287.85,234.54 288.42,234.94 288.97,234.92 289.52,234.46 290.09,233.53 290.64,232.19 291.19,230.39 291.76,228.17 292.31,225.51 
      292.86,222.41 293.43,218.90 293.98,214.99 294.53,210.70 295.10,206.04 295.65,201.03 296.20,195.69 296.77,190.07 297.32,184.18 297.89,178.05 
      298.44,171.72 298.99,165.22 299.56,158.60 300.11,151.86 300.66,145.09 301.23,138.30 301.78,131.55 302.33,124.87 302.90,118.30 303.45,111.91 
      304.00,105.71 304.57,99.78 305.12,94.13 305.67,88.84 306.24,83.94 306.79,79.46 307.34,75.41 307.91,71.90 308.46,68.93 309.01,66.51 
      309.58,64.71 310.13,63.55 310.68,63.02 311.25,63.17 311.80,64.03 312.35,65.61 312.92,67.90 313.47,70.91 314.02,74.67 314.59,79.13 
      315.14,84.33 315.69,90.22 316.26,96.81 316.81,104.09 317.36,112.02 317.93,120.55 318.48,129.66 319.03,139.33 319.60,149.51 320.15,160.16 
      320.70,171.19 321.27,182.62 321.82,194.31 322.37,206.26 322.94,218.41 323.49,230.65 324.04,242.98 324.61,255.26 325.16,267.48 325.71,279.54 
      326.28,291.37 326.83,302.92 327.38,314.11 327.95,324.88 328.50,335.16 329.05,344.87 329.62,353.99 330.17,362.41 330.72,370.12 331.29,377.04 
      331.84,383.13 332.39,388.36 332.96,392.66 333.51,396.03 334.06,398.42 334.63,399.83 335.18,400.22 335.73,399.61 336.30,397.96 336.85,395.30 
      337.40,391.63 337.97,386.95 338.52,381.33 339.09,374.73 339.64,367.24 340.19,358.89 340.76,349.73 341.31,339.77 341.86,329.14 342.43,317.84 
      342.98,305.98 343.53,293.61 344.10,280.82 344.65,267.68 345.20,254.28 345.77,240.70 346.32,227.03 346.87,213.36 347.44,199.80 347.99,186.42 
      348.54,173.30 349.11,160.56 349.66,148.28 350.21,136.52 350.78,125.38 351.33,114.94 351.88,105.27 352.45,96.46 353.00,88.55 353.55,81.63 
      354.12,75.72 354.67,70.89 355.22,67.17 355.79,64.62 356.34,63.24 356.89,63.06 357.46,64.10 358.01,66.36 358.56,69.83 359.13,74.49 
      359.68,80.33 360.23,87.32 360.80,95.43 361.35,104.62 361.90,114.83 362.47,126.00 363.02,138.06 363.57,150.96 364.14,164.60 364.69,178.93 
      365.24,193.83 365.81,209.23 366.36,225.03 366.91,241.11 367.48,257.40 368.03,273.79 368.58,290.16 369.15,306.42 369.70,322.46 370.25,338.19 
      370.82,353.48 371.37,368.29 371.92,382.47 372.49,395.94 373.04,408.62 373.59,420.44 374.16,431.29 374.71,441.14 375.26,449.90 375.83,457.51 
      376.38,463.92 376.93,469.11 377.50,473.04 378.05,475.68 378.60,477.00 379.17,477.00 379.72,475.68 380.27,473.04 380.84,469.11 381.39,463.92 
      381.96,457.51 382.51,449.90 383.06,441.14 383.63,431.29 384.18,420.44 384.73,408.62 "/>
    <polyline
      stroke-width="1.000000e+00"
      stroke="#0000FF"
      stroke-opacity="1.000000"
      fill="none"
      points="384.73,408.62 385.30,395.94 385.85,382.47 386.40,368.29 386.97,353.48 387.52,338.19 388.07,322.46 388.64,306.42 389.19,290.16 389.74,273.79 
      390.31,257.40 390.86,241.11 391.41,225.03 391.98,209.23 392.53,193.83 393.08,178.93 393.65,164.60 394.20,150.96 394.75,138.06 395.32,126.00 
      395.87,114.83 396.42,104.62 396.99,95.43 397.54,87.32 398.09,80.33 398.66,74.49 399.21,69.83 399.76,66.36 400.33,64.10 400.88,63.06 
      401.43,63.24 402.00,64.62 402.55,67.17 403.10,70.89 403.67,75.72 404.22,81.63 404.77,88.55 405.34,96.46 405.89,105.27 406.44,114.94 
      407.01,125.38 407.56,136.52 408.11,148.28 408.68,160.56 409.23,173.30 409.78,186.42 410.35,199.80 410.90,213.36 411.45,227.03 412.02,240.70 
      412.57,254.28 413.12,267.68 413.69,280.82 414.24,293.61 414.79,305.98 415.36,317.84 415.91,329.14 416.46,339.77 417.03,349.73 417.58,358.89 
      418.13,367.24 418.70,374.73 419.25,381.33 419.80,386.95 420.37,391.63 420.92,395.30 421.47,397.96 422.04,399.61 422.59,400.22 423.16,399.83 
      423.71,398.42 424.26,396.03 424.83,392.66 425.38,388.36 425.93,383.13 426.50,377.04 427.05,370.12 427.60,362.41 428.17,353.99 428.72,344.87 
      429.27,335.16 429.84,324.88 430.39,314.11 430.94,302.92 431.51,291.37 432.06,279.54 432.61,267.48 433.18,255.26 433.73,242.98 434.28,230.65 
      434.85,218.41 435.40,206.26 435.95,194.31 436.52,182.62 437.07,171.19 437.62,160.16 438.19,149.51 438.74,139.33 439.29,129.66 439.86,120.55 
      440.41,112.02 440.96,104.09 441.53,96.81 442.08,90.22 442.63,84.33 443.20,79.13 443.75,74.67 444.30,70.91 444.87,67.90 445.42,65.61 
      445.97,64.03 446.54,63.17 447.09,63.02 447.64,63.55 448.21,64.71 448.76,66.51 449.31,68.93 449.88,71.90 450.43,75.41 450.98,79.46 
      451.55,83.94 452.10,88.84 452.65,94.13 453.22,99.78 453.77,105.71 454.32,111.91 454.89,118.30 455.44,124.87 455.99,131.55 456.56,138.30 
      457.11,145.09 457.66,151.86 458.23,158.60 458.78,165.22 459.33,171.72 459.90,178.05 460.45,184.18 461.00,190.07 461.57,195.69 462.12,201.03 
      462.67,206.04 463.24,210.70 463.79,214.99 464.36,218.90 464.91,222.41 465.46,225.51 466.03,228.17 466.58,230.39 467.13,232.19 467.70,233.53 
      468.25,234.46 468.80,234.92 469.37,234.94 469.92,234.54 470.47,233.71 471.04,232.48 471.59,230.85 472.14,228.83 472.71,226.44 473.26,223.71 
      473.81,220.63 474.38,217.25 474.93,213.58 475.48,209.63 476.05,205.45 476.60,201.03 477.15,196.42 477.72,191.63 478.27,186.69 478.82,181.63 
      479.39,176.45 479.94,171.22 480.49,165.90 481.06,160.58 481.61,155.24 482.16,149.90 482.73,144.61 483.28,139.38 483.83,134.21 484.40,129.14 
      484.95,124.17 485.50,119.34 486.07,114.63 486.62,110.11 487.17,105.74 487.74,101.56 488.29,97.56 488.84,93.78 489.41,90.18 489.96,86.82 
      490.51,83.67 491.08,80.75 491.63,78.05 492.18,75.57 492.75,73.32 493.30,71.33 493.85,69.55 494.42,67.99 494.97,66.65 495.52,65.52 
      496.09,64.62 496.64,63.92 497.19,63.44 497.76,63.13 498.31,63.00 498.86,63.06 499.43,63.28 499.98,63.66 500.53,64.18 501.10,64.84 
      501.65,65.63 502.20,66.56 502.77,67.57 503.32,68.69 503.87,69.90 504.44,71.17 504.99,72.51 505.56,73.92 506.11,75.35 506.66,76.84 
      507.23,78.33 507.78,79.85 508.33,81.39 508.90,82.93 509.45,84.44 510.00,85.96 510.57,87.43 511.12,88.88 511.67,90.29 512.24,91.65 
      512.79,92.99 513.34,94.24 513.91,95.45 514.46,96.59 515.01,97.67 515.58,98.68 516.13,99.63 516.68,100.48 517.25,101.25 517.80,101.98 
      518.35,102.59 518.92,103.14 519.47,103.60 520.02,104.00 520.59,104.29 521.14,104.53 521.69,104.68 522.26,104.75 522.81,104.75 523.36,104.66 
      523.93,104.51 524.48,104.31 525.03,104.02 525.60,103.67 526.15,103.25 526.70,102.79 "/>
    <polyline
      stroke-width="1.000000e+00"
      stroke="#0000FF"
      stroke-opacity="1.000000"
      fill="none"
      points="526.70,102.79 527.27,102.29 527.82,101.71 528.37,101.08 528.94,100.42 529.49,99.71 530.04,98.97 530.61,98.18 531.16,97.36 531.71,96.53 
      532.28,95.65 532.83,94.77 533.38,93.87 533.95,92.95 534.50,92.00 535.05,91.06 535.62,90.09 536.17,89.15 536.72,88.18 537.29,87.21 
      537.84,86.27 538.39,85.30 538.96,84.38 539.51,83.43 540.06,82.51 540.63,81.61 541.18,80.71 541.73,79.83 542.30,78.97 542.85,78.14 
      543.40,77.30 543.97,76.51 544.52,75.74 545.07,74.97 545.64,74.25 546.19,73.54 546.76,72.86 547.31,72.20 547.86,71.59 548.43,70.97 
      548.98,70.40 549.53,69.85 550.10,69.33 550.65,68.82 551.20,68.34 551.77,67.90 552.32,67.46 552.87,67.06 553.44,66.69 553.99,66.34 
      554.54,65.99 555.11,65.68 555.66,65.39 556.21,65.13 556.78,64.87 557.33,64.65 557.88,64.43 558.45,64.25 559.00,64.07 559.55,63.90 
      560.12,63.77 560.67,63.63 561.22,63.52 561.79,63.42 562.34,63.33 562.89,63.26 563.46,63.20 564.01,63.13 564.56,63.09 565.13,63.06 
      565.68,63.04 566.23,63.02 566.80,63.00 567.35,63.00 567.90,63.00 568.47,63.00 569.02,63.02 569.57,63.04 570.14,63.04 570.69,63.09 
      571.24,63.11 571.81,63.13 572.36,63.15 572.91,63.20 573.48,63.24 574.03,63.26 574.58,63.31 575.15,63.33 575.70,63.37 576.25,63.42 
      576.82,63.44 577.37,63.48 577.92,63.52 578.49,63.55 579.04,63.59 579.59,63.61 580.16,63.66 580.71,63.68 581.26,63.70 581.83,63.74 
      582.38,63.77 582.93,63.79 583.50,63.81 584.05,63.83 584.60,63.85 585.17,63.85 585.72,63.88 586.27,63.90 586.84,63.90 587.39,63.92 
      587.96,63.92 588.51,63.92 589.06,63.92 589.63,63.94 590.18,63.94 590.73,63.94 591.30,63.94 591.85,63.92 592.40,63.92 592.97,63.92 
      593.52,63.92 594.07,63.90 594.64,63.90 595.19,63.88 595.74,63.88 596.31,63.85 596.86,63.85 597.41,63.83 597.98,63.83 598.53,63.81 
      599.08,63.79 599.65,63.77 600.20,63.77 600.75,63.74 601.32,63.72 601.87,63.70 602.42,63.68 602.99,63.68 603.54,63.66 604.09,63.63 
      604.66,63.61 605.21,63.59 605.76,63.57 606.33,63.57 606.88,63.55 607.43,63.52 608.00,63.50 608.55,63.48 609.10,63.46 609.67,63.46 
      610.22,63.44 610.77,63.42 611.34,63.39 611.89,63.39 612.44,63.37 613.01,63.35 613.56,63.33 614.11,63.33 614.68,63.31 615.23,63.28 
      615.78,63.28 616.35,63.26 616.90,63.26 617.45,63.24 618.02,63.22 618.57,63.22 619.12,63.20 619.69,63.20 620.24,63.17 620.79,63.17 
      621.36,63.15 621.91,63.15 622.46,63.15 623.03,63.13 623.58,63.13 624.13,63.11 624.70,63.11 625.25,63.11 625.80,63.09 626.37,63.09 
      626.92,63.09 627.47,63.09 628.04,63.06 628.59,63.06 629.16,63.06 629.71,63.06 630.26,63.04 630.83,63.04 631.38,63.04 631.93,63.04 
      632.50,63.04 633.05,63.04 633.60,63.02 634.17,63.02 634.72,63.02 635.27,63.02 635.84,63.02 636.39,63.02 636.94,63.02 637.51,63.02 
      638.06,63.02 638.61,63.00 639.18,63.00 639.73,63.00 640.28,63.00 640.85,63.00 641.40,63.00 641.95,63.00 642.52,63.00 643.07,63.00 
      643.62,63.00 644.19,63.00 644.74,63.00 645.29,63.00 645.86,63.00 646.41,63.00 646.96,63.00 647.53,63.00 648.08,63.00 648.63,63.00 
      649.20,63.00 649.75,63.00 650.30,63.00 650.87,63.00 651.42,63.00 651.97,63.00 652.54,63.00 653.09,63.00 653.64,63.00 654.21,63.00 
      654.76,63.00 655.31,63.00 655.88,63.00 656.43,63.00 656.98,63.00 "/>
    <clipPath
      id="text-clipping0"
      >
      <polygon
        points="0.000000,0.000000 0.000000,539.994507 720.000000,539.994507 720.000000,0.000000"
        />
    </clipPath>
    <g
      clip-path="url(#text-clipping0)"
      >
      <text
        dominant-baseline="no-change"
        fill="#000000"
        fill-opacity="1.000000"
        xml:space="preserve"
        font-size="16"
        transform="matrix(1.000000 0.000000 0.000000 -1.000000 378.908048 502.200385)"
        text-anchor="middle"
        x="0.000000"
        y="6.451584"
><tspan font-family="sans-serif" font-style="normal" font-weight="normal">&#x46;&#x65;&#x6e;&#x74;&#x65;&#x73;&#x20;&#x64;&#x27;&#x59;&#x6f;&#x75;&#x6e;&#x67;&#x3a;&#x20;&#x3bb;&#x20;&#x65;&#x74;&#x20;&#x64;&#x3d;&#x34;&#x2e;&#x3bb;</tspan></text>
    </g>
    <g
      clip-path="url(#text-clipping0)"
      >
      <text
        dominant-baseline="no-change"
        fill="#000000"
        fill-opacity="1.000000"
        xml:space="preserve"
        font-size="16"
        transform="matrix(1.000000 0.000000 0.000000 -1.000000 378.908048 22.676473)"
        text-anchor="middle"
        x="0.000000"
        y="6.451584"
><tspan font-family="sans-serif" font-style="normal" font-weight="normal">&#x41;&#x6e;&#x67;&#x6c;&#x65;&#x20;&#x3b8;&#x20;&#x65;&#x6e;&#x20;&#x72;&#x61;&#x64;</tspan></text>
    </g>
    <g
      clip-path="url(#text-clipping0)"
      >
      <text
        dominant-baseline="no-change"
        fill="#000000"
        fill-opacity="1.000000"
        xml:space="preserve"
        font-size="16"
        transform="matrix(0.000000 1.000000 1.000000 -0.000000 37.794122 270.008240)"
        text-anchor="middle"
        x="0.000000"
        y="6.451584"
><tspan font-family="sans-serif" font-style="normal" font-weight="normal">&#x50;&#x72;&#x6f;&#x62;&#x61;&#x62;&#x69;&#x6c;&#x69;&#x74;&#xe9;</tspan></text>
    </g>
    <polyline
      stroke-width="1.000000e+00"
      stroke="#000000"
      stroke-opacity="1.000000"
      fill="none"
      points="100.79,63.00 657.00,63.00"
      />
    <polyline
      stroke-width="1.000000e+00"
      stroke="#000000"
      stroke-opacity="1.000000"
      fill="none"
      points="131.03,58.27 131.03,63.00"
      />
    <polyline
      stroke-width="1.000000e+00"
      stroke="#000000"
      stroke-opacity="1.000000"
      fill="none"
      points="166.43,58.27 166.43,63.00"
      />
    <polyline
      stroke-width="1.000000e+00"
      stroke="#000000"
      stroke-opacity="1.000000"
      fill="none"
      points="201.85,53.55 201.85,63.00"
      />
    <polyline
      stroke-width="1.000000e+00"
      stroke="#000000"
      stroke-opacity="1.000000"
      fill="none"
      points="237.25,58.27 237.25,63.00"
      />
    <polyline
      stroke-width="1.000000e+00"
      stroke="#000000"
      stroke-opacity="1.000000"
      fill="none"
      points="272.67,58.27 272.67,63.00"
      />
    <polyline
      stroke-width="1.000000e+00"
      stroke="#000000"
      stroke-opacity="1.000000"
      fill="none"
      points="308.07,58.27 308.07,63.00"
      />
    <polyline
      stroke-width="1.000000e+00"
      stroke="#000000"
      stroke-opacity="1.000000"
      fill="none"
      points="343.49,58.27 343.49,63.00"
      />
    <polyline
      stroke-width="1.000000e+00"
      stroke="#000000"
      stroke-opacity="1.000000"
      fill="none"
      points="378.89,53.55 378.89,63.00"
      />
    <polyline
      stroke-width="1.000000e+00"
      stroke="#000000"
      stroke-opacity="1.000000"
      fill="none"
      points="414.31,58.27 414.31,63.00"
      />
    <polyline
      stroke-width="1.000000e+00"
      stroke="#000000"
      stroke-opacity="1.000000"
      fill="none"
      points="449.71,58.27 449.71,63.00"
      />
    <polyline
      stroke-width="1.000000e+00"
      stroke="#000000"
      stroke-opacity="1.000000"
      fill="none"
      points="485.11,58.27 485.11,63.00"
      />
    <polyline
      stroke-width="1.000000e+00"
      stroke="#000000"
      stroke-opacity="1.000000"
      fill="none"
      points="520.53,58.27 520.53,63.00"
      />
    <polyline
      stroke-width="1.000000e+00"
      stroke="#000000"
      stroke-opacity="1.000000"
      fill="none"
      points="555.93,53.55 555.93,63.00"
      />
    <polyline
      stroke-width="1.000000e+00"
      stroke="#000000"
      stroke-opacity="1.000000"
      fill="none"
      points="591.35,58.27 591.35,63.00"
      />
    <polyline
      stroke-width="1.000000e+00"
      stroke="#000000"
      stroke-opacity="1.000000"
      fill="none"
      points="626.75,58.27 626.75,63.00"
      />
    <polyline
      stroke-width="1.000000e+00"
      stroke="#000000"
      stroke-opacity="1.000000"
      fill="none"
      points="657.00,63.00 657.00,477.00"
      />
    <polyline
      stroke-width="1.000000e+00"
      stroke="#000000"
      stroke-opacity="1.000000"
      fill="none"
      points="657.00,63.00 666.45,63.00"
      />
    <polyline
      stroke-width="1.000000e+00"
      stroke="#000000"
      stroke-opacity="1.000000"
      fill="none"
      points="657.00,95.52 661.73,95.52"
      />
    <polyline
      stroke-width="1.000000e+00"
      stroke="#000000"
      stroke-opacity="1.000000"
      fill="none"
      points="657.00,128.06 661.73,128.06"
      />
    <polyline
      stroke-width="1.000000e+00"
      stroke="#000000"
      stroke-opacity="1.000000"
      fill="none"
      points="657.00,160.58 661.73,160.58"
      />
    <polyline
      stroke-width="1.000000e+00"
      stroke="#000000"
      stroke-opacity="1.000000"
      fill="none"
      points="657.00,193.10 666.45,193.10"
      />
    <polyline
      stroke-width="1.000000e+00"
      stroke="#000000"
      stroke-opacity="1.000000"
      fill="none"
      points="657.00,225.64 661.73,225.64"
      />
    <polyline
      stroke-width="1.000000e+00"
      stroke="#000000"
      stroke-opacity="1.000000"
      fill="none"
      points="657.00,258.16 661.73,258.16"
      />
    <polyline
      stroke-width="1.000000e+00"
      stroke="#000000"
      stroke-opacity="1.000000"
      fill="none"
      points="657.00,290.69 661.73,290.69"
      />
    <polyline
      stroke-width="1.000000e+00"
      stroke="#000000"
      stroke-opacity="1.000000"
      fill="none"
      points="657.00,323.23 666.45,323.23"
      />
    <polyline
      stroke-width="1.000000e+00"
      stroke="#000000"
      stroke-opacity="1.000000"
      fill="none"
      points="657.00,355.75 661.73,355.75"
      />
    <polyline
      stroke-width="1.000000e+00"
      stroke="#000000"
      stroke-opacity="1.000000"
      fill="none"
      points="657.00,388.27 661.73,388.27"
      />
    <polyline
      stroke-width="1.000000e+00"
      stroke="#000000"
      stroke-opacity="1.000000"
      fill="none"
      points="657.00,420.81 661.73,420.81"
      />
    <polyline
      stroke-width="1.000000e+00"
      stroke="#000000"
      stroke-opacity="1.000000"
      fill="none"
      points="657.00,453.33 666.45,453.33"
      />
    <polyline
      stroke-width="1.000000e+00"
      stroke="#000000"
      stroke-opacity="1.000000"
      fill="none"
      points="657.00,477.00 100.79,477.00"
      />
    <polyline
      stroke-width="1.000000e+00"
      stroke="#000000"
      stroke-opacity="1.000000"
      fill="none"
      points="626.75,477.00 626.75,481.72"
      />
    <polyline
      stroke-width="1.000000e+00"
      stroke="#000000"
      stroke-opacity="1.000000"
      fill="none"
      points="591.35,477.00 591.35,481.72"
      />
    <polyline
      stroke-width="1.000000e+00"
      stroke="#000000"
      stroke-opacity="1.000000"
      fill="none"
      points="555.93,477.00 555.93,486.45"
      />
    <polyline
      stroke-width="1.000000e+00"
      stroke="#000000"
      stroke-opacity="1.000000"
      fill="none"
      points="520.53,477.00 520.53,481.72"
      />
    <polyline
      stroke-width="1.000000e+00"
      stroke="#000000"
      stroke-opacity="1.000000"
      fill="none"
      points="485.11,477.00 485.11,481.72"
      />
    <polyline
      stroke-width="1.000000e+00"
      stroke="#000000"
      stroke-opacity="1.000000"
      fill="none"
      points="449.71,477.00 449.71,481.72"
      />
    <polyline
      stroke-width="1.000000e+00"
      stroke="#000000"
      stroke-opacity="1.000000"
      fill="none"
      points="414.31,477.00 414.31,481.72"
      />
    <polyline
      stroke-width="1.000000e+00"
      stroke="#000000"
      stroke-opacity="1.000000"
      fill="none"
      points="378.89,477.00 378.89,486.45"
      />
    <polyline
      stroke-width="1.000000e+00"
      stroke="#000000"
      stroke-opacity="1.000000"
      fill="none"
      points="343.49,477.00 343.49,481.72"
      />
    <polyline
      stroke-width="1.000000e+00"
      stroke="#000000"
      stroke-opacity="1.000000"
      fill="none"
      points="308.07,477.00 308.07,481.72"
      />
    <polyline
      stroke-width="1.000000e+00"
      stroke="#000000"
      stroke-opacity="1.000000"
      fill="none"
      points="272.67,477.00 272.67,481.72"
      />
    <polyline
      stroke-width="1.000000e+00"
      stroke="#000000"
      stroke-opacity="1.000000"
      fill="none"
      points="237.25,477.00 237.25,481.72"
      />
    <polyline
      stroke-width="1.000000e+00"
      stroke="#000000"
      stroke-opacity="1.000000"
      fill="none"
      points="201.85,477.00 201.85,486.45"
      />
    <polyline
      stroke-width="1.000000e+00"
      stroke="#000000"
      stroke-opacity="1.000000"
      fill="none"
      points="166.43,477.00 166.43,481.72"
      />
    <polyline
      stroke-width="1.000000e+00"
      stroke="#000000"
      stroke-opacity="1.000000"
      fill="none"
      points="131.03,477.00 131.03,481.72"
      />
    <polyline
      stroke-width="1.000000e+00"
      stroke="#000000"
      stroke-opacity="1.000000"
      fill="none"
      points="100.79,477.00 100.79,63.00"
      />
    <polyline
      stroke-width="1.000000e+00"
      stroke="#000000"
      stroke-opacity="1.000000"
      fill="none"
      points="91.34,453.33 100.79,453.33"
      />
    <polyline
      stroke-width="1.000000e+00"
      stroke="#000000"
      stroke-opacity="1.000000"
      fill="none"
      points="96.07,420.81 100.79,420.81"
      />
    <polyline
      stroke-width="1.000000e+00"
      stroke="#000000"
      stroke-opacity="1.000000"
      fill="none"
      points="96.07,388.27 100.79,388.27"
      />
    <polyline
      stroke-width="1.000000e+00"
      stroke="#000000"
      stroke-opacity="1.000000"
      fill="none"
      points="96.07,355.75 100.79,355.75"
      />
    <polyline
      stroke-width="1.000000e+00"
      stroke="#000000"
      stroke-opacity="1.000000"
      fill="none"
      points="91.34,323.23 100.79,323.23"
      />
    <polyline
      stroke-width="1.000000e+00"
      stroke="#000000"
      stroke-opacity="1.000000"
      fill="none"
      points="96.07,290.69 100.79,290.69"
      />
    <polyline
      stroke-width="1.000000e+00"
      stroke="#000000"
      stroke-opacity="1.000000"
      fill="none"
      points="96.07,258.16 100.79,258.16"
      />
    <polyline
      stroke-width="1.000000e+00"
      stroke="#000000"
      stroke-opacity="1.000000"
      fill="none"
      points="96.07,225.64 100.79,225.64"
      />
    <polyline
      stroke-width="1.000000e+00"
      stroke="#000000"
      stroke-opacity="1.000000"
      fill="none"
      points="91.34,193.10 100.79,193.10"
      />
    <polyline
      stroke-width="1.000000e+00"
      stroke="#000000"
      stroke-opacity="1.000000"
      fill="none"
      points="96.07,160.58 100.79,160.58"
      />
    <polyline
      stroke-width="1.000000e+00"
      stroke="#000000"
      stroke-opacity="1.000000"
      fill="none"
      points="96.07,128.06 100.79,128.06"
      />
    <polyline
      stroke-width="1.000000e+00"
      stroke="#000000"
      stroke-opacity="1.000000"
      fill="none"
      points="96.07,95.52 100.79,95.52"
      />
    <polyline
      stroke-width="1.000000e+00"
      stroke="#000000"
      stroke-opacity="1.000000"
      fill="none"
      points="91.34,63.00 100.79,63.00"
      />
    <g
      clip-path="url(#text-clipping0)"
      >
      <text
        dominant-baseline="no-change"
        fill="#000000"
        fill-opacity="1.000000"
        xml:space="preserve"
        font-size="16"
        transform="matrix(1.000000 0.000000 0.000000 -1.000000 201.868954 40.958281)"
        text-anchor="middle"
        x="0.000000"
        y="6.451584"
><tspan font-family="sans-serif" font-style="normal" font-weight="normal">&#x2d;&#x31;</tspan></text>
    </g>
    <g
      clip-path="url(#text-clipping0)"
      >
      <text
        dominant-baseline="no-change"
        fill="#000000"
        fill-opacity="1.000000"
        xml:space="preserve"
        font-size="16"
        transform="matrix(1.000000 0.000000 0.000000 -1.000000 378.908048 40.958281)"
        text-anchor="middle"
        x="0.000000"
        y="6.451584"
><tspan font-family="sans-serif" font-style="normal" font-weight="normal">&#x30;</tspan></text>
    </g>
    <g
      clip-path="url(#text-clipping0)"
      >
      <text
        dominant-baseline="no-change"
        fill="#000000"
        fill-opacity="1.000000"
        xml:space="preserve"
        font-size="16"
        transform="matrix(1.000000 0.000000 0.000000 -1.000000 555.947142 40.958281)"
        text-anchor="middle"
        x="0.000000"
        y="6.451584"
><tspan font-family="sans-serif" font-style="normal" font-weight="normal">&#x31;</tspan></text>
    </g>
    <g
      clip-path="url(#text-clipping0)"
      >
      <text
        dominant-baseline="no-change"
        fill="#000000"
        fill-opacity="1.000000"
        xml:space="preserve"
        font-size="16"
        transform="matrix(1.000000 0.000000 0.000000 -1.000000 88.200934 62.997528)"
        text-anchor="end"
        x="0.000000"
        y="6.451584"
><tspan font-family="sans-serif" font-style="normal" font-weight="normal">&#x30;</tspan></text>
    </g>
    <g
      clip-path="url(#text-clipping0)"
      >
      <text
        dominant-baseline="no-change"
        fill="#000000"
        fill-opacity="1.000000"
        xml:space="preserve"
        font-size="16"
        transform="matrix(1.000000 0.000000 0.000000 -1.000000 88.200934 193.123569)"
        text-anchor="end"
        x="0.000000"
        y="6.451584"
><tspan font-family="sans-serif" font-style="normal" font-weight="normal">&#x32;</tspan></text>
    </g>
    <g
      clip-path="url(#text-clipping0)"
      >
      <text
        dominant-baseline="no-change"
        fill="#000000"
        fill-opacity="1.000000"
        xml:space="preserve"
        font-size="16"
        transform="matrix(1.000000 0.000000 0.000000 -1.000000 88.200934 323.227638)"
        text-anchor="end"
        x="0.000000"
        y="6.451584"
><tspan font-family="sans-serif" font-style="normal" font-weight="normal">&#x34;</tspan></text>
    </g>
    <g
      clip-path="url(#text-clipping0)"
      >
      <text
        dominant-baseline="no-change"
        fill="#000000"
        fill-opacity="1.000000"
        xml:space="preserve"
        font-size="16"
        transform="matrix(1.000000 0.000000 0.000000 -1.000000 88.200934 453.331706)"
        text-anchor="end"
        x="0.000000"
        y="6.451584"
><tspan font-family="sans-serif" font-style="normal" font-weight="normal">&#x36;</tspan></text>
    </g>
    <g
      clip-path="url(#text-clipping0)"
      >
      <text
        dominant-baseline="no-change"
        fill="#000000"
        fill-opacity="1.000000"
        xml:space="preserve"
        font-size="16"
        transform="matrix(1.000000 0.000000 0.000000 -1.000000 60.470595 518.394726)"
        text-anchor="middle"
        x="0.000000"
        y="6.451584"
><tspan font-family="sans-serif" font-style="normal" font-weight="normal">&#x28;&#x78;&#x31;&#x30;<tspan dy="-11.010430" font-size="12">&#x2d;&#x38;<tspan dy="11.010430" font-size="16">&#x29;</tspan></tspan></tspan></text>
    </g>
  </g>
</svg>
