<?xml version="1.0" encoding="UTF-8"?>
<!DOCTYPE svg PUBLIC "-//W3C//DTD SVG 1.1//EN"
        "http://www.w3.org/Graphics/SVG/1.1/DTD/svg11.dtd">
<svg
  xmlns="http://www.w3.org/2000/svg"
  xmlns:xlink="http://www.w3.org/1999/xlink"
  version="1.1"
  width="720pt"
  height="540pt"
  viewBox="0 0 720 540"
  >
  <rect
    x="0"
    y="0"
    width="720"
    height="540"
    stroke="none"
    fill="#FFFFFF"
    fill-opacity="1.000000"
    />
  <g
    transform="matrix(1 0 0 -1 0 540)"
    >
    <polyline
      stroke-width="1.000000e+00"
      stroke="#FF00FF"
      stroke-opacity="1.000000"
      fill="none"
      points="100.79,63.00 106.42,66.93 112.02,71.76 117.65,76.25 123.27,79.85 128.87,83.61 134.50,88.86 140.12,91.43 145.73,97.23 151.35,100.13 
      156.98,105.80 162.58,109.12 168.21,112.44 173.83,118.81 179.43,122.11 185.06,129.86 190.68,129.58 196.29,133.51 201.91,136.56 207.54,142.52 
      213.16,144.47 218.77,148.61 224.39,158.25 230.02,154.60 235.62,161.61 241.25,169.48 246.87,169.68 252.47,179.57 258.10,181.28 263.72,186.29 
      269.33,186.66 274.95,191.83 280.58,198.99 286.18,201.28 291.81,207.74 297.43,210.17 303.03,215.98 308.66,216.68 314.28,223.10 319.89,223.34 
      325.51,230.98 331.14,234.21 336.76,243.00 342.37,246.39 347.99,250.21 353.62,251.02 359.22,255.09 364.85,258.03 370.47,266.34 376.07,267.96 
      381.70,272.60 387.32,277.57 392.93,280.89 398.55,286.75 404.18,289.37 409.78,296.99 415.41,294.99 421.03,302.53 426.63,308.33 432.26,311.71 
      437.88,316.20 443.49,322.06 449.11,324.22 454.74,326.96 460.36,329.82 465.97,332.02 471.59,337.80 477.22,342.19 482.82,346.50 488.45,352.25 
      494.07,355.31 499.67,358.30 505.30,365.88 510.92,370.95 516.53,371.31 522.15,375.39 527.78,379.87 533.38,386.40 539.01,388.77 544.63,392.77 
      550.23,398.00 555.86,403.67 561.48,405.23 567.09,411.69 572.71,413.03 578.34,420.53 583.96,422.68 589.57,429.01 595.19,431.91 600.82,435.23 
      606.42,439.18 612.05,443.91 617.67,448.54 623.27,452.32 628.90,455.99 634.52,459.88 640.13,464.12 645.75,469.13 651.38,472.80 656.98,477.00 
      "/>
    <polyline
      stroke-width="1.000000e+00"
      stroke="#FFFF00"
      stroke-opacity="1.000000"
      fill="none"
      points="100.79,63.00 106.42,75.79 112.02,85.98 117.65,98.22 123.27,109.78 128.87,120.00 134.50,130.65 140.12,136.61 145.73,146.25 151.35,158.49 
      156.98,165.37 162.58,173.66 168.21,180.27 173.83,187.56 179.43,192.86 185.06,200.95 190.68,207.43 196.29,210.22 201.91,215.29 207.54,221.27 
      213.16,228.87 218.77,228.63 224.39,231.99 230.02,239.36 235.62,239.16 241.25,243.24 246.87,247.55 252.47,252.69 258.10,251.99 263.72,252.85 
      269.33,256.30 274.95,258.36 280.58,259.86 286.18,260.56 291.81,267.59 297.43,265.99 303.03,268.49 308.66,267.02 314.28,268.25 319.89,268.95 
      325.51,266.98 331.14,266.69 336.76,268.71 342.37,267.68 347.99,268.49 353.62,269.94 359.22,268.29 364.85,269.17 370.47,269.24 376.07,267.46 
      381.70,268.71 387.32,271.48 392.93,269.74 398.55,271.61 404.18,275.08 409.78,272.56 415.41,267.79 421.03,272.75 426.63,269.24 432.26,274.71 
      437.88,267.31 443.49,272.80 449.11,271.52 454.74,271.35 460.36,276.82 465.97,280.42 471.59,278.89 477.22,277.65 482.82,280.14 488.45,284.12 
      494.07,283.19 499.67,285.57 505.30,291.19 510.92,297.37 516.53,296.73 522.15,300.60 527.78,302.53 533.38,300.51 539.01,305.56 544.63,313.91 
      550.23,318.72 555.86,323.93 561.48,329.27 567.09,332.54 572.71,338.21 578.34,345.46 583.96,350.72 589.57,359.33 595.19,370.14 600.82,374.16 
      606.42,384.42 612.05,397.34 617.67,399.52 623.27,413.93 628.90,420.35 634.52,431.53 640.13,443.33 645.75,450.91 651.38,465.81 656.98,477.00 
      "/>
    <polyline
      stroke-width="1.000000e+00"
      stroke="#00FF00"
      stroke-opacity="1.000000"
      fill="none"
      points="100.79,63.00 106.42,82.16 112.02,102.66 117.65,117.03 123.27,134.50 128.87,145.29 134.50,161.81 140.12,173.04 145.73,184.47 151.35,194.82 
      156.98,204.88 162.58,213.12 168.21,221.05 173.83,225.97 179.43,231.95 185.06,234.43 190.68,239.07 196.29,241.75 201.91,245.82 207.54,250.69 
      213.16,255.22 218.77,257.11 224.39,255.88 230.02,261.42 235.62,262.87 241.25,267.17 246.87,269.09 252.47,267.13 258.10,271.28 263.72,265.15 
      269.33,270.03 274.95,266.34 280.58,263.99 286.18,270.78 291.81,269.79 297.43,268.80 303.03,270.16 308.66,269.57 314.28,271.94 319.89,270.91 
      325.51,268.67 331.14,268.62 336.76,268.38 342.37,271.39 347.99,266.80 353.62,267.59 359.22,269.28 364.85,269.33 370.47,270.69 376.07,270.49 
      381.70,270.98 387.32,274.18 392.93,269.00 398.55,270.98 404.18,270.58 409.78,269.09 415.41,270.58 421.03,270.73 426.63,268.87 432.26,271.72 
      437.88,271.11 443.49,274.51 449.11,269.33 454.74,266.01 460.36,264.69 465.97,271.15 471.59,273.13 477.22,273.88 482.82,274.18 488.45,270.98 
      494.07,276.40 499.67,272.60 505.30,272.73 510.92,275.59 516.53,272.05 522.15,280.05 527.78,278.47 533.38,282.75 539.01,283.52 544.63,285.76 
      550.23,289.41 555.86,290.49 561.48,295.26 567.09,301.21 572.71,306.09 578.34,309.69 583.96,311.65 589.57,323.40 595.19,331.31 600.82,335.82 
      606.42,344.34 612.05,357.42 617.67,365.46 623.27,378.29 628.90,391.13 634.52,407.80 640.13,421.05 645.75,437.77 651.38,455.75 656.98,477.00 
      "/>
    <polyline
      stroke-width="1.000000e+00"
      stroke="#00FFFF"
      stroke-opacity="1.000000"
      fill="none"
      points="100.79,63.00 106.42,89.41 112.02,114.83 117.65,135.95 123.27,155.02 128.87,171.59 134.50,189.72 140.12,196.71 145.73,208.92 151.35,222.26 
      156.98,228.48 162.58,234.21 168.21,240.01 173.83,248.17 179.43,247.77 185.06,254.71 190.68,254.63 196.29,258.78 201.91,258.32 207.54,262.01 
      213.16,270.69 218.77,264.23 224.39,266.76 230.02,262.49 235.62,265.90 241.25,269.61 246.87,269.28 252.47,269.74 258.10,268.05 263.72,265.72 
      269.33,270.82 274.95,270.49 280.58,265.81 286.18,270.82 291.81,270.95 297.43,270.16 303.03,267.88 308.66,271.90 314.28,272.56 319.89,270.16 
      325.51,270.62 331.14,271.06 336.76,268.34 342.37,267.59 347.99,271.33 353.62,270.21 359.22,268.16 364.85,270.62 370.47,269.94 376.07,271.19 
      381.70,273.17 387.32,269.00 392.93,269.88 398.55,270.40 404.18,270.58 409.78,269.04 415.41,271.39 421.03,269.70 426.63,269.99 432.26,268.25 
      437.88,269.09 443.49,271.11 449.11,269.83 454.74,270.49 460.36,271.61 465.97,270.07 471.59,266.71 477.22,271.33 482.82,272.51 488.45,267.13 
      494.07,270.65 499.67,271.02 505.30,271.81 510.92,274.58 516.53,269.04 522.15,272.40 527.78,272.73 533.38,273.06 539.01,275.83 544.63,274.58 
      550.23,276.45 555.86,279.90 561.48,282.75 567.09,279.26 572.71,286.88 578.34,289.89 583.96,296.40 589.57,300.92 595.19,310.24 600.82,309.32 
      606.42,320.28 612.05,328.33 617.67,340.21 623.27,353.75 628.90,368.45 634.52,386.91 640.13,404.42 645.75,422.63 651.38,450.45 656.98,477.00 
      "/>
    <polyline
      stroke-width="1.000000e+00"
      stroke="#C8C8C8"
      stroke-opacity="1.000000"
      fill="none"
      points="100.79,63.00 106.42,98.11 112.02,126.59 117.65,153.15 123.27,177.83 128.87,192.86 134.50,204.09 140.12,219.16 145.73,229.47 151.35,232.61 
      156.98,243.62 162.58,248.58 168.21,252.03 173.83,255.92 179.43,262.21 185.06,265.39 190.68,264.78 196.29,265.26 201.91,264.78 207.54,263.42 
      213.16,263.66 218.77,267.79 224.39,271.44 230.02,269.61 235.62,268.49 241.25,266.60 246.87,273.11 252.47,269.13 258.10,268.10 263.72,266.56 
      269.33,273.55 274.95,267.72 280.58,271.15 286.18,267.50 291.81,269.17 297.43,265.94 303.03,270.21 308.66,271.19 314.28,266.80 319.89,271.72 
      325.51,273.63 331.14,270.21 336.76,269.88 342.37,269.13 347.99,270.32 353.62,267.79 359.22,272.56 364.85,265.57 370.47,270.03 376.07,269.33 
      381.70,269.61 387.32,272.32 392.93,270.32 398.55,266.65 404.18,268.95 409.78,271.11 415.41,271.48 421.03,268.62 426.63,268.21 432.26,270.21 
      437.88,270.58 443.49,271.33 449.11,273.48 454.74,270.21 460.36,270.73 465.97,270.03 471.59,270.87 477.22,270.73 482.82,274.91 488.45,272.40 
      494.07,267.46 499.67,270.82 505.30,270.49 510.92,266.93 516.53,269.41 522.15,270.87 527.78,271.11 533.38,272.56 539.01,271.66 544.63,270.27 
      550.23,273.13 555.86,273.26 561.48,280.84 567.09,274.80 572.71,274.42 578.34,282.20 583.96,279.59 589.57,284.69 595.19,292.36 600.82,298.27 
      606.42,305.19 612.05,313.05 617.67,320.42 623.27,334.90 628.90,352.30 634.52,366.16 640.13,386.95 645.75,411.91 651.38,443.38 656.98,477.00 
      "/>
    <polyline
      stroke-width="1.000000e+00"
      stroke="#A52A2A"
      stroke-opacity="1.000000"
      fill="none"
      points="100.79,477.00 106.42,446.01 112.02,417.82 117.65,394.53 123.27,374.93 128.87,360.98 134.50,343.27 140.12,330.94 145.73,321.62 151.35,312.64 
      156.98,305.01 162.58,298.82 168.21,290.27 173.83,292.09 179.43,286.38 185.06,278.73 190.68,278.78 196.29,274.47 201.91,280.05 207.54,274.25 
      213.16,269.46 218.77,274.14 224.39,272.14 230.02,273.83 235.62,271.52 241.25,267.96 246.87,268.87 252.47,273.22 258.10,268.21 263.72,267.31 
      269.33,271.77 274.95,267.35 280.58,271.44 286.18,269.94 291.81,274.71 297.43,269.55 303.03,269.90 308.66,275.79 314.28,267.35 319.89,271.33 
      325.51,269.46 331.14,269.57 336.76,266.89 342.37,270.95 347.99,268.71 353.62,271.99 359.22,270.54 364.85,272.36 370.47,274.25 376.07,269.24 
      381.70,269.66 387.32,270.03 392.93,270.73 398.55,271.33 404.18,275.28 409.78,269.70 415.41,268.10 421.03,267.31 426.63,270.40 432.26,272.89 
      437.88,271.57 443.49,269.41 449.11,264.69 454.74,267.83 460.36,269.20 465.97,271.33 471.59,268.87 477.22,268.87 482.82,270.87 488.45,266.51 
      494.07,271.77 499.67,272.47 505.30,268.43 510.92,269.94 516.53,271.06 522.15,272.73 527.78,270.32 533.38,274.71 539.01,272.05 544.63,276.03 
      550.23,273.81 555.86,276.78 561.48,280.05 567.09,280.01 572.71,280.05 578.34,282.25 583.96,289.13 589.57,292.03 595.19,296.24 600.82,303.41 
      606.42,312.22 612.05,323.73 617.67,330.06 623.27,345.55 628.90,358.25 634.52,372.62 640.13,394.44 645.75,418.53 651.38,445.27 656.98,477.00 
      "/>
    <polyline
      stroke-width="1.000000e+00"
      stroke="#FF0000"
      stroke-opacity="1.000000"
      fill="none"
      points="100.79,477.00 106.42,452.94 112.02,430.70 117.65,410.04 123.27,396.18 128.87,377.83 134.50,364.58 140.12,354.56 145.73,344.15 151.35,331.14 
      156.98,325.01 162.58,318.44 168.21,313.38 173.83,304.35 179.43,297.98 185.06,300.70 190.68,288.86 196.29,287.39 201.91,286.75 207.54,280.56 
      213.16,278.51 218.77,277.57 224.39,274.21 230.02,278.36 235.62,273.88 241.25,273.30 246.87,275.00 252.47,275.22 258.10,270.58 263.72,274.47 
      269.33,268.84 274.95,271.24 280.58,271.94 286.18,271.39 291.81,272.97 297.43,270.12 303.03,270.73 308.66,271.06 314.28,271.61 319.89,268.76 
      325.51,268.21 331.14,269.88 336.76,268.71 342.37,272.97 347.99,272.14 353.62,268.05 359.22,269.57 364.85,271.52 370.47,271.77 376.07,270.62 
      381.70,267.17 387.32,268.01 392.93,268.38 398.55,272.27 404.18,269.13 409.78,267.55 415.41,265.90 421.03,268.47 426.63,270.98 432.26,274.01 
      437.88,271.35 443.49,271.77 449.11,269.88 454.74,272.89 460.36,270.40 465.97,270.03 471.59,269.61 477.22,268.10 482.82,269.74 488.45,271.48 
      494.07,272.27 499.67,270.40 505.30,270.03 510.92,271.90 516.53,271.72 522.15,273.72 527.78,271.02 533.38,275.00 539.01,278.93 544.63,281.63 
      550.23,282.58 555.86,284.73 561.48,286.71 567.09,289.78 572.71,296.90 578.34,301.54 583.96,302.90 589.57,306.46 595.19,317.27 600.82,320.37 
      606.42,329.23 612.05,340.87 617.67,351.88 623.27,364.85 628.90,376.43 634.52,396.46 640.13,412.48 645.75,430.74 651.38,453.44 656.98,477.00 
      "/>
    <polyline
      stroke-width="1.000000e+00"
      stroke="#0000FF"
      stroke-opacity="1.000000"
      fill="none"
      points="100.79,477.00 106.42,461.09 112.02,444.87 117.65,433.47 123.27,419.19 128.87,405.08 134.50,391.50 140.12,381.72 145.73,371.88 151.35,361.53 
      156.98,354.98 162.58,343.60 168.21,339.42 173.83,331.51 179.43,325.56 185.06,314.99 190.68,314.55 196.29,309.45 201.91,306.79 207.54,300.99 
      213.16,295.08 218.77,292.40 224.39,292.09 230.02,286.47 235.62,284.49 241.25,281.96 246.87,280.97 252.47,279.39 258.10,279.85 263.72,279.02 
      269.33,277.37 274.95,274.91 280.58,272.14 286.18,270.78 291.81,271.66 297.43,271.94 303.03,273.35 308.66,268.01 314.28,271.39 319.89,270.27 
      325.51,271.11 331.14,269.04 336.76,264.73 342.37,271.33 347.99,269.46 353.62,266.65 359.22,271.81 364.85,268.95 370.47,268.91 376.07,268.47 
      381.70,267.46 387.32,271.02 392.93,264.49 398.55,273.11 404.18,269.90 409.78,268.12 415.41,269.83 421.03,268.95 426.63,269.33 432.26,268.43 
      437.88,268.25 443.49,268.62 449.11,270.82 454.74,269.20 460.36,271.77 465.97,269.83 471.59,274.42 477.22,275.83 482.82,273.17 488.45,272.56 
      494.07,275.37 499.67,276.25 505.30,279.11 510.92,280.18 516.53,280.80 522.15,284.12 527.78,286.51 533.38,287.26 539.01,293.12 544.63,295.91 
      550.23,299.89 555.86,304.11 561.48,307.71 567.09,317.84 572.71,318.50 578.34,325.56 583.96,330.76 589.57,340.28 595.19,346.41 600.82,355.68 
      606.42,362.47 612.05,375.39 617.67,379.61 623.27,393.81 628.90,406.66 634.52,416.37 640.13,431.95 645.75,446.28 651.38,461.18 656.98,477.00 
      "/>
    <polyline
      stroke-width="1.000000e+00"
      stroke="#000000"
      stroke-opacity="1.000000"
      fill="none"
      points="100.79,477.00 106.42,468.43 112.02,460.06 117.65,452.76 123.27,444.61 128.87,437.82 134.50,430.08 140.12,425.32 145.73,415.43 151.35,408.18 
      156.98,400.95 162.58,395.85 168.21,390.88 173.83,379.24 179.43,374.18 185.06,373.00 190.68,366.08 196.29,357.88 201.91,351.88 207.54,349.88 
      213.16,341.07 218.77,341.07 224.39,335.95 230.02,330.48 235.62,323.45 241.25,321.95 246.87,318.13 252.47,310.94 258.10,311.19 263.72,305.01 
      269.33,300.60 274.95,300.18 280.58,294.33 286.18,296.40 291.81,287.02 297.43,291.10 303.03,284.55 308.66,289.65 314.28,282.07 319.89,276.95 
      325.51,277.44 331.14,277.74 336.76,278.03 342.37,269.70 347.99,269.94 353.62,268.54 359.22,270.54 364.85,272.36 370.47,271.44 376.07,267.42 
      381.70,270.03 387.32,266.84 392.93,270.62 398.55,275.50 404.18,273.26 409.78,270.82 415.41,273.26 421.03,273.22 426.63,275.17 432.26,277.41 
      437.88,280.80 443.49,283.52 449.11,286.33 454.74,286.88 460.36,285.89 465.97,289.74 471.59,293.30 477.22,296.66 482.82,300.88 488.45,299.58 
      494.07,306.51 499.67,312.26 505.30,311.27 510.92,314.55 516.53,322.04 522.15,325.25 527.78,327.58 533.38,335.40 539.01,337.51 544.63,344.26 
      550.23,347.33 555.86,355.20 561.48,358.25 567.09,365.66 572.71,375.48 578.34,377.35 583.96,386.07 589.57,388.31 595.19,394.16 600.82,402.92 
      606.42,406.66 612.05,415.80 617.67,420.26 623.27,431.78 628.90,437.29 634.52,445.27 640.13,453.55 645.75,460.06 651.38,469.00 656.98,477.00 
      "/>
    <g
      clip-path="url(#text-clipping0)"
      >
      <text
        dominant-baseline="no-change"
        fill="#000000"
        fill-opacity="1.000000"
        xml:space="preserve"
        font-size="16"
        transform="matrix(1.000000 0.000000 0.000000 -1.000000 378.908048 25.203406)"
        text-anchor="middle"
        x="0.000000"
        y="6.451584"
><tspan font-family="sans-serif" font-style="normal" font-weight="normal">&#x70;</tspan></text>
    </g>
    <g
      clip-path="url(#text-clipping0)"
      >
      <text
        dominant-baseline="no-change"
        fill="#000000"
        fill-opacity="1.000000"
        xml:space="preserve"
        font-size="16"
        transform="matrix(0.000000 1.000000 1.000000 -0.000000 37.794122 270.008240)"
        text-anchor="middle"
        x="0.000000"
        y="6.451584"
><tspan font-family="sans-serif" font-style="normal" font-weight="normal">&#x70;&#x72;&#x6f;&#x62;&#x61;&#x62;&#x69;&#x6c;&#x69;&#x74;&#xe9;&#x20;&#x64;&#x27;&#xea;&#x74;&#x72;&#x65;&#x20;&#x65;&#x6e;&#x20;&#x41;</tspan></text>
    </g>
    <g
      clip-path="url(#text-clipping0)"
      >
      <text
        dominant-baseline="no-change"
        fill="#000000"
        fill-opacity="1.000000"
        xml:space="preserve"
        font-size="16"
        transform="matrix(1.000000 0.000000 0.000000 -1.000000 650.256661 278.094424)"
        text-anchor="end"
        x="0.000000"
        y="6.451584"
><tspan font-family="sans-serif" font-style="normal" font-weight="normal">&#x6e;&#x3d;&#x32;</tspan></text>
    </g>
    <polyline
      stroke-width="1.000000e+00"
      stroke="#000000"
      stroke-opacity="1.000000"
      fill="none"
      points="536.90,278.09 592.51,278.09"
      />
    <g
      clip-path="url(#text-clipping0)"
      >
      <text
        dominant-baseline="no-change"
        fill="#000000"
        fill-opacity="1.000000"
        xml:space="preserve"
        font-size="16"
        transform="matrix(1.000000 0.000000 0.000000 -1.000000 650.256661 252.891018)"
        text-anchor="end"
        x="0.000000"
        y="6.451584"
><tspan font-family="sans-serif" font-style="normal" font-weight="normal">&#x6e;&#x3d;&#x34;</tspan></text>
    </g>
    <polyline
      stroke-width="1.000000e+00"
      stroke="#0000FF"
      stroke-opacity="1.000000"
      fill="none"
      points="536.90,252.89 592.51,252.89"
      />
    <g
      clip-path="url(#text-clipping0)"
      >
      <text
        dominant-baseline="no-change"
        fill="#000000"
        fill-opacity="1.000000"
        xml:space="preserve"
        font-size="16"
        transform="matrix(1.000000 0.000000 0.000000 -1.000000 650.256661 227.687613)"
        text-anchor="end"
        x="0.000000"
        y="6.451584"
><tspan font-family="sans-serif" font-style="normal" font-weight="normal">&#x6e;&#x3d;&#x36;</tspan></text>
    </g>
    <polyline
      stroke-width="1.000000e+00"
      stroke="#FF0000"
      stroke-opacity="1.000000"
      fill="none"
      points="536.90,227.69 592.51,227.69"
      />
    <g
      clip-path="url(#text-clipping0)"
      >
      <text
        dominant-baseline="no-change"
        fill="#000000"
        fill-opacity="1.000000"
        xml:space="preserve"
        font-size="16"
        transform="matrix(1.000000 0.000000 0.000000 -1.000000 650.256661 202.484207)"
        text-anchor="end"
        x="0.000000"
        y="6.451584"
><tspan font-family="sans-serif" font-style="normal" font-weight="normal">&#x6e;&#x3d;&#x38;</tspan></text>
    </g>
    <polyline
      stroke-width="1.000000e+00"
      stroke="#A52A2A"
      stroke-opacity="1.000000"
      fill="none"
      points="536.90,202.48 592.51,202.48"
      />
    <g
      clip-path="url(#text-clipping0)"
      >
      <text
        dominant-baseline="no-change"
        fill="#000000"
        fill-opacity="1.000000"
        xml:space="preserve"
        font-size="16"
        transform="matrix(1.000000 0.000000 0.000000 -1.000000 650.256661 177.302774)"
        text-anchor="end"
        x="0.000000"
        y="6.451584"
><tspan font-family="sans-serif" font-style="normal" font-weight="normal">&#x6e;&#x3d;&#x39;</tspan></text>
    </g>
    <polyline
      stroke-width="1.000000e+00"
      stroke="#C8C8C8"
      stroke-opacity="1.000000"
      fill="none"
      points="536.90,177.30 592.51,177.30"
      />
    <g
      clip-path="url(#text-clipping0)"
      >
      <text
        dominant-baseline="no-change"
        fill="#000000"
        fill-opacity="1.000000"
        xml:space="preserve"
        font-size="16"
        transform="matrix(1.000000 0.000000 0.000000 -1.000000 650.256661 152.099368)"
        text-anchor="end"
        x="0.000000"
        y="6.451584"
><tspan font-family="sans-serif" font-style="normal" font-weight="normal">&#x6e;&#x3d;&#x37;</tspan></text>
    </g>
    <polyline
      stroke-width="1.000000e+00"
      stroke="#00FFFF"
      stroke-opacity="1.000000"
      fill="none"
      points="536.90,152.10 592.51,152.10"
      />
    <g
      clip-path="url(#text-clipping0)"
      >
      <text
        dominant-baseline="no-change"
        fill="#000000"
        fill-opacity="1.000000"
        xml:space="preserve"
        font-size="16"
        transform="matrix(1.000000 0.000000 0.000000 -1.000000 650.256661 126.895962)"
        text-anchor="end"
        x="0.000000"
        y="6.451584"
><tspan font-family="sans-serif" font-style="normal" font-weight="normal">&#x6e;&#x3d;&#x35;</tspan></text>
    </g>
    <polyline
      stroke-width="1.000000e+00"
      stroke="#00FF00"
      stroke-opacity="1.000000"
      fill="none"
      points="536.90,126.90 592.51,126.90"
      />
    <g
      clip-path="url(#text-clipping0)"
      >
      <text
        dominant-baseline="no-change"
        fill="#000000"
        fill-opacity="1.000000"
        xml:space="preserve"
        font-size="16"
        transform="matrix(1.000000 0.000000 0.000000 -1.000000 650.256661 101.692557)"
        text-anchor="end"
        x="0.000000"
        y="6.451584"
><tspan font-family="sans-serif" font-style="normal" font-weight="normal">&#x6e;&#x3d;&#x33;</tspan></text>
    </g>
    <polyline
      stroke-width="1.000000e+00"
      stroke="#FFFF00"
      stroke-opacity="1.000000"
      fill="none"
      points="536.90,101.69 592.51,101.69"
      />
    <g
      clip-path="url(#text-clipping0)"
      >
      <text
        dominant-baseline="no-change"
        fill="#000000"
        fill-opacity="1.000000"
        xml:space="preserve"
        font-size="16"
        transform="matrix(1.000000 0.000000 0.000000 -1.000000 650.256661 76.489151)"
        text-anchor="end"
        x="0.000000"
        y="6.451584"
><tspan font-family="sans-serif" font-style="normal" font-weight="normal">&#x6e;&#x3d;&#x31;</tspan></text>
    </g>
    <polyline
      stroke-width="1.000000e+00"
      stroke="#FF00FF"
      stroke-opacity="1.000000"
      fill="none"
      points="536.90,76.49 592.51,76.49"
      />
    <polyline
      stroke-width="1.000000e+00"
      stroke="#000000"
      stroke-opacity="1.000000"
      fill="none"
      points="100.79,63.00 657.00,63.00"
      />
    <polyline
      stroke-width="1.000000e+00"
      stroke="#000000"
      stroke-opacity="1.000000"
      fill="none"
      points="100.79,53.55 100.79,63.00"
      />
    <polyline
      stroke-width="1.000000e+00"
      stroke="#000000"
      stroke-opacity="1.000000"
      fill="none"
      points="128.61,58.27 128.61,63.00"
      />
    <polyline
      stroke-width="1.000000e+00"
      stroke="#000000"
      stroke-opacity="1.000000"
      fill="none"
      points="156.41,58.27 156.41,63.00"
      />
    <polyline
      stroke-width="1.000000e+00"
      stroke="#000000"
      stroke-opacity="1.000000"
      fill="none"
      points="184.22,58.27 184.22,63.00"
      />
    <polyline
      stroke-width="1.000000e+00"
      stroke="#000000"
      stroke-opacity="1.000000"
      fill="none"
      points="212.02,53.55 212.02,63.00"
      />
    <polyline
      stroke-width="1.000000e+00"
      stroke="#000000"
      stroke-opacity="1.000000"
      fill="none"
      points="239.84,58.27 239.84,63.00"
      />
    <polyline
      stroke-width="1.000000e+00"
      stroke="#000000"
      stroke-opacity="1.000000"
      fill="none"
      points="267.66,58.27 267.66,63.00"
      />
    <polyline
      stroke-width="1.000000e+00"
      stroke="#000000"
      stroke-opacity="1.000000"
      fill="none"
      points="295.45,58.27 295.45,63.00"
      />
    <polyline
      stroke-width="1.000000e+00"
      stroke="#000000"
      stroke-opacity="1.000000"
      fill="none"
      points="323.27,53.55 323.27,63.00"
      />
    <polyline
      stroke-width="1.000000e+00"
      stroke="#000000"
      stroke-opacity="1.000000"
      fill="none"
      points="351.09,58.27 351.09,63.00"
      />
    <polyline
      stroke-width="1.000000e+00"
      stroke="#000000"
      stroke-opacity="1.000000"
      fill="none"
      points="378.89,58.27 378.89,63.00"
      />
    <polyline
      stroke-width="1.000000e+00"
      stroke="#000000"
      stroke-opacity="1.000000"
      fill="none"
      points="406.70,58.27 406.70,63.00"
      />
    <polyline
      stroke-width="1.000000e+00"
      stroke="#000000"
      stroke-opacity="1.000000"
      fill="none"
      points="434.50,53.55 434.50,63.00"
      />
    <polyline
      stroke-width="1.000000e+00"
      stroke="#000000"
      stroke-opacity="1.000000"
      fill="none"
      points="462.32,58.27 462.32,63.00"
      />
    <polyline
      stroke-width="1.000000e+00"
      stroke="#000000"
      stroke-opacity="1.000000"
      fill="none"
      points="490.14,58.27 490.14,63.00"
      />
    <polyline
      stroke-width="1.000000e+00"
      stroke="#000000"
      stroke-opacity="1.000000"
      fill="none"
      points="517.93,58.27 517.93,63.00"
      />
    <polyline
      stroke-width="1.000000e+00"
      stroke="#000000"
      stroke-opacity="1.000000"
      fill="none"
      points="545.75,53.55 545.75,63.00"
      />
    <polyline
      stroke-width="1.000000e+00"
      stroke="#000000"
      stroke-opacity="1.000000"
      fill="none"
      points="573.57,58.27 573.57,63.00"
      />
    <polyline
      stroke-width="1.000000e+00"
      stroke="#000000"
      stroke-opacity="1.000000"
      fill="none"
      points="601.37,58.27 601.37,63.00"
      />
    <polyline
      stroke-width="1.000000e+00"
      stroke="#000000"
      stroke-opacity="1.000000"
      fill="none"
      points="629.18,58.27 629.18,63.00"
      />
    <polyline
      stroke-width="1.000000e+00"
      stroke="#000000"
      stroke-opacity="1.000000"
      fill="none"
      points="656.98,53.55 656.98,63.00"
      />
    <polyline
      stroke-width="1.000000e+00"
      stroke="#000000"
      stroke-opacity="1.000000"
      fill="none"
      points="657.00,63.00 657.00,477.00"
      />
    <polyline
      stroke-width="1.000000e+00"
      stroke="#000000"
      stroke-opacity="1.000000"
      fill="none"
      points="657.00,63.00 666.45,63.00"
      />
    <polyline
      stroke-width="1.000000e+00"
      stroke="#000000"
      stroke-opacity="1.000000"
      fill="none"
      points="657.00,83.70 661.73,83.70"
      />
    <polyline
      stroke-width="1.000000e+00"
      stroke="#000000"
      stroke-opacity="1.000000"
      fill="none"
      points="657.00,104.40 661.73,104.40"
      />
    <polyline
      stroke-width="1.000000e+00"
      stroke="#000000"
      stroke-opacity="1.000000"
      fill="none"
      points="657.00,125.09 661.73,125.09"
      />
    <polyline
      stroke-width="1.000000e+00"
      stroke="#000000"
      stroke-opacity="1.000000"
      fill="none"
      points="657.00,145.79 666.45,145.79"
      />
    <polyline
      stroke-width="1.000000e+00"
      stroke="#000000"
      stroke-opacity="1.000000"
      fill="none"
      points="657.00,166.49 661.73,166.49"
      />
    <polyline
      stroke-width="1.000000e+00"
      stroke="#000000"
      stroke-opacity="1.000000"
      fill="none"
      points="657.00,187.19 661.73,187.19"
      />
    <polyline
      stroke-width="1.000000e+00"
      stroke="#000000"
      stroke-opacity="1.000000"
      fill="none"
      points="657.00,207.89 661.73,207.89"
      />
    <polyline
      stroke-width="1.000000e+00"
      stroke="#000000"
      stroke-opacity="1.000000"
      fill="none"
      points="657.00,228.59 666.45,228.59"
      />
    <polyline
      stroke-width="1.000000e+00"
      stroke="#000000"
      stroke-opacity="1.000000"
      fill="none"
      points="657.00,249.29 661.73,249.29"
      />
    <polyline
      stroke-width="1.000000e+00"
      stroke="#000000"
      stroke-opacity="1.000000"
      fill="none"
      points="657.00,269.99 661.73,269.99"
      />
    <polyline
      stroke-width="1.000000e+00"
      stroke="#000000"
      stroke-opacity="1.000000"
      fill="none"
      points="657.00,290.69 661.73,290.69"
      />
    <polyline
      stroke-width="1.000000e+00"
      stroke="#000000"
      stroke-opacity="1.000000"
      fill="none"
      points="657.00,311.38 666.45,311.38"
      />
    <polyline
      stroke-width="1.000000e+00"
      stroke="#000000"
      stroke-opacity="1.000000"
      fill="none"
      points="657.00,332.08 661.73,332.08"
      />
    <polyline
      stroke-width="1.000000e+00"
      stroke="#000000"
      stroke-opacity="1.000000"
      fill="none"
      points="657.00,352.78 661.73,352.78"
      />
    <polyline
      stroke-width="1.000000e+00"
      stroke="#000000"
      stroke-opacity="1.000000"
      fill="none"
      points="657.00,373.48 661.73,373.48"
      />
    <polyline
      stroke-width="1.000000e+00"
      stroke="#000000"
      stroke-opacity="1.000000"
      fill="none"
      points="657.00,394.18 666.45,394.18"
      />
    <polyline
      stroke-width="1.000000e+00"
      stroke="#000000"
      stroke-opacity="1.000000"
      fill="none"
      points="657.00,414.88 661.73,414.88"
      />
    <polyline
      stroke-width="1.000000e+00"
      stroke="#000000"
      stroke-opacity="1.000000"
      fill="none"
      points="657.00,435.60 661.73,435.60"
      />
    <polyline
      stroke-width="1.000000e+00"
      stroke="#000000"
      stroke-opacity="1.000000"
      fill="none"
      points="657.00,456.30 661.73,456.30"
      />
    <polyline
      stroke-width="1.000000e+00"
      stroke="#000000"
      stroke-opacity="1.000000"
      fill="none"
      points="657.00,477.00 666.45,477.00"
      />
    <polyline
      stroke-width="1.000000e+00"
      stroke="#000000"
      stroke-opacity="1.000000"
      fill="none"
      points="657.00,477.00 100.79,477.00"
      />
    <polyline
      stroke-width="1.000000e+00"
      stroke="#000000"
      stroke-opacity="1.000000"
      fill="none"
      points="656.98,477.00 656.98,486.45"
      />
    <polyline
      stroke-width="1.000000e+00"
      stroke="#000000"
      stroke-opacity="1.000000"
      fill="none"
      points="629.18,477.00 629.18,481.72"
      />
    <polyline
      stroke-width="1.000000e+00"
      stroke="#000000"
      stroke-opacity="1.000000"
      fill="none"
      points="601.37,477.00 601.37,481.72"
      />
    <polyline
      stroke-width="1.000000e+00"
      stroke="#000000"
      stroke-opacity="1.000000"
      fill="none"
      points="573.57,477.00 573.57,481.72"
      />
    <polyline
      stroke-width="1.000000e+00"
      stroke="#000000"
      stroke-opacity="1.000000"
      fill="none"
      points="545.75,477.00 545.75,486.45"
      />
    <polyline
      stroke-width="1.000000e+00"
      stroke="#000000"
      stroke-opacity="1.000000"
      fill="none"
      points="517.93,477.00 517.93,481.72"
      />
    <polyline
      stroke-width="1.000000e+00"
      stroke="#000000"
      stroke-opacity="1.000000"
      fill="none"
      points="490.14,477.00 490.14,481.72"
      />
    <polyline
      stroke-width="1.000000e+00"
      stroke="#000000"
      stroke-opacity="1.000000"
      fill="none"
      points="462.32,477.00 462.32,481.72"
      />
    <polyline
      stroke-width="1.000000e+00"
      stroke="#000000"
      stroke-opacity="1.000000"
      fill="none"
      points="434.50,477.00 434.50,486.45"
      />
    <polyline
      stroke-width="1.000000e+00"
      stroke="#000000"
      stroke-opacity="1.000000"
      fill="none"
      points="406.70,477.00 406.70,481.72"
      />
    <polyline
      stroke-width="1.000000e+00"
      stroke="#000000"
      stroke-opacity="1.000000"
      fill="none"
      points="378.89,477.00 378.89,481.72"
      />
    <polyline
      stroke-width="1.000000e+00"
      stroke="#000000"
      stroke-opacity="1.000000"
      fill="none"
      points="351.09,477.00 351.09,481.72"
      />
    <polyline
      stroke-width="1.000000e+00"
      stroke="#000000"
      stroke-opacity="1.000000"
      fill="none"
      points="323.27,477.00 323.27,486.45"
      />
    <polyline
      stroke-width="1.000000e+00"
      stroke="#000000"
      stroke-opacity="1.000000"
      fill="none"
      points="295.45,477.00 295.45,481.72"
      />
    <polyline
      stroke-width="1.000000e+00"
      stroke="#000000"
      stroke-opacity="1.000000"
      fill="none"
      points="267.66,477.00 267.66,481.72"
      />
    <polyline
      stroke-width="1.000000e+00"
      stroke="#000000"
      stroke-opacity="1.000000"
      fill="none"
      points="239.84,477.00 239.84,481.72"
      />
    <polyline
      stroke-width="1.000000e+00"
      stroke="#000000"
      stroke-opacity="1.000000"
      fill="none"
      points="212.02,477.00 212.02,486.45"
      />
    <polyline
      stroke-width="1.000000e+00"
      stroke="#000000"
      stroke-opacity="1.000000"
      fill="none"
      points="184.22,477.00 184.22,481.72"
      />
    <polyline
      stroke-width="1.000000e+00"
      stroke="#000000"
      stroke-opacity="1.000000"
      fill="none"
      points="156.41,477.00 156.41,481.72"
      />
    <polyline
      stroke-width="1.000000e+00"
      stroke="#000000"
      stroke-opacity="1.000000"
      fill="none"
      points="128.61,477.00 128.61,481.72"
      />
    <polyline
      stroke-width="1.000000e+00"
      stroke="#000000"
      stroke-opacity="1.000000"
      fill="none"
      points="100.79,477.00 100.79,486.45"
      />
    <polyline
      stroke-width="1.000000e+00"
      stroke="#000000"
      stroke-opacity="1.000000"
      fill="none"
      points="100.79,477.00 100.79,63.00"
      />
    <polyline
      stroke-width="1.000000e+00"
      stroke="#000000"
      stroke-opacity="1.000000"
      fill="none"
      points="91.34,477.00 100.79,477.00"
      />
    <polyline
      stroke-width="1.000000e+00"
      stroke="#000000"
      stroke-opacity="1.000000"
      fill="none"
      points="96.07,456.30 100.79,456.30"
      />
    <polyline
      stroke-width="1.000000e+00"
      stroke="#000000"
      stroke-opacity="1.000000"
      fill="none"
      points="96.07,435.60 100.79,435.60"
      />
    <polyline
      stroke-width="1.000000e+00"
      stroke="#000000"
      stroke-opacity="1.000000"
      fill="none"
      points="96.07,414.88 100.79,414.88"
      />
    <polyline
      stroke-width="1.000000e+00"
      stroke="#000000"
      stroke-opacity="1.000000"
      fill="none"
      points="91.34,394.18 100.79,394.18"
      />
    <polyline
      stroke-width="1.000000e+00"
      stroke="#000000"
      stroke-opacity="1.000000"
      fill="none"
      points="96.07,373.48 100.79,373.48"
      />
    <polyline
      stroke-width="1.000000e+00"
      stroke="#000000"
      stroke-opacity="1.000000"
      fill="none"
      points="96.07,352.78 100.79,352.78"
      />
    <polyline
      stroke-width="1.000000e+00"
      stroke="#000000"
      stroke-opacity="1.000000"
      fill="none"
      points="96.07,332.08 100.79,332.08"
      />
    <polyline
      stroke-width="1.000000e+00"
      stroke="#000000"
      stroke-opacity="1.000000"
      fill="none"
      points="91.34,311.38 100.79,311.38"
      />
    <polyline
      stroke-width="1.000000e+00"
      stroke="#000000"
      stroke-opacity="1.000000"
      fill="none"
      points="96.07,290.69 100.79,290.69"
      />
    <polyline
      stroke-width="1.000000e+00"
      stroke="#000000"
      stroke-opacity="1.000000"
      fill="none"
      points="96.07,269.99 100.79,269.99"
      />
    <polyline
      stroke-width="1.000000e+00"
      stroke="#000000"
      stroke-opacity="1.000000"
      fill="none"
      points="96.07,249.29 100.79,249.29"
      />
    <polyline
      stroke-width="1.000000e+00"
      stroke="#000000"
      stroke-opacity="1.000000"
      fill="none"
      points="91.34,228.59 100.79,228.59"
      />
    <polyline
      stroke-width="1.000000e+00"
      stroke="#000000"
      stroke-opacity="1.000000"
      fill="none"
      points="96.07,207.89 100.79,207.89"
      />
    <polyline
      stroke-width="1.000000e+00"
      stroke="#000000"
      stroke-opacity="1.000000"
      fill="none"
      points="96.07,187.19 100.79,187.19"
      />
    <polyline
      stroke-width="1.000000e+00"
      stroke="#000000"
      stroke-opacity="1.000000"
      fill="none"
      points="96.07,166.49 100.79,166.49"
      />
    <polyline
      stroke-width="1.000000e+00"
      stroke="#000000"
      stroke-opacity="1.000000"
      fill="none"
      points="91.34,145.79 100.79,145.79"
      />
    <polyline
      stroke-width="1.000000e+00"
      stroke="#000000"
      stroke-opacity="1.000000"
      fill="none"
      points="96.07,125.09 100.79,125.09"
      />
    <polyline
      stroke-width="1.000000e+00"
      stroke="#000000"
      stroke-opacity="1.000000"
      fill="none"
      points="96.07,104.40 100.79,104.40"
      />
    <polyline
      stroke-width="1.000000e+00"
      stroke="#000000"
      stroke-opacity="1.000000"
      fill="none"
      points="96.07,83.70 100.79,83.70"
      />
    <polyline
      stroke-width="1.000000e+00"
      stroke="#000000"
      stroke-opacity="1.000000"
      fill="none"
      points="91.34,63.00 100.79,63.00"
      />
    <g
      clip-path="url(#text-clipping0)"
      >
      <text
        dominant-baseline="no-change"
        fill="#000000"
        fill-opacity="1.000000"
        xml:space="preserve"
        font-size="16"
        transform="matrix(1.000000 0.000000 0.000000 -1.000000 100.813623 40.958281)"
        text-anchor="middle"
        x="0.000000"
        y="6.451584"
><tspan font-family="sans-serif" font-style="normal" font-weight="normal">&#x30;&#x2e;&#x30;</tspan></text>
    </g>
    <g
      clip-path="url(#text-clipping0)"
      >
      <text
        dominant-baseline="no-change"
        fill="#000000"
        fill-opacity="1.000000"
        xml:space="preserve"
        font-size="16"
        transform="matrix(1.000000 0.000000 0.000000 -1.000000 212.042604 40.958281)"
        text-anchor="middle"
        x="0.000000"
        y="6.451584"
><tspan font-family="sans-serif" font-style="normal" font-weight="normal">&#x30;&#x2e;&#x32;</tspan></text>
    </g>
    <g
      clip-path="url(#text-clipping0)"
      >
      <text
        dominant-baseline="no-change"
        fill="#000000"
        fill-opacity="1.000000"
        xml:space="preserve"
        font-size="16"
        transform="matrix(1.000000 0.000000 0.000000 -1.000000 323.271584 40.958281)"
        text-anchor="middle"
        x="0.000000"
        y="6.451584"
><tspan font-family="sans-serif" font-style="normal" font-weight="normal">&#x30;&#x2e;&#x34;</tspan></text>
    </g>
    <g
      clip-path="url(#text-clipping0)"
      >
      <text
        dominant-baseline="no-change"
        fill="#000000"
        fill-opacity="1.000000"
        xml:space="preserve"
        font-size="16"
        transform="matrix(1.000000 0.000000 0.000000 -1.000000 434.522538 40.958281)"
        text-anchor="middle"
        x="0.000000"
        y="6.451584"
><tspan font-family="sans-serif" font-style="normal" font-weight="normal">&#x30;&#x2e;&#x36;</tspan></text>
    </g>
    <g
      clip-path="url(#text-clipping0)"
      >
      <text
        dominant-baseline="no-change"
        fill="#000000"
        fill-opacity="1.000000"
        xml:space="preserve"
        font-size="16"
        transform="matrix(1.000000 0.000000 0.000000 -1.000000 545.751518 40.958281)"
        text-anchor="middle"
        x="0.000000"
        y="6.451584"
><tspan font-family="sans-serif" font-style="normal" font-weight="normal">&#x30;&#x2e;&#x38;</tspan></text>
    </g>
    <g
      clip-path="url(#text-clipping0)"
      >
      <text
        dominant-baseline="no-change"
        fill="#000000"
        fill-opacity="1.000000"
        xml:space="preserve"
        font-size="16"
        transform="matrix(1.000000 0.000000 0.000000 -1.000000 657.002472 40.958281)"
        text-anchor="middle"
        x="0.000000"
        y="6.451584"
><tspan font-family="sans-serif" font-style="normal" font-weight="normal">&#x31;&#x2e;&#x30;</tspan></text>
    </g>
    <g
      clip-path="url(#text-clipping0)"
      >
      <text
        dominant-baseline="no-change"
        fill="#000000"
        fill-opacity="1.000000"
        xml:space="preserve"
        font-size="16"
        transform="matrix(1.000000 0.000000 0.000000 -1.000000 88.200934 62.997528)"
        text-anchor="end"
        x="0.000000"
        y="6.451584"
><tspan font-family="sans-serif" font-style="normal" font-weight="normal">&#x30;&#x2e;&#x30;</tspan></text>
    </g>
    <g
      clip-path="url(#text-clipping0)"
      >
      <text
        dominant-baseline="no-change"
        fill="#000000"
        fill-opacity="1.000000"
        xml:space="preserve"
        font-size="16"
        transform="matrix(1.000000 0.000000 0.000000 -1.000000 88.200934 145.793023)"
        text-anchor="end"
        x="0.000000"
        y="6.451584"
><tspan font-family="sans-serif" font-style="normal" font-weight="normal">&#x30;&#x2e;&#x32;</tspan></text>
    </g>
    <g
      clip-path="url(#text-clipping0)"
      >
      <text
        dominant-baseline="no-change"
        fill="#000000"
        fill-opacity="1.000000"
        xml:space="preserve"
        font-size="16"
        transform="matrix(1.000000 0.000000 0.000000 -1.000000 88.200934 228.588519)"
        text-anchor="end"
        x="0.000000"
        y="6.451584"
><tspan font-family="sans-serif" font-style="normal" font-weight="normal">&#x30;&#x2e;&#x34;</tspan></text>
    </g>
    <g
      clip-path="url(#text-clipping0)"
      >
      <text
        dominant-baseline="no-change"
        fill="#000000"
        fill-opacity="1.000000"
        xml:space="preserve"
        font-size="16"
        transform="matrix(1.000000 0.000000 0.000000 -1.000000 88.200934 311.405988)"
        text-anchor="end"
        x="0.000000"
        y="6.451584"
><tspan font-family="sans-serif" font-style="normal" font-weight="normal">&#x30;&#x2e;&#x36;</tspan></text>
    </g>
    <g
      clip-path="url(#text-clipping0)"
      >
      <text
        dominant-baseline="no-change"
        fill="#000000"
        fill-opacity="1.000000"
        xml:space="preserve"
        font-size="16"
        transform="matrix(1.000000 0.000000 0.000000 -1.000000 88.200934 394.201483)"
        text-anchor="end"
        x="0.000000"
        y="6.451584"
><tspan font-family="sans-serif" font-style="normal" font-weight="normal">&#x30;&#x2e;&#x38;</tspan></text>
    </g>
    <g
      clip-path="url(#text-clipping0)"
      >
      <text
        dominant-baseline="no-change"
        fill="#000000"
        fill-opacity="1.000000"
        xml:space="preserve"
        font-size="16"
        transform="matrix(1.000000 0.000000 0.000000 -1.000000 88.200934 476.996979)"
        text-anchor="end"
        x="0.000000"
        y="6.451584"
><tspan font-family="sans-serif" font-style="normal" font-weight="normal">&#x31;&#x2e;&#x30;</tspan></text>
    </g>
  </g>
</svg>
