<?xml version="1.0" encoding="UTF-8"?>
<!DOCTYPE svg PUBLIC "-//W3C//DTD SVG 1.1//EN"
        "http://www.w3.org/Graphics/SVG/1.1/DTD/svg11.dtd">
<svg
  xmlns="http://www.w3.org/2000/svg"
  xmlns:xlink="http://www.w3.org/1999/xlink"
  version="1.1"
  width="720pt"
  height="540pt"
  viewBox="0 0 720 540"
  >
  <rect
    x="0"
    y="0"
    width="720"
    height="540"
    stroke="none"
    fill="#FFFFFF"
    fill-opacity="1.000000"
    />
  <g
    transform="matrix(1 0 0 -1 0 540)"
    >
    <polyline
      stroke-width="1.000000e+00"
      stroke="#A000D5"
      stroke-opacity="1.000000"
      fill="none"
      points="100.79,63.00 106.35,90.22 111.91,113.32 117.47,133.93 123.03,152.78 128.61,170.27 134.17,186.60 139.73,201.96 145.29,216.46 150.85,230.21 
      156.41,243.27 161.97,255.70 167.52,267.55 173.11,278.86 178.67,289.67 184.22,300.00 189.78,309.87 195.34,319.32 200.90,328.37 206.46,337.00 
      212.02,345.29 217.60,353.20 223.16,360.76 228.72,367.97 234.28,374.86 239.84,381.46 245.40,387.72 250.96,393.67 256.52,399.34 262.10,404.73 
      267.66,409.82 273.22,414.64 278.78,419.19 284.33,423.45 289.89,427.47 295.45,431.20 301.01,434.72 306.59,437.95 312.15,440.94 317.71,443.69 
      323.27,446.17 328.83,448.43 334.39,450.43 339.95,452.21 345.51,453.75 351.09,455.02 356.65,456.10 362.21,456.91 367.77,457.51 373.33,457.86 
      378.89,457.97 384.45,457.86 390.00,457.51 395.59,456.91 401.15,456.10 406.70,455.02 412.26,453.75 417.82,452.21 423.38,450.43 428.94,448.43 
      434.50,446.17 440.08,443.69 445.64,440.94 451.20,437.95 456.76,434.72 462.32,431.20 467.88,427.47 473.44,423.45 479.00,419.19 484.58,414.64 
      490.14,409.82 495.70,404.73 501.26,399.34 506.81,393.67 512.37,387.72 517.93,381.46 523.49,374.86 529.07,367.97 534.63,360.76 540.19,353.20 
      545.75,345.29 551.31,337.00 556.87,328.37 562.43,319.32 567.99,309.87 573.57,300.00 579.13,289.67 584.69,278.86 590.25,267.55 595.81,255.70 
      601.37,243.27 606.93,230.21 612.48,216.46 618.07,201.96 623.62,186.60 629.18,170.27 634.74,152.78 640.30,133.93 645.86,113.32 651.42,90.22 
      656.98,63.00 "/>
    <polyline
      stroke-width="1.000000e+00"
      stroke="#FF00FF"
      stroke-opacity="1.000000"
      fill="none"
      points="100.79,63.00 106.97,89.61 113.14,112.06 119.34,132.04 125.51,150.25 131.69,167.09 137.86,182.75 144.06,197.45 150.23,211.30 156.41,224.35 
      162.58,236.72 168.78,248.45 174.95,259.61 181.13,270.21 187.30,280.29 193.50,289.87 199.67,299.01 205.85,307.71 212.02,316.00 218.22,323.89 
      224.39,331.38 230.57,338.50 236.74,345.24 242.94,351.66 249.11,357.73 255.29,363.48 261.46,368.89 267.66,373.99 273.83,378.80 280.01,383.28 
      286.18,387.48 292.38,391.39 298.55,395.01 304.73,398.33 310.90,401.41 317.10,404.18 323.27,406.68 329.45,408.92 335.62,410.88 341.82,412.59 
      347.99,414.02 354.17,415.21 360.34,416.11 366.54,416.77 372.71,417.16 378.89,417.27 385.06,417.16 391.26,416.77 397.43,416.11 403.61,415.21 
      409.78,414.02 415.98,412.59 422.15,410.88 428.33,408.92 434.50,406.68 440.70,404.18 446.87,401.41 453.05,398.33 459.22,395.01 465.42,391.39 
      471.59,387.48 477.77,383.28 483.94,378.80 490.14,373.99 496.31,368.89 502.49,363.48 508.66,357.73 514.86,351.66 521.03,345.24 527.21,338.50 
      533.38,331.38 539.58,323.89 545.75,316.00 551.93,307.71 558.10,299.01 564.30,289.87 570.47,280.29 576.65,270.21 582.82,259.61 589.02,248.45 
      595.19,236.72 601.37,224.35 607.54,211.30 613.74,197.45 619.91,182.75 626.09,167.09 632.26,150.25 638.46,132.04 644.63,112.06 650.81,89.61 
      656.98,63.00 "/>
    <polyline
      stroke-width="1.000000e+00"
      stroke="#FFFF00"
      stroke-opacity="1.000000"
      fill="none"
      points="100.79,63.00 107.74,88.90 114.70,110.66 121.64,129.93 128.61,147.42 135.55,163.50 142.50,178.45 149.46,192.40 156.41,205.47 163.37,217.78 
      170.32,229.36 177.26,240.30 184.22,250.65 191.17,260.43 198.13,269.70 205.08,278.45 212.02,286.75 218.99,294.60 225.93,302.00 232.90,308.99 
      239.84,315.58 246.78,321.80 253.75,327.62 260.69,333.09 267.66,338.21 274.60,342.98 281.54,347.42 288.51,351.51 295.45,355.29 302.42,358.74 
      309.36,361.88 316.31,364.71 323.27,367.22 330.22,369.44 337.18,371.35 344.12,372.98 351.09,374.29 358.03,375.33 364.98,376.05 371.94,376.49 
      378.89,376.64 385.85,376.49 392.80,376.05 399.74,375.33 406.70,374.29 413.65,372.98 420.61,371.35 427.56,369.44 434.50,367.22 441.47,364.71 
      448.41,361.88 455.38,358.74 462.32,355.29 469.26,351.51 476.23,347.42 483.17,342.98 490.14,338.21 497.08,333.09 504.02,327.62 510.99,321.80 
      517.93,315.58 524.90,308.99 531.84,302.00 538.79,294.60 545.75,286.75 552.70,278.45 559.66,269.70 566.60,260.43 573.57,250.65 580.51,240.30 
      587.46,229.36 594.42,217.78 601.37,205.47 608.33,192.40 615.28,178.45 622.22,163.50 629.18,147.42 636.13,129.93 643.09,110.66 650.04,88.90 
      656.98,63.00 "/>
    <polyline
      stroke-width="1.000000e+00"
      stroke="#00FF00"
      stroke-opacity="1.000000"
      fill="none"
      points="100.79,63.00 108.75,88.11 116.68,109.05 124.63,127.51 132.57,144.19 140.52,159.46 148.47,173.55 156.41,186.62 164.36,198.84 172.29,210.24 
      180.25,220.94 188.20,230.98 196.13,240.39 204.09,249.24 212.02,257.55 219.97,265.33 227.93,272.65 235.86,279.48 243.82,285.85 251.75,291.81 
      259.70,297.34 267.66,302.48 275.59,307.21 283.54,311.56 291.48,315.54 299.43,319.14 307.38,322.39 315.32,325.27 323.27,327.82 331.23,330.02 
      339.16,331.86 347.11,333.36 355.05,334.52 363.00,335.36 370.95,335.86 378.89,336.04 386.84,335.86 394.77,335.36 402.73,334.52 410.68,333.36 
      418.61,331.86 426.57,330.02 434.50,327.82 442.45,325.27 450.41,322.39 458.34,319.14 466.30,315.54 474.23,311.56 482.18,307.21 490.14,302.48 
      498.07,297.34 506.02,291.81 513.96,285.85 521.91,279.48 529.86,272.65 537.80,265.33 545.75,257.55 553.71,249.24 561.64,240.39 569.59,230.98 
      577.52,220.94 585.48,210.24 593.43,198.84 601.37,186.62 609.32,173.55 617.25,159.46 625.21,144.19 633.16,127.51 641.09,109.05 649.05,88.11 
      656.98,63.00 "/>
    <polyline
      stroke-width="1.000000e+00"
      stroke="#00FFFF"
      stroke-opacity="1.000000"
      fill="none"
      points="100.79,63.00 110.06,87.21 119.34,107.23 128.61,124.74 137.86,140.45 147.13,154.74 156.41,167.85 165.68,179.94 174.95,191.12 184.22,201.50 
      193.50,211.12 202.77,220.08 212.02,228.39 221.29,236.13 230.57,243.29 239.84,249.90 249.11,256.03 258.38,261.66 267.66,266.80 276.93,271.50 
      286.18,275.74 295.45,279.54 304.73,282.93 314.00,285.92 323.27,288.47 332.54,290.62 341.82,292.38 351.09,293.74 360.34,294.71 369.61,295.30 
      378.89,295.50 388.16,295.30 397.43,294.71 406.70,293.74 415.98,292.38 425.25,290.62 434.50,288.47 443.77,285.92 453.05,282.93 462.32,279.54 
      471.59,275.74 480.86,271.50 490.14,266.80 499.41,261.66 508.66,256.03 517.93,249.90 527.21,243.29 536.48,236.13 545.75,228.39 555.02,220.08 
      564.30,211.12 573.57,201.50 582.82,191.12 592.09,179.94 601.37,167.85 610.64,154.74 619.91,140.45 629.18,124.74 638.46,107.23 647.73,87.21 
      656.98,63.00 "/>
    <polyline
      stroke-width="1.000000e+00"
      stroke="#C8C8C8"
      stroke-opacity="1.000000"
      fill="none"
      points="100.79,63.00 111.91,86.14 123.03,105.05 134.17,121.45 145.29,136.01 156.41,149.13 167.52,161.06 178.67,171.94 189.78,181.87 200.90,190.99 
      212.02,199.34 223.16,206.97 234.28,213.93 245.40,220.28 256.52,226.04 267.66,231.20 278.78,235.84 289.89,239.93 301.01,243.53 312.15,246.61 
      323.27,249.20 334.39,251.31 345.51,252.93 356.65,254.10 367.77,254.80 378.89,255.02 390.00,254.80 401.15,254.10 412.26,252.93 423.38,251.31 
      434.50,249.20 445.64,246.61 456.76,243.53 467.88,239.93 479.00,235.84 490.14,231.20 501.26,226.04 512.37,220.28 523.49,213.93 534.63,206.97 
      545.75,199.34 556.87,190.99 567.99,181.87 579.13,171.94 590.25,161.06 601.37,149.13 612.48,136.01 623.62,121.45 634.74,105.05 645.86,86.14 
      656.98,63.00 "/>
    <polyline
      stroke-width="1.000000e+00"
      stroke="#A52A2A"
      stroke-opacity="1.000000"
      fill="none"
      points="100.79,63.00 114.70,84.82 128.61,102.37 142.50,117.40 156.41,130.54 170.32,142.23 184.22,152.65 198.13,162.01 212.02,170.38 225.93,177.90 
      239.84,184.58 253.75,190.51 267.66,195.74 281.54,200.26 295.45,204.15 309.36,207.41 323.27,210.04 337.18,212.09 351.09,213.54 364.98,214.39 
      378.89,214.70 392.80,214.39 406.70,213.54 420.61,212.09 434.50,210.04 448.41,207.41 462.32,204.15 476.23,200.26 490.14,195.74 504.02,190.51 
      517.93,184.58 531.84,177.90 545.75,170.38 559.66,162.01 573.57,152.65 587.46,142.23 601.37,130.54 615.28,117.40 629.18,102.37 643.09,84.82 
      656.98,63.00 "/>
    <polyline
      stroke-width="1.000000e+00"
      stroke="#FF0000"
      stroke-opacity="1.000000"
      fill="none"
      points="100.79,63.00 119.34,83.10 137.86,98.92 156.41,112.13 174.95,123.42 193.50,133.18 212.02,141.62 230.57,148.91 249.11,155.15 267.66,160.45 
      286.18,164.82 304.73,168.36 323.27,171.08 341.82,173.00 360.34,174.16 378.89,174.53 397.43,174.16 415.98,173.00 434.50,171.08 453.05,168.36 
      471.59,164.82 490.14,160.45 508.66,155.15 527.21,148.91 545.75,141.62 564.30,133.18 582.82,123.42 601.37,112.13 619.91,98.92 638.46,83.10 
      656.98,63.00 "/>
    <polyline
      stroke-width="1.000000e+00"
      stroke="#0000FF"
      stroke-opacity="1.000000"
      fill="none"
      points="100.79,63.00 128.61,80.71 156.41,94.02 184.22,104.62 212.02,113.18 239.84,120.06 267.66,125.49 295.45,129.58 323.27,132.46 351.09,134.15 
      378.89,134.72 406.70,134.15 434.50,132.46 462.32,129.58 490.14,125.49 517.93,120.06 545.75,113.18 573.57,104.62 601.37,94.02 629.18,80.71 
      656.98,63.00 "/>
    <polyline
      stroke-width="1.000000e+00"
      stroke="#000000"
      stroke-opacity="1.000000"
      fill="none"
      points="100.79,63.00 156.41,76.62 212.02,85.52 267.66,91.32 323.27,94.62 378.89,95.69 434.50,94.62 490.14,91.32 545.75,85.52 601.37,76.62 
      656.98,63.00 "/>
    <clipPath
      id="text-clipping0"
      >
      <polygon
        points="0.000000,0.000000 0.000000,539.994507 720.000000,539.994507 720.000000,0.000000"
        />
    </clipPath>
    <g
      clip-path="url(#text-clipping0)"
      >
      <text
        dominant-baseline="no-change"
        fill="#000000"
        fill-opacity="1.000000"
        xml:space="preserve"
        font-size="16"
        transform="matrix(1.000000 0.000000 0.000000 -1.000000 378.908048 25.203406)"
        text-anchor="middle"
        x="0.000000"
        y="6.451584"
><tspan font-family="sans-serif" font-style="normal" font-weight="normal">&#x78;&#x20;&#x3d;&#x20;&#x4e;&#x31;&#x2f;&#x4e;</tspan></text>
    </g>
    <g
      clip-path="url(#text-clipping0)"
      >
      <text
        dominant-baseline="no-change"
        fill="#000000"
        fill-opacity="1.000000"
        xml:space="preserve"
        font-size="16"
        transform="matrix(0.000000 1.000000 1.000000 -0.000000 37.794122 270.008240)"
        text-anchor="middle"
        x="0.000000"
        y="6.451584"
><tspan font-family="sans-serif" font-style="normal" font-weight="normal">&#x6e;&#x6f;&#x6d;&#x62;&#x72;&#x65;&#x20;&#x64;&#x65;&#x20;&#x6d;&#x69;&#x63;&#x72;&#x6f;&#xe9;&#x74;&#x61;&#x74;&#x73;&#x3a;&#x20;&#x6c;&#x6e;&#x28;&#x3a9;&#x29;</tspan></text>
    </g>
    <g
      clip-path="url(#text-clipping0)"
      >
      <text
        dominant-baseline="no-change"
        fill="#000000"
        fill-opacity="1.000000"
        xml:space="preserve"
        font-size="16"
        transform="matrix(1.000000 0.000000 0.000000 -1.000000 650.256661 464.384289)"
        text-anchor="end"
        x="0.000000"
        y="6.451584"
><tspan font-family="sans-serif" font-style="normal" font-weight="normal">&#x4e;&#x3d;&#x31;&#x30;&#x30;</tspan></text>
    </g>
    <polyline
      stroke-width="1.000000e+00"
      stroke="#A000D5"
      stroke-opacity="1.000000"
      fill="none"
      points="509.80,464.38 565.44,464.38"
      />
    <g
      clip-path="url(#text-clipping0)"
      >
      <text
        dominant-baseline="no-change"
        fill="#000000"
        fill-opacity="1.000000"
        xml:space="preserve"
        font-size="16"
        transform="matrix(1.000000 0.000000 0.000000 -1.000000 650.256661 439.180883)"
        text-anchor="end"
        x="0.000000"
        y="6.451584"
><tspan font-family="sans-serif" font-style="normal" font-weight="normal">&#x4e;&#x3d;&#x39;&#x30;</tspan></text>
    </g>
    <polyline
      stroke-width="1.000000e+00"
      stroke="#FF00FF"
      stroke-opacity="1.000000"
      fill="none"
      points="509.80,439.18 565.44,439.18"
      />
    <g
      clip-path="url(#text-clipping0)"
      >
      <text
        dominant-baseline="no-change"
        fill="#000000"
        fill-opacity="1.000000"
        xml:space="preserve"
        font-size="16"
        transform="matrix(1.000000 0.000000 0.000000 -1.000000 650.256661 413.977477)"
        text-anchor="end"
        x="0.000000"
        y="6.451584"
><tspan font-family="sans-serif" font-style="normal" font-weight="normal">&#x4e;&#x3d;&#x38;&#x30;</tspan></text>
    </g>
    <polyline
      stroke-width="1.000000e+00"
      stroke="#FFFF00"
      stroke-opacity="1.000000"
      fill="none"
      points="509.80,413.98 565.44,413.98"
      />
    <g
      clip-path="url(#text-clipping0)"
      >
      <text
        dominant-baseline="no-change"
        fill="#000000"
        fill-opacity="1.000000"
        xml:space="preserve"
        font-size="16"
        transform="matrix(1.000000 0.000000 0.000000 -1.000000 650.256661 388.796045)"
        text-anchor="end"
        x="0.000000"
        y="6.451584"
><tspan font-family="sans-serif" font-style="normal" font-weight="normal">&#x4e;&#x3d;&#x37;&#x30;</tspan></text>
    </g>
    <polyline
      stroke-width="1.000000e+00"
      stroke="#00FF00"
      stroke-opacity="1.000000"
      fill="none"
      points="509.80,388.80 565.44,388.80"
      />
    <g
      clip-path="url(#text-clipping0)"
      >
      <text
        dominant-baseline="no-change"
        fill="#000000"
        fill-opacity="1.000000"
        xml:space="preserve"
        font-size="16"
        transform="matrix(1.000000 0.000000 0.000000 -1.000000 650.256661 363.592639)"
        text-anchor="end"
        x="0.000000"
        y="6.451584"
><tspan font-family="sans-serif" font-style="normal" font-weight="normal">&#x4e;&#x3d;&#x36;&#x30;</tspan></text>
    </g>
    <polyline
      stroke-width="1.000000e+00"
      stroke="#00FFFF"
      stroke-opacity="1.000000"
      fill="none"
      points="509.80,363.59 565.44,363.59"
      />
    <g
      clip-path="url(#text-clipping0)"
      >
      <text
        dominant-baseline="no-change"
        fill="#000000"
        fill-opacity="1.000000"
        xml:space="preserve"
        font-size="16"
        transform="matrix(1.000000 0.000000 0.000000 -1.000000 650.256661 338.389233)"
        text-anchor="end"
        x="0.000000"
        y="6.451584"
><tspan font-family="sans-serif" font-style="normal" font-weight="normal">&#x4e;&#x3d;&#x35;&#x30;</tspan></text>
    </g>
    <polyline
      stroke-width="1.000000e+00"
      stroke="#C8C8C8"
      stroke-opacity="1.000000"
      fill="none"
      points="509.80,338.39 565.44,338.39"
      />
    <g
      clip-path="url(#text-clipping0)"
      >
      <text
        dominant-baseline="no-change"
        fill="#000000"
        fill-opacity="1.000000"
        xml:space="preserve"
        font-size="16"
        transform="matrix(1.000000 0.000000 0.000000 -1.000000 650.256661 313.185827)"
        text-anchor="end"
        x="0.000000"
        y="6.451584"
><tspan font-family="sans-serif" font-style="normal" font-weight="normal">&#x4e;&#x3d;&#x34;&#x30;</tspan></text>
    </g>
    <polyline
      stroke-width="1.000000e+00"
      stroke="#A52A2A"
      stroke-opacity="1.000000"
      fill="none"
      points="509.80,313.19 565.44,313.19"
      />
    <g
      clip-path="url(#text-clipping0)"
      >
      <text
        dominant-baseline="no-change"
        fill="#000000"
        fill-opacity="1.000000"
        xml:space="preserve"
        font-size="16"
        transform="matrix(1.000000 0.000000 0.000000 -1.000000 650.256661 287.982421)"
        text-anchor="end"
        x="0.000000"
        y="6.451584"
><tspan font-family="sans-serif" font-style="normal" font-weight="normal">&#x4e;&#x3d;&#x33;&#x30;</tspan></text>
    </g>
    <polyline
      stroke-width="1.000000e+00"
      stroke="#FF0000"
      stroke-opacity="1.000000"
      fill="none"
      points="509.80,287.98 565.44,287.98"
      />
    <g
      clip-path="url(#text-clipping0)"
      >
      <text
        dominant-baseline="no-change"
        fill="#000000"
        fill-opacity="1.000000"
        xml:space="preserve"
        font-size="16"
        transform="matrix(1.000000 0.000000 0.000000 -1.000000 650.256661 262.800989)"
        text-anchor="end"
        x="0.000000"
        y="6.451584"
><tspan font-family="sans-serif" font-style="normal" font-weight="normal">&#x4e;&#x3d;&#x32;&#x30;</tspan></text>
    </g>
    <polyline
      stroke-width="1.000000e+00"
      stroke="#0000FF"
      stroke-opacity="1.000000"
      fill="none"
      points="509.80,262.80 565.44,262.80"
      />
    <g
      clip-path="url(#text-clipping0)"
      >
      <text
        dominant-baseline="no-change"
        fill="#000000"
        fill-opacity="1.000000"
        xml:space="preserve"
        font-size="16"
        transform="matrix(1.000000 0.000000 0.000000 -1.000000 650.256661 237.597583)"
        text-anchor="end"
        x="0.000000"
        y="6.451584"
><tspan font-family="sans-serif" font-style="normal" font-weight="normal">&#x4e;&#x3d;&#x31;&#x30;</tspan></text>
    </g>
    <polyline
      stroke-width="1.000000e+00"
      stroke="#000000"
      stroke-opacity="1.000000"
      fill="none"
      points="509.80,237.60 565.44,237.60"
      />
    <polyline
      stroke-width="1.000000e+00"
      stroke="#000000"
      stroke-opacity="1.000000"
      fill="none"
      points="100.79,63.00 657.00,63.00"
      />
    <polyline
      stroke-width="1.000000e+00"
      stroke="#000000"
      stroke-opacity="1.000000"
      fill="none"
      points="100.79,53.55 100.79,63.00"
      />
    <polyline
      stroke-width="1.000000e+00"
      stroke="#000000"
      stroke-opacity="1.000000"
      fill="none"
      points="128.61,58.27 128.61,63.00"
      />
    <polyline
      stroke-width="1.000000e+00"
      stroke="#000000"
      stroke-opacity="1.000000"
      fill="none"
      points="156.41,58.27 156.41,63.00"
      />
    <polyline
      stroke-width="1.000000e+00"
      stroke="#000000"
      stroke-opacity="1.000000"
      fill="none"
      points="184.22,58.27 184.22,63.00"
      />
    <polyline
      stroke-width="1.000000e+00"
      stroke="#000000"
      stroke-opacity="1.000000"
      fill="none"
      points="212.02,53.55 212.02,63.00"
      />
    <polyline
      stroke-width="1.000000e+00"
      stroke="#000000"
      stroke-opacity="1.000000"
      fill="none"
      points="239.84,58.27 239.84,63.00"
      />
    <polyline
      stroke-width="1.000000e+00"
      stroke="#000000"
      stroke-opacity="1.000000"
      fill="none"
      points="267.66,58.27 267.66,63.00"
      />
    <polyline
      stroke-width="1.000000e+00"
      stroke="#000000"
      stroke-opacity="1.000000"
      fill="none"
      points="295.45,58.27 295.45,63.00"
      />
    <polyline
      stroke-width="1.000000e+00"
      stroke="#000000"
      stroke-opacity="1.000000"
      fill="none"
      points="323.27,53.55 323.27,63.00"
      />
    <polyline
      stroke-width="1.000000e+00"
      stroke="#000000"
      stroke-opacity="1.000000"
      fill="none"
      points="351.09,58.27 351.09,63.00"
      />
    <polyline
      stroke-width="1.000000e+00"
      stroke="#000000"
      stroke-opacity="1.000000"
      fill="none"
      points="378.89,58.27 378.89,63.00"
      />
    <polyline
      stroke-width="1.000000e+00"
      stroke="#000000"
      stroke-opacity="1.000000"
      fill="none"
      points="406.70,58.27 406.70,63.00"
      />
    <polyline
      stroke-width="1.000000e+00"
      stroke="#000000"
      stroke-opacity="1.000000"
      fill="none"
      points="434.50,53.55 434.50,63.00"
      />
    <polyline
      stroke-width="1.000000e+00"
      stroke="#000000"
      stroke-opacity="1.000000"
      fill="none"
      points="462.32,58.27 462.32,63.00"
      />
    <polyline
      stroke-width="1.000000e+00"
      stroke="#000000"
      stroke-opacity="1.000000"
      fill="none"
      points="490.14,58.27 490.14,63.00"
      />
    <polyline
      stroke-width="1.000000e+00"
      stroke="#000000"
      stroke-opacity="1.000000"
      fill="none"
      points="517.93,58.27 517.93,63.00"
      />
    <polyline
      stroke-width="1.000000e+00"
      stroke="#000000"
      stroke-opacity="1.000000"
      fill="none"
      points="545.75,53.55 545.75,63.00"
      />
    <polyline
      stroke-width="1.000000e+00"
      stroke="#000000"
      stroke-opacity="1.000000"
      fill="none"
      points="573.57,58.27 573.57,63.00"
      />
    <polyline
      stroke-width="1.000000e+00"
      stroke="#000000"
      stroke-opacity="1.000000"
      fill="none"
      points="601.37,58.27 601.37,63.00"
      />
    <polyline
      stroke-width="1.000000e+00"
      stroke="#000000"
      stroke-opacity="1.000000"
      fill="none"
      points="629.18,58.27 629.18,63.00"
      />
    <polyline
      stroke-width="1.000000e+00"
      stroke="#000000"
      stroke-opacity="1.000000"
      fill="none"
      points="656.98,53.55 656.98,63.00"
      />
    <polyline
      stroke-width="1.000000e+00"
      stroke="#000000"
      stroke-opacity="1.000000"
      fill="none"
      points="657.00,63.00 657.00,477.00"
      />
    <polyline
      stroke-width="1.000000e+00"
      stroke="#000000"
      stroke-opacity="1.000000"
      fill="none"
      points="657.00,63.00 666.45,63.00"
      />
    <polyline
      stroke-width="1.000000e+00"
      stroke="#000000"
      stroke-opacity="1.000000"
      fill="none"
      points="657.00,92.57 661.73,92.57"
      />
    <polyline
      stroke-width="1.000000e+00"
      stroke="#000000"
      stroke-opacity="1.000000"
      fill="none"
      points="657.00,122.13 661.73,122.13"
      />
    <polyline
      stroke-width="1.000000e+00"
      stroke="#000000"
      stroke-opacity="1.000000"
      fill="none"
      points="657.00,151.70 661.73,151.70"
      />
    <polyline
      stroke-width="1.000000e+00"
      stroke="#000000"
      stroke-opacity="1.000000"
      fill="none"
      points="657.00,181.28 666.45,181.28"
      />
    <polyline
      stroke-width="1.000000e+00"
      stroke="#000000"
      stroke-opacity="1.000000"
      fill="none"
      points="657.00,210.86 661.73,210.86"
      />
    <polyline
      stroke-width="1.000000e+00"
      stroke="#000000"
      stroke-opacity="1.000000"
      fill="none"
      points="657.00,240.41 661.73,240.41"
      />
    <polyline
      stroke-width="1.000000e+00"
      stroke="#000000"
      stroke-opacity="1.000000"
      fill="none"
      points="657.00,269.99 661.73,269.99"
      />
    <polyline
      stroke-width="1.000000e+00"
      stroke="#000000"
      stroke-opacity="1.000000"
      fill="none"
      points="657.00,299.56 666.45,299.56"
      />
    <polyline
      stroke-width="1.000000e+00"
      stroke="#000000"
      stroke-opacity="1.000000"
      fill="none"
      points="657.00,329.14 661.73,329.14"
      />
    <polyline
      stroke-width="1.000000e+00"
      stroke="#000000"
      stroke-opacity="1.000000"
      fill="none"
      points="657.00,358.71 661.73,358.71"
      />
    <polyline
      stroke-width="1.000000e+00"
      stroke="#000000"
      stroke-opacity="1.000000"
      fill="none"
      points="657.00,388.27 661.73,388.27"
      />
    <polyline
      stroke-width="1.000000e+00"
      stroke="#000000"
      stroke-opacity="1.000000"
      fill="none"
      points="657.00,417.84 666.45,417.84"
      />
    <polyline
      stroke-width="1.000000e+00"
      stroke="#000000"
      stroke-opacity="1.000000"
      fill="none"
      points="657.00,447.42 661.73,447.42"
      />
    <polyline
      stroke-width="1.000000e+00"
      stroke="#000000"
      stroke-opacity="1.000000"
      fill="none"
      points="657.00,477.00 661.73,477.00"
      />
    <polyline
      stroke-width="1.000000e+00"
      stroke="#000000"
      stroke-opacity="1.000000"
      fill="none"
      points="657.00,477.00 100.79,477.00"
      />
    <polyline
      stroke-width="1.000000e+00"
      stroke="#000000"
      stroke-opacity="1.000000"
      fill="none"
      points="656.98,477.00 656.98,486.45"
      />
    <polyline
      stroke-width="1.000000e+00"
      stroke="#000000"
      stroke-opacity="1.000000"
      fill="none"
      points="629.18,477.00 629.18,481.72"
      />
    <polyline
      stroke-width="1.000000e+00"
      stroke="#000000"
      stroke-opacity="1.000000"
      fill="none"
      points="601.37,477.00 601.37,481.72"
      />
    <polyline
      stroke-width="1.000000e+00"
      stroke="#000000"
      stroke-opacity="1.000000"
      fill="none"
      points="573.57,477.00 573.57,481.72"
      />
    <polyline
      stroke-width="1.000000e+00"
      stroke="#000000"
      stroke-opacity="1.000000"
      fill="none"
      points="545.75,477.00 545.75,486.45"
      />
    <polyline
      stroke-width="1.000000e+00"
      stroke="#000000"
      stroke-opacity="1.000000"
      fill="none"
      points="517.93,477.00 517.93,481.72"
      />
    <polyline
      stroke-width="1.000000e+00"
      stroke="#000000"
      stroke-opacity="1.000000"
      fill="none"
      points="490.14,477.00 490.14,481.72"
      />
    <polyline
      stroke-width="1.000000e+00"
      stroke="#000000"
      stroke-opacity="1.000000"
      fill="none"
      points="462.32,477.00 462.32,481.72"
      />
    <polyline
      stroke-width="1.000000e+00"
      stroke="#000000"
      stroke-opacity="1.000000"
      fill="none"
      points="434.50,477.00 434.50,486.45"
      />
    <polyline
      stroke-width="1.000000e+00"
      stroke="#000000"
      stroke-opacity="1.000000"
      fill="none"
      points="406.70,477.00 406.70,481.72"
      />
    <polyline
      stroke-width="1.000000e+00"
      stroke="#000000"
      stroke-opacity="1.000000"
      fill="none"
      points="378.89,477.00 378.89,481.72"
      />
    <polyline
      stroke-width="1.000000e+00"
      stroke="#000000"
      stroke-opacity="1.000000"
      fill="none"
      points="351.09,477.00 351.09,481.72"
      />
    <polyline
      stroke-width="1.000000e+00"
      stroke="#000000"
      stroke-opacity="1.000000"
      fill="none"
      points="323.27,477.00 323.27,486.45"
      />
    <polyline
      stroke-width="1.000000e+00"
      stroke="#000000"
      stroke-opacity="1.000000"
      fill="none"
      points="295.45,477.00 295.45,481.72"
      />
    <polyline
      stroke-width="1.000000e+00"
      stroke="#000000"
      stroke-opacity="1.000000"
      fill="none"
      points="267.66,477.00 267.66,481.72"
      />
    <polyline
      stroke-width="1.000000e+00"
      stroke="#000000"
      stroke-opacity="1.000000"
      fill="none"
      points="239.84,477.00 239.84,481.72"
      />
    <polyline
      stroke-width="1.000000e+00"
      stroke="#000000"
      stroke-opacity="1.000000"
      fill="none"
      points="212.02,477.00 212.02,486.45"
      />
    <polyline
      stroke-width="1.000000e+00"
      stroke="#000000"
      stroke-opacity="1.000000"
      fill="none"
      points="184.22,477.00 184.22,481.72"
      />
    <polyline
      stroke-width="1.000000e+00"
      stroke="#000000"
      stroke-opacity="1.000000"
      fill="none"
      points="156.41,477.00 156.41,481.72"
      />
    <polyline
      stroke-width="1.000000e+00"
      stroke="#000000"
      stroke-opacity="1.000000"
      fill="none"
      points="128.61,477.00 128.61,481.72"
      />
    <polyline
      stroke-width="1.000000e+00"
      stroke="#000000"
      stroke-opacity="1.000000"
      fill="none"
      points="100.79,477.00 100.79,486.45"
      />
    <polyline
      stroke-width="1.000000e+00"
      stroke="#000000"
      stroke-opacity="1.000000"
      fill="none"
      points="100.79,477.00 100.79,63.00"
      />
    <polyline
      stroke-width="1.000000e+00"
      stroke="#000000"
      stroke-opacity="1.000000"
      fill="none"
      points="96.07,477.00 100.79,477.00"
      />
    <polyline
      stroke-width="1.000000e+00"
      stroke="#000000"
      stroke-opacity="1.000000"
      fill="none"
      points="96.07,447.42 100.79,447.42"
      />
    <polyline
      stroke-width="1.000000e+00"
      stroke="#000000"
      stroke-opacity="1.000000"
      fill="none"
      points="91.34,417.84 100.79,417.84"
      />
    <polyline
      stroke-width="1.000000e+00"
      stroke="#000000"
      stroke-opacity="1.000000"
      fill="none"
      points="96.07,388.27 100.79,388.27"
      />
    <polyline
      stroke-width="1.000000e+00"
      stroke="#000000"
      stroke-opacity="1.000000"
      fill="none"
      points="96.07,358.71 100.79,358.71"
      />
    <polyline
      stroke-width="1.000000e+00"
      stroke="#000000"
      stroke-opacity="1.000000"
      fill="none"
      points="96.07,329.14 100.79,329.14"
      />
    <polyline
      stroke-width="1.000000e+00"
      stroke="#000000"
      stroke-opacity="1.000000"
      fill="none"
      points="91.34,299.56 100.79,299.56"
      />
    <polyline
      stroke-width="1.000000e+00"
      stroke="#000000"
      stroke-opacity="1.000000"
      fill="none"
      points="96.07,269.99 100.79,269.99"
      />
    <polyline
      stroke-width="1.000000e+00"
      stroke="#000000"
      stroke-opacity="1.000000"
      fill="none"
      points="96.07,240.41 100.79,240.41"
      />
    <polyline
      stroke-width="1.000000e+00"
      stroke="#000000"
      stroke-opacity="1.000000"
      fill="none"
      points="96.07,210.86 100.79,210.86"
      />
    <polyline
      stroke-width="1.000000e+00"
      stroke="#000000"
      stroke-opacity="1.000000"
      fill="none"
      points="91.34,181.28 100.79,181.28"
      />
    <polyline
      stroke-width="1.000000e+00"
      stroke="#000000"
      stroke-opacity="1.000000"
      fill="none"
      points="96.07,151.70 100.79,151.70"
      />
    <polyline
      stroke-width="1.000000e+00"
      stroke="#000000"
      stroke-opacity="1.000000"
      fill="none"
      points="96.07,122.13 100.79,122.13"
      />
    <polyline
      stroke-width="1.000000e+00"
      stroke="#000000"
      stroke-opacity="1.000000"
      fill="none"
      points="96.07,92.57 100.79,92.57"
      />
    <polyline
      stroke-width="1.000000e+00"
      stroke="#000000"
      stroke-opacity="1.000000"
      fill="none"
      points="91.34,63.00 100.79,63.00"
      />
    <g
      clip-path="url(#text-clipping0)"
      >
      <text
        dominant-baseline="no-change"
        fill="#000000"
        fill-opacity="1.000000"
        xml:space="preserve"
        font-size="16"
        transform="matrix(1.000000 0.000000 0.000000 -1.000000 100.813623 40.958281)"
        text-anchor="middle"
        x="0.000000"
        y="6.451584"
><tspan font-family="sans-serif" font-style="normal" font-weight="normal">&#x30;&#x2e;&#x30;</tspan></text>
    </g>
    <g
      clip-path="url(#text-clipping0)"
      >
      <text
        dominant-baseline="no-change"
        fill="#000000"
        fill-opacity="1.000000"
        xml:space="preserve"
        font-size="16"
        transform="matrix(1.000000 0.000000 0.000000 -1.000000 212.042604 40.958281)"
        text-anchor="middle"
        x="0.000000"
        y="6.451584"
><tspan font-family="sans-serif" font-style="normal" font-weight="normal">&#x30;&#x2e;&#x32;</tspan></text>
    </g>
    <g
      clip-path="url(#text-clipping0)"
      >
      <text
        dominant-baseline="no-change"
        fill="#000000"
        fill-opacity="1.000000"
        xml:space="preserve"
        font-size="16"
        transform="matrix(1.000000 0.000000 0.000000 -1.000000 323.271584 40.958281)"
        text-anchor="middle"
        x="0.000000"
        y="6.451584"
><tspan font-family="sans-serif" font-style="normal" font-weight="normal">&#x30;&#x2e;&#x34;</tspan></text>
    </g>
    <g
      clip-path="url(#text-clipping0)"
      >
      <text
        dominant-baseline="no-change"
        fill="#000000"
        fill-opacity="1.000000"
        xml:space="preserve"
        font-size="16"
        transform="matrix(1.000000 0.000000 0.000000 -1.000000 434.522538 40.958281)"
        text-anchor="middle"
        x="0.000000"
        y="6.451584"
><tspan font-family="sans-serif" font-style="normal" font-weight="normal">&#x30;&#x2e;&#x36;</tspan></text>
    </g>
    <g
      clip-path="url(#text-clipping0)"
      >
      <text
        dominant-baseline="no-change"
        fill="#000000"
        fill-opacity="1.000000"
        xml:space="preserve"
        font-size="16"
        transform="matrix(1.000000 0.000000 0.000000 -1.000000 545.751518 40.958281)"
        text-anchor="middle"
        x="0.000000"
        y="6.451584"
><tspan font-family="sans-serif" font-style="normal" font-weight="normal">&#x30;&#x2e;&#x38;</tspan></text>
    </g>
    <g
      clip-path="url(#text-clipping0)"
      >
      <text
        dominant-baseline="no-change"
        fill="#000000"
        fill-opacity="1.000000"
        xml:space="preserve"
        font-size="16"
        transform="matrix(1.000000 0.000000 0.000000 -1.000000 657.002472 40.958281)"
        text-anchor="middle"
        x="0.000000"
        y="6.451584"
><tspan font-family="sans-serif" font-style="normal" font-weight="normal">&#x31;&#x2e;&#x30;</tspan></text>
    </g>
    <g
      clip-path="url(#text-clipping0)"
      >
      <text
        dominant-baseline="no-change"
        fill="#000000"
        fill-opacity="1.000000"
        xml:space="preserve"
        font-size="16"
        transform="matrix(1.000000 0.000000 0.000000 -1.000000 88.200934 62.997528)"
        text-anchor="end"
        x="0.000000"
        y="6.451584"
><tspan font-family="sans-serif" font-style="normal" font-weight="normal">&#x30;</tspan></text>
    </g>
    <g
      clip-path="url(#text-clipping0)"
      >
      <text
        dominant-baseline="no-change"
        fill="#000000"
        fill-opacity="1.000000"
        xml:space="preserve"
        font-size="16"
        transform="matrix(1.000000 0.000000 0.000000 -1.000000 88.200934 181.279946)"
        text-anchor="end"
        x="0.000000"
        y="6.451584"
><tspan font-family="sans-serif" font-style="normal" font-weight="normal">&#x32;&#x30;</tspan></text>
    </g>
    <g
      clip-path="url(#text-clipping0)"
      >
      <text
        dominant-baseline="no-change"
        fill="#000000"
        fill-opacity="1.000000"
        xml:space="preserve"
        font-size="16"
        transform="matrix(1.000000 0.000000 0.000000 -1.000000 88.200934 299.562365)"
        text-anchor="end"
        x="0.000000"
        y="6.451584"
><tspan font-family="sans-serif" font-style="normal" font-weight="normal">&#x34;&#x30;</tspan></text>
    </g>
    <g
      clip-path="url(#text-clipping0)"
      >
      <text
        dominant-baseline="no-change"
        fill="#000000"
        fill-opacity="1.000000"
        xml:space="preserve"
        font-size="16"
        transform="matrix(1.000000 0.000000 0.000000 -1.000000 88.200934 417.844783)"
        text-anchor="end"
        x="0.000000"
        y="6.451584"
><tspan font-family="sans-serif" font-style="normal" font-weight="normal">&#x36;&#x30;</tspan></text>
    </g>
  </g>
</svg>
