<?xml version="1.0" encoding="UTF-8"?>
<!DOCTYPE svg PUBLIC "-//W3C//DTD SVG 1.1//EN"
        "http://www.w3.org/Graphics/SVG/1.1/DTD/svg11.dtd">
<svg
  xmlns="http://www.w3.org/2000/svg"
  xmlns:xlink="http://www.w3.org/1999/xlink"
  version="1.1"
  width="720pt"
  height="540pt"
  viewBox="0 0 720 540"
  >
  <rect
    x="0"
    y="0"
    width="720"
    height="540"
    stroke="none"
    fill="#FFFFFF"
    fill-opacity="1.000000"
    />
  <g
    transform="matrix(1 0 0 -1 0 540)"
    >
    <polyline
      stroke-width="1.000000e+00"
      stroke="#A000D5"
      stroke-opacity="1.000000"
      fill="none"
      points="100.79,64.62 156.41,79.17 212.02,135.77 267.66,257.04 323.27,402.60 378.89,470.51 434.50,402.60 490.14,257.04 545.75,135.77 601.37,79.17 
      656.98,64.62 "/>
    <polyline
      stroke-width="1.000000e+00"
      stroke="#FF00FF"
      stroke-opacity="1.000000"
      fill="none"
      points="100.79,63.00 128.61,63.02 156.41,63.31 184.22,64.80 212.02,70.64 239.84,87.48 267.66,124.22 295.45,185.41 323.27,261.94 351.09,328.24 
      378.89,354.78 406.70,328.24 434.50,261.94 462.32,185.41 490.14,124.22 517.93,87.48 545.75,70.64 573.57,64.80 601.37,63.31 629.18,63.02 
      656.98,63.00 "/>
    <polyline
      stroke-width="1.000000e+00"
      stroke="#FFFF00"
      stroke-opacity="1.000000"
      fill="none"
      points="100.79,63.00 119.34,63.00 137.86,63.00 156.41,63.00 174.95,63.04 193.50,63.22 212.02,63.92 230.57,66.14 249.11,72.03 267.66,85.06 
      286.18,109.34 304.73,147.24 323.27,196.40 341.82,247.71 360.34,287.28 378.89,302.22 397.43,287.28 415.98,247.71 434.50,196.40 453.05,147.24 
      471.59,109.34 490.14,85.06 508.66,72.03 527.21,66.14 545.75,63.92 564.30,63.22 582.82,63.04 601.37,63.00 619.91,63.00 638.46,63.00 
      656.98,63.00 "/>
    <polyline
      stroke-width="1.000000e+00"
      stroke="#00FF00"
      stroke-opacity="1.000000"
      fill="none"
      points="100.79,63.00 114.70,63.00 128.61,63.00 142.50,63.00 156.41,63.00 170.32,63.00 184.22,63.00 198.13,63.02 212.02,63.11 225.93,63.42 
      239.84,64.27 253.75,66.47 267.66,71.41 281.54,81.13 295.45,97.96 309.36,123.58 323.27,157.66 337.18,196.64 351.09,233.75 364.98,260.71 
      378.89,270.60 392.80,260.71 406.70,233.75 420.61,196.64 434.50,157.66 448.41,123.58 462.32,97.96 476.23,81.13 490.14,71.41 504.02,66.47 
      517.93,64.27 531.84,63.42 545.75,63.11 559.66,63.02 573.57,63.00 587.46,63.00 601.37,63.00 615.28,63.00 629.18,63.00 643.09,63.00 
      656.98,63.00 "/>
    <polyline
      stroke-width="1.000000e+00"
      stroke="#00FFFF"
      stroke-opacity="1.000000"
      fill="none"
      points="100.79,63.00 111.91,63.00 123.03,63.00 134.17,63.00 145.29,63.00 156.41,63.00 167.52,63.00 178.67,63.00 189.78,63.00 200.90,63.00 
      212.02,63.02 223.16,63.04 234.28,63.17 245.40,63.52 256.52,64.38 267.66,66.32 278.78,70.25 289.89,77.48 301.01,89.54 312.15,107.71 
      323.27,132.32 334.39,162.03 345.51,193.52 356.65,221.91 367.77,241.77 378.89,248.91 390.00,241.77 401.15,221.91 412.26,193.52 423.38,162.03 
      434.50,132.32 445.64,107.71 456.76,89.54 467.88,77.48 479.00,70.25 490.14,66.32 501.26,64.38 512.37,63.52 523.49,63.17 534.63,63.04 
      545.75,63.02 556.87,63.00 567.99,63.00 579.13,63.00 590.25,63.00 601.37,63.00 612.48,63.00 623.62,63.00 634.74,63.00 645.86,63.00 
      656.98,63.00 "/>
    <polyline
      stroke-width="1.000000e+00"
      stroke="#C8C8C8"
      stroke-opacity="1.000000"
      fill="none"
      points="100.79,63.00 110.06,63.00 119.34,63.00 128.61,63.00 137.86,63.00 147.13,63.00 156.41,63.00 165.68,63.00 174.95,63.00 184.22,63.00 
      193.50,63.00 202.77,63.00 212.02,63.00 221.29,63.00 230.57,63.02 239.84,63.06 249.11,63.22 258.38,63.55 267.66,64.32 276.93,65.94 
      286.18,69.02 295.45,74.47 304.73,83.32 314.00,96.59 323.27,114.79 332.54,137.55 341.82,163.37 351.09,189.41 360.34,211.98 369.61,227.38 
      378.89,232.85 388.16,227.38 397.43,211.98 406.70,189.41 415.98,163.37 425.25,137.55 434.50,114.79 443.77,96.59 453.05,83.32 462.32,74.47 
      471.59,69.02 480.86,65.94 490.14,64.32 499.41,63.55 508.66,63.22 517.93,63.06 527.21,63.02 536.48,63.00 545.75,63.00 555.02,63.00 
      564.30,63.00 573.57,63.00 582.82,63.00 592.09,63.00 601.37,63.00 610.64,63.00 619.91,63.00 629.18,63.00 638.46,63.00 647.73,63.00 
      656.98,63.00 "/>
    <polyline
      stroke-width="1.000000e+00"
      stroke="#A52A2A"
      stroke-opacity="1.000000"
      fill="none"
      points="100.79,63.00 108.75,63.00 116.68,63.00 124.63,63.00 132.57,63.00 140.52,63.00 148.47,63.00 156.41,63.00 164.36,63.00 172.29,63.00 
      180.25,63.00 188.20,63.00 196.13,63.00 204.09,63.00 212.02,63.00 219.97,63.00 227.93,63.00 235.86,63.00 243.82,63.02 251.75,63.09 
      259.70,63.22 267.66,63.55 275.59,64.21 283.54,65.50 291.48,67.92 299.43,72.05 307.38,78.66 315.32,88.53 323.27,102.22 331.23,119.80 
      339.16,140.63 347.11,163.17 355.05,185.08 363.00,203.58 370.95,215.98 378.89,220.35 386.84,215.98 394.77,203.58 402.73,185.08 410.68,163.17 
      418.61,140.63 426.57,119.80 434.50,102.22 442.45,88.53 450.41,78.66 458.34,72.05 466.30,67.92 474.23,65.50 482.18,64.21 490.14,63.55 
      498.07,63.22 506.02,63.09 513.96,63.02 521.91,63.00 529.86,63.00 537.80,63.00 545.75,63.00 553.71,63.00 561.64,63.00 569.59,63.00 
      577.52,63.00 585.48,63.00 593.43,63.00 601.37,63.00 609.32,63.00 617.25,63.00 625.21,63.00 633.16,63.00 641.09,63.00 649.05,63.00 
      656.98,63.00 "/>
    <polyline
      stroke-width="1.000000e+00"
      stroke="#FF0000"
      stroke-opacity="1.000000"
      fill="none"
      points="100.79,63.00 107.74,63.00 114.70,63.00 121.64,63.00 128.61,63.00 135.55,63.00 142.50,63.00 149.46,63.00 156.41,63.00 163.37,63.00 
      170.32,63.00 177.26,63.00 184.22,63.00 191.17,63.00 198.13,63.00 205.08,63.00 212.02,63.00 218.99,63.00 225.93,63.00 232.90,63.00 
      239.84,63.00 246.78,63.02 253.75,63.04 260.69,63.09 267.66,63.22 274.60,63.50 281.54,64.05 288.51,65.11 295.45,66.97 302.42,70.14 
      309.36,75.15 316.31,82.60 323.27,93.01 330.22,106.66 337.18,123.34 344.12,142.30 351.09,162.14 358.03,180.88 364.98,196.40 371.94,206.66 
      378.89,210.26 385.85,206.66 392.80,196.40 399.74,180.88 406.70,162.14 413.65,142.30 420.61,123.34 427.56,106.66 434.50,93.01 441.47,82.60 
      448.41,75.15 455.38,70.14 462.32,66.97 469.26,65.11 476.23,64.05 483.17,63.50 490.14,63.22 497.08,63.09 504.02,63.04 510.99,63.02 
      517.93,63.00 524.90,63.00 531.84,63.00 538.79,63.00 545.75,63.00 552.70,63.00 559.66,63.00 566.60,63.00 573.57,63.00 580.51,63.00 
      587.46,63.00 594.42,63.00 601.37,63.00 608.33,63.00 615.28,63.00 622.22,63.00 629.18,63.00 636.13,63.00 643.09,63.00 650.04,63.00 
      656.98,63.00 "/>
    <polyline
      stroke-width="1.000000e+00"
      stroke="#0000FF"
      stroke-opacity="1.000000"
      fill="none"
      points="100.79,63.00 106.97,63.00 113.14,63.00 119.34,63.00 125.51,63.00 131.69,63.00 137.86,63.00 144.06,63.00 150.23,63.00 156.41,63.00 
      162.58,63.00 168.78,63.00 174.95,63.00 181.13,63.00 187.30,63.00 193.50,63.00 199.67,63.00 205.85,63.00 212.02,63.00 218.22,63.00 
      224.39,63.00 230.57,63.00 236.74,63.00 242.94,63.00 249.11,63.00 255.29,63.02 261.46,63.04 267.66,63.09 273.83,63.20 280.01,63.44 
      286.18,63.90 292.38,64.73 298.55,66.21 304.73,68.64 310.90,72.47 317.10,78.14 323.27,86.14 329.45,96.77 335.62,110.11 341.82,125.82 
      347.99,143.09 354.17,160.67 360.34,176.95 366.54,190.20 372.71,198.86 378.89,201.89 385.06,198.86 391.26,190.20 397.43,176.95 403.61,160.67 
      409.78,143.09 415.98,125.82 422.15,110.11 428.33,96.77 434.50,86.14 440.70,78.14 446.87,72.47 453.05,68.64 459.22,66.21 465.42,64.73 
      471.59,63.90 477.77,63.44 483.94,63.20 490.14,63.09 496.31,63.04 502.49,63.02 508.66,63.00 514.86,63.00 521.03,63.00 527.21,63.00 
      533.38,63.00 539.58,63.00 545.75,63.00 551.93,63.00 558.10,63.00 564.30,63.00 570.47,63.00 576.65,63.00 582.82,63.00 589.02,63.00 
      595.19,63.00 601.37,63.00 607.54,63.00 613.74,63.00 619.91,63.00 626.09,63.00 632.26,63.00 638.46,63.00 644.63,63.00 650.81,63.00 
      656.98,63.00 "/>
    <polyline
      stroke-width="1.000000e+00"
      stroke="#000000"
      stroke-opacity="1.000000"
      fill="none"
      points="100.79,63.00 106.35,63.00 111.91,63.00 117.47,63.00 123.03,63.00 128.61,63.00 134.17,63.00 139.73,63.00 145.29,63.00 150.85,63.00 
      156.41,63.00 161.97,63.00 167.52,63.00 173.11,63.00 178.67,63.00 184.22,63.00 189.78,63.00 195.34,63.00 200.90,63.00 206.46,63.00 
      212.02,63.00 217.60,63.00 223.16,63.00 228.72,63.00 234.28,63.00 239.84,63.00 245.40,63.00 250.96,63.00 256.52,63.00 262.10,63.02 
      267.66,63.04 273.22,63.09 278.78,63.17 284.33,63.37 289.89,63.74 295.45,64.43 301.01,65.57 306.59,67.46 312.15,70.40 317.71,74.78 
      323.27,80.95 328.83,89.28 334.39,99.91 339.95,112.79 345.51,127.51 351.09,143.27 356.65,158.98 362.21,173.26 367.77,184.75 373.33,192.20 
      378.89,194.79 384.45,192.20 390.00,184.75 395.59,173.26 401.15,158.98 406.70,143.27 412.26,127.51 417.82,112.79 423.38,99.91 428.94,89.28 
      434.50,80.95 440.08,74.78 445.64,70.40 451.20,67.46 456.76,65.57 462.32,64.43 467.88,63.74 473.44,63.37 479.00,63.17 484.58,63.09 
      490.14,63.04 495.70,63.02 501.26,63.00 506.81,63.00 512.37,63.00 517.93,63.00 523.49,63.00 529.07,63.00 534.63,63.00 540.19,63.00 
      545.75,63.00 551.31,63.00 556.87,63.00 562.43,63.00 567.99,63.00 573.57,63.00 579.13,63.00 584.69,63.00 590.25,63.00 595.81,63.00 
      601.37,63.00 606.93,63.00 612.48,63.00 618.07,63.00 623.62,63.00 629.18,63.00 634.74,63.00 640.30,63.00 645.86,63.00 651.42,63.00 
      656.98,63.00 "/>
    <g
      clip-path="url(#text-clipping0)"
      >
      <text
        dominant-baseline="no-change"
        fill="#000000"
        fill-opacity="1.000000"
        xml:space="preserve"
        font-size="16"
        transform="matrix(1.000000 0.000000 0.000000 -1.000000 378.908048 25.203406)"
        text-anchor="middle"
        x="0.000000"
        y="6.451584"
><tspan font-family="sans-serif" font-style="normal" font-weight="normal">&#x78;&#x20;&#x3d;&#x20;&#x4e;&#x31;&#x2f;&#x4e;</tspan></text>
    </g>
    <g
      clip-path="url(#text-clipping0)"
      >
      <text
        dominant-baseline="no-change"
        fill="#000000"
        fill-opacity="1.000000"
        xml:space="preserve"
        font-size="16"
        transform="matrix(0.000000 1.000000 1.000000 -0.000000 37.794122 270.008240)"
        text-anchor="middle"
        x="0.000000"
        y="6.451584"
><tspan font-family="sans-serif" font-style="normal" font-weight="normal">&#x6e;&#x6f;&#x6d;&#x62;&#x72;&#x65;&#x20;&#x64;&#x65;&#x20;&#x6d;&#x69;&#x63;&#x72;&#x6f;&#xe9;&#x74;&#x61;&#x74;&#x73;&#x3a;&#x20;&#x3a9;&#x28;&#x4e;&#x31;&#x29;&#x20;&#x2f;&#x20;&#x3a9;&#x28;&#x74;&#x6f;&#x74;&#x29;</tspan></text>
    </g>
    <g
      clip-path="url(#text-clipping0)"
      >
      <text
        dominant-baseline="no-change"
        fill="#000000"
        fill-opacity="1.000000"
        xml:space="preserve"
        font-size="16"
        transform="matrix(1.000000 0.000000 0.000000 -1.000000 650.256661 464.384289)"
        text-anchor="end"
        x="0.000000"
        y="6.451584"
><tspan font-family="sans-serif" font-style="normal" font-weight="normal">&#x4e;&#x3d;&#x31;&#x30;</tspan></text>
    </g>
    <polyline
      stroke-width="1.000000e+00"
      stroke="#A000D5"
      stroke-opacity="1.000000"
      fill="none"
      points="509.80,464.38 565.44,464.38"
      />
    <g
      clip-path="url(#text-clipping0)"
      >
      <text
        dominant-baseline="no-change"
        fill="#000000"
        fill-opacity="1.000000"
        xml:space="preserve"
        font-size="16"
        transform="matrix(1.000000 0.000000 0.000000 -1.000000 650.256661 439.180883)"
        text-anchor="end"
        x="0.000000"
        y="6.451584"
><tspan font-family="sans-serif" font-style="normal" font-weight="normal">&#x4e;&#x3d;&#x32;&#x30;</tspan></text>
    </g>
    <polyline
      stroke-width="1.000000e+00"
      stroke="#FF00FF"
      stroke-opacity="1.000000"
      fill="none"
      points="509.80,439.18 565.44,439.18"
      />
    <g
      clip-path="url(#text-clipping0)"
      >
      <text
        dominant-baseline="no-change"
        fill="#000000"
        fill-opacity="1.000000"
        xml:space="preserve"
        font-size="16"
        transform="matrix(1.000000 0.000000 0.000000 -1.000000 650.256661 413.977477)"
        text-anchor="end"
        x="0.000000"
        y="6.451584"
><tspan font-family="sans-serif" font-style="normal" font-weight="normal">&#x4e;&#x3d;&#x33;&#x30;</tspan></text>
    </g>
    <polyline
      stroke-width="1.000000e+00"
      stroke="#FFFF00"
      stroke-opacity="1.000000"
      fill="none"
      points="509.80,413.98 565.44,413.98"
      />
    <g
      clip-path="url(#text-clipping0)"
      >
      <text
        dominant-baseline="no-change"
        fill="#000000"
        fill-opacity="1.000000"
        xml:space="preserve"
        font-size="16"
        transform="matrix(1.000000 0.000000 0.000000 -1.000000 650.256661 388.796045)"
        text-anchor="end"
        x="0.000000"
        y="6.451584"
><tspan font-family="sans-serif" font-style="normal" font-weight="normal">&#x4e;&#x3d;&#x34;&#x30;</tspan></text>
    </g>
    <polyline
      stroke-width="1.000000e+00"
      stroke="#00FF00"
      stroke-opacity="1.000000"
      fill="none"
      points="509.80,388.80 565.44,388.80"
      />
    <g
      clip-path="url(#text-clipping0)"
      >
      <text
        dominant-baseline="no-change"
        fill="#000000"
        fill-opacity="1.000000"
        xml:space="preserve"
        font-size="16"
        transform="matrix(1.000000 0.000000 0.000000 -1.000000 650.256661 363.592639)"
        text-anchor="end"
        x="0.000000"
        y="6.451584"
><tspan font-family="sans-serif" font-style="normal" font-weight="normal">&#x4e;&#x3d;&#x35;&#x30;</tspan></text>
    </g>
    <polyline
      stroke-width="1.000000e+00"
      stroke="#00FFFF"
      stroke-opacity="1.000000"
      fill="none"
      points="509.80,363.59 565.44,363.59"
      />
    <g
      clip-path="url(#text-clipping0)"
      >
      <text
        dominant-baseline="no-change"
        fill="#000000"
        fill-opacity="1.000000"
        xml:space="preserve"
        font-size="16"
        transform="matrix(1.000000 0.000000 0.000000 -1.000000 650.256661 338.389233)"
        text-anchor="end"
        x="0.000000"
        y="6.451584"
><tspan font-family="sans-serif" font-style="normal" font-weight="normal">&#x4e;&#x3d;&#x36;&#x30;</tspan></text>
    </g>
    <polyline
      stroke-width="1.000000e+00"
      stroke="#C8C8C8"
      stroke-opacity="1.000000"
      fill="none"
      points="509.80,338.39 565.44,338.39"
      />
    <g
      clip-path="url(#text-clipping0)"
      >
      <text
        dominant-baseline="no-change"
        fill="#000000"
        fill-opacity="1.000000"
        xml:space="preserve"
        font-size="16"
        transform="matrix(1.000000 0.000000 0.000000 -1.000000 650.256661 313.185827)"
        text-anchor="end"
        x="0.000000"
        y="6.451584"
><tspan font-family="sans-serif" font-style="normal" font-weight="normal">&#x4e;&#x3d;&#x37;&#x30;</tspan></text>
    </g>
    <polyline
      stroke-width="1.000000e+00"
      stroke="#A52A2A"
      stroke-opacity="1.000000"
      fill="none"
      points="509.80,313.19 565.44,313.19"
      />
    <g
      clip-path="url(#text-clipping0)"
      >
      <text
        dominant-baseline="no-change"
        fill="#000000"
        fill-opacity="1.000000"
        xml:space="preserve"
        font-size="16"
        transform="matrix(1.000000 0.000000 0.000000 -1.000000 650.256661 287.982421)"
        text-anchor="end"
        x="0.000000"
        y="6.451584"
><tspan font-family="sans-serif" font-style="normal" font-weight="normal">&#x4e;&#x3d;&#x38;&#x30;</tspan></text>
    </g>
    <polyline
      stroke-width="1.000000e+00"
      stroke="#FF0000"
      stroke-opacity="1.000000"
      fill="none"
      points="509.80,287.98 565.44,287.98"
      />
    <g
      clip-path="url(#text-clipping0)"
      >
      <text
        dominant-baseline="no-change"
        fill="#000000"
        fill-opacity="1.000000"
        xml:space="preserve"
        font-size="16"
        transform="matrix(1.000000 0.000000 0.000000 -1.000000 650.256661 262.800989)"
        text-anchor="end"
        x="0.000000"
        y="6.451584"
><tspan font-family="sans-serif" font-style="normal" font-weight="normal">&#x4e;&#x3d;&#x39;&#x30;</tspan></text>
    </g>
    <polyline
      stroke-width="1.000000e+00"
      stroke="#0000FF"
      stroke-opacity="1.000000"
      fill="none"
      points="509.80,262.80 565.44,262.80"
      />
    <g
      clip-path="url(#text-clipping0)"
      >
      <text
        dominant-baseline="no-change"
        fill="#000000"
        fill-opacity="1.000000"
        xml:space="preserve"
        font-size="16"
        transform="matrix(1.000000 0.000000 0.000000 -1.000000 650.256661 237.597583)"
        text-anchor="end"
        x="0.000000"
        y="6.451584"
><tspan font-family="sans-serif" font-style="normal" font-weight="normal">&#x4e;&#x3d;&#x31;&#x30;&#x30;</tspan></text>
    </g>
    <polyline
      stroke-width="1.000000e+00"
      stroke="#000000"
      stroke-opacity="1.000000"
      fill="none"
      points="509.80,237.60 565.44,237.60"
      />
    <polyline
      stroke-width="1.000000e+00"
      stroke="#000000"
      stroke-opacity="1.000000"
      fill="none"
      points="100.79,63.00 657.00,63.00"
      />
    <polyline
      stroke-width="1.000000e+00"
      stroke="#000000"
      stroke-opacity="1.000000"
      fill="none"
      points="100.79,53.55 100.79,63.00"
      />
    <polyline
      stroke-width="1.000000e+00"
      stroke="#000000"
      stroke-opacity="1.000000"
      fill="none"
      points="128.61,58.27 128.61,63.00"
      />
    <polyline
      stroke-width="1.000000e+00"
      stroke="#000000"
      stroke-opacity="1.000000"
      fill="none"
      points="156.41,58.27 156.41,63.00"
      />
    <polyline
      stroke-width="1.000000e+00"
      stroke="#000000"
      stroke-opacity="1.000000"
      fill="none"
      points="184.22,58.27 184.22,63.00"
      />
    <polyline
      stroke-width="1.000000e+00"
      stroke="#000000"
      stroke-opacity="1.000000"
      fill="none"
      points="212.02,53.55 212.02,63.00"
      />
    <polyline
      stroke-width="1.000000e+00"
      stroke="#000000"
      stroke-opacity="1.000000"
      fill="none"
      points="239.84,58.27 239.84,63.00"
      />
    <polyline
      stroke-width="1.000000e+00"
      stroke="#000000"
      stroke-opacity="1.000000"
      fill="none"
      points="267.66,58.27 267.66,63.00"
      />
    <polyline
      stroke-width="1.000000e+00"
      stroke="#000000"
      stroke-opacity="1.000000"
      fill="none"
      points="295.45,58.27 295.45,63.00"
      />
    <polyline
      stroke-width="1.000000e+00"
      stroke="#000000"
      stroke-opacity="1.000000"
      fill="none"
      points="323.27,53.55 323.27,63.00"
      />
    <polyline
      stroke-width="1.000000e+00"
      stroke="#000000"
      stroke-opacity="1.000000"
      fill="none"
      points="351.09,58.27 351.09,63.00"
      />
    <polyline
      stroke-width="1.000000e+00"
      stroke="#000000"
      stroke-opacity="1.000000"
      fill="none"
      points="378.89,58.27 378.89,63.00"
      />
    <polyline
      stroke-width="1.000000e+00"
      stroke="#000000"
      stroke-opacity="1.000000"
      fill="none"
      points="406.70,58.27 406.70,63.00"
      />
    <polyline
      stroke-width="1.000000e+00"
      stroke="#000000"
      stroke-opacity="1.000000"
      fill="none"
      points="434.50,53.55 434.50,63.00"
      />
    <polyline
      stroke-width="1.000000e+00"
      stroke="#000000"
      stroke-opacity="1.000000"
      fill="none"
      points="462.32,58.27 462.32,63.00"
      />
    <polyline
      stroke-width="1.000000e+00"
      stroke="#000000"
      stroke-opacity="1.000000"
      fill="none"
      points="490.14,58.27 490.14,63.00"
      />
    <polyline
      stroke-width="1.000000e+00"
      stroke="#000000"
      stroke-opacity="1.000000"
      fill="none"
      points="517.93,58.27 517.93,63.00"
      />
    <polyline
      stroke-width="1.000000e+00"
      stroke="#000000"
      stroke-opacity="1.000000"
      fill="none"
      points="545.75,53.55 545.75,63.00"
      />
    <polyline
      stroke-width="1.000000e+00"
      stroke="#000000"
      stroke-opacity="1.000000"
      fill="none"
      points="573.57,58.27 573.57,63.00"
      />
    <polyline
      stroke-width="1.000000e+00"
      stroke="#000000"
      stroke-opacity="1.000000"
      fill="none"
      points="601.37,58.27 601.37,63.00"
      />
    <polyline
      stroke-width="1.000000e+00"
      stroke="#000000"
      stroke-opacity="1.000000"
      fill="none"
      points="629.18,58.27 629.18,63.00"
      />
    <polyline
      stroke-width="1.000000e+00"
      stroke="#000000"
      stroke-opacity="1.000000"
      fill="none"
      points="656.98,53.55 656.98,63.00"
      />
    <polyline
      stroke-width="1.000000e+00"
      stroke="#000000"
      stroke-opacity="1.000000"
      fill="none"
      points="657.00,63.00 657.00,477.00"
      />
    <polyline
      stroke-width="1.000000e+00"
      stroke="#000000"
      stroke-opacity="1.000000"
      fill="none"
      points="657.00,63.00 666.45,63.00"
      />
    <polyline
      stroke-width="1.000000e+00"
      stroke="#000000"
      stroke-opacity="1.000000"
      fill="none"
      points="657.00,79.57 661.73,79.57"
      />
    <polyline
      stroke-width="1.000000e+00"
      stroke="#000000"
      stroke-opacity="1.000000"
      fill="none"
      points="657.00,96.11 661.73,96.11"
      />
    <polyline
      stroke-width="1.000000e+00"
      stroke="#000000"
      stroke-opacity="1.000000"
      fill="none"
      points="657.00,112.68 661.73,112.68"
      />
    <polyline
      stroke-width="1.000000e+00"
      stroke="#000000"
      stroke-opacity="1.000000"
      fill="none"
      points="657.00,129.23 661.73,129.23"
      />
    <polyline
      stroke-width="1.000000e+00"
      stroke="#000000"
      stroke-opacity="1.000000"
      fill="none"
      points="657.00,145.79 666.45,145.79"
      />
    <polyline
      stroke-width="1.000000e+00"
      stroke="#000000"
      stroke-opacity="1.000000"
      fill="none"
      points="657.00,162.36 661.73,162.36"
      />
    <polyline
      stroke-width="1.000000e+00"
      stroke="#000000"
      stroke-opacity="1.000000"
      fill="none"
      points="657.00,178.91 661.73,178.91"
      />
    <polyline
      stroke-width="1.000000e+00"
      stroke="#000000"
      stroke-opacity="1.000000"
      fill="none"
      points="657.00,195.47 661.73,195.47"
      />
    <polyline
      stroke-width="1.000000e+00"
      stroke="#000000"
      stroke-opacity="1.000000"
      fill="none"
      points="657.00,212.04 661.73,212.04"
      />
    <polyline
      stroke-width="1.000000e+00"
      stroke="#000000"
      stroke-opacity="1.000000"
      fill="none"
      points="657.00,228.59 666.45,228.59"
      />
    <polyline
      stroke-width="1.000000e+00"
      stroke="#000000"
      stroke-opacity="1.000000"
      fill="none"
      points="657.00,245.16 661.73,245.16"
      />
    <polyline
      stroke-width="1.000000e+00"
      stroke="#000000"
      stroke-opacity="1.000000"
      fill="none"
      points="657.00,261.70 661.73,261.70"
      />
    <polyline
      stroke-width="1.000000e+00"
      stroke="#000000"
      stroke-opacity="1.000000"
      fill="none"
      points="657.00,278.27 661.73,278.27"
      />
    <polyline
      stroke-width="1.000000e+00"
      stroke="#000000"
      stroke-opacity="1.000000"
      fill="none"
      points="657.00,294.84 661.73,294.84"
      />
    <polyline
      stroke-width="1.000000e+00"
      stroke="#000000"
      stroke-opacity="1.000000"
      fill="none"
      points="657.00,311.38 666.45,311.38"
      />
    <polyline
      stroke-width="1.000000e+00"
      stroke="#000000"
      stroke-opacity="1.000000"
      fill="none"
      points="657.00,327.95 661.73,327.95"
      />
    <polyline
      stroke-width="1.000000e+00"
      stroke="#000000"
      stroke-opacity="1.000000"
      fill="none"
      points="657.00,344.52 661.73,344.52"
      />
    <polyline
      stroke-width="1.000000e+00"
      stroke="#000000"
      stroke-opacity="1.000000"
      fill="none"
      points="657.00,361.07 661.73,361.07"
      />
    <polyline
      stroke-width="1.000000e+00"
      stroke="#000000"
      stroke-opacity="1.000000"
      fill="none"
      points="657.00,377.63 661.73,377.63"
      />
    <polyline
      stroke-width="1.000000e+00"
      stroke="#000000"
      stroke-opacity="1.000000"
      fill="none"
      points="657.00,394.18 666.45,394.18"
      />
    <polyline
      stroke-width="1.000000e+00"
      stroke="#000000"
      stroke-opacity="1.000000"
      fill="none"
      points="657.00,410.75 661.73,410.75"
      />
    <polyline
      stroke-width="1.000000e+00"
      stroke="#000000"
      stroke-opacity="1.000000"
      fill="none"
      points="657.00,427.32 661.73,427.32"
      />
    <polyline
      stroke-width="1.000000e+00"
      stroke="#000000"
      stroke-opacity="1.000000"
      fill="none"
      points="657.00,443.86 661.73,443.86"
      />
    <polyline
      stroke-width="1.000000e+00"
      stroke="#000000"
      stroke-opacity="1.000000"
      fill="none"
      points="657.00,460.43 661.73,460.43"
      />
    <polyline
      stroke-width="1.000000e+00"
      stroke="#000000"
      stroke-opacity="1.000000"
      fill="none"
      points="657.00,477.00 666.45,477.00"
      />
    <polyline
      stroke-width="1.000000e+00"
      stroke="#000000"
      stroke-opacity="1.000000"
      fill="none"
      points="657.00,477.00 100.79,477.00"
      />
    <polyline
      stroke-width="1.000000e+00"
      stroke="#000000"
      stroke-opacity="1.000000"
      fill="none"
      points="656.98,477.00 656.98,486.45"
      />
    <polyline
      stroke-width="1.000000e+00"
      stroke="#000000"
      stroke-opacity="1.000000"
      fill="none"
      points="629.18,477.00 629.18,481.72"
      />
    <polyline
      stroke-width="1.000000e+00"
      stroke="#000000"
      stroke-opacity="1.000000"
      fill="none"
      points="601.37,477.00 601.37,481.72"
      />
    <polyline
      stroke-width="1.000000e+00"
      stroke="#000000"
      stroke-opacity="1.000000"
      fill="none"
      points="573.57,477.00 573.57,481.72"
      />
    <polyline
      stroke-width="1.000000e+00"
      stroke="#000000"
      stroke-opacity="1.000000"
      fill="none"
      points="545.75,477.00 545.75,486.45"
      />
    <polyline
      stroke-width="1.000000e+00"
      stroke="#000000"
      stroke-opacity="1.000000"
      fill="none"
      points="517.93,477.00 517.93,481.72"
      />
    <polyline
      stroke-width="1.000000e+00"
      stroke="#000000"
      stroke-opacity="1.000000"
      fill="none"
      points="490.14,477.00 490.14,481.72"
      />
    <polyline
      stroke-width="1.000000e+00"
      stroke="#000000"
      stroke-opacity="1.000000"
      fill="none"
      points="462.32,477.00 462.32,481.72"
      />
    <polyline
      stroke-width="1.000000e+00"
      stroke="#000000"
      stroke-opacity="1.000000"
      fill="none"
      points="434.50,477.00 434.50,486.45"
      />
    <polyline
      stroke-width="1.000000e+00"
      stroke="#000000"
      stroke-opacity="1.000000"
      fill="none"
      points="406.70,477.00 406.70,481.72"
      />
    <polyline
      stroke-width="1.000000e+00"
      stroke="#000000"
      stroke-opacity="1.000000"
      fill="none"
      points="378.89,477.00 378.89,481.72"
      />
    <polyline
      stroke-width="1.000000e+00"
      stroke="#000000"
      stroke-opacity="1.000000"
      fill="none"
      points="351.09,477.00 351.09,481.72"
      />
    <polyline
      stroke-width="1.000000e+00"
      stroke="#000000"
      stroke-opacity="1.000000"
      fill="none"
      points="323.27,477.00 323.27,486.45"
      />
    <polyline
      stroke-width="1.000000e+00"
      stroke="#000000"
      stroke-opacity="1.000000"
      fill="none"
      points="295.45,477.00 295.45,481.72"
      />
    <polyline
      stroke-width="1.000000e+00"
      stroke="#000000"
      stroke-opacity="1.000000"
      fill="none"
      points="267.66,477.00 267.66,481.72"
      />
    <polyline
      stroke-width="1.000000e+00"
      stroke="#000000"
      stroke-opacity="1.000000"
      fill="none"
      points="239.84,477.00 239.84,481.72"
      />
    <polyline
      stroke-width="1.000000e+00"
      stroke="#000000"
      stroke-opacity="1.000000"
      fill="none"
      points="212.02,477.00 212.02,486.45"
      />
    <polyline
      stroke-width="1.000000e+00"
      stroke="#000000"
      stroke-opacity="1.000000"
      fill="none"
      points="184.22,477.00 184.22,481.72"
      />
    <polyline
      stroke-width="1.000000e+00"
      stroke="#000000"
      stroke-opacity="1.000000"
      fill="none"
      points="156.41,477.00 156.41,481.72"
      />
    <polyline
      stroke-width="1.000000e+00"
      stroke="#000000"
      stroke-opacity="1.000000"
      fill="none"
      points="128.61,477.00 128.61,481.72"
      />
    <polyline
      stroke-width="1.000000e+00"
      stroke="#000000"
      stroke-opacity="1.000000"
      fill="none"
      points="100.79,477.00 100.79,486.45"
      />
    <polyline
      stroke-width="1.000000e+00"
      stroke="#000000"
      stroke-opacity="1.000000"
      fill="none"
      points="100.79,477.00 100.79,63.00"
      />
    <polyline
      stroke-width="1.000000e+00"
      stroke="#000000"
      stroke-opacity="1.000000"
      fill="none"
      points="91.34,477.00 100.79,477.00"
      />
    <polyline
      stroke-width="1.000000e+00"
      stroke="#000000"
      stroke-opacity="1.000000"
      fill="none"
      points="96.07,460.43 100.79,460.43"
      />
    <polyline
      stroke-width="1.000000e+00"
      stroke="#000000"
      stroke-opacity="1.000000"
      fill="none"
      points="96.07,443.86 100.79,443.86"
      />
    <polyline
      stroke-width="1.000000e+00"
      stroke="#000000"
      stroke-opacity="1.000000"
      fill="none"
      points="96.07,427.32 100.79,427.32"
      />
    <polyline
      stroke-width="1.000000e+00"
      stroke="#000000"
      stroke-opacity="1.000000"
      fill="none"
      points="96.07,410.75 100.79,410.75"
      />
    <polyline
      stroke-width="1.000000e+00"
      stroke="#000000"
      stroke-opacity="1.000000"
      fill="none"
      points="91.34,394.18 100.79,394.18"
      />
    <polyline
      stroke-width="1.000000e+00"
      stroke="#000000"
      stroke-opacity="1.000000"
      fill="none"
      points="96.07,377.63 100.79,377.63"
      />
    <polyline
      stroke-width="1.000000e+00"
      stroke="#000000"
      stroke-opacity="1.000000"
      fill="none"
      points="96.07,361.07 100.79,361.07"
      />
    <polyline
      stroke-width="1.000000e+00"
      stroke="#000000"
      stroke-opacity="1.000000"
      fill="none"
      points="96.07,344.52 100.79,344.52"
      />
    <polyline
      stroke-width="1.000000e+00"
      stroke="#000000"
      stroke-opacity="1.000000"
      fill="none"
      points="96.07,327.95 100.79,327.95"
      />
    <polyline
      stroke-width="1.000000e+00"
      stroke="#000000"
      stroke-opacity="1.000000"
      fill="none"
      points="91.34,311.38 100.79,311.38"
      />
    <polyline
      stroke-width="1.000000e+00"
      stroke="#000000"
      stroke-opacity="1.000000"
      fill="none"
      points="96.07,294.84 100.79,294.84"
      />
    <polyline
      stroke-width="1.000000e+00"
      stroke="#000000"
      stroke-opacity="1.000000"
      fill="none"
      points="96.07,278.27 100.79,278.27"
      />
    <polyline
      stroke-width="1.000000e+00"
      stroke="#000000"
      stroke-opacity="1.000000"
      fill="none"
      points="96.07,261.70 100.79,261.70"
      />
    <polyline
      stroke-width="1.000000e+00"
      stroke="#000000"
      stroke-opacity="1.000000"
      fill="none"
      points="96.07,245.16 100.79,245.16"
      />
    <polyline
      stroke-width="1.000000e+00"
      stroke="#000000"
      stroke-opacity="1.000000"
      fill="none"
      points="91.34,228.59 100.79,228.59"
      />
    <polyline
      stroke-width="1.000000e+00"
      stroke="#000000"
      stroke-opacity="1.000000"
      fill="none"
      points="96.07,212.04 100.79,212.04"
      />
    <polyline
      stroke-width="1.000000e+00"
      stroke="#000000"
      stroke-opacity="1.000000"
      fill="none"
      points="96.07,195.47 100.79,195.47"
      />
    <polyline
      stroke-width="1.000000e+00"
      stroke="#000000"
      stroke-opacity="1.000000"
      fill="none"
      points="96.07,178.91 100.79,178.91"
      />
    <polyline
      stroke-width="1.000000e+00"
      stroke="#000000"
      stroke-opacity="1.000000"
      fill="none"
      points="96.07,162.36 100.79,162.36"
      />
    <polyline
      stroke-width="1.000000e+00"
      stroke="#000000"
      stroke-opacity="1.000000"
      fill="none"
      points="91.34,145.79 100.79,145.79"
      />
    <polyline
      stroke-width="1.000000e+00"
      stroke="#000000"
      stroke-opacity="1.000000"
      fill="none"
      points="96.07,129.23 100.79,129.23"
      />
    <polyline
      stroke-width="1.000000e+00"
      stroke="#000000"
      stroke-opacity="1.000000"
      fill="none"
      points="96.07,112.68 100.79,112.68"
      />
    <polyline
      stroke-width="1.000000e+00"
      stroke="#000000"
      stroke-opacity="1.000000"
      fill="none"
      points="96.07,96.11 100.79,96.11"
      />
    <polyline
      stroke-width="1.000000e+00"
      stroke="#000000"
      stroke-opacity="1.000000"
      fill="none"
      points="96.07,79.57 100.79,79.57"
      />
    <polyline
      stroke-width="1.000000e+00"
      stroke="#000000"
      stroke-opacity="1.000000"
      fill="none"
      points="91.34,63.00 100.79,63.00"
      />
    <g
      clip-path="url(#text-clipping0)"
      >
      <text
        dominant-baseline="no-change"
        fill="#000000"
        fill-opacity="1.000000"
        xml:space="preserve"
        font-size="16"
        transform="matrix(1.000000 0.000000 0.000000 -1.000000 100.813623 40.958281)"
        text-anchor="middle"
        x="0.000000"
        y="6.451584"
><tspan font-family="sans-serif" font-style="normal" font-weight="normal">&#x30;&#x2e;&#x30;</tspan></text>
    </g>
    <g
      clip-path="url(#text-clipping0)"
      >
      <text
        dominant-baseline="no-change"
        fill="#000000"
        fill-opacity="1.000000"
        xml:space="preserve"
        font-size="16"
        transform="matrix(1.000000 0.000000 0.000000 -1.000000 212.042604 40.958281)"
        text-anchor="middle"
        x="0.000000"
        y="6.451584"
><tspan font-family="sans-serif" font-style="normal" font-weight="normal">&#x30;&#x2e;&#x32;</tspan></text>
    </g>
    <g
      clip-path="url(#text-clipping0)"
      >
      <text
        dominant-baseline="no-change"
        fill="#000000"
        fill-opacity="1.000000"
        xml:space="preserve"
        font-size="16"
        transform="matrix(1.000000 0.000000 0.000000 -1.000000 323.271584 40.958281)"
        text-anchor="middle"
        x="0.000000"
        y="6.451584"
><tspan font-family="sans-serif" font-style="normal" font-weight="normal">&#x30;&#x2e;&#x34;</tspan></text>
    </g>
    <g
      clip-path="url(#text-clipping0)"
      >
      <text
        dominant-baseline="no-change"
        fill="#000000"
        fill-opacity="1.000000"
        xml:space="preserve"
        font-size="16"
        transform="matrix(1.000000 0.000000 0.000000 -1.000000 434.522538 40.958281)"
        text-anchor="middle"
        x="0.000000"
        y="6.451584"
><tspan font-family="sans-serif" font-style="normal" font-weight="normal">&#x30;&#x2e;&#x36;</tspan></text>
    </g>
    <g
      clip-path="url(#text-clipping0)"
      >
      <text
        dominant-baseline="no-change"
        fill="#000000"
        fill-opacity="1.000000"
        xml:space="preserve"
        font-size="16"
        transform="matrix(1.000000 0.000000 0.000000 -1.000000 545.751518 40.958281)"
        text-anchor="middle"
        x="0.000000"
        y="6.451584"
><tspan font-family="sans-serif" font-style="normal" font-weight="normal">&#x30;&#x2e;&#x38;</tspan></text>
    </g>
    <g
      clip-path="url(#text-clipping0)"
      >
      <text
        dominant-baseline="no-change"
        fill="#000000"
        fill-opacity="1.000000"
        xml:space="preserve"
        font-size="16"
        transform="matrix(1.000000 0.000000 0.000000 -1.000000 657.002472 40.958281)"
        text-anchor="middle"
        x="0.000000"
        y="6.451584"
><tspan font-family="sans-serif" font-style="normal" font-weight="normal">&#x31;&#x2e;&#x30;</tspan></text>
    </g>
    <g
      clip-path="url(#text-clipping0)"
      >
      <text
        dominant-baseline="no-change"
        fill="#000000"
        fill-opacity="1.000000"
        xml:space="preserve"
        font-size="16"
        transform="matrix(1.000000 0.000000 0.000000 -1.000000 88.200934 62.997528)"
        text-anchor="end"
        x="0.000000"
        y="6.451584"
><tspan font-family="sans-serif" font-style="normal" font-weight="normal">&#x30;&#x2e;&#x30;&#x30;</tspan></text>
    </g>
    <g
      clip-path="url(#text-clipping0)"
      >
      <text
        dominant-baseline="no-change"
        fill="#000000"
        fill-opacity="1.000000"
        xml:space="preserve"
        font-size="16"
        transform="matrix(1.000000 0.000000 0.000000 -1.000000 88.200934 145.793023)"
        text-anchor="end"
        x="0.000000"
        y="6.451584"
><tspan font-family="sans-serif" font-style="normal" font-weight="normal">&#x30;&#x2e;&#x30;&#x35;</tspan></text>
    </g>
    <g
      clip-path="url(#text-clipping0)"
      >
      <text
        dominant-baseline="no-change"
        fill="#000000"
        fill-opacity="1.000000"
        xml:space="preserve"
        font-size="16"
        transform="matrix(1.000000 0.000000 0.000000 -1.000000 88.200934 228.588519)"
        text-anchor="end"
        x="0.000000"
        y="6.451584"
><tspan font-family="sans-serif" font-style="normal" font-weight="normal">&#x30;&#x2e;&#x31;&#x30;</tspan></text>
    </g>
    <g
      clip-path="url(#text-clipping0)"
      >
      <text
        dominant-baseline="no-change"
        fill="#000000"
        fill-opacity="1.000000"
        xml:space="preserve"
        font-size="16"
        transform="matrix(1.000000 0.000000 0.000000 -1.000000 88.200934 311.405988)"
        text-anchor="end"
        x="0.000000"
        y="6.451584"
><tspan font-family="sans-serif" font-style="normal" font-weight="normal">&#x30;&#x2e;&#x31;&#x35;</tspan></text>
    </g>
    <g
      clip-path="url(#text-clipping0)"
      >
      <text
        dominant-baseline="no-change"
        fill="#000000"
        fill-opacity="1.000000"
        xml:space="preserve"
        font-size="16"
        transform="matrix(1.000000 0.000000 0.000000 -1.000000 88.200934 394.201483)"
        text-anchor="end"
        x="0.000000"
        y="6.451584"
><tspan font-family="sans-serif" font-style="normal" font-weight="normal">&#x30;&#x2e;&#x32;&#x30;</tspan></text>
    </g>
    <g
      clip-path="url(#text-clipping0)"
      >
      <text
        dominant-baseline="no-change"
        fill="#000000"
        fill-opacity="1.000000"
        xml:space="preserve"
        font-size="16"
        transform="matrix(1.000000 0.000000 0.000000 -1.000000 88.200934 476.996979)"
        text-anchor="end"
        x="0.000000"
        y="6.451584"
><tspan font-family="sans-serif" font-style="normal" font-weight="normal">&#x30;&#x2e;&#x32;&#x35;</tspan></text>
    </g>
  </g>
</svg>
