<?xml version="1.0" encoding="UTF-8"?>
<!DOCTYPE svg PUBLIC "-//W3C//DTD SVG 1.1//EN"
        "http://www.w3.org/Graphics/SVG/1.1/DTD/svg11.dtd">
<svg
  xmlns="http://www.w3.org/2000/svg"
  xmlns:xlink="http://www.w3.org/1999/xlink"
  version="1.1"
  width="720pt"
  height="540pt"
  viewBox="0 0 720 540"
  >
  <rect
    x="0"
    y="0"
    width="720"
    height="540"
    stroke="none"
    fill="#FFFFFF"
    fill-opacity="1.000000"
    />
  <g
    transform="matrix(1 0 0 -1 0 540)"
    >
    <polyline
      stroke-width="1.000000e+00"
      stroke="#000000"
      stroke-opacity="1.000000"
      fill="none"
      points="101.91,467.83 103.01,432.37 104.13,409.65 105.23,393.01 106.35,379.96 107.47,369.20 108.57,360.08 109.69,352.12 110.81,345.11 111.91,338.85 
      113.03,333.16 114.13,327.95 115.25,323.18 116.37,318.75 117.47,314.61 118.59,310.77 119.71,307.14 120.81,303.72 121.93,300.49 123.03,297.41 
      124.15,294.49 125.27,291.70 126.37,289.04 127.49,286.49 128.61,284.05 129.71,281.70 130.83,279.43 131.93,277.26 133.05,275.17 134.17,273.13 
      135.27,271.17 136.39,269.26 137.51,267.42 138.61,265.64 139.73,263.90 140.83,262.21 141.95,260.56 143.07,258.98 144.17,257.42 145.29,255.90 
      146.41,254.43 147.51,252.98 148.63,251.57 149.73,250.19 150.85,248.85 151.97,247.53 153.07,246.23 154.19,244.98 155.31,243.73 156.41,242.52 
      157.53,241.33 158.63,240.17 159.75,239.05 160.87,237.93 161.97,236.83 163.09,235.73 164.21,234.68 165.31,233.64 166.43,232.61 167.52,231.60 
      168.65,230.61 169.77,229.64 170.86,228.68 171.99,227.73 173.11,226.81 174.20,225.89 175.33,224.98 176.42,224.11 177.54,223.23 178.67,222.37 
      179.76,221.51 180.88,220.68 182.01,219.84 183.10,219.03 184.22,218.24 185.32,217.45 186.44,216.66 187.56,215.89 188.66,215.12 189.78,214.37 
      190.90,213.62 192.00,212.88 193.12,212.15 194.22,211.45 195.34,210.72 196.46,210.02 197.56,209.34 198.68,208.66 199.80,207.98 200.90,207.30 
      202.02,206.64 203.12,205.98 204.24,205.34 205.36,204.70 206.46,204.07 207.58,203.43 208.70,202.81 209.80,202.20 210.92,201.58 212.02,200.99 
      213.14,200.40 214.26,199.80 215.36,199.21 216.48,198.64 217.60,198.07 218.70,197.50 219.82,196.95 220.92,196.38 222.04,195.83 223.16,195.28 
      224.26,194.73 225.38,194.20 226.50,193.67 227.60,193.15 228.72,192.62 229.82,192.09 230.94,191.59 232.06,191.08 233.16,190.57 234.28,190.07 
      235.40,189.56 236.50,189.08 237.62,188.58 238.72,188.09 239.84,187.61 240.96,187.15 242.06,186.66 243.18,186.20 244.30,185.74 245.40,185.28 
      246.52,184.82 247.62,184.36 248.74,183.89 249.86,183.46 250.96,183.02 252.08,182.55 253.20,182.11 254.30,181.70 255.42,181.26 256.52,180.82 
      257.64,180.40 258.76,179.98 259.86,179.57 260.98,179.15 262.10,178.73 263.20,178.31 264.32,177.90 265.42,177.50 266.54,177.08 267.66,176.69 
      268.76,176.29 269.88,175.90 271.00,175.50 272.10,175.11 273.22,174.73 274.32,174.34 275.44,173.96 276.56,173.59 277.65,173.19 278.78,172.82 
      279.90,172.45 280.99,172.07 282.12,171.72 283.21,171.35 284.33,170.97 285.46,170.62 286.55,170.25 287.67,169.90 288.80,169.55 289.89,169.19 
      291.01,168.84 292.11,168.49 293.23,168.14 294.35,167.79 295.45,167.46 296.57,167.11 297.69,166.78 298.79,166.43 299.91,166.10 301.01,165.77 
      302.13,165.44 303.25,165.11 304.35,164.78 305.47,164.45 306.59,164.12 307.69,163.81 308.81,163.48 309.91,163.15 311.03,162.84 312.15,162.54 
      313.25,162.21 314.37,161.90 315.49,161.59 316.59,161.28 317.71,160.98 318.81,160.67 319.93,160.36 321.05,160.05 322.15,159.75 323.27,159.46 
      324.39,159.15 325.49,158.85 326.61,158.56 327.71,158.27 328.83,157.97 329.95,157.68 331.05,157.39 332.17,157.11 333.29,156.82 334.39,156.54 
      335.51,156.25 336.61,155.97 337.73,155.68 338.85,155.40 339.95,155.11 341.07,154.85 342.19,154.56 343.29,154.30 344.41,154.01 345.51,153.75 
      346.63,153.46 347.75,153.20 348.85,152.93 349.97,152.67 351.09,152.39 352.19,152.12 353.31,151.86 354.41,151.59 355.53,151.33 356.65,151.07 
      357.75,150.82 358.87,150.56 359.99,150.30 361.09,150.03 362.21,149.79 363.31,149.53 364.43,149.29 365.55,149.02 366.65,148.78 367.77,148.52 
      368.89,148.28 369.99,148.03 371.11,147.77 372.21,147.53 373.33,147.29 374.45,147.05 375.55,146.80 376.67,146.56 377.79,146.32 378.89,146.08 
      380.01,145.84 381.11,145.60 382.23,145.35 383.35,145.13 384.45,144.89 385.57,144.65 "/>
    <polyline
      stroke-width="1.000000e+00"
      stroke="#000000"
      stroke-opacity="1.000000"
      fill="none"
      points="385.57,144.65 386.69,144.43 387.79,144.19 388.91,143.97 390.00,143.73 391.13,143.51 392.25,143.27 393.34,143.05 394.47,142.80 395.59,142.58 
      396.68,142.37 397.81,142.15 398.90,141.90 400.02,141.68 401.15,141.46 402.24,141.24 403.36,141.02 404.49,140.81 405.58,140.59 406.70,140.37 
      407.80,140.15 408.92,139.93 410.04,139.71 411.14,139.51 412.26,139.29 413.38,139.07 414.48,138.85 415.60,138.65 416.70,138.43 417.82,138.23 
      418.94,138.01 420.04,137.82 421.16,137.60 422.28,137.40 423.38,137.18 424.50,136.98 425.60,136.76 426.72,136.56 427.84,136.37 428.94,136.17 
      430.06,135.95 431.18,135.75 432.28,135.55 433.40,135.36 434.50,135.16 435.62,134.96 436.74,134.76 437.84,134.56 438.96,134.37 440.08,134.17 
      441.18,133.97 442.30,133.77 443.40,133.58 444.52,133.38 445.64,133.18 446.74,133.00 447.86,132.81 448.98,132.61 450.08,132.41 451.20,132.24 
      452.30,132.04 453.42,131.84 454.54,131.66 455.64,131.47 456.76,131.29 457.88,131.09 458.98,130.92 460.10,130.72 461.20,130.54 462.32,130.35 
      463.44,130.17 464.54,129.99 465.66,129.80 466.78,129.62 467.88,129.44 469.00,129.27 470.10,129.07 471.22,128.90 472.34,128.72 473.44,128.54 
      474.56,128.37 475.68,128.19 476.78,127.99 477.90,127.82 479.00,127.64 480.12,127.47 481.24,127.29 482.34,127.12 483.46,126.94 484.58,126.79 
      485.68,126.61 486.80,126.43 487.90,126.26 489.02,126.08 490.14,125.91 491.24,125.75 492.36,125.58 493.48,125.40 494.58,125.23 495.70,125.07 
      496.79,124.90 497.92,124.72 499.04,124.57 500.13,124.39 501.26,124.22 502.38,124.06 503.47,123.89 504.60,123.73 505.69,123.56 506.81,123.40 
      507.94,123.23 509.03,123.07 510.15,122.92 511.28,122.74 512.37,122.59 513.49,122.41 514.59,122.26 515.71,122.11 516.83,121.93 517.93,121.78 
      519.05,121.62 520.17,121.47 521.27,121.29 522.39,121.14 523.49,120.99 524.61,120.83 525.73,120.68 526.83,120.52 527.95,120.35 529.07,120.19 
      530.17,120.04 531.29,119.89 532.39,119.73 533.51,119.58 534.63,119.43 535.73,119.27 536.85,119.12 537.97,118.96 539.07,118.81 540.19,118.66 
      541.29,118.50 542.41,118.37 543.53,118.22 544.63,118.06 545.75,117.91 546.87,117.76 547.97,117.60 549.09,117.47 550.19,117.32 551.31,117.16 
      552.43,117.01 553.53,116.88 554.65,116.72 555.77,116.57 556.87,116.44 557.99,116.28 559.09,116.13 560.21,116.00 561.33,115.84 562.43,115.71 
      563.55,115.56 564.67,115.43 565.77,115.27 566.89,115.14 567.99,114.99 569.11,114.85 570.23,114.70 571.33,114.57 572.45,114.42 573.57,114.28 
      574.67,114.13 575.79,114.00 576.89,113.87 578.01,113.71 579.13,113.58 580.23,113.43 581.35,113.29 582.47,113.16 583.57,113.03 584.69,112.88 
      585.79,112.75 586.91,112.61 588.03,112.48 589.13,112.33 590.25,112.20 591.37,112.06 592.47,111.93 593.59,111.80 594.69,111.65 595.81,111.51 
      596.93,111.38 598.03,111.25 599.15,111.12 600.27,110.99 601.37,110.86 602.49,110.72 603.59,110.59 604.71,110.46 605.83,110.33 606.93,110.20 
      608.05,110.06 609.17,109.93 610.27,109.80 611.39,109.67 612.48,109.54 613.61,109.41 614.73,109.27 615.82,109.14 616.95,109.01 618.07,108.88 
      619.16,108.77 620.29,108.64 621.38,108.50 622.50,108.37 623.62,108.24 624.72,108.11 625.84,108.00 626.96,107.87 628.06,107.74 629.18,107.60 
      630.28,107.49 631.40,107.36 632.52,107.23 633.62,107.10 634.74,106.99 635.86,106.86 636.96,106.72 638.08,106.61 639.18,106.48 640.30,106.37 
      641.42,106.24 642.52,106.11 643.64,106.00 644.76,105.87 645.86,105.76 646.98,105.63 648.08,105.49 649.20,105.38 650.32,105.25 651.42,105.14 
      652.54,105.01 653.66,104.90 654.76,104.77 655.88,104.66 "/>
    <g
      clip-path="url(#text-clipping1)"
      >
      <text
        dominant-baseline="no-change"
        fill="#000000"
        fill-opacity="1.000000"
        xml:space="preserve"
        font-size="16"
        transform="matrix(1.000000 0.000000 0.000000 -1.000000 378.908048 25.203406)"
        text-anchor="middle"
        x="0.000000"
        y="6.451584"
><tspan font-family="sans-serif" font-style="normal" font-weight="normal">&#x6e;</tspan></text>
    </g>
    <g
      clip-path="url(#text-clipping1)"
      >
      <text
        dominant-baseline="no-change"
        fill="#000000"
        fill-opacity="1.000000"
        xml:space="preserve"
        font-size="16"
        transform="matrix(0.000000 1.000000 1.000000 -0.000000 37.794122 270.008240)"
        text-anchor="middle"
        x="0.000000"
        y="6.451584"
><tspan font-family="sans-serif" font-style="normal" font-weight="normal">&#x6c;&#x6f;&#x67;&#x31;&#x30;&#x20;&#x28;&#x20;&#x70;&#x69;&#x20;&#x2d;&#x20;&#x34;&#x2a;&#x28;&#x41;&#x72;&#x63;&#x74;&#x61;&#x6e;&#x20;&#x31;&#x20;&#xe0;&#x20;&#x6c;&#x27;&#x6f;&#x72;&#x64;&#x72;&#x65;&#x20;&#x6e;&#x29;&#x20;&#x29;</tspan></text>
    </g>
    <polyline
      stroke-width="1.000000e+00"
      stroke="#000000"
      stroke-opacity="1.000000"
      fill="none"
      points="100.79,63.00 657.00,63.00"
      />
    <polyline
      stroke-width="1.000000e+00"
      stroke="#000000"
      stroke-opacity="1.000000"
      fill="none"
      points="100.79,53.55 100.79,63.00"
      />
    <polyline
      stroke-width="1.000000e+00"
      stroke="#000000"
      stroke-opacity="1.000000"
      fill="none"
      points="123.03,58.27 123.03,63.00"
      />
    <polyline
      stroke-width="1.000000e+00"
      stroke="#000000"
      stroke-opacity="1.000000"
      fill="none"
      points="145.29,58.27 145.29,63.00"
      />
    <polyline
      stroke-width="1.000000e+00"
      stroke="#000000"
      stroke-opacity="1.000000"
      fill="none"
      points="167.52,58.27 167.52,63.00"
      />
    <polyline
      stroke-width="1.000000e+00"
      stroke="#000000"
      stroke-opacity="1.000000"
      fill="none"
      points="189.78,58.27 189.78,63.00"
      />
    <polyline
      stroke-width="1.000000e+00"
      stroke="#000000"
      stroke-opacity="1.000000"
      fill="none"
      points="212.02,53.55 212.02,63.00"
      />
    <polyline
      stroke-width="1.000000e+00"
      stroke="#000000"
      stroke-opacity="1.000000"
      fill="none"
      points="234.28,58.27 234.28,63.00"
      />
    <polyline
      stroke-width="1.000000e+00"
      stroke="#000000"
      stroke-opacity="1.000000"
      fill="none"
      points="256.52,58.27 256.52,63.00"
      />
    <polyline
      stroke-width="1.000000e+00"
      stroke="#000000"
      stroke-opacity="1.000000"
      fill="none"
      points="278.78,58.27 278.78,63.00"
      />
    <polyline
      stroke-width="1.000000e+00"
      stroke="#000000"
      stroke-opacity="1.000000"
      fill="none"
      points="301.01,58.27 301.01,63.00"
      />
    <polyline
      stroke-width="1.000000e+00"
      stroke="#000000"
      stroke-opacity="1.000000"
      fill="none"
      points="323.27,53.55 323.27,63.00"
      />
    <polyline
      stroke-width="1.000000e+00"
      stroke="#000000"
      stroke-opacity="1.000000"
      fill="none"
      points="345.51,58.27 345.51,63.00"
      />
    <polyline
      stroke-width="1.000000e+00"
      stroke="#000000"
      stroke-opacity="1.000000"
      fill="none"
      points="367.77,58.27 367.77,63.00"
      />
    <polyline
      stroke-width="1.000000e+00"
      stroke="#000000"
      stroke-opacity="1.000000"
      fill="none"
      points="390.00,58.27 390.00,63.00"
      />
    <polyline
      stroke-width="1.000000e+00"
      stroke="#000000"
      stroke-opacity="1.000000"
      fill="none"
      points="412.26,58.27 412.26,63.00"
      />
    <polyline
      stroke-width="1.000000e+00"
      stroke="#000000"
      stroke-opacity="1.000000"
      fill="none"
      points="434.50,53.55 434.50,63.00"
      />
    <polyline
      stroke-width="1.000000e+00"
      stroke="#000000"
      stroke-opacity="1.000000"
      fill="none"
      points="456.76,58.27 456.76,63.00"
      />
    <polyline
      stroke-width="1.000000e+00"
      stroke="#000000"
      stroke-opacity="1.000000"
      fill="none"
      points="479.00,58.27 479.00,63.00"
      />
    <polyline
      stroke-width="1.000000e+00"
      stroke="#000000"
      stroke-opacity="1.000000"
      fill="none"
      points="501.26,58.27 501.26,63.00"
      />
    <polyline
      stroke-width="1.000000e+00"
      stroke="#000000"
      stroke-opacity="1.000000"
      fill="none"
      points="523.49,58.27 523.49,63.00"
      />
    <polyline
      stroke-width="1.000000e+00"
      stroke="#000000"
      stroke-opacity="1.000000"
      fill="none"
      points="545.75,53.55 545.75,63.00"
      />
    <polyline
      stroke-width="1.000000e+00"
      stroke="#000000"
      stroke-opacity="1.000000"
      fill="none"
      points="567.99,58.27 567.99,63.00"
      />
    <polyline
      stroke-width="1.000000e+00"
      stroke="#000000"
      stroke-opacity="1.000000"
      fill="none"
      points="590.25,58.27 590.25,63.00"
      />
    <polyline
      stroke-width="1.000000e+00"
      stroke="#000000"
      stroke-opacity="1.000000"
      fill="none"
      points="612.48,58.27 612.48,63.00"
      />
    <polyline
      stroke-width="1.000000e+00"
      stroke="#000000"
      stroke-opacity="1.000000"
      fill="none"
      points="634.74,58.27 634.74,63.00"
      />
    <polyline
      stroke-width="1.000000e+00"
      stroke="#000000"
      stroke-opacity="1.000000"
      fill="none"
      points="656.98,53.55 656.98,63.00"
      />
    <polyline
      stroke-width="1.000000e+00"
      stroke="#000000"
      stroke-opacity="1.000000"
      fill="none"
      points="657.00,63.00 657.00,477.00"
      />
    <polyline
      stroke-width="1.000000e+00"
      stroke="#000000"
      stroke-opacity="1.000000"
      fill="none"
      points="657.00,63.00 666.45,63.00"
      />
    <polyline
      stroke-width="1.000000e+00"
      stroke="#000000"
      stroke-opacity="1.000000"
      fill="none"
      points="657.00,90.60 661.73,90.60"
      />
    <polyline
      stroke-width="1.000000e+00"
      stroke="#000000"
      stroke-opacity="1.000000"
      fill="none"
      points="657.00,118.19 661.73,118.19"
      />
    <polyline
      stroke-width="1.000000e+00"
      stroke="#000000"
      stroke-opacity="1.000000"
      fill="none"
      points="657.00,145.79 661.73,145.79"
      />
    <polyline
      stroke-width="1.000000e+00"
      stroke="#000000"
      stroke-opacity="1.000000"
      fill="none"
      points="657.00,173.39 661.73,173.39"
      />
    <polyline
      stroke-width="1.000000e+00"
      stroke="#000000"
      stroke-opacity="1.000000"
      fill="none"
      points="657.00,200.99 666.45,200.99"
      />
    <polyline
      stroke-width="1.000000e+00"
      stroke="#000000"
      stroke-opacity="1.000000"
      fill="none"
      points="657.00,228.59 661.73,228.59"
      />
    <polyline
      stroke-width="1.000000e+00"
      stroke="#000000"
      stroke-opacity="1.000000"
      fill="none"
      points="657.00,256.19 661.73,256.19"
      />
    <polyline
      stroke-width="1.000000e+00"
      stroke="#000000"
      stroke-opacity="1.000000"
      fill="none"
      points="657.00,283.79 661.73,283.79"
      />
    <polyline
      stroke-width="1.000000e+00"
      stroke="#000000"
      stroke-opacity="1.000000"
      fill="none"
      points="657.00,311.38 661.73,311.38"
      />
    <polyline
      stroke-width="1.000000e+00"
      stroke="#000000"
      stroke-opacity="1.000000"
      fill="none"
      points="657.00,338.98 666.45,338.98"
      />
    <polyline
      stroke-width="1.000000e+00"
      stroke="#000000"
      stroke-opacity="1.000000"
      fill="none"
      points="657.00,366.58 661.73,366.58"
      />
    <polyline
      stroke-width="1.000000e+00"
      stroke="#000000"
      stroke-opacity="1.000000"
      fill="none"
      points="657.00,394.18 661.73,394.18"
      />
    <polyline
      stroke-width="1.000000e+00"
      stroke="#000000"
      stroke-opacity="1.000000"
      fill="none"
      points="657.00,421.78 661.73,421.78"
      />
    <polyline
      stroke-width="1.000000e+00"
      stroke="#000000"
      stroke-opacity="1.000000"
      fill="none"
      points="657.00,449.40 661.73,449.40"
      />
    <polyline
      stroke-width="1.000000e+00"
      stroke="#000000"
      stroke-opacity="1.000000"
      fill="none"
      points="657.00,477.00 666.45,477.00"
      />
    <polyline
      stroke-width="1.000000e+00"
      stroke="#000000"
      stroke-opacity="1.000000"
      fill="none"
      points="657.00,477.00 100.79,477.00"
      />
    <polyline
      stroke-width="1.000000e+00"
      stroke="#000000"
      stroke-opacity="1.000000"
      fill="none"
      points="656.98,477.00 656.98,486.45"
      />
    <polyline
      stroke-width="1.000000e+00"
      stroke="#000000"
      stroke-opacity="1.000000"
      fill="none"
      points="634.74,477.00 634.74,481.72"
      />
    <polyline
      stroke-width="1.000000e+00"
      stroke="#000000"
      stroke-opacity="1.000000"
      fill="none"
      points="612.48,477.00 612.48,481.72"
      />
    <polyline
      stroke-width="1.000000e+00"
      stroke="#000000"
      stroke-opacity="1.000000"
      fill="none"
      points="590.25,477.00 590.25,481.72"
      />
    <polyline
      stroke-width="1.000000e+00"
      stroke="#000000"
      stroke-opacity="1.000000"
      fill="none"
      points="567.99,477.00 567.99,481.72"
      />
    <polyline
      stroke-width="1.000000e+00"
      stroke="#000000"
      stroke-opacity="1.000000"
      fill="none"
      points="545.75,477.00 545.75,486.45"
      />
    <polyline
      stroke-width="1.000000e+00"
      stroke="#000000"
      stroke-opacity="1.000000"
      fill="none"
      points="523.49,477.00 523.49,481.72"
      />
    <polyline
      stroke-width="1.000000e+00"
      stroke="#000000"
      stroke-opacity="1.000000"
      fill="none"
      points="501.26,477.00 501.26,481.72"
      />
    <polyline
      stroke-width="1.000000e+00"
      stroke="#000000"
      stroke-opacity="1.000000"
      fill="none"
      points="479.00,477.00 479.00,481.72"
      />
    <polyline
      stroke-width="1.000000e+00"
      stroke="#000000"
      stroke-opacity="1.000000"
      fill="none"
      points="456.76,477.00 456.76,481.72"
      />
    <polyline
      stroke-width="1.000000e+00"
      stroke="#000000"
      stroke-opacity="1.000000"
      fill="none"
      points="434.50,477.00 434.50,486.45"
      />
    <polyline
      stroke-width="1.000000e+00"
      stroke="#000000"
      stroke-opacity="1.000000"
      fill="none"
      points="412.26,477.00 412.26,481.72"
      />
    <polyline
      stroke-width="1.000000e+00"
      stroke="#000000"
      stroke-opacity="1.000000"
      fill="none"
      points="390.00,477.00 390.00,481.72"
      />
    <polyline
      stroke-width="1.000000e+00"
      stroke="#000000"
      stroke-opacity="1.000000"
      fill="none"
      points="367.77,477.00 367.77,481.72"
      />
    <polyline
      stroke-width="1.000000e+00"
      stroke="#000000"
      stroke-opacity="1.000000"
      fill="none"
      points="345.51,477.00 345.51,481.72"
      />
    <polyline
      stroke-width="1.000000e+00"
      stroke="#000000"
      stroke-opacity="1.000000"
      fill="none"
      points="323.27,477.00 323.27,486.45"
      />
    <polyline
      stroke-width="1.000000e+00"
      stroke="#000000"
      stroke-opacity="1.000000"
      fill="none"
      points="301.01,477.00 301.01,481.72"
      />
    <polyline
      stroke-width="1.000000e+00"
      stroke="#000000"
      stroke-opacity="1.000000"
      fill="none"
      points="278.78,477.00 278.78,481.72"
      />
    <polyline
      stroke-width="1.000000e+00"
      stroke="#000000"
      stroke-opacity="1.000000"
      fill="none"
      points="256.52,477.00 256.52,481.72"
      />
    <polyline
      stroke-width="1.000000e+00"
      stroke="#000000"
      stroke-opacity="1.000000"
      fill="none"
      points="234.28,477.00 234.28,481.72"
      />
    <polyline
      stroke-width="1.000000e+00"
      stroke="#000000"
      stroke-opacity="1.000000"
      fill="none"
      points="212.02,477.00 212.02,486.45"
      />
    <polyline
      stroke-width="1.000000e+00"
      stroke="#000000"
      stroke-opacity="1.000000"
      fill="none"
      points="189.78,477.00 189.78,481.72"
      />
    <polyline
      stroke-width="1.000000e+00"
      stroke="#000000"
      stroke-opacity="1.000000"
      fill="none"
      points="167.52,477.00 167.52,481.72"
      />
    <polyline
      stroke-width="1.000000e+00"
      stroke="#000000"
      stroke-opacity="1.000000"
      fill="none"
      points="145.29,477.00 145.29,481.72"
      />
    <polyline
      stroke-width="1.000000e+00"
      stroke="#000000"
      stroke-opacity="1.000000"
      fill="none"
      points="123.03,477.00 123.03,481.72"
      />
    <polyline
      stroke-width="1.000000e+00"
      stroke="#000000"
      stroke-opacity="1.000000"
      fill="none"
      points="100.79,477.00 100.79,486.45"
      />
    <polyline
      stroke-width="1.000000e+00"
      stroke="#000000"
      stroke-opacity="1.000000"
      fill="none"
      points="100.79,477.00 100.79,63.00"
      />
    <polyline
      stroke-width="1.000000e+00"
      stroke="#000000"
      stroke-opacity="1.000000"
      fill="none"
      points="91.34,477.00 100.79,477.00"
      />
    <polyline
      stroke-width="1.000000e+00"
      stroke="#000000"
      stroke-opacity="1.000000"
      fill="none"
      points="96.07,449.40 100.79,449.40"
      />
    <polyline
      stroke-width="1.000000e+00"
      stroke="#000000"
      stroke-opacity="1.000000"
      fill="none"
      points="96.07,421.78 100.79,421.78"
      />
    <polyline
      stroke-width="1.000000e+00"
      stroke="#000000"
      stroke-opacity="1.000000"
      fill="none"
      points="96.07,394.18 100.79,394.18"
      />
    <polyline
      stroke-width="1.000000e+00"
      stroke="#000000"
      stroke-opacity="1.000000"
      fill="none"
      points="96.07,366.58 100.79,366.58"
      />
    <polyline
      stroke-width="1.000000e+00"
      stroke="#000000"
      stroke-opacity="1.000000"
      fill="none"
      points="91.34,338.98 100.79,338.98"
      />
    <polyline
      stroke-width="1.000000e+00"
      stroke="#000000"
      stroke-opacity="1.000000"
      fill="none"
      points="96.07,311.38 100.79,311.38"
      />
    <polyline
      stroke-width="1.000000e+00"
      stroke="#000000"
      stroke-opacity="1.000000"
      fill="none"
      points="96.07,283.79 100.79,283.79"
      />
    <polyline
      stroke-width="1.000000e+00"
      stroke="#000000"
      stroke-opacity="1.000000"
      fill="none"
      points="96.07,256.19 100.79,256.19"
      />
    <polyline
      stroke-width="1.000000e+00"
      stroke="#000000"
      stroke-opacity="1.000000"
      fill="none"
      points="96.07,228.59 100.79,228.59"
      />
    <polyline
      stroke-width="1.000000e+00"
      stroke="#000000"
      stroke-opacity="1.000000"
      fill="none"
      points="91.34,200.99 100.79,200.99"
      />
    <polyline
      stroke-width="1.000000e+00"
      stroke="#000000"
      stroke-opacity="1.000000"
      fill="none"
      points="96.07,173.39 100.79,173.39"
      />
    <polyline
      stroke-width="1.000000e+00"
      stroke="#000000"
      stroke-opacity="1.000000"
      fill="none"
      points="96.07,145.79 100.79,145.79"
      />
    <polyline
      stroke-width="1.000000e+00"
      stroke="#000000"
      stroke-opacity="1.000000"
      fill="none"
      points="96.07,118.19 100.79,118.19"
      />
    <polyline
      stroke-width="1.000000e+00"
      stroke="#000000"
      stroke-opacity="1.000000"
      fill="none"
      points="96.07,90.60 100.79,90.60"
      />
    <polyline
      stroke-width="1.000000e+00"
      stroke="#000000"
      stroke-opacity="1.000000"
      fill="none"
      points="91.34,63.00 100.79,63.00"
      />
    <g
      clip-path="url(#text-clipping1)"
      >
      <text
        dominant-baseline="no-change"
        fill="#000000"
        fill-opacity="1.000000"
        xml:space="preserve"
        font-size="16"
        transform="matrix(1.000000 0.000000 0.000000 -1.000000 100.813623 40.958281)"
        text-anchor="middle"
        x="0.000000"
        y="6.451584"
><tspan font-family="sans-serif" font-style="normal" font-weight="normal">&#x30;</tspan></text>
    </g>
    <g
      clip-path="url(#text-clipping1)"
      >
      <text
        dominant-baseline="no-change"
        fill="#000000"
        fill-opacity="1.000000"
        xml:space="preserve"
        font-size="16"
        transform="matrix(1.000000 0.000000 0.000000 -1.000000 212.042604 40.958281)"
        text-anchor="middle"
        x="0.000000"
        y="6.451584"
><tspan font-family="sans-serif" font-style="normal" font-weight="normal">&#x31;&#x30;&#x30;</tspan></text>
    </g>
    <g
      clip-path="url(#text-clipping1)"
      >
      <text
        dominant-baseline="no-change"
        fill="#000000"
        fill-opacity="1.000000"
        xml:space="preserve"
        font-size="16"
        transform="matrix(1.000000 0.000000 0.000000 -1.000000 323.271584 40.958281)"
        text-anchor="middle"
        x="0.000000"
        y="6.451584"
><tspan font-family="sans-serif" font-style="normal" font-weight="normal">&#x32;&#x30;&#x30;</tspan></text>
    </g>
    <g
      clip-path="url(#text-clipping1)"
      >
      <text
        dominant-baseline="no-change"
        fill="#000000"
        fill-opacity="1.000000"
        xml:space="preserve"
        font-size="16"
        transform="matrix(1.000000 0.000000 0.000000 -1.000000 434.522538 40.958281)"
        text-anchor="middle"
        x="0.000000"
        y="6.451584"
><tspan font-family="sans-serif" font-style="normal" font-weight="normal">&#x33;&#x30;&#x30;</tspan></text>
    </g>
    <g
      clip-path="url(#text-clipping1)"
      >
      <text
        dominant-baseline="no-change"
        fill="#000000"
        fill-opacity="1.000000"
        xml:space="preserve"
        font-size="16"
        transform="matrix(1.000000 0.000000 0.000000 -1.000000 545.751518 40.958281)"
        text-anchor="middle"
        x="0.000000"
        y="6.451584"
><tspan font-family="sans-serif" font-style="normal" font-weight="normal">&#x34;&#x30;&#x30;</tspan></text>
    </g>
    <g
      clip-path="url(#text-clipping1)"
      >
      <text
        dominant-baseline="no-change"
        fill="#000000"
        fill-opacity="1.000000"
        xml:space="preserve"
        font-size="16"
        transform="matrix(1.000000 0.000000 0.000000 -1.000000 657.002472 40.958281)"
        text-anchor="middle"
        x="0.000000"
        y="6.451584"
><tspan font-family="sans-serif" font-style="normal" font-weight="normal">&#x35;&#x30;&#x30;</tspan></text>
    </g>
    <g
      clip-path="url(#text-clipping1)"
      >
      <text
        dominant-baseline="no-change"
        fill="#000000"
        fill-opacity="1.000000"
        xml:space="preserve"
        font-size="16"
        transform="matrix(1.000000 0.000000 0.000000 -1.000000 88.200934 62.997528)"
        text-anchor="end"
        x="0.000000"
        y="6.451584"
><tspan font-family="sans-serif" font-style="normal" font-weight="normal">&#x2d;&#x33;</tspan></text>
    </g>
    <g
      clip-path="url(#text-clipping1)"
      >
      <text
        dominant-baseline="no-change"
        fill="#000000"
        fill-opacity="1.000000"
        xml:space="preserve"
        font-size="16"
        transform="matrix(1.000000 0.000000 0.000000 -1.000000 88.200934 200.990020)"
        text-anchor="end"
        x="0.000000"
        y="6.451584"
><tspan font-family="sans-serif" font-style="normal" font-weight="normal">&#x2d;&#x32;</tspan></text>
    </g>
    <g
      clip-path="url(#text-clipping1)"
      >
      <text
        dominant-baseline="no-change"
        fill="#000000"
        fill-opacity="1.000000"
        xml:space="preserve"
        font-size="16"
        transform="matrix(1.000000 0.000000 0.000000 -1.000000 88.200934 339.004486)"
        text-anchor="end"
        x="0.000000"
        y="6.451584"
><tspan font-family="sans-serif" font-style="normal" font-weight="normal">&#x2d;&#x31;</tspan></text>
    </g>
    <g
      clip-path="url(#text-clipping1)"
      >
      <text
        dominant-baseline="no-change"
        fill="#000000"
        fill-opacity="1.000000"
        xml:space="preserve"
        font-size="16"
        transform="matrix(1.000000 0.000000 0.000000 -1.000000 88.200934 476.996979)"
        text-anchor="end"
        x="0.000000"
        y="6.451584"
><tspan font-family="sans-serif" font-style="normal" font-weight="normal">&#x30;</tspan></text>
    </g>
  </g>
</svg>
