<?xml version="1.0" encoding="UTF-8"?>
<!DOCTYPE svg PUBLIC "-//W3C//DTD SVG 1.1//EN"
        "http://www.w3.org/Graphics/SVG/1.1/DTD/svg11.dtd">
<svg
  xmlns="http://www.w3.org/2000/svg"
  xmlns:xlink="http://www.w3.org/1999/xlink"
  version="1.1"
  width="720pt"
  height="540pt"
  viewBox="0 0 720 540"
  >
  <rect
    x="0"
    y="0"
    width="720"
    height="540"
    stroke="none"
    fill="#FFFFFF"
    fill-opacity="1.000000"
    />
  <g
    transform="matrix(1 0 0 -1 0 540)"
    >
    <polyline
      stroke-width="1.000000e+00"
      stroke="#0000FF"
      stroke-opacity="1.000000"
      fill="#0000FF"
      fill-opacity="1.000000"
      fill-rule="nonzero"
      points="187.94,63.00 187.94,63.15 191.63,63.15 191.63,63.00 206.46,63.00 206.46,67.26 210.17,67.26 210.17,63.00 225.01,63.00 225.01,105.10 
      228.72,105.10 228.72,63.00 243.55,63.00 243.55,256.14 247.27,256.14 247.27,63.00 262.10,63.00 262.10,476.10 265.79,476.10 265.79,63.00 
      280.62,63.00 280.62,393.48 284.33,393.48 284.33,63.00 299.17,63.00 299.17,63.00 302.88,63.00 302.88,63.00 317.71,63.00 317.71,63.00 
      321.43,63.00 321.43,63.00 336.26,63.00 336.26,63.00 339.95,63.00 339.95,63.00 354.78,63.00 354.78,63.00 358.49,63.00 358.49,63.00 
      373.33,63.00 373.33,63.00 377.04,63.00 377.04,63.00 391.87,63.00 391.87,63.00 395.59,63.00 395.59,63.00 410.42,63.00 410.42,63.00 
      414.11,63.00 414.11,63.00 428.94,63.00 428.94,63.00 432.65,63.00 432.65,63.00 447.49,63.00 447.49,63.00 451.20,63.00 451.20,63.00 
      466.03,63.00 466.03,63.00 469.75,63.00 469.75,63.00 484.58,63.00 484.58,63.00 488.27,63.00 488.27,63.00 503.10,63.00 503.10,63.00 
      506.81,63.00 506.81,63.00 521.65,63.00 521.65,63.00 525.36,63.00 525.36,63.00 540.19,63.00 540.19,63.00 543.91,63.00 543.91,63.00 
      558.74,63.00 558.74,63.00 562.43,63.00 562.43,63.00 187.94,63.00 "/>
    <polyline
      stroke-width="1.000000e+00"
      stroke="#00FF00"
      stroke-opacity="1.000000"
      fill="#00FF00"
      fill-opacity="1.000000"
      fill-rule="nonzero"
      points="191.63,63.00 191.63,63.00 195.34,63.00 195.34,63.00 210.17,63.00 210.17,63.00 213.89,63.00 213.89,63.00 228.72,63.00 228.72,63.00 
      232.43,63.00 232.43,63.00 247.27,63.00 247.27,63.11 250.96,63.11 250.96,63.00 265.79,63.00 265.79,64.93 269.50,64.93 269.50,63.00 
      284.33,63.00 284.33,79.70 288.05,79.70 288.05,63.00 302.88,63.00 302.88,144.21 306.59,144.21 306.59,63.00 321.43,63.00 321.43,288.40 
      325.12,288.40 325.12,63.00 339.95,63.00 339.95,411.67 343.66,411.67 343.66,63.00 358.49,63.00 358.49,338.50 362.21,338.50 362.21,63.00 
      377.04,63.00 377.04,148.41 380.75,148.41 380.75,63.00 395.59,63.00 395.59,63.00 399.28,63.00 399.28,63.00 414.11,63.00 414.11,63.00 
      417.82,63.00 417.82,63.00 432.65,63.00 432.65,63.00 436.37,63.00 436.37,63.00 451.20,63.00 451.20,63.00 454.91,63.00 454.91,63.00 
      469.75,63.00 469.75,63.00 473.44,63.00 473.44,63.00 488.27,63.00 488.27,63.00 491.98,63.00 491.98,63.00 506.81,63.00 506.81,63.00 
      510.53,63.00 510.53,63.00 525.36,63.00 525.36,63.00 529.07,63.00 529.07,63.00 543.91,63.00 543.91,63.00 547.60,63.00 547.60,63.00 
      562.43,63.00 562.43,63.00 566.14,63.00 566.14,63.00 191.63,63.00 "/>
    <polyline
      stroke-width="1.000000e+00"
      stroke="#FF0000"
      stroke-opacity="1.000000"
      fill="#FF0000"
      fill-opacity="1.000000"
      fill-rule="nonzero"
      points="195.34,63.00 195.34,63.00 199.06,63.00 199.06,63.00 213.89,63.00 213.89,63.00 217.60,63.00 217.60,63.00 232.43,63.00 232.43,63.00 
      236.13,63.00 236.13,63.00 250.96,63.00 250.96,63.00 254.67,63.00 254.67,63.00 269.50,63.00 269.50,63.00 273.22,63.00 273.22,63.00 
      288.05,63.00 288.05,63.00 291.76,63.00 291.76,63.00 306.59,63.00 306.59,63.04 310.29,63.04 310.29,63.00 325.12,63.00 325.12,63.28 
      328.83,63.28 328.83,63.00 343.66,63.00 343.66,64.58 347.38,64.58 347.38,63.00 362.21,63.00 362.21,69.85 365.92,69.85 365.92,63.00 
      380.75,63.00 380.75,86.00 384.45,86.00 384.45,63.00 399.28,63.00 399.28,122.79 402.99,122.79 402.99,63.00 417.82,63.00 417.82,183.24 
      421.54,183.24 421.54,63.00 436.37,63.00 436.37,249.60 440.08,249.60 440.08,63.00 454.91,63.00 454.91,284.58 458.61,284.58 458.61,63.00 
      473.44,63.00 473.44,261.53 477.15,261.53 477.15,63.00 491.98,63.00 491.98,194.24 495.70,194.24 495.70,63.00 510.53,63.00 510.53,124.76 
      514.24,124.76 514.24,63.00 529.07,63.00 529.07,82.49 532.77,82.49 532.77,63.00 547.60,63.00 547.60,66.67 551.31,66.67 551.31,63.00 
      566.14,63.00 566.14,63.31 569.86,63.31 569.86,63.00 195.34,63.00 "/>
    <g
      clip-path="url(#text-clipping0)"
      >
      <text
        dominant-baseline="no-change"
        fill="#000000"
        fill-opacity="1.000000"
        xml:space="preserve"
        font-size="16"
        transform="matrix(1.000000 0.000000 0.000000 -1.000000 650.256661 464.384289)"
        text-anchor="end"
        x="0.000000"
        y="6.451584"
><tspan font-family="sans-serif" font-style="normal" font-weight="normal">&#x6e;&#x3d;&#x35;&#x3b;&#x20;&#x70;&#x3d;&#x30;&#x2e;&#x38;&#x3b;&#x20;&#x41;&#x3d;&#x31;&#x30;&#x30;</tspan></text>
    </g>
    <polyline
      stroke-width="1.000000e+00"
      stroke="#0000FF"
      stroke-opacity="1.000000"
      fill="none"
      points="366.16,464.38 421.80,464.38"
      />
    <g
      clip-path="url(#text-clipping0)"
      >
      <text
        dominant-baseline="no-change"
        fill="#000000"
        fill-opacity="1.000000"
        xml:space="preserve"
        font-size="16"
        transform="matrix(1.000000 0.000000 0.000000 -1.000000 650.256661 439.180883)"
        text-anchor="end"
        x="0.000000"
        y="6.451584"
><tspan font-family="sans-serif" font-style="normal" font-weight="normal">&#x6e;&#x3d;&#x34;&#x30;&#x3b;&#x20;&#x70;&#x3d;&#x30;&#x2e;&#x32;&#x3b;&#x20;&#x41;&#x3d;&#x35;&#x30;</tspan></text>
    </g>
    <polyline
      stroke-width="1.000000e+00"
      stroke="#00FF00"
      stroke-opacity="1.000000"
      fill="none"
      points="366.16,439.18 421.80,439.18"
      />
    <g
      clip-path="url(#text-clipping0)"
      >
      <text
        dominant-baseline="no-change"
        fill="#000000"
        fill-opacity="1.000000"
        xml:space="preserve"
        font-size="16"
        transform="matrix(1.000000 0.000000 0.000000 -1.000000 650.256661 413.977477)"
        text-anchor="end"
        x="0.000000"
        y="6.451584"
><tspan font-family="sans-serif" font-style="normal" font-weight="normal">&#x6e;&#x3d;&#x37;&#x30;&#x3b;&#x20;&#x70;&#x3d;&#x30;&#x2e;&#x32;&#x3b;&#x20;&#x41;&#x3d;&#x31;&#x30;&#x30;</tspan></text>
    </g>
    <polyline
      stroke-width="1.000000e+00"
      stroke="#FF0000"
      stroke-opacity="1.000000"
      fill="none"
      points="366.16,413.98 421.80,413.98"
      />
    <polyline
      stroke-width="1.000000e+00"
      stroke="#000000"
      stroke-opacity="1.000000"
      fill="none"
      points="100.79,63.00 657.00,63.00"
      />
    <polyline
      stroke-width="1.000000e+00"
      stroke="#000000"
      stroke-opacity="1.000000"
      fill="none"
      points="119.34,58.27 119.34,63.00"
      />
    <polyline
      stroke-width="1.000000e+00"
      stroke="#000000"
      stroke-opacity="1.000000"
      fill="none"
      points="156.41,58.27 156.41,63.00"
      />
    <polyline
      stroke-width="1.000000e+00"
      stroke="#000000"
      stroke-opacity="1.000000"
      fill="none"
      points="193.50,53.55 193.50,63.00"
      />
    <polyline
      stroke-width="1.000000e+00"
      stroke="#000000"
      stroke-opacity="1.000000"
      fill="none"
      points="230.57,58.27 230.57,63.00"
      />
    <polyline
      stroke-width="1.000000e+00"
      stroke="#000000"
      stroke-opacity="1.000000"
      fill="none"
      points="267.66,58.27 267.66,63.00"
      />
    <polyline
      stroke-width="1.000000e+00"
      stroke="#000000"
      stroke-opacity="1.000000"
      fill="none"
      points="304.73,58.27 304.73,63.00"
      />
    <polyline
      stroke-width="1.000000e+00"
      stroke="#000000"
      stroke-opacity="1.000000"
      fill="none"
      points="341.82,58.27 341.82,63.00"
      />
    <polyline
      stroke-width="1.000000e+00"
      stroke="#000000"
      stroke-opacity="1.000000"
      fill="none"
      points="378.89,53.55 378.89,63.00"
      />
    <polyline
      stroke-width="1.000000e+00"
      stroke="#000000"
      stroke-opacity="1.000000"
      fill="none"
      points="415.98,58.27 415.98,63.00"
      />
    <polyline
      stroke-width="1.000000e+00"
      stroke="#000000"
      stroke-opacity="1.000000"
      fill="none"
      points="453.05,58.27 453.05,63.00"
      />
    <polyline
      stroke-width="1.000000e+00"
      stroke="#000000"
      stroke-opacity="1.000000"
      fill="none"
      points="490.14,58.27 490.14,63.00"
      />
    <polyline
      stroke-width="1.000000e+00"
      stroke="#000000"
      stroke-opacity="1.000000"
      fill="none"
      points="527.21,58.27 527.21,63.00"
      />
    <polyline
      stroke-width="1.000000e+00"
      stroke="#000000"
      stroke-opacity="1.000000"
      fill="none"
      points="564.30,53.55 564.30,63.00"
      />
    <polyline
      stroke-width="1.000000e+00"
      stroke="#000000"
      stroke-opacity="1.000000"
      fill="none"
      points="601.37,58.27 601.37,63.00"
      />
    <polyline
      stroke-width="1.000000e+00"
      stroke="#000000"
      stroke-opacity="1.000000"
      fill="none"
      points="638.46,58.27 638.46,63.00"
      />
    <polyline
      stroke-width="1.000000e+00"
      stroke="#000000"
      stroke-opacity="1.000000"
      fill="none"
      points="657.00,63.00 657.00,477.00"
      />
    <polyline
      stroke-width="1.000000e+00"
      stroke="#000000"
      stroke-opacity="1.000000"
      fill="none"
      points="657.00,63.00 666.45,63.00"
      />
    <polyline
      stroke-width="1.000000e+00"
      stroke="#000000"
      stroke-opacity="1.000000"
      fill="none"
      points="657.00,83.70 661.73,83.70"
      />
    <polyline
      stroke-width="1.000000e+00"
      stroke="#000000"
      stroke-opacity="1.000000"
      fill="none"
      points="657.00,104.40 661.73,104.40"
      />
    <polyline
      stroke-width="1.000000e+00"
      stroke="#000000"
      stroke-opacity="1.000000"
      fill="none"
      points="657.00,125.09 661.73,125.09"
      />
    <polyline
      stroke-width="1.000000e+00"
      stroke="#000000"
      stroke-opacity="1.000000"
      fill="none"
      points="657.00,145.79 661.73,145.79"
      />
    <polyline
      stroke-width="1.000000e+00"
      stroke="#000000"
      stroke-opacity="1.000000"
      fill="none"
      points="657.00,166.49 666.45,166.49"
      />
    <polyline
      stroke-width="1.000000e+00"
      stroke="#000000"
      stroke-opacity="1.000000"
      fill="none"
      points="657.00,187.19 661.73,187.19"
      />
    <polyline
      stroke-width="1.000000e+00"
      stroke="#000000"
      stroke-opacity="1.000000"
      fill="none"
      points="657.00,207.89 661.73,207.89"
      />
    <polyline
      stroke-width="1.000000e+00"
      stroke="#000000"
      stroke-opacity="1.000000"
      fill="none"
      points="657.00,228.59 661.73,228.59"
      />
    <polyline
      stroke-width="1.000000e+00"
      stroke="#000000"
      stroke-opacity="1.000000"
      fill="none"
      points="657.00,249.29 661.73,249.29"
      />
    <polyline
      stroke-width="1.000000e+00"
      stroke="#000000"
      stroke-opacity="1.000000"
      fill="none"
      points="657.00,269.99 666.45,269.99"
      />
    <polyline
      stroke-width="1.000000e+00"
      stroke="#000000"
      stroke-opacity="1.000000"
      fill="none"
      points="657.00,290.69 661.73,290.69"
      />
    <polyline
      stroke-width="1.000000e+00"
      stroke="#000000"
      stroke-opacity="1.000000"
      fill="none"
      points="657.00,311.38 661.73,311.38"
      />
    <polyline
      stroke-width="1.000000e+00"
      stroke="#000000"
      stroke-opacity="1.000000"
      fill="none"
      points="657.00,332.08 661.73,332.08"
      />
    <polyline
      stroke-width="1.000000e+00"
      stroke="#000000"
      stroke-opacity="1.000000"
      fill="none"
      points="657.00,352.78 661.73,352.78"
      />
    <polyline
      stroke-width="1.000000e+00"
      stroke="#000000"
      stroke-opacity="1.000000"
      fill="none"
      points="657.00,373.48 666.45,373.48"
      />
    <polyline
      stroke-width="1.000000e+00"
      stroke="#000000"
      stroke-opacity="1.000000"
      fill="none"
      points="657.00,394.18 661.73,394.18"
      />
    <polyline
      stroke-width="1.000000e+00"
      stroke="#000000"
      stroke-opacity="1.000000"
      fill="none"
      points="657.00,414.88 661.73,414.88"
      />
    <polyline
      stroke-width="1.000000e+00"
      stroke="#000000"
      stroke-opacity="1.000000"
      fill="none"
      points="657.00,435.60 661.73,435.60"
      />
    <polyline
      stroke-width="1.000000e+00"
      stroke="#000000"
      stroke-opacity="1.000000"
      fill="none"
      points="657.00,456.30 661.73,456.30"
      />
    <polyline
      stroke-width="1.000000e+00"
      stroke="#000000"
      stroke-opacity="1.000000"
      fill="none"
      points="657.00,477.00 666.45,477.00"
      />
    <polyline
      stroke-width="1.000000e+00"
      stroke="#000000"
      stroke-opacity="1.000000"
      fill="none"
      points="657.00,477.00 100.79,477.00"
      />
    <polyline
      stroke-width="1.000000e+00"
      stroke="#000000"
      stroke-opacity="1.000000"
      fill="none"
      points="638.46,477.00 638.46,481.72"
      />
    <polyline
      stroke-width="1.000000e+00"
      stroke="#000000"
      stroke-opacity="1.000000"
      fill="none"
      points="601.37,477.00 601.37,481.72"
      />
    <polyline
      stroke-width="1.000000e+00"
      stroke="#000000"
      stroke-opacity="1.000000"
      fill="none"
      points="564.30,477.00 564.30,486.45"
      />
    <polyline
      stroke-width="1.000000e+00"
      stroke="#000000"
      stroke-opacity="1.000000"
      fill="none"
      points="527.21,477.00 527.21,481.72"
      />
    <polyline
      stroke-width="1.000000e+00"
      stroke="#000000"
      stroke-opacity="1.000000"
      fill="none"
      points="490.14,477.00 490.14,481.72"
      />
    <polyline
      stroke-width="1.000000e+00"
      stroke="#000000"
      stroke-opacity="1.000000"
      fill="none"
      points="453.05,477.00 453.05,481.72"
      />
    <polyline
      stroke-width="1.000000e+00"
      stroke="#000000"
      stroke-opacity="1.000000"
      fill="none"
      points="415.98,477.00 415.98,481.72"
      />
    <polyline
      stroke-width="1.000000e+00"
      stroke="#000000"
      stroke-opacity="1.000000"
      fill="none"
      points="378.89,477.00 378.89,486.45"
      />
    <polyline
      stroke-width="1.000000e+00"
      stroke="#000000"
      stroke-opacity="1.000000"
      fill="none"
      points="341.82,477.00 341.82,481.72"
      />
    <polyline
      stroke-width="1.000000e+00"
      stroke="#000000"
      stroke-opacity="1.000000"
      fill="none"
      points="304.73,477.00 304.73,481.72"
      />
    <polyline
      stroke-width="1.000000e+00"
      stroke="#000000"
      stroke-opacity="1.000000"
      fill="none"
      points="267.66,477.00 267.66,481.72"
      />
    <polyline
      stroke-width="1.000000e+00"
      stroke="#000000"
      stroke-opacity="1.000000"
      fill="none"
      points="230.57,477.00 230.57,481.72"
      />
    <polyline
      stroke-width="1.000000e+00"
      stroke="#000000"
      stroke-opacity="1.000000"
      fill="none"
      points="193.50,477.00 193.50,486.45"
      />
    <polyline
      stroke-width="1.000000e+00"
      stroke="#000000"
      stroke-opacity="1.000000"
      fill="none"
      points="156.41,477.00 156.41,481.72"
      />
    <polyline
      stroke-width="1.000000e+00"
      stroke="#000000"
      stroke-opacity="1.000000"
      fill="none"
      points="119.34,477.00 119.34,481.72"
      />
    <polyline
      stroke-width="1.000000e+00"
      stroke="#000000"
      stroke-opacity="1.000000"
      fill="none"
      points="100.79,477.00 100.79,63.00"
      />
    <polyline
      stroke-width="1.000000e+00"
      stroke="#000000"
      stroke-opacity="1.000000"
      fill="none"
      points="91.34,477.00 100.79,477.00"
      />
    <polyline
      stroke-width="1.000000e+00"
      stroke="#000000"
      stroke-opacity="1.000000"
      fill="none"
      points="96.07,456.30 100.79,456.30"
      />
    <polyline
      stroke-width="1.000000e+00"
      stroke="#000000"
      stroke-opacity="1.000000"
      fill="none"
      points="96.07,435.60 100.79,435.60"
      />
    <polyline
      stroke-width="1.000000e+00"
      stroke="#000000"
      stroke-opacity="1.000000"
      fill="none"
      points="96.07,414.88 100.79,414.88"
      />
    <polyline
      stroke-width="1.000000e+00"
      stroke="#000000"
      stroke-opacity="1.000000"
      fill="none"
      points="96.07,394.18 100.79,394.18"
      />
    <polyline
      stroke-width="1.000000e+00"
      stroke="#000000"
      stroke-opacity="1.000000"
      fill="none"
      points="91.34,373.48 100.79,373.48"
      />
    <polyline
      stroke-width="1.000000e+00"
      stroke="#000000"
      stroke-opacity="1.000000"
      fill="none"
      points="96.07,352.78 100.79,352.78"
      />
    <polyline
      stroke-width="1.000000e+00"
      stroke="#000000"
      stroke-opacity="1.000000"
      fill="none"
      points="96.07,332.08 100.79,332.08"
      />
    <polyline
      stroke-width="1.000000e+00"
      stroke="#000000"
      stroke-opacity="1.000000"
      fill="none"
      points="96.07,311.38 100.79,311.38"
      />
    <polyline
      stroke-width="1.000000e+00"
      stroke="#000000"
      stroke-opacity="1.000000"
      fill="none"
      points="96.07,290.69 100.79,290.69"
      />
    <polyline
      stroke-width="1.000000e+00"
      stroke="#000000"
      stroke-opacity="1.000000"
      fill="none"
      points="91.34,269.99 100.79,269.99"
      />
    <polyline
      stroke-width="1.000000e+00"
      stroke="#000000"
      stroke-opacity="1.000000"
      fill="none"
      points="96.07,249.29 100.79,249.29"
      />
    <polyline
      stroke-width="1.000000e+00"
      stroke="#000000"
      stroke-opacity="1.000000"
      fill="none"
      points="96.07,228.59 100.79,228.59"
      />
    <polyline
      stroke-width="1.000000e+00"
      stroke="#000000"
      stroke-opacity="1.000000"
      fill="none"
      points="96.07,207.89 100.79,207.89"
      />
    <polyline
      stroke-width="1.000000e+00"
      stroke="#000000"
      stroke-opacity="1.000000"
      fill="none"
      points="96.07,187.19 100.79,187.19"
      />
    <polyline
      stroke-width="1.000000e+00"
      stroke="#000000"
      stroke-opacity="1.000000"
      fill="none"
      points="91.34,166.49 100.79,166.49"
      />
    <polyline
      stroke-width="1.000000e+00"
      stroke="#000000"
      stroke-opacity="1.000000"
      fill="none"
      points="96.07,145.79 100.79,145.79"
      />
    <polyline
      stroke-width="1.000000e+00"
      stroke="#000000"
      stroke-opacity="1.000000"
      fill="none"
      points="96.07,125.09 100.79,125.09"
      />
    <polyline
      stroke-width="1.000000e+00"
      stroke="#000000"
      stroke-opacity="1.000000"
      fill="none"
      points="96.07,104.40 100.79,104.40"
      />
    <polyline
      stroke-width="1.000000e+00"
      stroke="#000000"
      stroke-opacity="1.000000"
      fill="none"
      points="96.07,83.70 100.79,83.70"
      />
    <polyline
      stroke-width="1.000000e+00"
      stroke="#000000"
      stroke-opacity="1.000000"
      fill="none"
      points="91.34,63.00 100.79,63.00"
      />
    <g
      clip-path="url(#text-clipping0)"
      >
      <text
        dominant-baseline="no-change"
        fill="#000000"
        fill-opacity="1.000000"
        xml:space="preserve"
        font-size="16"
        transform="matrix(1.000000 0.000000 0.000000 -1.000000 193.497116 40.958281)"
        text-anchor="middle"
        x="0.000000"
        y="6.451584"
><tspan font-family="sans-serif" font-style="normal" font-weight="normal">&#x30;</tspan></text>
    </g>
    <g
      clip-path="url(#text-clipping0)"
      >
      <text
        dominant-baseline="no-change"
        fill="#000000"
        fill-opacity="1.000000"
        xml:space="preserve"
        font-size="16"
        transform="matrix(1.000000 0.000000 0.000000 -1.000000 378.908048 40.958281)"
        text-anchor="middle"
        x="0.000000"
        y="6.451584"
><tspan font-family="sans-serif" font-style="normal" font-weight="normal">&#x31;&#x30;</tspan></text>
    </g>
    <g
      clip-path="url(#text-clipping0)"
      >
      <text
        dominant-baseline="no-change"
        fill="#000000"
        fill-opacity="1.000000"
        xml:space="preserve"
        font-size="16"
        transform="matrix(1.000000 0.000000 0.000000 -1.000000 564.297006 40.958281)"
        text-anchor="middle"
        x="0.000000"
        y="6.451584"
><tspan font-family="sans-serif" font-style="normal" font-weight="normal">&#x32;&#x30;</tspan></text>
    </g>
    <g
      clip-path="url(#text-clipping0)"
      >
      <text
        dominant-baseline="no-change"
        fill="#000000"
        fill-opacity="1.000000"
        xml:space="preserve"
        font-size="16"
        transform="matrix(1.000000 0.000000 0.000000 -1.000000 88.200934 62.997528)"
        text-anchor="end"
        x="0.000000"
        y="6.451584"
><tspan font-family="sans-serif" font-style="normal" font-weight="normal">&#x30;&#x2e;&#x30;</tspan></text>
    </g>
    <g
      clip-path="url(#text-clipping0)"
      >
      <text
        dominant-baseline="no-change"
        fill="#000000"
        fill-opacity="1.000000"
        xml:space="preserve"
        font-size="16"
        transform="matrix(1.000000 0.000000 0.000000 -1.000000 88.200934 166.491897)"
        text-anchor="end"
        x="0.000000"
        y="6.451584"
><tspan font-family="sans-serif" font-style="normal" font-weight="normal">&#x30;&#x2e;&#x31;</tspan></text>
    </g>
    <g
      clip-path="url(#text-clipping0)"
      >
      <text
        dominant-baseline="no-change"
        fill="#000000"
        fill-opacity="1.000000"
        xml:space="preserve"
        font-size="16"
        transform="matrix(1.000000 0.000000 0.000000 -1.000000 88.200934 270.008240)"
        text-anchor="end"
        x="0.000000"
        y="6.451584"
><tspan font-family="sans-serif" font-style="normal" font-weight="normal">&#x30;&#x2e;&#x32;</tspan></text>
    </g>
    <g
      clip-path="url(#text-clipping0)"
      >
      <text
        dominant-baseline="no-change"
        fill="#000000"
        fill-opacity="1.000000"
        xml:space="preserve"
        font-size="16"
        transform="matrix(1.000000 0.000000 0.000000 -1.000000 88.200934 373.502609)"
        text-anchor="end"
        x="0.000000"
        y="6.451584"
><tspan font-family="sans-serif" font-style="normal" font-weight="normal">&#x30;&#x2e;&#x33;</tspan></text>
    </g>
    <g
      clip-path="url(#text-clipping0)"
      >
      <text
        dominant-baseline="no-change"
        fill="#000000"
        fill-opacity="1.000000"
        xml:space="preserve"
        font-size="16"
        transform="matrix(1.000000 0.000000 0.000000 -1.000000 88.200934 476.996979)"
        text-anchor="end"
        x="0.000000"
        y="6.451584"
><tspan font-family="sans-serif" font-style="normal" font-weight="normal">&#x30;&#x2e;&#x34;</tspan></text>
    </g>
  </g>
</svg>
