<?xml version="1.0" encoding="UTF-8"?>
<!DOCTYPE svg PUBLIC "-//W3C//DTD SVG 1.1//EN"
        "http://www.w3.org/Graphics/SVG/1.1/DTD/svg11.dtd">
<svg
  xmlns="http://www.w3.org/2000/svg"
  xmlns:xlink="http://www.w3.org/1999/xlink"
  version="1.1"
  width="720pt"
  height="540pt"
  viewBox="0 0 720 540"
  >
  <rect
    x="0"
    y="0"
    width="720"
    height="540"
    stroke="none"
    fill="#FFFFFF"
    fill-opacity="1.000000"
    />
  <g
    transform="matrix(1 0 0 -1 0 540)"
    >
    <polyline
      stroke-width="1.000000e+00"
      stroke="#000000"
      stroke-opacity="1.000000"
      fill="none"
      points="100.79,269.99 657.00,269.99"
      />
    <polyline
      stroke-width="1.000000e+00"
      stroke="#000000"
      stroke-opacity="1.000000"
      fill="none"
      points="100.79,260.54 100.79,279.43"
      />
    <polyline
      stroke-width="1.000000e+00"
      stroke="#000000"
      stroke-opacity="1.000000"
      fill="none"
      points="239.84,260.54 239.84,279.43"
      />
    <polyline
      stroke-width="1.000000e+00"
      stroke="#000000"
      stroke-opacity="1.000000"
      fill="none"
      points="378.89,260.54 378.89,279.43"
      />
    <polyline
      stroke-width="1.000000e+00"
      stroke="#000000"
      stroke-opacity="1.000000"
      fill="none"
      points="517.93,260.54 517.93,279.43"
      />
    <polyline
      stroke-width="1.000000e+00"
      stroke="#000000"
      stroke-opacity="1.000000"
      fill="none"
      points="656.98,260.54 656.98,279.43"
      />
    <polyline
      stroke-width="1.000000e+00"
      stroke="#000000"
      stroke-opacity="1.000000"
      fill="none"
      points="378.89,63.00 378.89,477.00"
      />
    <polyline
      stroke-width="1.000000e+00"
      stroke="#000000"
      stroke-opacity="1.000000"
      fill="none"
      points="369.44,63.00 388.33,63.00"
      />
    <polyline
      stroke-width="1.000000e+00"
      stroke="#000000"
      stroke-opacity="1.000000"
      fill="none"
      points="369.44,166.49 388.33,166.49"
      />
    <polyline
      stroke-width="1.000000e+00"
      stroke="#000000"
      stroke-opacity="1.000000"
      fill="none"
      points="369.44,269.99 388.33,269.99"
      />
    <polyline
      stroke-width="1.000000e+00"
      stroke="#000000"
      stroke-opacity="1.000000"
      fill="none"
      points="369.44,373.48 388.33,373.48"
      />
    <polyline
      stroke-width="1.000000e+00"
      stroke="#000000"
      stroke-opacity="1.000000"
      fill="none"
      points="369.44,477.00 388.33,477.00"
      />
    <g
      clip-path="url(#text-clipping7)"
      >
      <text
        dominant-baseline="no-change"
        fill="#000000"
        fill-opacity="1.000000"
        xml:space="preserve"
        font-size="16"
        transform="matrix(1.000000 0.000000 0.000000 -1.000000 100.813623 44.100467)"
        text-anchor="middle"
        x="0.000000"
        y="6.451584"
><tspan font-family="sans-serif" font-style="normal" font-weight="normal">&#x2d;&#x32;&#x30;</tspan></text>
    </g>
    <g
      clip-path="url(#text-clipping7)"
      >
      <text
        dominant-baseline="no-change"
        fill="#000000"
        fill-opacity="1.000000"
        xml:space="preserve"
        font-size="16"
        transform="matrix(1.000000 0.000000 0.000000 -1.000000 239.860836 44.100467)"
        text-anchor="middle"
        x="0.000000"
        y="6.451584"
><tspan font-family="sans-serif" font-style="normal" font-weight="normal">&#x2d;&#x31;&#x30;</tspan></text>
    </g>
    <g
      clip-path="url(#text-clipping7)"
      >
      <text
        dominant-baseline="no-change"
        fill="#000000"
        fill-opacity="1.000000"
        xml:space="preserve"
        font-size="16"
        transform="matrix(1.000000 0.000000 0.000000 -1.000000 378.908048 44.100467)"
        text-anchor="middle"
        x="0.000000"
        y="6.451584"
><tspan font-family="sans-serif" font-style="normal" font-weight="normal">&#x30;</tspan></text>
    </g>
    <g
      clip-path="url(#text-clipping7)"
      >
      <text
        dominant-baseline="no-change"
        fill="#000000"
        fill-opacity="1.000000"
        xml:space="preserve"
        font-size="16"
        transform="matrix(1.000000 0.000000 0.000000 -1.000000 517.955260 44.100467)"
        text-anchor="middle"
        x="0.000000"
        y="6.451584"
><tspan font-family="sans-serif" font-style="normal" font-weight="normal">&#x31;&#x30;</tspan></text>
    </g>
    <g
      clip-path="url(#text-clipping7)"
      >
      <text
        dominant-baseline="no-change"
        fill="#000000"
        fill-opacity="1.000000"
        xml:space="preserve"
        font-size="16"
        transform="matrix(1.000000 0.000000 0.000000 -1.000000 657.002472 44.100467)"
        text-anchor="middle"
        x="0.000000"
        y="6.451584"
><tspan font-family="sans-serif" font-style="normal" font-weight="normal">&#x32;&#x30;</tspan></text>
    </g>
    <g
      clip-path="url(#text-clipping7)"
      >
      <text
        dominant-baseline="no-change"
        fill="#000000"
        fill-opacity="1.000000"
        xml:space="preserve"
        font-size="16"
        transform="matrix(1.000000 0.000000 0.000000 -1.000000 94.507279 62.997528)"
        text-anchor="end"
        x="0.000000"
        y="6.451584"
><tspan font-family="sans-serif" font-style="normal" font-weight="normal">&#x2d;&#x32;&#x30;</tspan></text>
    </g>
    <g
      clip-path="url(#text-clipping7)"
      >
      <text
        dominant-baseline="no-change"
        fill="#000000"
        fill-opacity="1.000000"
        xml:space="preserve"
        font-size="16"
        transform="matrix(1.000000 0.000000 0.000000 -1.000000 94.507279 166.491897)"
        text-anchor="end"
        x="0.000000"
        y="6.451584"
><tspan font-family="sans-serif" font-style="normal" font-weight="normal">&#x2d;&#x31;&#x30;</tspan></text>
    </g>
    <g
      clip-path="url(#text-clipping7)"
      >
      <text
        dominant-baseline="no-change"
        fill="#000000"
        fill-opacity="1.000000"
        xml:space="preserve"
        font-size="16"
        transform="matrix(1.000000 0.000000 0.000000 -1.000000 94.507279 270.008240)"
        text-anchor="end"
        x="0.000000"
        y="6.451584"
><tspan font-family="sans-serif" font-style="normal" font-weight="normal">&#x30;</tspan></text>
    </g>
    <g
      clip-path="url(#text-clipping7)"
      >
      <text
        dominant-baseline="no-change"
        fill="#000000"
        fill-opacity="1.000000"
        xml:space="preserve"
        font-size="16"
        transform="matrix(1.000000 0.000000 0.000000 -1.000000 94.507279 373.502609)"
        text-anchor="end"
        x="0.000000"
        y="6.451584"
><tspan font-family="sans-serif" font-style="normal" font-weight="normal">&#x31;&#x30;</tspan></text>
    </g>
    <g
      clip-path="url(#text-clipping7)"
      >
      <text
        dominant-baseline="no-change"
        fill="#000000"
        fill-opacity="1.000000"
        xml:space="preserve"
        font-size="16"
        transform="matrix(1.000000 0.000000 0.000000 -1.000000 94.507279 476.996979)"
        text-anchor="end"
        x="0.000000"
        y="6.451584"
><tspan font-family="sans-serif" font-style="normal" font-weight="normal">&#x32;&#x30;</tspan></text>
    </g>
    <polyline
      stroke-width="1.000000e+00"
      stroke="#0000FF"
      stroke-opacity="1.000000"
      fill="none"
      points="378.89,269.99 384.86,269.74 369.46,266.12 384.20,261.00 399.63,268.38 405.10,261.33 407.98,260.89 416.79,271.68 418.79,260.82 435.20,249.31 
      432.59,249.64 444.12,239.38 455.73,231.95 469.39,224.46 472.14,212.17 468.93,200.51 452.80,201.10 440.78,213.67 433.05,203.80 434.92,213.67 
      431.62,209.98 439.14,216.02 437.80,222.48 449.60,230.81 454.14,232.35 438.08,239.49 424.00,233.93 411.38,237.07 412.92,230.61 413.52,220.33 
      411.12,226.54 405.65,221.54 402.57,229.78 385.76,229.45 376.34,230.41 374.91,220.68 387.30,211.12 380.97,211.52 395.15,222.55 411.78,234.72 
      420.79,222.55 403.94,210.88 391.70,210.20 384.14,222.33 392.58,222.08 408.79,218.50 417.49,230.39 425.71,241.84 424.79,254.14 434.41,266.51 
      421.95,273.44 410.86,269.37 424.55,265.72 437.03,253.62 439.66,261.75 434.26,252.43 429.73,258.91 428.52,257.33 422.06,252.21 411.38,245.79 
      421.84,258.19 423.40,269.85 411.41,270.03 396.22,262.65 394.84,265.66 401.30,269.55 385.57,270.69 379.24,260.96 395.06,252.74 386.99,249.05 
      372.95,253.22 382.91,245.22 382.07,242.26 398.44,249.60 389.65,258.93 393.54,263.02 383.81,261.37 393.74,248.98 391.17,236.72 393.59,228.02 
      382.31,240.23 376.97,251.13 365.70,244.26 380.84,250.54 371.04,253.77 360.78,262.27 368.91,257.62 367.61,254.06 384.01,250.45 391.72,241.73 
      394.47,237.11 390.40,229.38 374.56,238.21 368.71,227.23 380.67,225.03 394.11,233.82 397.76,236.78 406.66,245.29 422.20,249.97 406.64,245.40 
      421.60,246.32 409.63,241.82 422.55,237.22 414.02,243.86 419.58,244.72 422.61,242.37 406.40,240.56 405.12,236.76 412.46,241.38 407.58,243.77 
      421.45,256.01 434.37,250.76 419.45,262.91 426.19,268.54 436.85,275.26 444.32,266.67 433.18,269.79 445.77,273.94 450.12,278.36 458.72,269.57 
      445.55,272.36 459.66,259.77 471.33,266.21 486.14,270.10 501.61,259.50 509.63,262.47 507.14,254.60 502.82,244.48 511.17,233.05 509.34,239.93 
      496.14,230.39 483.28,235.00 488.64,238.81 473.68,231.66 488.97,238.65 499.89,241.44 514.20,240.30 530.66,245.62 523.01,235.36 519.89,236.74 
      524.92,230.94 513.80,242.06 505.91,241.22 495.02,251.86 503.28,254.47 519.01,246.54 504.38,250.28 509.10,246.39 506.49,249.57 510.84,255.13 
      521.27,249.60 530.96,253.37 537.47,243.20 540.35,254.96 526.44,242.72 539.09,252.93 553.75,247.62 553.79,241.57 537.45,234.48 535.51,228.63 
      536.00,240.06 551.90,248.69 563.22,243.97 546.72,251.73 538.79,261.37 541.62,273.33 544.26,275.02 549.90,265.31 553.11,264.80 561.18,253.00 
      553.02,245.57 551.53,240.70 559.95,235.22 545.14,223.38 546.61,222.70 550.41,216.37 545.82,206.77 534.76,202.66 551.09,202.59 548.34,210.28 
      547.44,222.94 546.98,211.60 553.79,216.66 550.30,215.91 564.25,208.00 553.57,202.15 554.26,210.17 549.84,199.12 536.43,197.03 544.81,193.56 
      532.08,195.17 529.18,185.06 543.62,176.27 548.23,180.60 564.76,169.24 562.19,162.01 565.20,153.24 553.22,151.88 551.62,156.71 550.59,149.24 
      "/>
    <polyline
      stroke-width="1.000000e+00"
      stroke="#0000FF"
      stroke-opacity="1.000000"
      fill="#0000FF"
      fill-opacity="1.000000"
      fill-rule="nonzero"
      points="560.32,149.24 560.32,149.44 560.30,149.62 560.28,149.79 560.28,149.97 560.23,150.14 560.21,150.32 560.17,150.50 560.12,150.67 560.08,150.85 
      560.01,151.02 559.95,151.20 559.88,151.37 559.81,151.55 559.73,151.70 559.66,151.88 559.55,152.06 559.46,152.21 559.37,152.36 559.27,152.54 
      559.16,152.69 559.02,152.85 558.91,153.00 558.78,153.15 558.65,153.31 558.52,153.46 558.36,153.59 558.23,153.75 558.08,153.88 557.92,154.01 
      557.75,154.14 557.60,154.27 557.42,154.41 557.24,154.54 557.07,154.65 556.89,154.78 556.69,154.89 556.52,155.00 556.32,155.11 556.12,155.20 
      555.93,155.31 555.73,155.40 555.51,155.51 555.31,155.59 555.09,155.68 554.87,155.75 554.67,155.83 554.45,155.90 554.21,155.97 553.99,156.03 
      553.77,156.10 553.55,156.16 553.31,156.21 553.07,156.25 552.85,156.30 552.61,156.34 552.37,156.38 552.15,156.41 551.90,156.43 551.66,156.45 
      551.42,156.47 551.18,156.49 550.94,156.49 550.70,156.49 550.45,156.49 550.21,156.49 549.97,156.49 549.73,156.47 549.51,156.45 549.27,156.43 
      549.03,156.41 548.78,156.38 548.54,156.34 548.32,156.30 548.08,156.25 547.84,156.21 547.62,156.16 547.40,156.10 547.16,156.03 546.94,155.97 
      546.72,155.90 546.50,155.83 546.28,155.75 546.06,155.68 545.86,155.59 545.64,155.51 545.44,155.40 545.22,155.31 545.03,155.20 544.83,155.11 
      544.65,155.00 544.46,154.89 544.28,154.78 544.08,154.65 543.91,154.54 543.73,154.41 543.58,154.27 543.40,154.14 543.25,154.01 543.09,153.88 
      542.94,153.75 542.79,153.59 542.65,153.46 542.52,153.31 542.39,153.15 542.26,153.00 542.13,152.85 542.02,152.69 541.91,152.54 541.80,152.36 
      541.69,152.21 541.60,152.06 541.51,151.88 541.42,151.70 541.33,151.55 541.27,151.37 541.20,151.20 541.14,151.02 541.09,150.85 541.03,150.67 
      540.98,150.50 540.96,150.32 540.92,150.14 540.90,149.97 540.87,149.79 540.85,149.62 540.85,149.44 540.85,149.24 540.85,149.07 540.85,148.89 
      540.87,148.72 540.90,148.54 540.92,148.36 540.96,148.19 540.98,148.01 541.03,147.84 541.09,147.66 541.14,147.48 541.20,147.31 541.27,147.13 
      541.33,146.96 541.42,146.80 541.51,146.63 541.60,146.45 541.69,146.30 541.80,146.12 541.91,145.97 542.02,145.81 542.13,145.66 542.26,145.51 
      542.39,145.35 542.52,145.20 542.65,145.05 542.79,144.91 542.94,144.76 543.09,144.63 543.25,144.50 543.40,144.36 543.58,144.23 543.73,144.10 
      543.91,143.97 544.08,143.86 544.28,143.73 544.46,143.62 544.65,143.51 544.83,143.40 545.03,143.29 545.22,143.20 545.44,143.11 545.64,143.00 
      545.86,142.91 546.06,142.83 546.28,142.76 546.50,142.67 546.72,142.61 546.94,142.54 547.16,142.48 547.40,142.41 547.62,142.34 547.84,142.30 
      548.08,142.26 548.32,142.21 548.54,142.17 548.78,142.12 549.03,142.10 549.27,142.08 549.51,142.06 549.73,142.04 549.97,142.01 550.21,142.01 
      550.45,142.01 550.70,142.01 550.94,142.01 551.18,142.01 551.42,142.04 551.66,142.06 551.90,142.08 552.15,142.10 552.37,142.12 552.61,142.17 
      552.85,142.21 553.07,142.26 553.31,142.30 553.55,142.34 553.77,142.41 553.99,142.48 554.21,142.54 554.45,142.61 554.67,142.67 554.87,142.76 
      555.09,142.83 555.31,142.91 555.51,143.00 555.73,143.11 555.93,143.20 556.12,143.29 556.32,143.40 556.52,143.51 556.69,143.62 556.89,143.73 
      557.07,143.86 557.24,143.97 557.42,144.10 557.60,144.23 557.75,144.36 557.92,144.50 558.08,144.63 558.23,144.76 558.36,144.91 558.52,145.05 
      558.65,145.20 558.78,145.35 558.91,145.51 559.02,145.66 559.16,145.81 559.27,145.97 559.37,146.12 559.46,146.30 559.55,146.45 559.66,146.63 
      559.73,146.80 559.81,146.96 559.88,147.13 559.95,147.31 560.01,147.48 560.08,147.66 560.12,147.84 560.17,148.01 560.21,148.19 560.23,148.36 
      560.28,148.54 560.28,148.72 560.30,148.89 560.32,149.07 560.32,149.24 "/>
    <g
      clip-path="url(#text-clipping7)"
      >
      <text
        dominant-baseline="no-change"
        fill="#000000"
        fill-opacity="1.000000"
        xml:space="preserve"
        font-size="16"
        transform="matrix(1.000000 0.000000 0.000000 -1.000000 378.908048 502.200385)"
        text-anchor="middle"
        x="0.000000"
        y="6.451584"
><tspan font-family="sans-serif" font-style="normal" font-weight="normal">&#x47;&#x72;&#x61;&#x70;&#x68;&#x65;&#x20;&#x4d;&#x61;&#x72;&#x63;&#x68;&#x65;&#x20;&#x32;&#x44;</tspan></text>
    </g>
  </g>
</svg>
