<?xml version="1.0" encoding="UTF-8"?>
<!DOCTYPE svg PUBLIC "-//W3C//DTD SVG 1.1//EN"
        "http://www.w3.org/Graphics/SVG/1.1/DTD/svg11.dtd">
<svg
  xmlns="http://www.w3.org/2000/svg"
  xmlns:xlink="http://www.w3.org/1999/xlink"
  version="1.1"
  width="720pt"
  height="540pt"
  viewBox="0 0 720 540"
  >
  <rect
    x="0"
    y="0"
    width="720"
    height="540"
    stroke="none"
    fill="#FFFFFF"
    fill-opacity="1.000000"
    />
  <g
    transform="matrix(1 0 0 -1 0 540)"
    >
    <polyline
      stroke-width="1.000000e+00"
      stroke="#000000"
      stroke-opacity="1.000000"
      fill="none"
      points="100.79,269.99 657.00,269.99"
      />
    <polyline
      stroke-width="1.000000e+00"
      stroke="#000000"
      stroke-opacity="1.000000"
      fill="none"
      points="100.79,260.54 100.79,279.43"
      />
    <polyline
      stroke-width="1.000000e+00"
      stroke="#000000"
      stroke-opacity="1.000000"
      fill="none"
      points="239.84,260.54 239.84,279.43"
      />
    <polyline
      stroke-width="1.000000e+00"
      stroke="#000000"
      stroke-opacity="1.000000"
      fill="none"
      points="378.89,260.54 378.89,279.43"
      />
    <polyline
      stroke-width="1.000000e+00"
      stroke="#000000"
      stroke-opacity="1.000000"
      fill="none"
      points="517.93,260.54 517.93,279.43"
      />
    <polyline
      stroke-width="1.000000e+00"
      stroke="#000000"
      stroke-opacity="1.000000"
      fill="none"
      points="656.98,260.54 656.98,279.43"
      />
    <polyline
      stroke-width="1.000000e+00"
      stroke="#000000"
      stroke-opacity="1.000000"
      fill="none"
      points="378.89,63.00 378.89,477.00"
      />
    <polyline
      stroke-width="1.000000e+00"
      stroke="#000000"
      stroke-opacity="1.000000"
      fill="none"
      points="369.44,63.00 388.33,63.00"
      />
    <polyline
      stroke-width="1.000000e+00"
      stroke="#000000"
      stroke-opacity="1.000000"
      fill="none"
      points="369.44,166.49 388.33,166.49"
      />
    <polyline
      stroke-width="1.000000e+00"
      stroke="#000000"
      stroke-opacity="1.000000"
      fill="none"
      points="369.44,269.99 388.33,269.99"
      />
    <polyline
      stroke-width="1.000000e+00"
      stroke="#000000"
      stroke-opacity="1.000000"
      fill="none"
      points="369.44,373.48 388.33,373.48"
      />
    <polyline
      stroke-width="1.000000e+00"
      stroke="#000000"
      stroke-opacity="1.000000"
      fill="none"
      points="369.44,477.00 388.33,477.00"
      />
    <g
      clip-path="url(#text-clipping5)"
      >
      <text
        dominant-baseline="no-change"
        fill="#000000"
        fill-opacity="1.000000"
        xml:space="preserve"
        font-size="16"
        transform="matrix(1.000000 0.000000 0.000000 -1.000000 100.813623 44.100467)"
        text-anchor="middle"
        x="0.000000"
        y="6.451584"
><tspan font-family="sans-serif" font-style="normal" font-weight="normal">&#x2d;&#x32;&#x30;</tspan></text>
    </g>
    <g
      clip-path="url(#text-clipping5)"
      >
      <text
        dominant-baseline="no-change"
        fill="#000000"
        fill-opacity="1.000000"
        xml:space="preserve"
        font-size="16"
        transform="matrix(1.000000 0.000000 0.000000 -1.000000 239.860836 44.100467)"
        text-anchor="middle"
        x="0.000000"
        y="6.451584"
><tspan font-family="sans-serif" font-style="normal" font-weight="normal">&#x2d;&#x31;&#x30;</tspan></text>
    </g>
    <g
      clip-path="url(#text-clipping5)"
      >
      <text
        dominant-baseline="no-change"
        fill="#000000"
        fill-opacity="1.000000"
        xml:space="preserve"
        font-size="16"
        transform="matrix(1.000000 0.000000 0.000000 -1.000000 378.908048 44.100467)"
        text-anchor="middle"
        x="0.000000"
        y="6.451584"
><tspan font-family="sans-serif" font-style="normal" font-weight="normal">&#x30;</tspan></text>
    </g>
    <g
      clip-path="url(#text-clipping5)"
      >
      <text
        dominant-baseline="no-change"
        fill="#000000"
        fill-opacity="1.000000"
        xml:space="preserve"
        font-size="16"
        transform="matrix(1.000000 0.000000 0.000000 -1.000000 517.955260 44.100467)"
        text-anchor="middle"
        x="0.000000"
        y="6.451584"
><tspan font-family="sans-serif" font-style="normal" font-weight="normal">&#x31;&#x30;</tspan></text>
    </g>
    <g
      clip-path="url(#text-clipping5)"
      >
      <text
        dominant-baseline="no-change"
        fill="#000000"
        fill-opacity="1.000000"
        xml:space="preserve"
        font-size="16"
        transform="matrix(1.000000 0.000000 0.000000 -1.000000 657.002472 44.100467)"
        text-anchor="middle"
        x="0.000000"
        y="6.451584"
><tspan font-family="sans-serif" font-style="normal" font-weight="normal">&#x32;&#x30;</tspan></text>
    </g>
    <g
      clip-path="url(#text-clipping5)"
      >
      <text
        dominant-baseline="no-change"
        fill="#000000"
        fill-opacity="1.000000"
        xml:space="preserve"
        font-size="16"
        transform="matrix(1.000000 0.000000 0.000000 -1.000000 94.507279 62.997528)"
        text-anchor="end"
        x="0.000000"
        y="6.451584"
><tspan font-family="sans-serif" font-style="normal" font-weight="normal">&#x2d;&#x32;&#x30;</tspan></text>
    </g>
    <g
      clip-path="url(#text-clipping5)"
      >
      <text
        dominant-baseline="no-change"
        fill="#000000"
        fill-opacity="1.000000"
        xml:space="preserve"
        font-size="16"
        transform="matrix(1.000000 0.000000 0.000000 -1.000000 94.507279 166.491897)"
        text-anchor="end"
        x="0.000000"
        y="6.451584"
><tspan font-family="sans-serif" font-style="normal" font-weight="normal">&#x2d;&#x31;&#x30;</tspan></text>
    </g>
    <g
      clip-path="url(#text-clipping5)"
      >
      <text
        dominant-baseline="no-change"
        fill="#000000"
        fill-opacity="1.000000"
        xml:space="preserve"
        font-size="16"
        transform="matrix(1.000000 0.000000 0.000000 -1.000000 94.507279 270.008240)"
        text-anchor="end"
        x="0.000000"
        y="6.451584"
><tspan font-family="sans-serif" font-style="normal" font-weight="normal">&#x30;</tspan></text>
    </g>
    <g
      clip-path="url(#text-clipping5)"
      >
      <text
        dominant-baseline="no-change"
        fill="#000000"
        fill-opacity="1.000000"
        xml:space="preserve"
        font-size="16"
        transform="matrix(1.000000 0.000000 0.000000 -1.000000 94.507279 373.502609)"
        text-anchor="end"
        x="0.000000"
        y="6.451584"
><tspan font-family="sans-serif" font-style="normal" font-weight="normal">&#x31;&#x30;</tspan></text>
    </g>
    <g
      clip-path="url(#text-clipping5)"
      >
      <text
        dominant-baseline="no-change"
        fill="#000000"
        fill-opacity="1.000000"
        xml:space="preserve"
        font-size="16"
        transform="matrix(1.000000 0.000000 0.000000 -1.000000 94.507279 476.996979)"
        text-anchor="end"
        x="0.000000"
        y="6.451584"
><tspan font-family="sans-serif" font-style="normal" font-weight="normal">&#x32;&#x30;</tspan></text>
    </g>
    <polyline
      stroke-width="1.000000e+00"
      stroke="#0000FF"
      stroke-opacity="1.000000"
      fill="none"
      points="378.89,269.99 392.80,269.99 392.80,259.64 406.70,259.64 420.61,259.64 434.50,259.64 434.50,269.99 420.61,269.99 420.61,280.34 406.70,280.34 
      406.70,290.69 392.80,290.69 378.89,290.69 378.89,301.03 378.89,290.69 392.80,290.69 392.80,301.03 378.89,301.03 392.80,301.03 392.80,311.38 
      392.80,321.73 392.80,332.08 406.70,332.08 406.70,321.73 420.61,321.73 420.61,332.08 434.50,332.08 420.61,332.08 406.70,332.08 392.80,332.08 
      392.80,342.43 406.70,342.43 392.80,342.43 392.80,352.78 406.70,352.78 392.80,352.78 378.89,352.78 392.80,352.78 392.80,342.43 392.80,332.08 
      392.80,321.73 406.70,321.73 406.70,332.08 392.80,332.08 406.70,332.08 406.70,342.43 406.70,352.78 420.61,352.78 406.70,352.78 420.61,352.78 
      420.61,363.13 420.61,373.48 406.70,373.48 406.70,363.13 406.70,352.78 406.70,363.13 406.70,373.48 406.70,383.83 406.70,373.48 392.80,373.48 
      392.80,363.13 378.89,363.13 378.89,352.78 364.98,352.78 364.98,342.43 364.98,332.08 364.98,321.73 351.09,321.73 351.09,311.38 351.09,301.03 
      351.09,290.69 351.09,301.03 337.18,301.03 337.18,290.69 337.18,280.34 323.27,280.34 337.18,280.34 351.09,280.34 337.18,280.34 337.18,269.99 
      351.09,269.99 351.09,259.64 351.09,249.29 351.09,238.94 351.09,249.29 351.09,259.64 351.09,269.99 337.18,269.99 323.27,269.99 337.18,269.99 
      351.09,269.99 351.09,259.64 351.09,269.99 337.18,269.99 337.18,280.34 351.09,280.34 364.98,280.34 364.98,269.99 364.98,280.34 351.09,280.34 
      337.18,280.34 337.18,269.99 323.27,269.99 323.27,259.64 323.27,249.29 323.27,238.94 323.27,249.29 323.27,259.64 323.27,269.99 323.27,280.34 
      309.36,280.34 309.36,290.69 309.36,301.03 309.36,290.69 309.36,280.34 323.27,280.34 309.36,280.34 295.45,280.34 281.54,280.34 281.54,290.69 
      267.66,290.69 267.66,301.03 267.66,290.69 281.54,290.69 267.66,290.69 267.66,301.03 281.54,301.03 281.54,311.38 295.45,311.38 295.45,301.03 
      281.54,301.03 281.54,290.69 295.45,290.69 309.36,290.69 309.36,280.34 309.36,290.69 323.27,290.69 337.18,290.69 351.09,290.69 364.98,290.69 
      364.98,280.34 351.09,280.34 364.98,280.34 364.98,290.69 364.98,280.34 364.98,269.99 364.98,280.34 351.09,280.34 351.09,290.69 351.09,280.34 
      351.09,269.99 351.09,259.64 337.18,259.64 351.09,259.64 364.98,259.64 351.09,259.64 351.09,269.99 337.18,269.99 337.18,259.64 351.09,259.64 
      337.18,259.64 337.18,269.99 323.27,269.99 323.27,259.64 323.27,249.29 337.18,249.29 351.09,249.29 364.98,249.29 378.89,249.29 378.89,259.64 
      392.80,259.64 392.80,269.99 392.80,259.64 392.80,269.99 378.89,269.99 364.98,269.99 351.09,269.99 351.09,259.64 364.98,259.64 378.89,259.64 
      392.80,259.64 406.70,259.64 406.70,269.99 420.61,269.99 406.70,269.99 406.70,259.64 420.61,259.64 406.70,259.64 392.80,259.64 392.80,269.99 
      406.70,269.99 392.80,269.99 392.80,280.34 392.80,290.69 378.89,290.69 378.89,280.34 364.98,280.34 364.98,290.69 351.09,290.69 351.09,301.03 
      "/>
    <polyline
      stroke-width="1.000000e+00"
      stroke="#0000FF"
      stroke-opacity="1.000000"
      fill="#0000FF"
      fill-opacity="1.000000"
      fill-rule="nonzero"
      points="360.80,301.03 360.80,301.21 360.80,301.41 360.78,301.58 360.76,301.76 360.74,301.94 360.71,302.11 360.67,302.29 360.63,302.46 360.58,302.64 
      360.52,302.81 360.45,302.99 360.38,303.17 360.32,303.34 360.23,303.50 360.14,303.67 360.05,303.83 359.97,304.00 359.86,304.15 359.75,304.33 
      359.64,304.48 359.53,304.64 359.42,304.79 359.29,304.95 359.15,305.10 359.00,305.23 358.87,305.39 358.71,305.54 358.56,305.67 358.41,305.80 
      358.25,305.93 358.10,306.07 357.92,306.20 357.75,306.33 357.57,306.44 357.40,306.55 357.20,306.68 357.02,306.79 356.82,306.90 356.63,306.99 
      356.43,307.10 356.23,307.19 356.01,307.28 355.81,307.38 355.59,307.45 355.37,307.54 355.15,307.63 354.94,307.69 354.72,307.76 354.50,307.82 
      354.28,307.89 354.03,307.93 353.81,308.00 353.57,308.04 353.35,308.09 353.11,308.13 352.87,308.15 352.63,308.20 352.41,308.22 352.17,308.24 
      351.92,308.26 351.68,308.26 351.44,308.29 351.20,308.29 350.96,308.29 350.72,308.29 350.47,308.26 350.23,308.26 349.99,308.24 349.75,308.22 
      349.53,308.20 349.29,308.15 349.05,308.13 348.80,308.09 348.58,308.04 348.34,308.00 348.12,307.93 347.88,307.89 347.66,307.82 347.44,307.76 
      347.22,307.69 347.00,307.63 346.78,307.54 346.56,307.45 346.34,307.38 346.15,307.28 345.95,307.19 345.73,307.10 345.53,306.99 345.33,306.90 
      345.16,306.79 344.96,306.68 344.76,306.55 344.59,306.44 344.41,306.33 344.23,306.20 344.08,306.07 343.90,305.93 343.75,305.80 343.60,305.67 
      343.44,305.54 343.29,305.39 343.16,305.23 343.00,305.10 342.87,304.95 342.76,304.79 342.63,304.64 342.52,304.48 342.41,304.33 342.30,304.15 
      342.19,304.00 342.10,303.83 342.01,303.67 341.93,303.50 341.84,303.34 341.77,303.17 341.71,302.99 341.64,302.81 341.58,302.64 341.53,302.46 
      341.49,302.29 341.44,302.11 341.42,301.94 341.40,301.76 341.38,301.58 341.36,301.41 341.36,301.21 341.36,301.03 341.36,300.86 341.36,300.68 
      341.38,300.51 341.40,300.33 341.42,300.16 341.44,299.98 341.49,299.78 341.53,299.61 341.58,299.45 341.64,299.28 341.71,299.10 341.77,298.93 
      341.84,298.75 341.93,298.57 342.01,298.42 342.10,298.24 342.19,298.09 342.30,297.91 342.41,297.76 342.52,297.61 342.63,297.45 342.76,297.30 
      342.87,297.15 343.00,296.99 343.16,296.84 343.29,296.71 343.44,296.55 343.60,296.42 343.75,296.29 343.90,296.13 344.08,296.02 344.23,295.89 
      344.41,295.76 344.59,295.65 344.76,295.52 344.96,295.41 345.16,295.30 345.33,295.19 345.53,295.08 345.73,294.99 345.95,294.88 346.15,294.79 
      346.34,294.71 346.56,294.62 346.78,294.55 347.00,294.46 347.22,294.40 347.44,294.33 347.66,294.27 347.88,294.20 348.12,294.13 348.34,294.09 
      348.58,294.05 348.80,294.00 349.05,293.96 349.29,293.92 349.53,293.89 349.75,293.87 349.99,293.85 350.23,293.83 350.47,293.81 350.72,293.81 
      350.96,293.81 351.20,293.81 351.44,293.81 351.68,293.81 351.92,293.83 352.17,293.85 352.41,293.87 352.63,293.89 352.87,293.92 353.11,293.96 
      353.35,294.00 353.57,294.05 353.81,294.09 354.03,294.13 354.28,294.20 354.50,294.27 354.72,294.33 354.94,294.40 355.15,294.46 355.37,294.55 
      355.59,294.62 355.81,294.71 356.01,294.79 356.23,294.88 356.43,294.99 356.63,295.08 356.82,295.19 357.02,295.30 357.20,295.41 357.40,295.52 
      357.57,295.65 357.75,295.76 357.92,295.89 358.10,296.02 358.25,296.13 358.41,296.29 358.56,296.42 358.71,296.55 358.87,296.71 359.00,296.84 
      359.15,296.99 359.29,297.15 359.42,297.30 359.53,297.45 359.64,297.61 359.75,297.76 359.86,297.91 359.97,298.09 360.05,298.24 360.14,298.42 
      360.23,298.57 360.32,298.75 360.38,298.93 360.45,299.10 360.52,299.28 360.58,299.45 360.63,299.61 360.67,299.78 360.71,299.98 360.74,300.16 
      360.76,300.33 360.78,300.51 360.80,300.68 360.80,300.86 360.80,301.03 "/>
    <g
      clip-path="url(#text-clipping5)"
      >
      <text
        dominant-baseline="no-change"
        fill="#000000"
        fill-opacity="1.000000"
        xml:space="preserve"
        font-size="16"
        transform="matrix(1.000000 0.000000 0.000000 -1.000000 378.908048 502.200385)"
        text-anchor="middle"
        x="0.000000"
        y="6.451584"
><tspan font-family="sans-serif" font-style="normal" font-weight="normal">&#x47;&#x72;&#x61;&#x70;&#x68;&#x65;&#x20;&#x4d;&#x61;&#x72;&#x63;&#x68;&#x65;&#x20;&#x32;&#x44;</tspan></text>
    </g>
  </g>
</svg>
